<?xml version="1.0" standalone="no"?>
<!DOCTYPE svg PUBLIC "-//W3C//DTD SVG 20010904//EN"
 "http://www.w3.org/TR/2001/REC-SVG-20010904/DTD/svg10.dtd">
<svg version="1.0" xmlns="http://www.w3.org/2000/svg"
 width="135.000000pt" height="196.000000pt" viewBox="0 0 135.000000 196.000000"
 preserveAspectRatio="xMidYMid meet">
<metadata>
Created by potrace 1.16, written by Peter Selinger 2001-2019
</metadata>
<g transform="translate(0.000000,196.000000) scale(0.100000,-0.100000)"
fill="#FF0000" stroke="none">
<path d="M17 1942 c-16 -17 -17 -98 -17 -965 0 -846 2 -947 16 -961 14 -14 87
-16 655 -16 422 0 647 4 660 10 19 10 19 32 19 965 0 854 -2 955 -16 969 -14
14 -87 16 -658 16 -610 0 -644 -1 -659 -18z m1301 -24 c9 -9 12 -231 12 -939
0 -830 -2 -929 -16 -943 -14 -14 -85 -16 -636 -16 -564 0 -623 2 -640 17 -17
15 -18 58 -18 943 0 707 3 929 12 938 17 17 1269 17 1286 0z"/>
<path d="M98 1913 c9 -3 12 -40 12 -133 0 -125 -8 -159 -29 -123 -9 16 -10 16
-11 -4 0 -19 6 -23 29 -23 17 0 31 6 35 16 3 9 6 71 6 139 0 89 3 125 13 128
6 3 -6 5 -28 5 -22 0 -34 -2 -27 -5z"/>
<path d="M470 1910 c243 -5 244 -5 157 -17 -85 -12 -90 -14 -147 -64 -33 -29
-60 -53 -60 -55 0 -1 16 -12 35 -24 20 -12 35 -30 35 -40 0 -10 5 -22 10 -25
16 -10 12 -35 -5 -29 -9 4 -15 0 -15 -7 -1 -19 -35 -59 -52 -59 -8 0 -9 -3 -3
-8 13 -9 19 -35 7 -28 -5 3 -17 -3 -27 -14 -10 -11 -30 -20 -45 -20 -15 0 -37
-10 -48 -22 -87 -91 -141 -160 -147 -188 -4 -19 -24 -49 -46 -70 l-38 -36 -4
135 c-1 75 -4 -187 -5 -581 l-2 -718 533 2 532 3 -527 2 -528 3 0 408 1 407
25 -77 c17 -52 36 -89 59 -114 32 -33 38 -36 76 -31 56 7 93 -8 115 -48 10
-18 29 -39 42 -47 13 -7 37 -31 53 -55 28 -41 51 -52 154 -76 18 -4 18 -5 -2
-6 -25 -1 -36 -15 -39 -50 -2 -14 -8 -27 -14 -29 -5 -2 -9 -16 -9 -30 2 -25 2
-25 6 -4 4 18 8 21 18 12 9 -8 15 -8 20 0 3 5 1 10 -4 10 -6 0 -11 5 -11 10 0
6 7 10 15 10 14 0 14 2 0 23 -19 30 -12 37 39 37 34 0 37 2 23 13 -11 8 -15
20 -11 34 5 20 13 23 53 23 42 0 51 -4 86 -41 22 -23 32 -39 23 -36 -23 8 -52
-21 -38 -38 7 -9 6 -16 -4 -24 -10 -9 -16 -9 -21 -1 -12 20 -55 -30 -55 -64 0
-17 -6 -43 -14 -58 -11 -20 -11 -28 -3 -32 7 -2 -11 -5 -39 -5 -44 -1 -53 -5
-72 -31 -12 -16 -22 -33 -22 -38 0 -5 20 -17 45 -27 42 -15 55 -16 148 -4 101
14 102 14 157 63 30 27 56 52 58 56 1 3 -11 14 -28 23 -17 10 -37 34 -45 54
-19 44 -19 47 0 39 9 -3 15 0 15 7 0 7 14 28 31 45 24 24 27 32 14 32 -29 0
36 47 83 59 25 7 49 22 59 38 10 14 41 49 69 78 32 33 55 66 59 86 4 21 23 49
46 70 l38 36 4 -131 c1 -72 4 190 5 582 l2 712 -532 -2 c-398 -2 -471 -4 -288
-8z m809 -402 c-1 -222 -3 -394 -6 -383 -26 115 -92 207 -146 204 -7 0 -2 -4
11 -9 19 -8 22 -17 22 -65 0 -30 -3 -54 -7 -54 -22 4 -28 -4 -28 -31 -1 -20 3
-29 12 -26 24 9 2 -21 -42 -58 -38 -31 -48 -35 -65 -26 -11 6 -20 13 -20 16 0
7 77 152 93 175 8 10 16 17 18 14 3 -2 6 7 7 21 1 15 -2 23 -8 19 -6 -3 -10
-1 -10 4 0 6 -14 11 -31 11 -21 0 -37 8 -52 26 -12 15 -46 50 -74 79 -29 28
-53 57 -53 63 0 17 -53 41 -105 49 -25 3 -45 10 -45 14 0 5 -6 9 -14 9 -9 0
-12 -7 -9 -19 6 -25 -23 -51 -59 -51 -21 0 -43 11 -72 37 -48 43 -54 53 -28
47 25 -7 49 21 33 40 -14 17 1 31 23 23 21 -8 53 34 59 78 13 83 10 80 58 80
34 0 44 -4 47 -17 3 -14 -4 -18 -31 -18 -20 0 -40 -7 -48 -17 -12 -14 -12 -16
1 -8 8 5 30 11 50 15 29 4 35 10 36 31 1 15 8 37 17 50 24 33 22 38 -25 59
l-43 19 268 0 267 1 -1 -402z m-625 201 c4 -8 0 -5 -8 5 -9 11 -16 31 -15 45
1 24 2 24 8 -5 4 -17 11 -37 15 -45z m-32 33 c2 -17 -1 -29 -7 -29 -6 0 -9 12
-7 29 2 15 5 28 7 28 2 0 5 -13 7 -28z m-65 -4 c0 -7 3 -24 7 -38 7 -24 6 -24
-8 -6 -11 13 -16 15 -16 6 0 -7 -2 -11 -5 -8 -6 5 11 58 18 58 2 0 4 -6 4 -12z
m30 -20 c-3 -8 -6 -5 -6 6 -1 11 2 17 5 13 3 -3 4 -12 1 -19z m44 -35 c13 -16
12 -17 -3 -4 -10 7 -18 15 -18 17 0 8 8 3 21 -13z m-31 -27 c0 -2 -8 -10 -17
-17 -16 -13 -17 -12 -4 4 13 16 21 21 21 13z m-47 -21 c-3 -9 -8 -14 -10 -11
-3 3 -2 9 2 15 9 16 15 13 8 -4z m135 -201 c6 3 13 2 16 -2 3 -5 -4 -9 -16 -8
-12 0 -23 8 -25 16 -4 12 -3 13 5 1 5 -7 14 -11 20 -7z m12 -34 c0 -5 -4 -10
-10 -10 -5 0 -10 5 -10 10 0 6 5 10 10 10 6 0 10 -4 10 -10z m260 -16 c0 -14
-21 -19 -33 -7 -9 9 13 34 24 27 5 -3 9 -12 9 -20z m-552 -19 c-6 -13 -15 -22
-20 -19 -5 3 -8 0 -7 -7 4 -22 -11 -60 -22 -54 -5 3 -6 -1 -3 -9 3 -9 1 -16
-5 -16 -17 0 -13 37 4 44 8 3 15 17 15 31 0 16 6 25 15 25 8 0 15 7 15 15 0 8
4 15 10 15 6 0 5 -10 -2 -25z m526 -26 c-3 -5 4 -9 15 -9 12 0 21 -4 21 -10 0
-13 -10 -13 -43 3 -26 12 -34 27 -20 40 9 9 34 -13 27 -24z m-310 -105 c4 -42
5 -78 3 -81 -3 -2 -10 33 -16 78 -7 44 -15 88 -18 97 -4 15 -3 15 10 -1 8 -9
17 -51 21 -93z m286 71 c0 -8 7 -15 16 -15 8 0 12 -5 8 -11 -4 -8 -9 -8 -17 0
-6 6 -19 11 -29 11 -10 0 -18 7 -18 15 0 8 9 15 20 15 11 0 20 -7 20 -15z
m120 -5 c0 -5 -4 -10 -9 -10 -6 0 -13 5 -16 10 -3 6 1 10 9 10 9 0 16 -4 16
-10z m-382 -46 c-3 -27 -4 -26 -9 8 -3 22 -1 34 4 29 5 -5 7 -21 5 -37z m-267
9 c-12 -20 -14 -14 -5 12 4 9 9 14 11 11 3 -2 0 -13 -6 -23z m709 6 c0 -6 -4
-7 -10 -4 -5 3 -10 11 -10 16 0 6 5 7 10 4 6 -3 10 -11 10 -16z m-210 -4 c0
-8 -6 -15 -14 -15 -17 0 -28 14 -19 24 12 12 33 6 33 -9z m95 5 c3 -5 1 -10
-4 -10 -6 0 -11 5 -11 10 0 6 2 10 4 10 3 0 8 -4 11 -10z m61 -28 c-10 -2 -26
3 -35 12 -15 15 -13 16 19 4 26 -9 30 -13 16 -16z m-356 -43 c0 -40 -3 -49
-17 -48 -11 0 -13 3 -5 6 14 5 17 43 3 43 -5 0 -12 -6 -14 -12 -3 -7 -6 -3 -6
9 -1 17 3 21 15 16 14 -5 16 -2 10 21 -4 18 -3 25 4 21 5 -3 10 -28 10 -56z
m175 31 c4 -6 12 -7 18 -4 7 4 8 3 4 -1 -15 -17 -57 -17 -57 0 0 17 25 21 35
5z m206 -13 c-10 -9 -11 -8 -5 6 3 10 9 15 12 12 3 -3 0 -11 -7 -18z m116 -9
c-3 -7 -5 -2 -5 12 0 14 2 19 5 13 2 -7 2 -19 0 -25z m-441 -44 c9 3 12 1 9
-4 -3 -6 -13 -10 -21 -10 -10 0 -14 11 -12 38 l1 37 4 -33 c3 -25 8 -32 19
-28z m-280 -50 c-12 -37 -13 -38 -24 -17 -15 27 -15 58 -1 85 12 21 12 21 25
-4 11 -22 11 -32 0 -64z m374 72 c0 -8 -4 -17 -8 -20 -13 -8 -35 11 -28 23 10
16 36 14 36 -3z m-27 -33 c9 -9 -13 -34 -24 -27 -14 8 -11 34 4 34 8 0 17 -3
20 -7z m-503 -23 c-6 -11 -14 -19 -18 -16 -4 2 -8 -3 -9 -12 -2 -28 -56 -152
-66 -152 -5 0 -4 6 2 14 6 7 9 20 6 28 -3 8 1 20 9 27 7 6 12 20 9 30 -2 9 3
23 11 30 9 8 16 21 16 30 0 13 15 26 48 40 1 0 -2 -8 -8 -19z m80 10 c-12 -8
-11 -10 6 -10 20 0 44 -35 44 -65 0 -27 -54 -125 -69 -125 -11 0 -11 3 3 13
17 13 18 17 3 82 -9 38 -13 74 -9 79 4 6 7 14 8 19 1 4 2 9 3 12 0 3 7 5 14 5
8 0 7 -4 -3 -10z m396 -32 c4 -6 0 -16 -8 -22 -8 -6 -17 -19 -21 -28 -3 -10
-11 -18 -17 -18 -6 0 -9 -4 -6 -8 8 -13 -11 -35 -23 -28 -17 11 -13 36 5 36
11 0 14 5 10 16 -4 11 1 18 14 21 11 3 17 9 14 14 -6 11 4 29 16 29 5 0 12 -5
16 -12z m401 -10 c-3 -8 -6 -5 -6 6 -1 11 2 17 5 13 3 -3 4 -12 1 -19z m-511
-34 c8 3 14 -1 14 -9 0 -8 -6 -14 -12 -12 -9 1 -12 -8 -10 -25 1 -14 -2 -29
-8 -33 -6 -4 -10 14 -9 52 1 32 3 50 6 40 3 -11 11 -16 19 -13z m-39 -81 c-2
-21 -4 -6 -4 32 0 39 2 55 4 38 2 -18 2 -50 0 -70z m553 93 c0 -3 -4 -8 -10
-11 -5 -3 -10 -1 -10 4 0 6 5 11 10 11 6 0 10 -2 10 -4z m-845 -16 c3 -5 1
-10 -4 -10 -6 0 -11 5 -11 10 0 6 2 10 4 10 3 0 8 -4 11 -10z m768 -10 c-3
-11 -7 -20 -9 -20 -2 0 -4 9 -4 20 0 11 4 20 9 20 5 0 7 -9 4 -20z m-96 -35
c0 -8 -4 -12 -8 -9 -15 9 -20 -17 -9 -55 6 -22 11 -56 12 -76 1 -30 3 -33 17
-23 13 10 14 10 4 -2 -7 -7 -24 -14 -38 -16 -19 -2 -29 4 -40 26 -20 38 -19
45 7 99 32 68 55 92 55 56z m97 -11 c5 -14 4 -15 -9 -4 -17 14 -19 20 -6 20 5
0 12 -7 15 -16z m-408 -16 c4 -6 0 -16 -9 -23 -10 -7 -17 -20 -17 -29 0 -9 -6
-16 -14 -16 -8 0 -12 -9 -11 -25 3 -22 1 -23 -16 -15 -23 13 -25 28 -4 36 8 4
15 15 15 25 0 11 7 19 16 19 8 0 12 5 9 10 -7 12 2 30 15 30 5 0 12 -5 16 -12z
m449 -8 c3 -5 1 -10 -4 -10 -6 0 -11 5 -11 10 0 6 2 10 4 10 3 0 8 -4 11 -10z
m-780 -10 c-3 -5 -12 -10 -18 -10 -7 0 -6 4 3 10 19 12 23 12 15 0z m354 -42
c-1 -29 -3 -45 -6 -35 -6 24 -21 21 -26 -5 -3 -17 -5 -14 -6 9 -1 26 2 31 15
26 14 -5 16 -2 11 19 -6 22 -2 38 10 38 2 0 2 -24 2 -52z m-439 21 c0 -6 -4
-7 -10 -4 -5 3 -10 11 -10 16 0 6 5 7 10 4 6 -3 10 -11 10 -16z m860 -3 c-5
-5 -10 -21 -10 -35 -1 -21 -2 -23 -10 -10 -12 21 -2 56 16 56 10 0 11 -4 4
-11z m-801 -45 c12 -7 6 -25 -29 -93 -43 -81 -63 -111 -72 -103 -2 2 -5 -7 -6
-20 -1 -15 5 -25 16 -29 9 -2 4 -4 -13 -3 -30 2 -30 3 -32 62 -1 33 0 54 3 47
10 -23 34 8 33 42 0 17 -3 25 -6 19 -7 -20 -22 -15 -16 5 7 24 63 68 64 50 1
-7 2 -21 3 -30 2 -26 20 -23 27 4 7 27 0 50 -12 42 -5 -3 -9 0 -9 5 0 13 30
14 49 2z m763 -32 c-5 -20 -16 -35 -26 -37 -12 -3 -16 0 -11 7 3 6 11 9 16 5
6 -3 9 0 8 7 -4 17 11 62 17 56 3 -3 1 -20 -4 -38z m-484 -12 c2 -11 -3 -17
-13 -17 -12 0 -15 -5 -11 -16 4 -10 0 -18 -13 -21 -11 -3 -17 -11 -15 -18 7
-18 -15 -30 -29 -15 -9 9 -8 14 6 24 9 7 17 18 17 24 0 6 6 15 14 19 14 8 16
12 16 34 0 17 25 4 28 -14z m320 -2 c12 -25 -1 -85 -18 -85 -14 0 -22 40 -15
76 7 40 18 43 33 9z m-756 -27 c-6 -6 -7 0 -4 19 5 21 7 23 10 9 2 -10 0 -22
-6 -28z m532 -24 c12 -31 7 -54 -10 -47 -12 4 -15 1 -12 -13 2 -10 10 -18 16
-16 7 1 12 -5 12 -13 0 -13 -4 -14 -20 -5 -16 8 -20 21 -20 60 0 36 4 50 14
50 8 0 17 -7 20 -16z m40 -89 c7 -44 12 -82 11 -83 -10 -11 -23 44 -28 113 -6
90 -3 85 17 -30z m376 102 c0 -2 -10 -12 -22 -23 l-23 -19 19 23 c18 21 26 27
26 19z m-693 -53 c-3 -3 -12 -4 -19 -1 -8 3 -5 6 6 6 11 1 17 -2 13 -5z m-250
-66 c-2 -13 -4 -3 -4 22 0 25 2 35 4 23 2 -13 2 -33 0 -45z m353 36 c0 -14
-21 -19 -33 -7 -9 9 13 34 24 27 5 -3 9 -12 9 -20z m-373 -16 c-3 -7 -5 -2 -5
12 0 14 2 19 5 13 2 -7 2 -19 0 -25z m140 17 c0 -8 -4 -12 -9 -9 -5 3 -6 10
-3 15 9 13 12 11 12 -6z m58 -33 c-6 -7 -34 11 -29 19 3 5 11 3 19 -4 7 -6 12
-13 10 -15z m155 -3 c0 -12 -29 -24 -37 -16 -3 4 -3 13 0 21 6 16 37 11 37 -5z
m493 -6 c-7 -3 -13 -9 -13 -14 0 -6 6 -7 13 -4 6 4 4 0 -7 -9 -10 -8 -16 -22
-13 -30 4 -9 1 -18 -5 -22 -7 -4 -8 -3 -4 4 4 7 3 12 -3 12 -5 0 -12 -13 -16
-30 -4 -16 -11 -30 -16 -30 -9 0 1 30 27 83 22 43 36 59 43 51 3 -4 0 -9 -6
-11z m-723 -3 c0 -5 -4 -10 -10 -10 -5 0 -10 5 -10 10 0 6 5 10 10 10 6 0 10
-4 10 -10z m155 0 c3 -6 -4 -10 -17 -10 -18 0 -20 2 -8 10 19 12 18 12 25 0z
m-85 -30 c0 -5 -9 -6 -20 -3 -11 3 -17 9 -15 14 7 10 35 1 35 -11z m130 -5 c0
-8 -6 -15 -14 -15 -17 0 -28 14 -19 24 12 12 33 6 33 -9z m-70 -5 c12 -8 11
-10 -7 -10 -13 0 -23 5 -23 10 0 13 11 13 30 0z m620 6 c0 -2 -7 -7 -16 -10
-8 -3 -12 -2 -9 4 6 10 25 14 25 6z m-577 -41 c1 -5 -6 -11 -15 -13 -11 -2
-18 3 -18 13 0 17 30 18 33 0z m552 -14 c-3 -6 -11 -11 -16 -11 -5 0 -4 6 3
14 14 16 24 13 13 -3z m-575 -26 c0 -8 -9 -15 -20 -15 -11 0 -20 7 -20 15 0 8
9 15 20 15 11 0 20 -7 20 -15z m240 -5 c0 -5 -5 -10 -11 -10 -5 0 -7 5 -4 10
3 6 8 10 11 10 2 0 4 -4 4 -10z m280 -14 c0 -2 -7 -6 -15 -10 -8 -3 -15 -1
-15 4 0 6 7 10 15 10 8 0 15 -2 15 -4z m-258 -34 c-6 -16 -7 -16 -10 -1 -2 11
-10 15 -25 13 -21 -4 -21 -4 -2 4 27 12 45 4 37 -16z m138 -146 c0 -3 -4 -8
-10 -11 -5 -3 -10 -1 -10 4 0 6 5 11 10 11 6 0 10 -2 10 -4z m27 -22 c-3 -3
-12 -4 -19 -1 -8 3 -5 6 6 6 11 1 17 -2 13 -5z m-77 -24 c0 -5 -5 -10 -11 -10
-5 0 -7 5 -4 10 3 6 8 10 11 10 2 0 4 -4 4 -10z m-38 -105 c-5 -43 -9 -42 -13
5 -2 19 -8 42 -13 50 -7 10 -4 10 10 -2 15 -13 19 -26 16 -53z m69 46 c6 9 7
3 3 -16 -8 -36 -20 -52 -20 -27 0 9 -4 28 -8 42 -6 22 -5 23 5 6 9 -15 13 -16
20 -5z m-44 -33 c-3 -8 -6 -5 -6 6 -1 11 2 17 5 13 3 -3 4 -12 1 -19z m-49
-29 c-3 -20 -5 -19 -9 9 -3 20 -2 29 4 23 5 -5 7 -19 5 -32z"/>
<path d="M802 1725 c0 -16 2 -22 5 -12 2 9 2 23 0 30 -3 6 -5 -1 -5 -18z"/>
<path d="M738 1729 c-25 -14 -22 -26 7 -31 14 -3 25 -2 25 3 0 4 3 14 6 23 7
18 -12 21 -38 5z"/>
<path d="M811 1673 c0 -14 -7 -23 -17 -23 -9 0 -12 5 -8 12 4 7 3 8 -5 4 -9
-6 -9 -11 0 -22 8 -10 8 -14 0 -14 -15 0 -14 -13 2 -31 6 -8 11 -12 10 -10 -1
2 5 17 13 33 8 16 13 39 11 51 -4 22 -4 22 -6 0z"/>
<path d="M649 1603 c12 -24 49 -48 59 -39 3 3 0 6 -7 6 -6 0 -24 12 -38 28
-21 22 -24 23 -14 5z"/>
<path d="M1055 1128 c-11 -32 -9 -53 4 -53 8 0 15 7 16 15 2 8 4 21 6 29 5 18
-20 27 -26 9z"/>
<path d="M690 785 c0 -8 5 -15 10 -15 6 0 10 7 10 15 0 8 -4 15 -10 15 -5 0
-10 -7 -10 -15z"/>
<path d="M290 1830 c0 -5 -13 -25 -30 -43 -43 -50 -42 -112 2 -170 18 -23 34
-44 36 -47 2 -3 8 4 14 15 6 11 34 43 62 71 l52 51 -39 27 c-21 16 -50 46 -64
67 -26 40 -33 46 -33 29z"/>
<path d="M93 1570 l-22 -27 25 -24 25 -23 24 25 25 25 -27 26 -28 26 -22 -28z"/>
<path d="M1214 443 l-20 -26 24 -24 25 -25 24 25 25 24 -27 27 c-14 14 -27 26
-28 25 -1 0 -11 -12 -23 -26z"/>
<path d="M690 375 c13 -14 26 -25 28 -25 3 0 -5 11 -18 25 -13 14 -26 25 -28
25 -3 0 5 -11 18 -25z"/>
<path d="M1026 349 c-15 -22 -42 -50 -60 -61 l-31 -21 65 -66 65 -66 33 42
c26 34 32 51 32 90 -1 41 -6 54 -35 86 -20 20 -36 37 -38 37 -1 0 -15 -19 -31
-41z"/>
<path d="M1232 328 c-8 -8 -12 -52 -12 -140 0 -79 -4 -128 -10 -128 -5 0 -10
-4 -10 -10 0 -5 16 -10 35 -10 19 0 35 5 35 10 0 6 -4 10 -10 10 -14 0 -13
247 1 256 6 3 15 0 21 -7 7 -11 8 -9 6 6 -4 23 -38 31 -56 13z"/>
<path d="M552 245 c0 -16 2 -22 5 -12 2 9 2 23 0 30 -3 6 -5 -1 -5 -18z"/>
<path d="M576 229 c-10 -22 -15 -43 -12 -46 3 -4 6 1 6 11 0 12 6 15 23 11 15
-4 30 0 43 12 11 10 15 15 10 11 -6 -5 -19 -8 -30 -7 -20 0 -20 1 2 11 12 6
22 17 22 25 0 7 -10 13 -22 13 -17 0 -28 -11 -42 -41z"/>
</g>
</svg>
