<?xml version="1.0" standalone="no"?>
<!DOCTYPE svg PUBLIC "-//W3C//DTD SVG 20010904//EN"
 "http://www.w3.org/TR/2001/REC-SVG-20010904/DTD/svg10.dtd">
<svg version="1.0" xmlns="http://www.w3.org/2000/svg"
 width="135.000000pt" height="196.000000pt" viewBox="0 0 135.000000 196.000000"
 preserveAspectRatio="xMidYMid meet">
<metadata>
Created by potrace 1.16, written by Peter Selinger 2001-2019
</metadata>
<g transform="translate(0.000000,196.000000) scale(0.100000,-0.100000)"
fill="#FF0000" stroke="none">
<path d="M17 1942 c-16 -17 -17 -98 -17 -965 0 -846 2 -947 16 -961 14 -14 87
-16 655 -16 422 0 647 4 660 10 19 10 19 32 19 965 0 854 -2 955 -16 969 -14
14 -87 16 -658 16 -610 0 -644 -1 -659 -18z m65 -33 c-50 -53 -37 -193 20
-220 13 -6 28 -20 33 -32 14 -29 35 -34 35 -8 0 12 -6 21 -15 21 -8 0 -15 5
-15 10 0 6 4 10 10 10 24 0 42 63 38 133 -3 58 -8 73 -27 88 -23 19 -12 19
561 19 441 0 587 -3 596 -12 9 -9 12 -231 12 -939 0 -830 -2 -929 -16 -943
-14 -14 -85 -16 -636 -16 -564 0 -623 2 -640 17 -17 15 -18 58 -18 943 0 707
3 929 12 938 7 7 25 12 40 12 29 0 29 0 10 -21z m68 -35 c16 -48 8 -140 -14
-162 -16 -16 -18 -16 -32 2 -17 23 -19 147 -4 177 16 30 37 23 50 -17z"/>
<path d="M362 1913 l137 -4 3 -32 c2 -19 8 -31 16 -30 6 2 12 -2 12 -7 0 -13
-16 -13 -40 2 -27 17 -37 2 -15 -22 14 -16 16 -23 7 -32 -9 -9 -12 -9 -12 0 0
16 -31 15 -52 -2 -26 -19 -22 -25 22 -32 22 -4 43 -10 46 -15 3 -5 -18 -46
-46 -92 -30 -49 -53 -99 -55 -122 l-5 -40 13 45 c11 39 53 120 61 120 8 0 -13
-90 -27 -117 -9 -18 -17 -36 -17 -40 2 -20 49 85 50 109 0 42 36 129 71 171
49 60 129 92 167 68 9 -5 -8 -10 -44 -14 -62 -6 -110 -34 -108 -61 1 -9 -2
-14 -6 -11 -10 6 -42 -43 -36 -54 5 -8 -10 -76 -28 -126 l-7 -20 13 20 c7 11
20 22 28 23 8 2 12 0 8 -4 -4 -4 -3 -13 2 -19 7 -9 6 -25 -2 -51 -10 -28 -22
-41 -46 -51 -33 -13 -33 -13 -27 9 5 17 1 14 -14 -9 -18 -29 -36 -38 -63 -34
-15 2 -99 -92 -94 -106 3 -8 2 -11 -3 -8 -9 5 -41 -31 -41 -47 0 -4 16 2 36
13 26 14 40 17 47 10 8 -8 5 -11 -11 -11 -14 0 -22 -6 -22 -17 0 -15 -2 -15
-9 -4 -7 12 -13 12 -24 3 -7 -7 -16 -9 -19 -7 -8 9 -88 -124 -88 -146 0 -17
61 -71 92 -81 7 -3 1 -29 -16 -72 -18 -46 -26 -78 -21 -95 7 -32 7 -29 -1
-127 l-7 -81 48 -36 c26 -20 52 -34 56 -31 5 3 8 1 7 -5 -2 -5 4 -16 13 -23 9
-7 19 -28 23 -47 5 -27 3 -32 -9 -27 -8 3 -21 8 -28 11 -6 3 -18 -5 -26 -17
-12 -19 -11 -24 9 -40 20 -16 23 -16 46 -2 22 15 24 15 24 1 0 -9 -9 -32 -21
-52 -40 -68 9 -123 69 -78 39 29 39 58 3 92 -35 33 -40 47 -12 31 44 -23 81
-2 81 46 0 14 -8 16 -55 11 -53 -5 -55 -5 -55 19 0 24 0 24 26 7 24 -16 27
-16 36 0 14 25 33 21 63 -15 l27 -31 -8 37 c-6 36 -6 37 14 25 12 -7 26 -29
31 -49 l11 -35 -5 33 c-5 36 4 41 28 14 10 -11 17 -35 17 -60 0 -43 -26 -122
-40 -122 -11 0 -11 -77 1 -107 5 -14 14 -21 21 -17 6 4 8 3 5 -3 -10 -15 28
-58 63 -73 22 -9 30 -19 30 -37 0 -23 3 -25 30 -20 16 4 32 2 35 -3 4 -6 -116
-10 -329 -10 l-336 0 -3 712 -2 713 -3 -717 -2 -718 533 2 c292 1 470 4 395 5
l-138 4 0 35 c0 31 3 35 20 29 24 -8 28 16 5 35 -23 19 -18 31 9 24 25 -6 66
10 66 26 0 6 -15 10 -34 10 -53 0 -60 19 -27 72 38 59 53 88 47 88 -3 0 -12
-12 -21 -27 -16 -28 -16 -28 -12 21 3 30 2 43 -4 35 -5 -8 -9 -26 -9 -40 0
-31 -19 -90 -33 -104 -7 -7 -8 -6 -3 3 4 6 3 12 -2 12 -9 0 -7 21 11 90 4 14
4 19 1 12 -4 -8 -11 -6 -24 10 -18 23 -14 64 9 92 6 7 9 15 6 18 -3 3 3 11 12
19 17 13 17 12 4 -4 -13 -17 -12 -18 14 -11 24 6 27 4 22 -10 -17 -42 -15 -47
3 -9 19 39 25 45 46 42 4 0 11 5 15 13 7 10 9 10 9 0 0 -40 162 165 223 283
19 39 10 56 -48 91 -25 14 -45 27 -45 29 0 2 10 25 21 52 17 39 22 73 25 176
2 71 1 135 -4 143 -12 22 -74 64 -85 57 -6 -3 -7 -1 -4 4 4 6 -4 18 -18 27
-17 11 -25 26 -25 46 0 33 3 35 31 20 12 -7 19 -7 19 -1 0 6 -9 15 -21 21 -11
7 -19 14 -16 17 3 2 14 -1 26 -8 23 -15 36 -7 27 16 -8 22 -36 30 -58 16 -28
-18 -35 12 -9 45 38 48 23 94 -31 94 -29 0 -68 -33 -68 -58 0 -8 14 -27 31
-43 36 -34 34 -45 -6 -27 -25 11 -29 10 -46 -11 -39 -48 -12 -67 66 -47 22 6
25 3 25 -19 0 -29 -3 -30 -31 -12 -17 10 -22 9 -34 -7 -13 -18 -15 -18 -42 4
-15 12 -31 29 -35 38 -4 9 -5 0 -1 -22 5 -36 5 -38 -16 -27 -11 7 -21 19 -21
29 0 13 -2 14 -8 4 -10 -15 -42 -5 -42 13 0 7 -8 12 -17 11 -13 -1 -20 11 -26
47 -6 33 -14 47 -25 47 -12 0 -13 -3 -4 -12 19 -19 14 -25 -20 -31 -40 -5 -60
1 -51 17 3 6 3 8 -2 4 -4 -4 -15 -2 -24 5 -14 11 -14 10 -2 -6 19 -24 64 -47
91 -47 15 0 20 -5 18 -17 -4 -22 -87 -30 -129 -12 -30 12 -31 23 -8 87 12 30
11 72 0 72 -5 0 -11 7 -14 14 -4 10 -1 13 7 10 13 -5 30 44 27 77 -2 15 15 26
77 49 28 11 35 10 51 -4 9 -9 21 -13 25 -9 6 7 25 -14 26 -28 0 -3 -10 -11
-22 -18 l-23 -11 23 6 c12 3 22 1 22 -5 0 -6 -11 -11 -25 -11 -18 0 -25 -5
-25 -18 0 -13 7 -18 23 -18 30 1 34 -31 8 -89 -11 -25 -16 -43 -11 -40 6 4 11
-4 11 -17 1 -13 6 2 12 32 9 48 11 52 18 30 6 -19 7 -15 5 17 -2 23 1 40 6 37
4 -3 8 -4 9 -2 13 67 1 146 -21 133 -6 -4 -9 -3 -8 2 5 17 -23 51 -55 67 -23
10 -36 25 -39 41 l-5 25 303 0 304 0 3 -707 2 -708 3 713 2 712 -532 -2 c-293
-1 -471 -4 -396 -5z m223 -14 c11 -17 -1 -21 -15 -4 -8 9 -8 15 -2 15 6 0 14
-5 17 -11z m52 5 c-3 -3 -12 -4 -19 -1 -8 3 -5 6 6 6 11 1 17 -2 13 -5z m28
-91 c-11 -3 -23 -10 -27 -17 -5 -7 -8 -7 -8 0 0 16 11 24 34 23 20 -1 20 -1 1
-6z m-60 -23 c3 -6 -1 -7 -9 -4 -18 7 -21 14 -7 14 6 0 13 -4 16 -10z m-61
-66 c3 -8 2 -12 -4 -9 -6 3 -10 10 -10 16 0 14 7 11 14 -7z m3 -96 c-3 -8 -6
-5 -6 6 -1 11 2 17 5 13 3 -3 4 -12 1 -19z m140 -104 c-3 -3 -12 -4 -19 -1 -8
3 -5 6 6 6 11 1 17 -2 13 -5z m258 -4 c-3 -5 -10 -10 -16 -10 -5 0 -9 5 -9 10
0 6 7 10 16 10 8 0 12 -4 9 -10z m30 -30 c-3 -5 -22 -10 -41 -10 -46 0 -36 15
11 18 23 2 34 -1 30 -8z m-455 -41 c0 -4 6 -6 13 -4 19 7 38 -10 31 -28 -3 -9
-10 -15 -15 -12 -4 3 -6 12 -2 20 3 10 1 13 -9 10 -8 -3 -23 4 -33 15 -16 18
-17 20 -2 14 9 -3 17 -10 17 -15z m283 -78 c10 -17 13 -31 8 -31 -6 0 -11 6
-11 13 0 8 -3 7 -10 -3 -7 -11 -14 -3 -29 34 -12 26 -21 50 -21 54 0 11 45
-37 63 -67z m105 46 c9 -7 9 -13 1 -23 -10 -12 -14 -11 -25 3 -28 38 -15 50
24 20z m-309 1 c0 -7 -4 -22 -8 -32 -10 -26 -25 -3 -16 24 7 22 25 28 24 8z
m27 -44 c-4 -14 -11 -22 -15 -19 -5 3 -12 -1 -15 -7 -9 -21 6 35 17 62 9 21
11 22 14 7 3 -10 2 -30 -1 -43z m44 6 c0 -31 -3 -38 -15 -34 -15 6 -21 64 -9
77 14 13 24 -6 24 -43z m30 25 c5 -14 13 -38 17 -53 6 -25 5 -26 -11 -10 -17
18 -35 88 -22 88 4 0 11 -11 16 -25z m38 -2 c24 -67 24 -69 13 -53 -9 13 -11
13 -11 0 -1 -10 -4 -8 -9 5 -15 39 -21 75 -12 75 5 0 14 -12 19 -27z m238 16
c10 -17 -13 -36 -27 -22 -12 12 -4 33 11 33 5 0 12 -5 16 -11z m-599 -51 c-3
-7 -5 -2 -5 12 0 14 2 19 5 13 2 -7 2 -19 0 -25z m-57 -3 c-7 -9 -15 -13 -18
-10 -3 2 1 11 8 20 7 9 15 13 18 10 3 -2 -1 -11 -8 -20z m630 10 c0 -9 -6 -18
-14 -21 -8 -3 -13 -11 -10 -19 3 -7 -2 -15 -10 -18 -28 -11 -18 -35 17 -40 24
-3 22 -4 -11 -4 -48 1 -80 24 -45 33 14 4 19 12 16 25 -4 13 0 19 12 19 11 0
15 5 12 14 -7 16 1 26 20 26 7 0 13 -7 13 -15z m56 2 c9 3 14 -1 14 -12 0 -9
4 -14 9 -10 5 3 12 1 16 -5 4 -6 11 -8 16 -5 5 4 9 0 9 -9 0 -8 6 -16 12 -18
7 -3 2 -7 -10 -10 -12 -4 -20 -3 -18 1 7 11 -53 43 -66 35 -6 -4 -8 -3 -4 4 3
5 1 12 -6 14 -7 3 -8 9 -3 18 6 10 10 10 12 3 3 -7 11 -9 19 -6z m-126 -11 c0
-3 -4 -8 -10 -11 -5 -3 -10 -1 -10 4 0 6 5 11 10 11 6 0 10 -2 10 -4z m-540
-36 c0 -5 -9 -10 -21 -10 -11 0 -17 5 -14 10 3 6 13 10 21 10 8 0 14 -4 14
-10z m692 -44 c4 3 8 0 8 -6 0 -6 5 -8 10 -5 6 3 10 -2 10 -13 0 -28 -10 -32
-29 -14 -9 10 -27 24 -40 33 -15 9 -21 20 -17 27 5 8 13 6 28 -8 12 -11 25
-17 30 -14z m-365 -8 c-3 -8 -6 -5 -6 6 -1 11 2 17 5 13 3 -3 4 -12 1 -19z
m20 0 c-3 -8 -6 -5 -6 6 -1 11 2 17 5 13 3 -3 4 -12 1 -19z m46 15 c4 -3 0
-15 -10 -25 -9 -11 -11 -18 -5 -18 7 0 12 -5 12 -11 0 -22 -25 -1 -26 22 -2
35 11 50 29 32z m24 -25 c-3 -8 -6 -5 -6 6 -1 11 2 17 5 13 3 -3 4 -12 1 -19z
m118 -9 c4 -6 -2 -13 -13 -16 -14 -3 -18 -11 -15 -24 4 -13 0 -19 -10 -19 -23
0 -29 16 -12 30 8 7 15 19 15 26 0 16 26 19 35 3z m79 -84 c-3 -72 -1 -86 14
-94 9 -5 13 -13 9 -18 -5 -4 -15 1 -23 11 -17 24 -33 12 -17 -13 9 -14 9 -21
0 -30 -6 -6 -7 -11 -3 -11 5 0 2 -8 -5 -17 -11 -15 -10 -15 8 1 13 10 20 23
17 27 -6 11 7 12 21 1 16 -12 16 -32 0 -26 -10 4 -15 0 -15 -11 0 -9 -4 -14
-9 -10 -5 3 -11 -3 -13 -12 -2 -13 -9 -9 -25 18 -18 32 -20 45 -13 105 4 38
18 90 31 116 13 27 25 48 26 48 0 0 -1 -38 -3 -85z m66 44 c0 -5 5 -7 10 -4 6
3 10 -1 10 -9 0 -9 -5 -16 -11 -16 -5 0 -7 -6 -3 -12 4 -8 3 -10 -2 -5 -5 5
-9 14 -9 20 0 7 -7 12 -16 11 -9 -1 -16 5 -16 12 0 8 9 14 19 14 10 0 18 -5
18 -11z m-290 -3 c0 -11 -19 -15 -25 -6 -3 5 1 10 9 10 9 0 16 -2 16 -4z m180
-27 c0 -5 -4 -9 -10 -9 -5 0 -10 7 -10 16 0 8 5 12 10 9 6 -3 10 -10 10 -16z
m-86 -20 c-3 -5 -11 -9 -19 -9 -8 0 -11 -7 -8 -20 4 -14 0 -20 -12 -20 -12 0
-15 -5 -11 -16 4 -10 0 -18 -13 -21 -12 -3 -17 -11 -14 -19 3 -8 -2 -17 -11
-20 -9 -3 -14 -10 -11 -14 3 -5 -1 -14 -8 -22 -7 -7 -16 -21 -20 -31 -8 -20
-28 -19 -35 2 -2 7 5 15 16 18 14 3 18 11 15 24 -4 13 0 19 11 19 9 0 13 6 10
15 -4 8 1 17 10 21 9 3 16 13 16 20 0 8 7 17 15 20 8 4 12 11 8 17 -3 5 1 15
9 21 8 6 17 19 21 30 6 15 10 16 22 6 8 -7 12 -16 9 -21z m188 -12 c10 -4 10
-8 -2 -16 -16 -11 -33 -5 -25 10 4 5 1 9 -4 9 -6 0 -11 7 -11 16 0 14 2 14 15
1 8 -9 20 -18 27 -20z m-119 -8 c-3 -10 -12 -19 -20 -19 -12 0 -13 3 -4 13 8
10 7 17 -1 25 -8 8 -6 9 9 6 14 -4 19 -12 16 -25z m-29 -98 c9 -7 16 -18 16
-24 0 -12 -38 21 -50 43 -4 8 -10 29 -13 45 -5 25 -4 24 12 -10 10 -22 26 -46
35 -54z m-417 -76 c8 -17 8 -27 1 -32 -7 -4 -8 -1 -3 7 6 9 4 11 -5 5 -9 -6
-11 -4 -5 5 5 9 4 11 -4 6 -6 -4 -9 -11 -6 -16 8 -12 -24 -28 -46 -23 -14 4
-15 8 -6 18 14 15 31 9 21 -7 -4 -7 -2 -8 4 -4 6 4 9 13 6 21 -5 12 13 44 26
45 3 0 10 -11 17 -25z m228 -24 c3 -5 0 -13 -5 -16 -6 -4 -15 -18 -20 -31 -6
-15 -15 -22 -25 -18 -21 8 -19 25 4 31 13 3 17 11 14 24 -6 20 20 28 32 10z
m-210 -64 c-7 -64 -25 -127 -37 -127 -4 0 -8 -9 -8 -19 0 -11 -3 -22 -8 -24
-4 -3 -5 30 -4 72 3 61 1 81 -12 94 -20 20 -20 28 -1 21 8 -4 15 -13 15 -22 0
-12 3 -13 12 -4 8 8 8 15 0 25 -14 16 -1 32 28 34 19 2 20 -2 15 -50z m57 22
c10 -13 20 -40 23 -59 l5 -35 -15 40 c-8 21 -25 50 -38 63 -13 15 -16 23 -8
20 8 -2 23 -15 33 -29z m102 -38 c3 -5 -1 -14 -9 -21 -8 -7 -15 -19 -15 -26 0
-8 -10 -14 -21 -14 -18 0 -20 -2 -9 -16 11 -13 10 -16 -7 -20 -14 -4 -19 -12
-16 -25 4 -13 0 -19 -11 -19 -9 0 -16 -8 -16 -20 0 -11 -7 -20 -15 -20 -9 0
-12 -6 -9 -15 4 -8 -1 -17 -10 -21 -9 -3 -16 -15 -16 -25 0 -10 -6 -19 -14
-19 -8 0 -18 -5 -22 -12 -4 -7 -3 -8 4 -4 7 4 12 3 12 -3 0 -5 -6 -14 -13 -18
-8 -4 -17 -16 -20 -26 -4 -10 -11 -15 -17 -12 -15 9 -12 35 5 35 9 0 12 6 9
15 -4 8 1 17 10 21 9 3 16 15 16 25 0 10 7 19 15 19 9 0 12 6 9 15 -4 8 1 17
10 21 9 3 16 13 16 20 0 8 6 17 14 20 8 3 12 12 9 20 -3 8 0 14 6 14 6 0 19
18 28 40 11 24 24 40 34 40 12 0 16 6 12 20 -4 14 0 20 10 20 9 0 18 -4 21 -9z
m-136 -52 c-11 -7 -10 -11 2 -19 13 -8 12 -10 -2 -10 -10 0 -18 -7 -18 -16 0
-8 -4 -13 -9 -10 -14 9 11 74 27 68 11 -4 11 -6 0 -13z m-106 -4 c2 2 4 -5 5
-15 2 -24 1 -24 -25 -1 -27 23 -29 35 -3 22 10 -6 20 -8 23 -6z m268 -5 c0 -5
-4 -10 -10 -10 -5 0 -10 5 -10 10 0 6 5 10 10 10 6 0 10 -4 10 -10z m-295 -40
c-3 -5 3 -13 12 -19 16 -9 16 -10 -3 -11 -29 0 -53 28 -34 40 16 10 33 3 25
-10z m295 10 c0 -5 -4 -10 -10 -10 -5 0 -10 5 -10 10 0 6 5 10 10 10 6 0 10
-4 10 -10z m1 -29 c-9 -6 -10 -11 -2 -15 15 -10 14 -26 -3 -26 -8 0 -13 10
-13 25 0 16 5 25 16 25 13 0 13 -2 2 -9z m-336 -21 c-6 -9 8 -14 28 -11 5 1 6
-2 3 -7 -3 -5 6 -14 19 -20 24 -11 35 -42 15 -42 -5 0 -10 5 -10 11 0 5 -4 7
-10 4 -5 -3 -10 -1 -10 4 0 6 -7 11 -15 11 -8 0 -15 5 -15 11 0 5 -4 7 -10 4
-11 -7 -14 28 -3 38 10 10 15 8 8 -3z m382 -47 c-3 -10 -5 -4 -5 12 0 17 2 24
5 18 2 -7 2 -21 0 -30z m-247 7 c-8 -5 -22 -9 -30 -9 -10 0 -8 3 5 9 27 12 43
12 25 0z m208 -8 c2 -7 -3 -12 -12 -12 -9 0 -16 7 -16 16 0 17 22 14 28 -4z
m426 -13 c-16 -18 -34 -17 -34 1 0 5 7 7 15 4 10 -4 15 0 15 11 0 9 5 13 11
10 7 -5 4 -13 -7 -26z m-732 -33 c7 5 8 3 3 -6 -6 -10 -4 -12 9 -7 9 4 14 3
11 -2 -3 -5 -1 -12 5 -16 5 -3 10 -11 10 -16 0 -13 -39 -1 -58 17 -7 8 -18 14
-23 14 -14 0 -39 26 -32 33 3 4 19 -1 35 -9 16 -8 34 -12 40 -8z m285 8 c-3
-3 -12 -4 -19 -1 -8 3 -5 6 6 6 11 1 17 -2 13 -5z m423 -14 c0 -5 -9 -6 -20
-3 -11 3 -17 9 -15 14 7 10 35 1 35 -11z m-382 -43 c3 -53 -12 -64 -22 -16 -4
20 -1 38 6 47 11 13 10 15 -5 9 -11 -4 -16 -3 -12 4 14 22 30 0 33 -44z m-118
31 c0 -9 3 -8 10 2 7 11 13 6 26 -25 9 -22 21 -49 26 -60 8 -15 4 -14 -18 7
-35 33 -69 88 -55 88 6 0 11 -6 11 -12z m60 2 c4 7 12 -7 19 -35 7 -26 10 -50
7 -53 -5 -5 -47 83 -45 96 0 4 3 1 6 -7 4 -10 7 -10 13 -1z m100 -49 c0 -33
-14 -42 -24 -15 -3 9 -6 29 -6 46 0 26 2 28 15 14 8 -8 15 -28 15 -45z m40 48
c0 8 2 12 4 10 8 -8 -16 -89 -26 -89 -6 0 -8 10 -4 23 3 12 6 33 6 47 0 20 2
22 10 10 8 -12 10 -12 10 -1z m-263 -21 c-3 -8 -6 -5 -6 6 -1 11 2 17 5 13 3
-3 4 -12 1 -19z m490 -10 c-3 -8 -6 -5 -6 6 -1 11 2 17 5 13 3 -3 4 -12 1 -19z
m67 7 c-7 -16 -24 -21 -24 -6 0 8 7 13 27 20 1 1 0 -6 -3 -14z m-564 -60 c0
-19 -1 -19 -21 2 -14 14 -19 28 -15 39 6 16 8 16 21 -2 8 -10 15 -28 15 -39z
m303 35 c-5 -20 -33 -49 -33 -34 1 25 14 54 25 54 8 0 11 -8 8 -20z m33 -24
c9 -9 10 -17 4 -21 -5 -3 -10 -1 -10 6 0 8 -4 8 -15 -1 -16 -14 -18 -10 -9 14
8 20 12 20 30 2z m34 -30 c0 -3 -4 -8 -10 -11 -5 -3 -10 -1 -10 4 0 6 5 11 10
11 6 0 10 -2 10 -4z m-65 -37 c11 -11 12 -22 4 -54 -18 -67 -22 -108 -11 -101
5 3 13 -1 16 -10 3 -8 2 -12 -4 -9 -12 7 -30 -36 -30 -69 0 -23 -32 -61 -42
-50 -4 3 -20 -1 -36 -10 -26 -14 -31 -14 -42 -1 -7 8 -20 15 -30 15 -14 0 -38
30 -28 34 30 11 44 28 46 56 3 32 3 32 -14 15 -17 -17 -18 -17 -28 4 -7 17 -4
35 11 72 12 27 17 49 12 49 -5 0 -9 14 -9 30 0 17 5 30 10 30 6 0 10 -12 10
-26 0 -31 17 -64 32 -64 9 0 9 3 0 12 -16 16 -15 28 3 28 8 0 15 4 15 9 0 5
-7 11 -15 15 -18 7 -20 32 -2 40 22 10 118 -1 132 -15z m-480 -7 c-3 -3 -11 0
-18 7 -9 10 -8 11 6 5 10 -3 15 -9 12 -12z m129 12 c12 -5 13 -9 3 -25 -6 -10
-18 -19 -26 -19 -11 0 -9 4 5 15 18 14 17 14 -13 9 -50 -10 -42 4 14 25 1 1 8
-2 17 -5z m133 -216 c-3 -8 -6 -5 -6 6 -1 11 2 17 5 13 3 -3 4 -12 1 -19z
m243 -20 c10 -21 10 -21 -3 -6 -8 10 -18 14 -22 10 -5 -4 -5 -1 -1 6 10 17 14
15 26 -10z m-200 -4 c0 -2 -7 -4 -15 -4 -8 0 -15 4 -15 10 0 5 7 7 15 4 8 -4
15 -8 15 -10z m231 -21 c-5 -10 -16 -27 -24 -37 -13 -17 -14 -17 -20 -2 -4 9
-3 15 2 12 5 -3 16 5 25 19 19 28 32 34 17 8z m-66 -43 c-3 -5 -12 -10 -18
-10 -7 0 -6 4 3 10 19 12 23 12 15 0z m-130 -29 c3 -5 2 -12 -3 -15 -5 -3 -9
1 -9 9 0 17 3 19 12 6z m105 -4 c38 14 39 8 0 -12 -16 -8 -46 -15 -67 -14 -34
1 -35 2 -13 9 21 7 22 8 5 9 -16 1 -17 3 -6 10 9 6 21 5 32 -2 14 -9 26 -9 49
0z m100 -17 c0 -5 -7 -10 -16 -10 -8 0 -12 5 -9 10 3 6 10 10 16 10 5 0 9 -4
9 -10z m-58 -70 c6 0 8 -3 5 -6 -10 -11 -38 17 -30 30 5 7 9 5 11 -6 2 -10 8
-18 14 -18z"/>
<path d="M690 446 c0 -2 9 -6 20 -9 11 -3 18 -1 14 4 -5 9 -34 13 -34 5z"/>
<path d="M755 410 c10 -11 20 -20 23 -20 3 0 -3 9 -13 20 -10 11 -20 20 -23
20 -3 0 3 -9 13 -20z"/>
<path d="M629 362 c-5 -14 -8 -30 -5 -36 2 -6 5 -3 5 7 1 14 7 16 29 12 22 -4
23 -4 7 4 -19 9 -19 9 4 18 l25 10 -28 5 c-23 5 -29 1 -37 -20z"/>
<path d="M682 273 c3 -13 12 -17 32 -16 16 1 31 4 33 7 11 11 -10 26 -38 26
-24 0 -30 -4 -27 -17z"/>
<path d="M705 241 c-35 -6 -37 -7 -16 -13 14 -4 35 -1 50 7 28 15 27 15 -34 6z"/>
<path d="M290 1830 c0 -5 -13 -25 -30 -43 -43 -50 -42 -112 2 -170 18 -23 34
-44 36 -47 2 -3 8 4 14 15 6 11 34 43 62 71 l52 51 -39 27 c-21 16 -50 46 -64
67 -26 40 -33 46 -33 29z"/>
<path d="M616 1732 c-2 -4 13 -8 34 -7 21 0 36 3 33 8 -6 10 -61 9 -67 -1z"/>
<path d="M632 1709 c-29 -11 -21 -25 18 -31 23 -4 30 -1 30 13 0 22 -19 29
-48 18z"/>
<path d="M731 1641 c-1 -18 -5 -22 -22 -18 -15 4 -19 2 -15 -8 3 -8 0 -16 -7
-19 -7 -2 1 -5 16 -5 16 -1 26 3 23 8 -4 5 -1 11 5 13 6 2 9 15 6 28 l-4 25
-2 -24z"/>
<path d="M811 1630 c0 -8 4 -24 9 -35 5 -13 9 -14 9 -5 0 8 -4 24 -9 35 -5 13
-9 14 -9 5z"/>
<path d="M93 1570 l-22 -27 25 -24 25 -23 24 25 25 25 -27 26 -28 26 -22 -28z"/>
<path d="M831 1554 c0 -11 3 -14 6 -6 3 7 2 16 -1 19 -3 4 -6 -2 -5 -13z"/>
<path d="M792 1545 c0 -11 4 -31 8 -45 6 -20 8 -21 8 -5 0 11 -4 31 -8 45 -6
20 -8 21 -8 5z"/>
<path d="M841 1514 c0 -11 3 -14 6 -6 3 7 2 16 -1 19 -3 4 -6 -2 -5 -13z"/>
<path d="M371 1464 c0 -11 3 -14 6 -6 3 7 2 16 -1 19 -3 4 -6 -2 -5 -13z"/>
<path d="M947 485 c-24 -50 -20 -58 4 -12 11 22 19 41 17 43 -3 2 -12 -12 -21
-31z"/>
<path d="M969 445 c-8 -35 -11 -62 -8 -59 9 5 33 114 27 120 -2 2 -11 -25 -19
-61z"/>
<path d="M511 454 c0 -11 3 -14 6 -6 3 7 2 16 -1 19 -3 4 -6 -2 -5 -13z"/>
<path d="M1214 443 l-20 -26 24 -24 25 -25 25 26 26 25 -28 26 c-15 14 -28 25
-29 24 -1 0 -11 -12 -23 -26z"/>
<path d="M562 430 c0 -14 2 -19 5 -12 2 6 2 18 0 25 -3 6 -5 1 -5 -13z"/>
<path d="M886 415 c-9 -26 -7 -32 5 -12 6 10 9 21 6 23 -2 3 -7 -2 -11 -11z"/>
<path d="M531 384 c0 -11 3 -14 6 -6 3 7 2 16 -1 19 -3 4 -6 -2 -5 -13z"/>
<path d="M571 384 c0 -11 3 -14 6 -6 3 7 2 16 -1 19 -3 4 -6 -2 -5 -13z"/>
<path d="M1017 339 c-21 -27 -48 -55 -61 -60 -22 -10 -20 -13 43 -77 l66 -67
33 42 c26 34 32 51 32 90 -1 41 -6 54 -35 86 -20 20 -36 37 -38 36 -1 0 -19
-23 -40 -50z"/>
<path d="M541 344 c0 -11 3 -14 6 -6 3 7 2 16 -1 19 -3 4 -6 -2 -5 -13z"/>
<path d="M1190 321 c0 -10 7 -22 16 -25 15 -6 14 -10 -6 -31 -39 -41 -41 -172
-4 -209 24 -24 71 -20 89 7 40 62 26 186 -25 212 -16 8 -31 23 -35 34 -8 27
-35 36 -35 12z m68 -73 c19 -19 16 -163 -4 -183 -16 -15 -18 -15 -33 0 -12 11
-16 35 -16 88 0 40 3 80 7 90 9 20 29 22 46 5z"/>
</g>
</svg>
