<?xml version="1.0" standalone="no"?>
<!DOCTYPE svg PUBLIC "-//W3C//DTD SVG 20010904//EN"
 "http://www.w3.org/TR/2001/REC-SVG-20010904/DTD/svg10.dtd">
<svg version="1.0" xmlns="http://www.w3.org/2000/svg"
 width="135.000000pt" height="196.000000pt" viewBox="0 0 135.000000 196.000000"
 preserveAspectRatio="xMidYMid meet">
<metadata>
Created by potrace 1.16, written by Peter Selinger 2001-2019
</metadata>
<g transform="translate(0.000000,196.000000) scale(0.100000,-0.100000)"
fill="#000000" stroke="none">
<path d="M17 1942 c-16 -17 -17 -98 -17 -965 0 -846 2 -947 16 -961 14 -14 87
-16 655 -16 422 0 647 4 660 10 19 10 19 32 19 965 0 854 -2 955 -16 969 -14
14 -87 16 -658 16 -610 0 -644 -1 -659 -18z m518 -22 c-274 -5 -287 -6 -112
-8 l198 -2 -15 -29 c-14 -27 -14 -29 7 -39 21 -10 21 -11 -6 -11 -16 -1 -26 3
-23 7 2 4 1 14 -4 21 -9 15 -40 8 -40 -8 0 -6 7 -8 16 -4 10 3 6 -4 -9 -21
-23 -25 -55 -37 -42 -16 19 30 -51 54 -74 26 -9 -10 -6 -17 13 -30 14 -9 29
-16 34 -16 16 0 39 -74 38 -120 -1 -45 -1 -45 -38 -46 -22 -1 -35 3 -31 8 3 6
-4 5 -16 -1 -11 -7 -21 -18 -21 -26 0 -7 -10 -15 -22 -17 -16 -2 -24 -11 -26
-28 -2 -14 -10 -28 -18 -33 -7 -4 -11 -14 -8 -22 4 -10 0 -15 -10 -15 -57 0
-156 -89 -156 -141 0 -21 -9 -38 -29 -55 -17 -14 -34 -35 -38 -47 -5 -14 -10
23 -13 103 -3 69 -7 -198 -8 -592 l-2 -718 528 2 c290 2 438 4 330 5 l-197 3
11 28 c16 37 18 38 27 24 8 -13 41 -6 41 9 0 4 -7 6 -17 2 -12 -5 -10 1 7 25
21 29 61 47 45 21 -8 -12 22 -49 40 -49 6 0 19 6 29 13 17 13 16 15 -18 37
-21 12 -42 34 -48 49 -12 27 -18 131 -9 132 62 7 84 7 66 -1 -18 -9 -18 -9 5
-7 16 1 26 10 30 26 3 14 12 27 19 29 8 3 11 0 7 -7 -5 -7 -1 -9 8 -5 16 6 20
16 17 45 -1 9 5 19 14 23 9 3 14 10 11 15 -4 5 9 14 27 20 70 24 137 91 137
140 0 13 16 41 35 62 19 22 36 45 37 52 1 6 5 -44 8 -113 3 -69 7 196 8 587
l2 713 -217 3 -218 2 230 3 c169 1 234 -1 243 -10 9 -9 12 -231 12 -939 0
-830 -2 -929 -16 -943 -14 -14 -85 -16 -636 -16 -564 0 -623 2 -640 17 -17 15
-18 58 -18 943 0 707 3 929 12 938 9 9 112 11 413 10 l400 -3 -310 -5z m258
-34 c-5 -26 -33 -26 -33 0 0 17 -37 19 -43 2 -3 -10 -10 -8 -23 5 -18 16 -16
17 42 17 59 0 61 -1 57 -24z m477 -303 c0 -180 -4 -323 -8 -317 -5 5 -30 41
-56 81 -45 69 -98 121 -181 176 -43 29 -60 34 -49 15 4 -7 -4 -3 -18 10 -28
25 -55 29 -55 7 0 -11 7 -14 21 -9 17 4 18 3 6 -5 -13 -9 -13 -11 3 -11 9 0
17 -4 17 -9 0 -17 -38 1 -64 30 -22 25 -29 27 -52 19 -36 -14 -38 -8 -9 26 14
16 24 36 24 44 -1 11 -3 10 -6 -2 -5 -21 -8 -21 -33 -8 -13 7 -25 4 -45 -12
-22 -17 -31 -19 -46 -10 -23 15 -29 15 -29 1 0 -5 4 -8 9 -5 5 3 11 -1 15 -9
3 -9 18 -15 36 -15 19 0 30 -5 30 -14 0 -17 31 -30 40 -17 3 6 15 9 27 8 12 0
20 -5 17 -9 -3 -4 -11 -5 -19 -2 -9 4 -18 -3 -24 -17 -5 -13 -10 -18 -10 -10
-1 11 -5 11 -19 -2 -25 -23 -84 -5 -144 43 -16 13 -16 16 -3 37 14 20 14 22
-2 17 -14 -5 -15 -4 -4 4 8 6 20 8 27 5 20 -7 27 16 9 34 -11 11 -13 18 -6 23
18 10 33 73 20 81 -17 10 17 19 76 19 53 0 53 0 63 -37 8 -32 9 -27 5 32 -4
58 -1 75 16 103 l21 32 200 0 200 0 0 -327z m-599 170 c10 -12 11 -15 1 -9 -7
4 -20 2 -29 -6 -14 -11 -16 -11 -8 2 6 12 6 13 -6 2 -10 -10 -11 -15 -2 -20 6
-4 11 -22 11 -40 -1 -32 -23 -63 -64 -90 -10 -7 -12 -9 -4 -5 13 6 13 4 1 -10
-17 -21 -31 -22 -31 -2 0 9 16 25 36 37 22 13 33 26 30 35 -3 8 -6 21 -6 29 0
9 -3 13 -7 11 -5 -3 -8 9 -8 26 0 28 5 34 35 44 19 7 36 12 36 12 1 1 8 -7 15
-16z m-128 -145 c-20 -21 -39 -35 -42 -33 -3 3 10 19 27 35 26 24 32 36 32 71
0 43 -13 45 -23 4 -4 -15 -5 -14 -6 7 -1 16 6 31 17 37 15 8 18 4 24 -37 7
-45 5 -49 -29 -84z m137 104 c0 -5 -7 -9 -15 -9 -8 0 -12 4 -9 9 3 4 9 8 15 8
5 0 9 -4 9 -8z m-208 -101 c-8 -4 -12 -12 -10 -17 1 -5 -7 -10 -19 -12 -17 -3
-21 1 -17 12 5 13 22 22 49 25 6 0 4 -3 -3 -8z m342 1 c2 -4 -9 -9 -25 -10
-19 -2 -28 2 -24 8 7 12 42 13 49 2z m-174 -89 c0 -20 -26 -4 -39 23 -18 41
-13 49 14 18 14 -16 25 -34 25 -41z m-243 51 c-3 -3 -12 -4 -19 -1 -8 3 -5 6
6 6 11 1 17 -2 13 -5z m18 -24 c3 -5 -1 -10 -9 -10 -9 0 -16 5 -16 10 0 6 4
10 9 10 6 0 13 -4 16 -10z m135 -20 c0 -5 -2 -10 -4 -10 -3 0 -8 5 -11 10 -3
6 -1 10 4 10 6 0 11 -4 11 -10z m330 -8 c0 -8 -9 -12 -22 -10 -30 4 -33 23 -3
23 14 0 25 -6 25 -13z m-285 -2 c3 -6 -1 -7 -9 -4 -18 7 -21 14 -7 14 6 0 13
-4 16 -10z m-100 -30 c-10 -11 -25 -20 -33 -20 -8 0 -12 -6 -9 -14 7 -18 -18
-40 -33 -31 -8 5 1 21 26 46 20 21 41 36 46 33 4 -3 8 0 8 7 0 7 3 9 7 6 3 -4
-2 -16 -12 -27z m188 13 c-7 -2 -19 -2 -25 0 -7 3 -2 5 12 5 14 0 19 -2 13 -5z
m347 -4 c0 -6 14 -27 30 -46 38 -43 38 -54 -2 -46 -42 8 -71 22 -46 23 24 0
19 42 -5 52 -10 4 -15 12 -12 18 8 14 35 13 35 -1z m-508 -33 c-10 -11 -26
-31 -34 -44 -13 -19 -16 -20 -22 -7 -3 9 -2 13 3 10 5 -3 12 -1 16 5 3 5 1 10
-6 10 -8 0 -5 7 6 20 10 11 22 17 26 14 5 -3 9 2 9 11 0 9 5 13 11 10 7 -5 4
-15 -9 -29z m138 19 c23 -9 28 -14 15 -14 -11 0 -33 6 -50 14 -39 17 -11 18
35 0z m284 6 c3 -4 -6 -6 -19 -3 -14 2 -25 6 -25 8 0 8 39 4 44 -5z m-594 -20
c0 -5 27 -29 60 -53 l59 -43 3 -80 2 -80 3 78 c4 72 5 77 22 67 11 -5 41 -12
67 -15 26 -4 69 -10 96 -15 35 -7 70 -5 126 5 42 8 80 15 85 15 4 0 -5 -19
-20 -41 -25 -38 -28 -40 -33 -20 -5 20 -12 21 -135 25 -71 3 -143 7 -160 10
l-30 6 30 -9 c17 -5 42 -12 58 -15 24 -6 27 -11 27 -50 0 -26 -5 -43 -12 -44
-7 -1 -32 -5 -55 -8 l-43 -6 -1 33 -2 34 -4 -30 c-5 -34 -18 -45 -50 -45 -21
0 -23 5 -23 58 0 82 -17 131 -61 179 -43 47 -46 53 -24 53 8 0 15 -4 15 -9z
m595 -9 c-3 -3 -11 0 -18 7 -9 10 -8 11 6 5 10 -3 15 -9 12 -12z m59 -13 c-3
-5 -11 -9 -19 -9 -8 0 -11 -7 -8 -20 4 -14 0 -20 -10 -20 -22 0 -29 16 -14 32
7 7 16 21 20 32 6 15 10 16 22 6 8 -7 12 -16 9 -21z m-334 -21 c0 -35 -14 -88
-22 -88 -5 0 -7 4 -4 9 4 5 0 12 -6 15 -10 3 -8 9 5 19 9 8 17 23 16 33 0 18
-1 18 -9 -1 -6 -15 -9 -16 -9 -4 -1 9 2 19 6 22 10 11 23 8 23 -5z m-61 -41
c-19 -18 -22 -18 -16 -3 4 10 7 23 7 29 0 7 4 6 10 -3 8 -12 10 -12 11 5 0 12
3 15 6 7 3 -8 -5 -23 -18 -35z m168 6 c-3 -10 -5 -4 -5 12 0 17 2 24 5 18 2
-7 2 -21 0 -30z m43 -17 c0 -9 -4 -16 -10 -16 -5 0 -7 7 -4 15 4 8 1 15 -5 15
-6 0 -11 7 -11 16 0 14 2 14 15 0 8 -8 15 -22 15 -30z m134 16 c3 -5 20 -6 38
-4 30 5 32 3 19 -12 -8 -10 -9 -16 -3 -16 6 0 9 -6 6 -14 -3 -9 4 -15 24 -18
31 -4 52 11 52 38 0 10 3 15 6 12 3 -3 2 -23 -2 -43 -9 -48 -54 -100 -113
-130 -54 -27 -141 -43 -141 -26 0 6 8 11 18 11 28 0 63 30 58 48 -3 11 6 24
26 37 37 24 51 50 21 41 -14 -5 -20 -2 -20 11 0 10 4 24 10 31 7 9 6 11 -6 7
-17 -7 -32 10 -22 25 8 12 22 13 29 2z m157 -82 c-6 -19 -22 -48 -36 -65 l-26
-30 27 42 c14 24 29 64 32 90 4 32 8 40 10 23 2 -13 -1 -40 -7 -60z m-500 47
c-10 -9 -11 -8 -5 6 3 10 9 15 12 12 3 -3 0 -11 -7 -18z m319 -11 c0 -8 -4
-18 -10 -21 -17 -11 -11 -25 11 -25 11 0 17 -5 14 -10 -4 -6 -21 -8 -40 -4
-31 5 -33 4 -28 -15 4 -15 1 -21 -11 -21 -9 0 -13 -6 -10 -15 4 -8 -1 -17 -10
-21 -9 -3 -14 -10 -11 -14 3 -5 -1 -14 -8 -22 -7 -7 -16 -21 -20 -30 -4 -11
-12 -15 -22 -12 -21 8 -19 25 4 31 13 3 17 11 14 24 -4 13 0 19 11 19 9 0 13
6 10 15 -3 8 0 17 8 20 8 3 21 21 28 40 9 23 20 35 33 35 15 0 17 3 8 13 -12
15 -5 27 16 27 7 0 13 -6 13 -14z m-262 -62 c8 -6 7 -74 0 -74 -5 0 -8 6 -9
13 0 10 -2 10 -6 0 -2 -7 -11 -13 -19 -13 -10 0 -14 13 -14 46 0 42 1 45 23
38 12 -3 24 -8 25 -10z m62 -35 c0 -32 -3 -39 -20 -39 -22 0 -22 0 -25 51 -2
32 0 35 21 31 20 -4 24 -10 24 -43z m56 34 c17 -22 18 -55 2 -71 -21 -21 -35
-13 -41 24 -10 59 11 84 39 47z m-401 -15 c-11 -6 -29 -18 -40 -27 -12 -9 -8
-4 7 12 16 15 34 27 41 27 6 0 3 -6 -8 -12z m515 -37 c0 -5 -7 -12 -16 -15
-14 -5 -15 -4 -4 9 14 17 20 19 20 6z m-493 -33 c-3 -7 -5 -2 -5 12 0 14 2 19
5 13 2 -7 2 -19 0 -25z m-94 -3 c-3 -9 -8 -14 -10 -11 -3 3 -2 9 2 15 9 16 15
13 8 -4z m67 0 c0 -8 -4 -15 -10 -15 -5 0 -10 7 -10 15 0 8 5 15 10 15 6 0 10
-7 10 -15z m340 -4 c42 -5 13 -8 -124 -14 -98 -4 -181 -6 -183 -3 -6 5 149 23
207 24 25 0 70 -3 100 -7z m276 -6 c-11 -8 -25 -15 -30 -15 -6 1 0 7 14 15 32
19 40 18 16 0z m-646 -31 c0 -8 -4 -12 -10 -9 -5 3 -10 10 -10 16 0 5 5 9 10
9 6 0 10 -7 10 -16z m597 10 c-3 -3 -12 -4 -19 -1 -8 3 -5 6 6 6 11 1 17 -2
13 -5z m-485 -19 c20 1 35 -2 32 -7 -3 -4 15 -21 40 -36 25 -16 43 -32 40 -35
-8 -7 -44 12 -65 36 -9 9 -21 17 -28 17 -6 0 -11 5 -11 10 0 14 -19 12 -35 -4
-12 -11 -11 -17 9 -35 25 -24 45 -29 27 -7 -8 10 -9 16 -1 21 5 3 10 0 10 -8
0 -7 20 -24 45 -36 24 -12 47 -26 50 -32 8 -12 -2 -11 -27 2 -11 6 -22 8 -25
5 -4 -3 10 -13 30 -21 28 -12 37 -21 37 -40 0 -18 4 -23 15 -19 8 4 15 12 15
19 0 7 -7 15 -15 19 -18 7 -20 57 -3 74 14 14 84 16 93 3 3 -5 1 -12 -4 -15
-5 -4 -11 0 -14 6 -2 7 -8 10 -12 6 -4 -4 -3 -14 4 -21 15 -19 -24 -56 -41
-39 -6 6 -8 15 -4 19 4 4 11 1 16 -7 8 -13 10 -12 10 3 0 9 -4 17 -10 17 -5 0
-10 7 -10 16 0 8 -4 12 -10 9 -16 -10 -12 -63 6 -73 15 -8 15 -11 -1 -36 -22
-34 -34 -33 -41 4 -5 21 -18 37 -48 54 -22 13 -62 42 -88 65 -35 31 -45 46
-41 62 3 11 9 17 12 12 3 -5 23 -9 43 -8z m441 8 c-7 -2 -21 -2 -30 0 -10 3
-4 5 12 5 17 0 24 -2 18 -5z m-592 -119 c7 -8 10 -17 7 -19 -11 -12 -28 25
-33 71 l-4 49 9 -44 c5 -24 15 -50 21 -57z m38 70 c-6 -7 -15 -11 -21 -8 -5 3
-4 12 3 20 6 7 15 11 21 8 5 -3 4 -12 -3 -20z m436 15 c4 -6 -2 -13 -13 -16
-14 -3 -18 -11 -15 -24 4 -13 0 -19 -10 -19 -23 0 -29 16 -12 30 8 7 15 19 15
26 0 16 26 19 35 3z m-530 -29 c-11 -5 -45 -8 -75 -8 -53 1 -54 1 -15 8 22 4
56 7 75 8 28 0 31 -1 15 -8z m534 -56 c-9 -40 -10 -59 -2 -61 5 -2 19 -11 29
-19 16 -13 14 -13 -13 1 -24 11 -33 22 -33 40 0 18 -4 23 -15 19 -8 -4 -15
-12 -15 -19 0 -7 7 -18 15 -25 20 -17 19 -53 -3 -73 -22 -20 -94 -13 -85 8 3
9 -2 12 -16 8 -12 -3 -17 -11 -14 -19 3 -8 -2 -17 -12 -20 -9 -4 -14 -13 -11
-21 3 -7 -1 -16 -9 -19 -8 -4 -15 -12 -15 -19 0 -20 -20 -29 -33 -15 -9 9 -8
14 4 23 8 7 18 20 22 30 3 9 11 17 16 17 6 0 8 6 5 14 -3 7 2 16 10 19 9 4 16
13 16 22 0 17 25 21 35 5 7 -11 25 -4 25 10 0 5 -6 7 -14 4 -21 -8 -32 17 -13
31 10 7 17 20 17 29 0 9 6 16 14 16 8 0 18 5 22 12 4 7 3 8 -4 4 -7 -4 -12 -3
-12 3 0 17 21 24 33 11 9 -9 8 -14 -5 -24 -10 -7 -18 -21 -18 -30 0 -9 -7 -16
-15 -16 -9 0 -12 -6 -9 -15 4 -10 14 -13 30 -9 15 4 24 2 24 -6 0 -7 -7 -10
-15 -6 -9 3 -15 0 -15 -9 0 -8 5 -15 10 -15 6 0 10 -7 10 -16 0 -8 5 -12 10
-9 16 10 12 65 -5 71 -19 8 -19 19 1 50 12 18 20 22 29 14 10 -8 15 -2 20 30
4 23 9 39 12 36 3 -2 -1 -30 -8 -62z m-521 0 c-3 -14 -5 -12 -10 9 -3 19 -2
25 4 19 6 -6 8 -18 6 -28z m56 20 c3 -8 2 -12 -4 -9 -6 3 -10 10 -10 16 0 14
7 11 14 -7z m-126 -21 c5 -17 -26 -29 -40 -15 -6 6 -7 15 -3 22 9 14 37 9 43
-7z m97 -32 c-6 -6 -39 -15 -75 -20 -81 -13 -90 -13 -90 -1 0 6 21 10 48 11
26 1 58 5 72 9 36 12 56 12 45 1z m865 -27 c-41 -8 -82 -13 -90 -11 -24 6 71
25 120 25 39 0 35 -2 -30 -14z m-94 -49 c7 -19 14 -47 13 -62 0 -23 -3 -19
-13 17 -7 25 -16 53 -21 63 -4 9 -4 17 -1 17 4 0 14 -16 22 -35z m-209 -15 c3
0 -1 8 -8 17 -16 20 31 -12 71 -49 14 -13 21 -20 16 -15 -22 17 -28 5 -8 -16
22 -24 32 -51 10 -29 -7 7 -16 8 -22 2 -8 -5 -35 7 -79 35 -46 29 -62 45 -52
49 8 3 15 1 15 -4 0 -6 9 -10 20 -10 12 0 20 -7 20 -17 0 -9 3 -14 6 -10 3 3
15 -3 27 -14 22 -21 47 -25 47 -9 0 6 -8 14 -17 17 -10 4 -29 18 -42 31 -13
13 -37 29 -52 34 -16 5 -29 14 -29 20 0 5 16 1 36 -11 19 -12 38 -21 41 -21z
m264 17 c-10 -9 -11 -8 -5 6 3 10 9 15 12 12 3 -3 0 -11 -7 -18z m83 14 c9
-15 -23 -36 -36 -23 -5 5 -7 15 -4 21 9 13 33 14 40 2z m-627 -23 c-3 -8 -6
-5 -6 6 -1 11 2 17 5 13 3 -3 4 -12 1 -19z m520 0 c-3 -8 -6 -5 -6 6 -1 11 2
17 5 13 3 -3 4 -12 1 -19z m-530 -40 c-3 -8 -6 -5 -6 6 -1 11 2 17 5 13 3 -3
4 -12 1 -19z m663 2 c0 -5 -21 -10 -47 -10 -27 0 -59 -3 -73 -6 -17 -5 -22 -3
-15 4 18 19 135 30 135 12z m-190 -20 c0 -5 -5 -12 -10 -15 -6 -4 -8 -15 -5
-26 4 -12 1 -21 -9 -25 -9 -3 -16 -15 -16 -25 0 -10 -4 -19 -10 -19 -15 0 -12
26 5 40 17 14 20 51 6 66 -6 5 -1 10 15 10 13 1 24 -2 24 -6z m-512 -47 c-10
-2 -26 -2 -35 0 -10 3 -2 5 17 5 19 0 27 -2 18 -5z m-71 -9 c-3 -3 -12 -4 -19
-1 -8 3 -5 6 6 6 11 1 17 -2 13 -5z m52 -21 c-1 -4 -16 -13 -33 -18 -25 -9
-31 -16 -29 -37 1 -20 -4 -28 -22 -32 -29 -7 -55 -46 -31 -46 22 0 25 -22 8
-52 -9 -16 -19 -28 -22 -28 -15 1 -31 19 -33 38 -1 21 -16 27 -59 24 -22 -2
-23 10 -3 48 25 49 116 101 195 112 28 4 33 3 29 -9z m431 7 c0 -5 -24 -10
-52 -10 -29 0 -48 -4 -42 -8 7 -4 14 -18 17 -32 4 -25 4 -25 6 3 1 24 5 27 35
27 l33 0 6 -78 c5 -87 20 -122 66 -166 30 -29 39 -46 23 -46 -4 0 -32 23 -62
50 -30 28 -60 50 -67 50 -10 0 -14 24 -15 88 l-2 87 -3 -78 c-3 -69 -6 -78
-21 -72 -9 3 -54 13 -100 22 -67 12 -99 13 -165 5 -45 -6 -91 -14 -101 -18
-19 -7 -19 -7 0 25 26 45 44 59 44 35 0 -18 10 -19 125 -19 83 0 119 3 105 9
-16 7 -20 18 -20 55 0 33 3 42 10 31 6 -9 10 -10 10 -3 0 6 15 14 33 16 17 2
-24 5 -92 5 -68 1 -121 5 -117 9 4 4 39 6 79 5 40 -1 97 2 127 7 78 12 140 13
140 1z m-551 -4 c-2 -2 -15 -9 -29 -15 -24 -11 -24 -11 -6 3 16 13 49 24 35
12z m175 -5 c3 -5 -1 -14 -9 -21 -8 -7 -15 -19 -15 -26 0 -16 -26 -19 -35 -3
-4 6 2 13 13 16 14 3 18 11 15 24 -5 20 20 28 31 10z m393 -43 c-3 -7 -5 -2
-5 12 0 14 2 19 5 13 2 -7 2 -19 0 -25z m-654 -10 c-37 -38 -52 -75 -54 -126
-1 -26 -3 -30 -6 -13 -8 43 8 92 44 132 19 21 38 39 41 39 3 0 -8 -15 -25 -32z
m310 0 c5 -40 0 -58 -19 -58 -21 0 -44 52 -33 73 17 30 46 21 52 -15z m58 24
c1 -4 3 -24 4 -44 2 -34 0 -38 -21 -38 -22 0 -24 5 -24 43 0 36 3 43 20 44 11
1 21 -1 21 -5z m67 -39 c3 -40 1 -43 -21 -43 -28 0 -35 12 -31 55 3 36 0 32
27 31 19 -1 22 -7 25 -43z m-265 22 c-3 -9 -8 -14 -10 -11 -3 3 -2 9 2 15 9
16 15 13 8 -4z m537 0 c-7 -8 -9 -15 -4 -15 5 -1 -2 -10 -15 -20 -13 -11 -28
-20 -35 -20 -6 1 0 7 14 15 14 7 25 17 25 22 0 11 15 33 22 33 3 0 0 -7 -7
-15z m-490 -36 c0 -5 -7 -12 -15 -15 -8 -4 -15 -15 -15 -25 0 -10 -7 -19 -15
-19 -9 0 -12 -6 -9 -15 3 -8 0 -17 -8 -20 -8 -3 -21 -21 -28 -40 -9 -23 -20
-35 -33 -35 -16 0 -17 -2 -7 -16 11 -13 10 -16 -8 -20 -12 -4 -18 -12 -16 -19
7 -18 -15 -30 -29 -15 -9 9 -8 14 4 23 8 7 22 27 30 45 7 17 21 32 31 32 11 0
15 6 11 20 -4 14 0 20 11 20 9 0 13 6 10 15 -4 8 1 17 10 21 9 3 16 14 16 24
0 14 -6 17 -22 13 -19 -4 -20 -3 -8 6 8 6 22 8 31 5 11 -3 18 3 22 16 3 13 10
18 21 14 9 -3 16 -10 16 -15z m-379 -62 c27 -52 91 -121 163 -174 56 -42 95
-57 80 -30 -4 6 4 0 19 -15 16 -17 32 -25 41 -22 24 9 19 24 -7 24 -14 0 -24
6 -24 15 0 8 4 15 9 15 4 0 8 -4 8 -10 0 -5 7 -10 15 -10 8 0 23 -10 34 -21
15 -16 27 -20 45 -15 31 8 32 0 6 -34 -11 -14 -20 -29 -20 -35 0 -5 4 -4 9 4
6 10 13 10 28 3 15 -9 25 -6 49 13 21 17 33 20 42 13 9 -8 12 -6 12 5 0 20
-16 25 -60 21 -19 -2 -29 -2 -23 2 19 8 16 27 -3 20 -8 -3 -12 -2 -9 3 3 5 1
12 -5 16 -16 10 -12 25 5 19 8 -4 15 -1 15 5 0 7 14 11 35 9 19 -1 35 -6 35
-11 0 -4 4 -6 9 -3 5 4 11 3 13 -1 1 -5 17 -16 33 -25 20 -11 30 -25 31 -42 1
-14 -3 -23 -7 -20 -5 3 -17 0 -28 -5 -14 -8 -21 -8 -24 2 -4 8 -6 9 -6 0 -1
-6 6 -18 14 -27 18 -17 19 -38 4 -53 -5 -5 -11 -26 -12 -46 -2 -35 -4 -37 -43
-43 -61 -9 -76 -3 -89 36 -12 32 -12 30 -7 -32 4 -60 2 -72 -19 -103 l-24 -35
-197 0 -198 0 0 326 c0 296 1 325 16 313 8 -7 24 -30 35 -52z m126 -39 c-3 -8
-6 -5 -6 6 -1 11 2 17 5 13 3 -3 4 -12 1 -19z m453 -3 c1 14 3 16 7 6 3 -8 -2
-20 -13 -28 -10 -7 -12 -13 -6 -13 7 0 12 -5 12 -11 0 -5 -4 -7 -10 -4 -5 3
-10 1 -10 -6 0 -7 -3 -10 -6 -6 -3 3 -3 25 2 49 7 39 8 40 15 18 6 -21 7 -22
9 -5z m50 -11 c0 -8 -7 -17 -16 -21 -13 -5 -13 -7 -2 -14 10 -7 8 -9 -6 -9
-14 0 -17 5 -12 23 3 12 6 27 6 34 0 7 7 10 15 7 8 -4 15 -13 15 -20z m-201
-21 c0 -11 -3 -13 -6 -5 -2 6 -9 10 -14 6 -5 -3 -9 0 -9 5 0 6 7 11 15 11 8 0
15 -8 14 -17z m331 -3 c-11 -7 -11 -10 -2 -10 7 0 11 -4 7 -10 -3 -5 -12 -7
-21 -3 -11 4 -12 9 -3 19 6 8 17 14 23 14 6 0 4 -5 -4 -10z m-550 -15 c10 -12
9 -15 -6 -15 -14 0 -15 -3 -6 -9 10 -6 10 -10 -2 -20 -12 -10 -19 -7 -40 16
-14 15 -26 31 -26 35 0 14 67 8 80 -7z m244 0 c-4 -8 -8 -15 -10 -15 -2 0 -4
7 -4 15 0 8 4 15 10 15 5 0 7 -7 4 -15z m349 -2 c9 -9 -23 -44 -34 -37 -5 3
-9 -2 -9 -11 0 -9 -4 -13 -10 -10 -5 3 -10 -1 -10 -10 0 -9 -4 -14 -9 -11 -5
4 -12 1 -14 -4 -3 -6 -4 -5 -3 2 2 7 0 20 -5 29 -11 21 15 47 27 28 4 -8 3 -9
-4 -5 -8 5 -12 -1 -12 -15 0 -22 0 -22 28 4 16 15 32 24 37 20 4 -5 5 0 2 10
-6 17 3 23 16 10z m-205 -27 c-7 -8 -15 -12 -17 -11 -5 6 10 25 20 25 5 0 4
-6 -3 -14z m-307 -23 c8 -9 9 -14 2 -10 -6 4 -13 1 -16 -5 -3 -7 -4 -3 -4 10
1 26 1 26 18 5z m326 -26 c19 -13 28 -25 23 -32 -9 -11 -10 -15 -10 -42 0 -14
-4 -12 -25 7 -14 13 -25 29 -25 37 0 11 -19 18 -42 14 -5 0 -8 4 -8 10 0 6 7
8 16 5 9 -3 20 -6 25 -6 6 0 20 -11 32 -24 21 -22 23 -23 24 -6 2 24 -12 35
-72 54 -47 15 -48 16 -10 10 22 -3 54 -15 72 -27z m-357 3 c0 -5 -5 -10 -11
-10 -5 0 -7 5 -4 10 3 6 8 10 11 10 2 0 4 -4 4 -10z m60 -4 c0 -3 -4 -8 -10
-11 -5 -3 -10 -1 -10 4 0 6 5 11 10 11 6 0 10 -2 10 -4z m68 -31 c10 -21 9
-27 -3 -31 -8 -3 -20 -4 -27 -1 -7 3 -3 6 10 6 13 1 20 5 17 11 -4 6 -14 9
-23 8 -9 -2 -18 5 -20 15 -6 28 33 21 46 -8z m451 -29 c10 -12 8 -13 -8 -9
-12 3 -21 9 -21 14 0 14 16 11 29 -5z m-164 -25 c-3 -6 -11 -8 -17 -5 -6 4 -8
2 -5 -3 4 -6 -4 -18 -17 -26 -18 -12 -22 -22 -18 -43 3 -16 1 -25 -5 -21 -6 4
-7 -7 -4 -26 5 -29 6 -30 9 -7 6 39 20 46 18 9 -1 -25 -8 -37 -26 -46 -30 -15
-57 -16 -65 -3 -4 6 -3 10 2 9 28 -5 53 3 53 17 0 8 -4 12 -10 9 -6 -4 -10 8
-10 30 0 21 4 34 10 30 5 -3 7 0 4 8 -3 8 6 23 20 35 14 11 26 24 26 29 0 5 5
14 12 21 14 14 34 -1 23 -17z m118 -7 c-2 -6 -15 -14 -28 -16 -16 -4 -22 -1
-18 9 3 7 14 13 24 13 13 0 17 5 13 18 -5 13 -4 14 4 3 6 -8 8 -20 5 -27z
m-73 17 c0 -4 -13 -22 -30 -39 -22 -23 -30 -42 -30 -67 0 -40 7 -45 20 -12 9
21 9 21 9 -4 1 -16 -6 -29 -15 -33 -21 -8 -20 -9 -27 42 -5 39 -2 46 31 81 42
44 42 44 42 32z m-272 -38 c-10 -2 -26 -2 -35 0 -10 3 -2 5 17 5 19 0 27 -2
18 -5z m114 -105 c-6 -6 -15 -8 -19 -4 -4 4 -1 11 7 16 19 12 27 3 12 -12z
m62 -63 c3 -8 1 -15 -4 -15 -6 0 -10 7 -10 15 0 8 2 15 4 15 2 0 6 -7 10 -15z
m146 -45 c0 -5 -4 -10 -9 -10 -6 0 -13 5 -16 10 -3 6 1 10 9 10 9 0 16 -4 16
-10z m-135 -10 c3 -5 -1 -10 -9 -10 -8 0 -18 5 -21 10 -3 6 1 10 9 10 8 0 18
-4 21 -10z m-185 -40 c21 -21 50 -27 50 -10 0 17 19 11 30 -10 10 -19 8 -20
-50 -20 -59 0 -60 1 -54 24 4 18 1 25 -13 29 -16 4 -16 5 0 6 9 0 26 -8 37
-19z m137 -5 c0 -8 -4 -12 -9 -9 -5 3 -6 10 -3 15 9 13 12 11 12 -6z"/>
<path d="M50 1910 c0 -5 5 -10 10 -10 6 0 10 -43 10 -110 0 -67 -4 -110 -10
-110 -5 0 -10 -4 -10 -10 0 -5 16 -10 35 -10 19 0 35 5 35 10 0 6 -4 10 -10
10 -5 0 -10 20 -10 45 0 25 4 45 8 45 4 0 20 -25 35 -55 20 -41 32 -55 48 -55
11 0 19 3 17 8 -2 4 -20 39 -40 78 l-37 71 25 41 c14 23 29 42 35 42 5 0 9 5
9 10 0 6 -12 10 -26 10 -19 0 -25 -4 -20 -15 6 -16 -30 -85 -45 -85 -5 0 -9
18 -9 40 0 22 5 40 10 40 6 0 10 5 10 10 0 6 -16 10 -35 10 -19 0 -35 -4 -35
-10z"/>
<path d="M290 1830 c0 -5 -13 -25 -30 -43 -43 -50 -42 -112 2 -170 18 -23 34
-44 36 -47 2 -3 8 4 14 15 6 11 34 43 62 71 l52 51 -39 27 c-21 16 -50 46 -64
67 -26 40 -33 46 -33 29z"/>
<path d="M93 1570 l-22 -27 25 -24 25 -23 24 25 25 25 -27 26 -28 26 -22 -28z"/>
<path d="M1214 443 l-20 -26 24 -24 25 -25 24 25 25 24 -27 27 c-14 14 -27 26
-28 25 -1 0 -11 -12 -23 -26z"/>
<path d="M1026 349 c-15 -22 -42 -50 -60 -61 l-31 -21 65 -66 65 -66 33 42
c26 34 32 51 32 90 -1 41 -6 54 -35 86 -20 20 -36 37 -38 37 -1 0 -15 -19 -31
-41z"/>
<path d="M1150 305 c0 -3 17 -40 39 -83 l38 -77 -25 -40 c-14 -22 -30 -43 -36
-47 -6 -4 2 -8 17 -8 16 0 26 4 22 10 -6 10 35 90 48 90 12 0 8 -75 -5 -88 -9
-9 -3 -12 28 -11 21 0 33 3 27 6 -16 6 -19 233 -3 233 6 0 10 5 10 10 0 6 -16
10 -35 10 -36 0 -43 -8 -24 -27 5 -5 9 -30 7 -54 l-3 -44 -33 63 c-23 44 -38
62 -52 62 -11 0 -20 -2 -20 -5z"/>
<path d="M744 1740 c-12 -5 -25 -15 -29 -22 -6 -10 -5 -11 6 0 7 6 25 12 40
12 15 0 31 5 34 10 7 12 -22 12 -51 0z"/>
<path d="M748 1709 c-25 -14 -22 -26 6 -31 23 -5 36 7 36 33 0 12 -20 11 -42
-2z"/>
<path d="M832 1680 c0 -14 2 -19 5 -12 2 6 2 18 0 25 -3 6 -5 1 -5 -13z"/>
<path d="M601 1719 c-1 -14 6 -34 15 -45 8 -10 12 -13 8 -5 -4 8 -11 28 -15
45 -6 29 -7 29 -8 5z"/>
<path d="M591 1254 c0 -11 3 -14 6 -6 3 7 2 16 -1 19 -3 4 -6 -2 -5 -13z"/>
<path d="M646 1253 c-6 -14 -5 -15 5 -6 7 7 10 15 7 18 -3 3 -9 -2 -12 -12z"/>
<path d="M490 1055 c7 -8 17 -15 22 -15 6 0 5 7 -2 15 -7 8 -17 15 -22 15 -6
0 -5 -7 2 -15z"/>
<path d="M680 910 c0 -5 5 -10 10 -10 6 0 10 5 10 10 0 6 -4 10 -10 10 -5 0
-10 -4 -10 -10z"/>
<path d="M865 900 c3 -5 16 -15 28 -21 22 -12 22 -12 3 10 -19 21 -43 30 -31
11z"/>
<path d="M761 714 c0 -11 3 -14 6 -6 3 7 2 16 -1 19 -3 4 -6 -2 -5 -13z"/>
<path d="M801 646 c2 -2 18 -6 34 -10 22 -5 26 -4 15 4 -14 9 -59 15 -49 6z"/>
<path d="M522 290 c0 -14 2 -19 5 -12 2 6 2 18 0 25 -3 6 -5 1 -5 -13z"/>
<path d="M570 265 c0 -29 1 -29 35 -13 34 15 32 33 -5 35 -26 2 -30 -1 -30
-22z"/>
<path d="M625 241 c-6 -5 -26 -11 -45 -14 l-35 -4 36 -1 c19 -1 44 5 55 13 10
8 14 15 9 15 -6 0 -15 -4 -20 -9z"/>
</g>
</svg>
