<?xml version="1.0" encoding="UTF-8"?>
<svg xmlns="http://www.w3.org/2000/svg" xmlns:xlink="http://www.w3.org/1999/xlink" width="135.21pt" height="195.64pt" viewBox="0 0 135.21 195.64" version="1.1">
<g id="surface1">
<path style=" stroke:none;fill-rule:nonzero;fill:rgb(100%,100%,100%);fill-opacity:1;" d="M 1 189.097656 C 1 192.121094 3.46875 194.59375 6.492188 194.59375 L 128.722656 194.59375 C 131.738281 194.59375 134.210938 192.121094 134.210938 189.097656 L 134.210938 6.445313 C 134.210938 3.425781 131.738281 0.953125 128.722656 0.953125 L 6.492188 0.953125 C 3.46875 0.953125 1 3.425781 1 6.445313 L 1 189.097656 "/>
<path style="fill:none;stroke-width:19.9926;stroke-linecap:butt;stroke-linejoin:miter;stroke:rgb(0%,0%,0%);stroke-opacity:1;stroke-miterlimit:10;" d="M 10 65.423437 C 10 35.189062 34.6875 10.4625 64.921875 10.4625 L 1287.226563 10.4625 C 1317.382813 10.4625 1342.109375 35.189062 1342.109375 65.423437 L 1342.109375 1891.946875 C 1342.109375 1922.142187 1317.382813 1946.86875 1287.226563 1946.86875 L 64.921875 1946.86875 C 34.6875 1946.86875 10 1922.142187 10 1891.946875 Z M 10 65.423437 " transform="matrix(0.1,0,0,-0.1,0,195.64)"/>
<path style=" stroke:none;fill-rule:nonzero;fill:rgb(90.234375%,9.423828%,3.921509%);fill-opacity:1;" d="M 6.757813 9.90625 L 5.621094 9.90625 L 5.621094 4.191406 C 6.390625 3.753906 7.152344 3.425781 7.90625 3.214844 C 8.664063 2.988281 9.425781 2.875 10.199219 2.875 C 12 2.875 13.402344 3.570313 14.40625 4.953125 C 15.417969 6.328125 15.921875 8.242188 15.921875 10.707031 C 15.921875 12.457031 15.644531 14.03125 15.089844 15.429688 C 14.535156 16.8125 13.472656 18.460938 11.90625 20.363281 L 7.960938 25.210938 L 14.664063 25.210938 L 14.664063 22.085938 L 15.960938 22.085938 L 15.960938 29.863281 L 5.496094 29.863281 L 5.496094 25.53125 L 7.59375 22.816406 C 9.378906 20.507813 10.570313 18.542969 11.164063 16.921875 C 11.757813 15.300781 12.054688 13.40625 12.054688 11.238281 C 12.054688 9.191406 11.828125 7.636719 11.375 6.570313 C 10.925781 5.492188 10.269531 4.953125 9.402344 4.953125 C 8.65625 4.953125 8.058594 5.378906 7.609375 6.230469 C 7.164063 7.070313 6.878906 8.296875 6.757813 9.90625 "/>
<path style=" stroke:none;fill-rule:nonzero;fill:rgb(90.234375%,9.423828%,3.921509%);fill-opacity:1;" d="M 129.253906 184.839844 L 130.390625 184.839844 L 130.390625 190.554688 C 129.617188 190.996094 128.855469 191.320313 128.105469 191.53125 C 127.347656 191.757813 126.582031 191.871094 125.8125 191.871094 C 124.011719 191.871094 122.605469 191.179688 121.601563 189.792969 C 120.589844 188.421875 120.085938 186.503906 120.085938 184.039063 C 120.085938 182.289063 120.363281 180.714844 120.921875 179.316406 C 121.476563 177.933594 122.539063 176.289063 124.105469 174.382813 L 128.046875 169.535156 L 121.347656 169.535156 L 121.347656 172.660156 L 120.046875 172.660156 L 120.046875 164.882813 L 130.511719 164.882813 L 130.511719 169.214844 L 128.417969 171.933594 C 126.628906 174.238281 125.4375 176.203125 124.84375 177.828125 C 124.25 179.449219 123.953125 181.34375 123.953125 183.507813 C 123.953125 185.554688 124.179688 187.113281 124.636719 188.175781 C 125.085938 189.253906 125.742188 189.792969 126.605469 189.792969 C 127.351563 189.792969 127.949219 189.367188 128.398438 188.515625 C 128.847656 187.675781 129.132813 186.449219 129.253906 184.839844 "/>
<path style=" stroke:none;fill-rule:nonzero;fill:rgb(90.234375%,9.423828%,3.921509%);fill-opacity:1;" d="M 18.050781 37.914063 C 18.042969 41.683594 13.324219 44.425781 11.941406 47.410156 C 10.539063 44.433594 5.8125 41.714844 5.78125 37.949219 C 5.773438 36.171875 7.148438 34.726563 8.835938 34.726563 C 10.53125 34.726563 11.914063 36.15625 11.914063 37.933594 C 11.914063 36.148438 13.28125 34.710938 14.96875 34.710938 C 16.664063 34.699219 18.042969 36.140625 18.050781 37.914063 "/>
<path style=" stroke:none;fill-rule:nonzero;fill:rgb(90.234375%,9.423828%,3.921509%);fill-opacity:1;" d="M 117.960938 156.832031 C 117.96875 153.0625 122.6875 150.320313 124.070313 147.339844 C 125.46875 150.3125 130.195313 153.03125 130.226563 156.796875 C 130.234375 158.574219 128.859375 160.019531 127.171875 160.019531 C 125.476563 160.019531 124.09375 158.589844 124.09375 156.8125 C 124.09375 158.597656 122.726563 160.039063 121.039063 160.039063 C 119.34375 160.046875 117.96875 158.605469 117.960938 156.832031 "/>
<path style=" stroke:none;fill-rule:nonzero;fill:rgb(90.234375%,9.423828%,3.921509%);fill-opacity:1;" d="M 53.28125 168.621094 C 53.300781 159.582031 64.625 153 67.945313 145.839844 C 71.304688 152.980469 82.648438 159.503906 82.726563 168.546875 C 82.742188 172.804688 79.441406 176.28125 75.394531 176.28125 C 71.324219 176.28125 68.003906 172.84375 68.003906 168.585938 C 68.003906 172.863281 64.722656 176.320313 60.671875 176.320313 C 56.601563 176.339844 53.300781 172.882813 53.28125 168.621094 "/>
<path style=" stroke:none;fill-rule:nonzero;fill:rgb(90.234375%,9.423828%,3.921509%);fill-opacity:1;" d="M 82.726563 22.804688 C 82.707031 31.847656 71.382813 38.429688 68.0625 45.589844 C 64.703125 38.449219 53.359375 31.921875 53.28125 22.882813 C 53.265625 18.621094 56.566406 15.148438 60.613281 15.148438 C 64.683594 15.148438 68.003906 18.585938 68.003906 22.84375 C 68.003906 18.566406 71.285156 15.109375 75.335938 15.109375 C 79.40625 15.089844 82.707031 18.546875 82.726563 22.804688 "/>
</g>
</svg>
