<?xml version="1.0" standalone="no"?>
<!DOCTYPE svg PUBLIC "-//W3C//DTD SVG 20010904//EN"
 "http://www.w3.org/TR/2001/REC-SVG-20010904/DTD/svg10.dtd">
<svg version="1.0" xmlns="http://www.w3.org/2000/svg"
 width="135.000000pt" height="196.000000pt" viewBox="0 0 135.000000 196.000000"
 preserveAspectRatio="xMidYMid meet">
<metadata>
Created by potrace 1.16, written by Peter Selinger 2001-2019
</metadata>
<g transform="translate(0.000000,196.000000) scale(0.100000,-0.100000)"
fill="#000000" stroke="none">
<path d="M17 1942 c-16 -17 -17 -98 -17 -965 0 -846 2 -947 16 -961 14 -14 87
-16 655 -16 422 0 647 4 660 10 19 10 19 32 19 965 0 854 -2 955 -16 969 -14
14 -87 16 -658 16 -610 0 -644 -1 -659 -18z m61 -19 c-13 -3 -18 -14 -18 -36
l0 -32 13 25 c20 39 41 32 45 -15 3 -28 -1 -43 -13 -51 -15 -11 -15 -14 4 -33
23 -23 26 -46 11 -86 -12 -31 -30 -29 -47 6 -13 24 -13 24 -13 -8 0 -32 2 -33
40 -33 29 0 42 5 50 19 15 30 12 97 -5 111 -13 10 -13 15 -3 21 20 13 16 89
-7 105 -16 12 63 14 576 14 449 0 598 -3 607 -12 9 -9 12 -231 12 -939 0 -830
-2 -929 -16 -943 -14 -14 -85 -16 -636 -16 -564 0 -623 2 -640 17 -17 15 -18
58 -18 943 0 707 3 929 12 938 7 7 23 11 38 11 16 -1 19 -3 8 -6z"/>
<path d="M557 1782 c-30 -33 -22 -94 21 -150 46 -61 102 -125 106 -121 1 2 27
33 58 69 30 36 60 75 67 87 17 34 14 97 -7 116 -35 32 -100 17 -115 -25 -3 -9
-12 -3 -26 15 -27 33 -79 37 -104 9z"/>
<path d="M73 1603 c-22 -8 -14 -46 17 -83 l29 -35 25 30 c35 41 41 64 23 83
-13 13 -19 13 -32 2 -12 -10 -19 -10 -27 -2 -13 13 -16 13 -35 5z"/>
<path d="M559 1169 c-18 -18 -20 -30 -17 -70 5 -49 12 -59 111 -172 l27 -32
28 32 c98 113 105 123 110 172 3 40 1 52 -17 70 -28 28 -66 27 -96 -4 l-25
-24 -25 24 c-30 31 -68 32 -96 4z"/>
<path d="M630 434 c-80 -98 -90 -116 -90 -160 0 -48 23 -74 64 -74 35 0 66 17
66 35 0 8 5 15 10 15 6 0 10 -4 10 -9 0 -39 84 -55 113 -23 27 30 22 93 -10
135 -59 77 -108 136 -113 136 -3 0 -25 -25 -50 -55z"/>
<path d="M1206 439 c-14 -17 -26 -39 -26 -50 0 -25 27 -36 51 -20 13 8 19 8
19 0 0 -20 45 -5 48 17 3 20 -41 84 -58 84 -5 0 -20 -14 -34 -31z"/>
<path d="M1216 295 c-20 -20 -22 -99 -3 -117 11 -10 11 -16 0 -38 -17 -33 -16
-51 3 -78 12 -17 24 -22 47 -20 28 3 32 7 34 33 3 28 2 29 -7 7 -6 -15 -17
-22 -27 -20 -25 5 -31 68 -8 85 16 11 16 14 -4 39 -24 31 -27 62 -7 89 17 23
43 14 49 -17 3 -13 4 -8 4 12 -2 31 -5 35 -33 38 -19 2 -38 -3 -48 -13z"/>
</g>
</svg>
