<?xml version="1.0" standalone="no"?>
<!DOCTYPE svg PUBLIC "-//W3C//DTD SVG 20010904//EN"
 "http://www.w3.org/TR/2001/REC-SVG-20010904/DTD/svg10.dtd">
<svg version="1.0" xmlns="http://www.w3.org/2000/svg"
 width="135.000000pt" height="196.000000pt" viewBox="0 0 135.000000 196.000000"
 preserveAspectRatio="xMidYMid meet">
<metadata>
Created by potrace 1.16, written by Peter Selinger 2001-2019
</metadata>
<g transform="translate(0.000000,196.000000) scale(0.100000,-0.100000)"
fill="#000000" stroke="none">
<path d="M17 1942 c-16 -17 -17 -98 -17 -965 0 -846 2 -947 16 -961 14 -14 87
-16 655 -16 422 0 647 4 660 10 19 10 19 32 19 965 0 854 -2 955 -16 969 -14
14 -87 16 -658 16 -610 0 -644 -1 -659 -18z m93 -15 c0 -2 -14 -43 -30 -92
-17 -49 -30 -92 -30 -97 0 -4 14 -8 30 -8 25 0 30 -4 30 -25 0 -14 -4 -25 -10
-25 -5 0 -10 -4 -10 -10 0 -5 16 -10 35 -10 19 0 35 5 35 10 0 6 -4 10 -10 10
-5 0 -10 11 -10 25 0 16 6 25 15 25 8 0 15 5 15 10 0 6 -7 10 -15 10 -12 0
-15 17 -15 90 l0 90 583 0 c440 0 586 -3 595 -12 9 -9 12 -231 12 -939 0 -830
-2 -929 -16 -943 -14 -14 -85 -16 -636 -16 -564 0 -623 2 -640 17 -17 15 -18
58 -18 943 0 707 3 929 12 938 10 10 78 18 78 9z m0 -122 c0 -48 -2 -55 -20
-55 -11 0 -20 4 -20 8 0 13 31 102 36 102 2 0 4 -25 4 -55z"/>
<path d="M237 1782 c-25 -27 -22 -91 6 -129 34 -49 111 -142 117 -142 11 0
116 132 132 167 30 63 2 122 -58 122 -24 0 -39 -8 -55 -27 -14 -18 -23 -24
-26 -15 -16 43 -86 57 -116 24z"/>
<path d="M877 1783 c-25 -29 -28 -65 -9 -105 16 -35 121 -167 132 -167 6 0 83
93 118 142 28 40 30 107 4 130 -35 32 -100 17 -115 -25 -3 -9 -12 -3 -26 15
-27 32 -79 37 -104 10z"/>
<path d="M73 1603 c-22 -8 -14 -46 17 -83 l29 -35 25 30 c35 41 41 64 23 83
-13 13 -19 13 -32 2 -12 -10 -19 -10 -27 -2 -13 13 -16 13 -35 5z"/>
<path d="M315 439 c-91 -114 -95 -121 -95 -164 0 -50 23 -75 69 -75 22 0 40 8
56 26 14 15 25 22 25 16 0 -21 32 -42 64 -42 60 0 89 60 58 121 -18 35 -122
167 -132 168 -3 0 -23 -22 -45 -50z"/>
<path d="M941 423 c-92 -111 -106 -158 -64 -205 30 -33 113 -15 113 24 0 6 11
-1 25 -16 17 -18 34 -26 58 -26 75 0 92 87 32 162 -19 24 -49 62 -67 85 -18
23 -35 42 -38 42 -3 0 -29 -30 -59 -66z"/>
<path d="M1206 439 c-14 -17 -26 -39 -26 -50 0 -25 27 -36 51 -20 13 8 19 8
19 0 0 -20 45 -5 48 17 3 20 -41 84 -58 84 -5 0 -20 -14 -34 -31z"/>
<path d="M1200 300 c0 -5 5 -10 10 -10 6 0 10 -11 10 -25 0 -16 -6 -25 -15
-25 -8 0 -15 -4 -15 -9 0 -5 7 -11 15 -15 12 -4 15 -24 15 -91 0 -75 2 -86 17
-83 11 2 26 32 45 88 35 105 35 110 -2 110 -25 0 -30 4 -30 25 0 14 5 25 10
25 6 0 10 5 10 10 0 6 -16 10 -35 10 -19 0 -35 -4 -35 -10z m89 -92 c0 -7 -9
-35 -19 -63 l-18 -50 -1 56 c-1 31 2 59 6 62 11 12 33 8 32 -5z"/>
</g>
</svg>
