<?xml version="1.0" standalone="no"?>
<!DOCTYPE svg PUBLIC "-//W3C//DTD SVG 20010904//EN"
 "http://www.w3.org/TR/2001/REC-SVG-20010904/DTD/svg10.dtd">
<svg version="1.0" xmlns="http://www.w3.org/2000/svg"
 width="135.000000pt" height="196.000000pt" viewBox="0 0 135.000000 196.000000"
 preserveAspectRatio="xMidYMid meet">
<metadata>
Created by potrace 1.16, written by Peter Selinger 2001-2019
</metadata>
<g transform="translate(0.000000,196.000000) scale(0.100000,-0.100000)"
fill="#000000" stroke="none">
<path d="M17 1942 c-16 -17 -17 -98 -17 -965 0 -846 2 -947 16 -961 14 -14 87
-16 655 -16 422 0 647 4 660 10 19 10 19 32 19 965 0 854 -2 955 -16 969 -14
14 -87 16 -658 16 -610 0 -644 -1 -659 -18z m1301 -24 c9 -9 12 -231 12 -939
0 -830 -2 -929 -16 -943 -14 -14 -85 -16 -636 -16 -564 0 -623 2 -640 17 -17
15 -18 58 -18 943 0 707 3 929 12 938 17 17 1269 17 1286 0z"/>
<path d="M70 1897 c0 -20 4 -22 40 -19 31 3 40 8 40 23 0 15 -7 19 -40 19 -35
0 -40 -3 -40 -23z"/>
<path d="M70 1814 c0 -13 3 -14 14 -5 27 23 53 -49 38 -104 -10 -37 -32 -39
-49 -5 l-13 25 0 -32 c0 -32 1 -33 40 -33 34 0 42 4 50 26 15 38 12 97 -6 122
-19 27 -74 31 -74 6z"/>
<path d="M237 1782 c-25 -27 -22 -91 6 -129 34 -49 111 -142 117 -142 11 0
116 132 132 167 30 63 2 122 -58 122 -24 0 -39 -8 -55 -27 -14 -18 -23 -24
-26 -15 -16 43 -86 57 -116 24z"/>
<path d="M877 1783 c-25 -29 -28 -65 -9 -105 16 -35 121 -167 132 -167 6 0 83
93 118 142 28 40 30 107 4 130 -35 32 -100 17 -115 -25 -3 -9 -12 -3 -26 15
-27 32 -79 37 -104 10z"/>
<path d="M73 1603 c-22 -8 -14 -46 17 -83 l29 -35 25 30 c35 41 41 64 23 83
-13 13 -19 13 -32 2 -12 -10 -19 -10 -27 -2 -13 13 -16 13 -35 5z"/>
<path d="M559 1169 c-18 -18 -20 -30 -17 -70 5 -49 12 -59 111 -172 l27 -32
28 32 c98 113 105 123 110 172 3 40 1 52 -17 70 -28 28 -66 27 -96 -4 l-25
-24 -25 24 c-30 31 -68 32 -96 4z"/>
<path d="M315 439 c-91 -114 -95 -121 -95 -164 0 -50 23 -75 69 -75 22 0 40 8
56 26 14 15 25 22 25 16 0 -21 32 -42 64 -42 60 0 89 60 58 121 -18 35 -122
167 -132 168 -3 0 -23 -22 -45 -50z"/>
<path d="M941 423 c-92 -111 -106 -158 -64 -205 30 -33 113 -15 113 24 0 6 11
-1 25 -16 17 -18 34 -26 58 -26 75 0 92 87 32 162 -19 24 -49 62 -67 85 -18
23 -35 42 -38 42 -3 0 -29 -30 -59 -66z"/>
<path d="M1206 439 c-14 -17 -26 -39 -26 -50 0 -25 27 -36 51 -20 13 8 19 8
19 0 0 -20 45 -5 48 17 3 20 -41 84 -58 84 -5 0 -20 -14 -34 -31z"/>
<path d="M1214 285 c-20 -31 -15 -118 9 -142 19 -19 67 -10 67 13 0 13 -3 14
-15 4 -8 -6 -18 -9 -23 -6 -15 9 -23 68 -14 101 11 38 43 41 53 5 7 -21 8 -19
6 10 -2 32 -5 35 -34 38 -25 3 -35 -2 -49 -23z"/>
<path d="M1210 70 c0 -17 7 -20 40 -20 33 0 40 3 40 20 0 17 -7 20 -40 20 -33
0 -40 -3 -40 -20z"/>
</g>
</svg>
