<?xml version="1.0" encoding="UTF-8"?>
<svg xmlns="http://www.w3.org/2000/svg" xmlns:xlink="http://www.w3.org/1999/xlink" width="135.21pt" height="195.64pt" viewBox="0 0 135.21 195.64" version="1.1">
<g id="surface1">
<path style=" stroke:none;fill-rule:nonzero;fill:rgb(100%,100%,100%);fill-opacity:1;" d="M 1 189.097656 C 1 192.121094 3.46875 194.59375 6.492188 194.59375 L 128.722656 194.59375 C 131.738281 194.59375 134.210938 192.121094 134.210938 189.097656 L 134.210938 6.445313 C 134.210938 3.421875 131.738281 0.953125 128.722656 0.953125 L 6.492188 0.953125 C 3.46875 0.953125 1 3.421875 1 6.445313 L 1 189.097656 "/>
<path style="fill:none;stroke-width:19.9926;stroke-linecap:butt;stroke-linejoin:miter;stroke:rgb(0%,0%,0%);stroke-opacity:1;stroke-miterlimit:10;" d="M 10 65.423437 C 10 35.189062 34.6875 10.4625 64.921875 10.4625 L 1287.226563 10.4625 C 1317.382813 10.4625 1342.109375 35.189062 1342.109375 65.423437 L 1342.109375 1891.946875 C 1342.109375 1922.18125 1317.382813 1946.86875 1287.226563 1946.86875 L 64.921875 1946.86875 C 34.6875 1946.86875 10 1922.18125 10 1891.946875 Z M 10 65.423437 " transform="matrix(0.1,0,0,-0.1,0,195.64)"/>
<path style=" stroke:none;fill-rule:nonzero;fill:rgb(90.234375%,9.423828%,3.921509%);fill-opacity:1;" d="M 6.757813 9.90625 L 5.621094 9.90625 L 5.621094 4.191406 C 6.390625 3.753906 7.152344 3.425781 7.90625 3.214844 C 8.664063 2.988281 9.425781 2.878906 10.199219 2.878906 C 12 2.878906 13.402344 3.570313 14.40625 4.953125 C 15.417969 6.328125 15.921875 8.246094 15.921875 10.707031 C 15.921875 12.460938 15.644531 14.03125 15.089844 15.429688 C 14.535156 16.8125 13.472656 18.460938 11.90625 20.363281 L 7.960938 25.210938 L 14.664063 25.210938 L 14.664063 22.085938 L 15.960938 22.085938 L 15.960938 29.863281 L 5.496094 29.863281 L 5.496094 25.53125 L 7.59375 22.816406 C 9.378906 20.507813 10.570313 18.542969 11.164063 16.921875 C 11.757813 15.300781 12.054688 13.40625 12.054688 11.238281 C 12.054688 9.191406 11.828125 7.636719 11.375 6.570313 C 10.925781 5.492188 10.269531 4.953125 9.402344 4.953125 C 8.65625 4.953125 8.058594 5.378906 7.609375 6.234375 C 7.164063 7.074219 6.878906 8.296875 6.757813 9.90625 "/>
<path style=" stroke:none;fill-rule:nonzero;fill:rgb(90.234375%,9.423828%,3.921509%);fill-opacity:1;" d="M 129.253906 184.839844 L 130.390625 184.839844 L 130.390625 190.554688 C 129.617188 190.996094 128.855469 191.320313 128.105469 191.53125 C 127.347656 191.757813 126.582031 191.871094 125.8125 191.871094 C 124.011719 191.871094 122.605469 191.179688 121.601563 189.792969 C 120.589844 188.421875 120.085938 186.503906 120.085938 184.039063 C 120.085938 182.289063 120.363281 180.714844 120.921875 179.316406 C 121.476563 177.933594 122.539063 176.289063 124.105469 174.382813 L 128.046875 169.535156 L 121.347656 169.535156 L 121.347656 172.660156 L 120.046875 172.660156 L 120.046875 164.882813 L 130.511719 164.882813 L 130.511719 169.214844 L 128.417969 171.933594 C 126.628906 174.238281 125.4375 176.203125 124.84375 177.828125 C 124.25 179.449219 123.953125 181.34375 123.953125 183.507813 C 123.953125 185.554688 124.179688 187.113281 124.636719 188.175781 C 125.085938 189.253906 125.742188 189.792969 126.605469 189.792969 C 127.351563 189.792969 127.949219 189.367188 128.398438 188.515625 C 128.847656 187.675781 129.132813 186.449219 129.253906 184.839844 "/>
<path style=" stroke:none;fill-rule:nonzero;fill:rgb(90.234375%,9.423828%,3.921509%);fill-opacity:1;" d="M 11.914063 41.058594 C 13.964844 41.058594 16.011719 41.058594 18.058594 41.058594 C 17.359375 41.027344 16.761719 40.574219 16.199219 40.203125 C 14.9375 39.25 13.753906 38.15625 12.820313 36.878906 C 12.386719 36.234375 11.925781 35.511719 11.914063 34.710938 M 18.058594 41.058594 C 17.167969 41.089844 16.410156 41.652344 15.734375 42.175781 C 14.539063 43.175781 13.503906 44.371094 12.632813 45.664063 C 12.308594 46.199219 11.933594 46.765625 11.914063 47.410156 C 11.914063 45.292969 11.914063 43.175781 11.914063 41.058594 M 11.914063 47.410156 C 11.886719 46.464844 11.308594 45.644531 10.765625 44.914063 C 9.796875 43.707031 8.648438 42.636719 7.382813 41.746094 C 6.894531 41.4375 6.371094 41.074219 5.773438 41.058594 C 7.820313 41.058594 9.867188 41.058594 11.914063 41.058594 M 5.773438 41.058594 C 6.660156 41.03125 7.417969 40.46875 8.097656 39.945313 C 9.292969 38.941406 10.328125 37.746094 11.199219 36.457031 C 11.519531 35.921875 11.898438 35.355469 11.914063 34.710938 C 11.914063 36.828125 11.914063 38.941406 11.914063 41.058594 "/>
<path style=" stroke:none;fill-rule:nonzero;fill:rgb(90.234375%,9.423828%,3.921509%);fill-opacity:1;" d="M 124.09375 153.6875 C 122.046875 153.6875 120 153.6875 117.953125 153.6875 C 118.652344 153.71875 119.246094 154.171875 119.808594 154.546875 C 121.070313 155.5 122.253906 156.589844 123.1875 157.867188 C 123.625 158.511719 124.082031 159.234375 124.09375 160.039063 M 117.953125 153.6875 C 118.839844 153.660156 119.597656 153.09375 120.273438 152.574219 C 121.46875 151.570313 122.503906 150.375 123.378906 149.082031 C 123.699219 148.546875 124.074219 147.980469 124.09375 147.339844 C 124.09375 149.453125 124.09375 151.570313 124.09375 153.6875 M 124.09375 147.339844 C 124.125 148.28125 124.699219 149.101563 125.242188 149.832031 C 126.214844 151.039063 127.359375 152.109375 128.625 153.003906 C 129.117188 153.308594 129.636719 153.671875 130.234375 153.6875 C 128.1875 153.6875 126.140625 153.6875 124.09375 153.6875 M 130.234375 153.6875 C 129.347656 153.714844 128.589844 154.28125 127.914063 154.800781 C 126.71875 155.804688 125.683594 157 124.808594 158.292969 C 124.488281 158.828125 124.113281 159.394531 124.09375 160.039063 C 124.09375 157.921875 124.09375 155.804688 124.09375 153.6875 "/>
<path style=" stroke:none;fill-rule:nonzero;fill:rgb(90.234375%,9.423828%,3.921509%);fill-opacity:1;" d="M 68.003906 161.078125 C 63.089844 161.078125 58.175781 161.078125 53.265625 161.078125 C 54.941406 161.152344 56.371094 162.242188 57.71875 163.136719 C 60.75 165.425781 63.589844 168.046875 65.832031 171.113281 C 66.878906 172.65625 67.976563 174.390625 68.003906 176.316406 M 53.265625 161.078125 C 55.394531 161.011719 57.214844 159.65625 58.835938 158.40625 C 61.707031 155.996094 64.191406 153.132813 66.285156 150.03125 C 67.054688 148.746094 67.960938 147.386719 68.003906 145.839844 C 68.003906 150.921875 68.003906 156 68.003906 161.078125 M 68.003906 145.839844 C 68.078125 148.109375 69.460938 150.074219 70.765625 151.828125 C 73.089844 154.726563 75.847656 157.289063 78.878906 159.433594 C 80.058594 160.167969 81.308594 161.042969 82.742188 161.078125 C 77.832031 161.078125 72.917969 161.078125 68.003906 161.078125 M 82.742188 161.078125 C 80.613281 161.144531 78.792969 162.5 77.171875 163.75 C 74.300781 166.160156 71.816406 169.027344 69.722656 172.128906 C 68.953125 173.414063 68.046875 174.773438 68.003906 176.316406 C 68.003906 171.238281 68.003906 166.160156 68.003906 161.078125 "/>
<path style=" stroke:none;fill-rule:nonzero;fill:rgb(90.234375%,9.423828%,3.921509%);fill-opacity:1;" d="M 68.003906 30.351563 C 72.917969 30.351563 77.832031 30.351563 82.742188 30.351563 C 81.066406 30.273438 79.636719 29.1875 78.289063 28.289063 C 75.257813 26.003906 72.417969 23.382813 70.175781 20.316406 C 69.128906 18.773438 68.03125 17.039063 68.003906 15.109375 M 82.742188 30.351563 C 80.613281 30.417969 78.792969 31.773438 77.171875 33.023438 C 74.300781 35.433594 71.816406 38.296875 69.722656 41.398438 C 68.953125 42.683594 68.046875 44.042969 68.003906 45.589844 C 68.003906 40.507813 68.003906 35.429688 68.003906 30.351563 M 68.003906 45.589844 C 67.929688 43.320313 66.550781 41.355469 65.242188 39.601563 C 62.917969 36.703125 60.160156 34.136719 57.128906 31.996094 C 55.949219 31.261719 54.699219 30.386719 53.265625 30.351563 C 58.175781 30.351563 63.089844 30.351563 68.003906 30.351563 M 53.265625 30.351563 C 55.394531 30.28125 57.214844 28.925781 58.835938 27.679688 C 61.707031 25.265625 64.191406 22.402344 66.285156 19.300781 C 67.054688 18.015625 67.960938 16.65625 68.003906 15.109375 C 68.003906 20.191406 68.003906 25.269531 68.003906 30.351563 "/>
</g>
</svg>
