<?xml version="1.0" standalone="no"?>
<!DOCTYPE svg PUBLIC "-//W3C//DTD SVG 20010904//EN"
 "http://www.w3.org/TR/2001/REC-SVG-20010904/DTD/svg10.dtd">
<svg version="1.0" xmlns="http://www.w3.org/2000/svg"
 width="135.000000pt" height="196.000000pt" viewBox="0 0 135.000000 196.000000"
 preserveAspectRatio="xMidYMid meet">
<metadata>
Created by potrace 1.16, written by Peter Selinger 2001-2019
</metadata>
<g transform="translate(0.000000,196.000000) scale(0.100000,-0.100000)"
fill="#000000" stroke="none">
<path d="M17 1942 c-16 -17 -17 -98 -17 -965 0 -846 2 -947 16 -961 14 -14 87
-16 655 -16 422 0 647 4 660 10 19 10 19 32 19 965 0 854 -2 955 -16 969 -14
14 -87 16 -658 16 -610 0 -644 -1 -659 -18z m1301 -24 c9 -9 12 -231 12 -939
0 -830 -2 -929 -16 -943 -14 -14 -85 -16 -636 -16 -564 0 -623 2 -640 17 -17
15 -18 58 -18 943 0 707 3 929 12 938 17 17 1269 17 1286 0z"/>
<path d="M61 1878 c0 -36 2 -39 9 -20 9 22 53 32 64 13 3 -4 -6 -48 -19 -97
-26 -94 -31 -124 -17 -109 11 13 62 205 62 233 0 20 -5 22 -50 22 l-50 0 1
-42z"/>
<path d="M237 1782 c-25 -27 -22 -91 6 -129 34 -49 111 -142 117 -142 11 0
116 132 132 167 30 63 2 122 -58 122 -24 0 -39 -8 -55 -27 -14 -18 -23 -24
-26 -15 -16 43 -86 57 -116 24z"/>
<path d="M877 1783 c-25 -29 -28 -65 -9 -105 16 -35 121 -167 132 -167 6 0 83
93 118 142 28 40 30 107 4 130 -35 32 -100 17 -115 -25 -3 -9 -12 -3 -26 15
-27 32 -79 37 -104 10z"/>
<path d="M73 1603 c-22 -8 -14 -46 17 -83 l29 -35 25 30 c35 41 41 64 23 83
-13 13 -19 13 -32 2 -12 -10 -19 -10 -27 -2 -13 13 -16 13 -35 5z"/>
<path d="M560 1350 c-13 -13 -20 -33 -20 -58 0 -43 26 -86 98 -167 l42 -48 43
48 c74 84 97 124 97 171 0 33 -5 46 -22 58 -32 23 -65 20 -93 -9 l-25 -24 -25
24 c-29 30 -68 32 -95 5z"/>
<path d="M255 1178 c-11 -6 -23 -16 -27 -22 -15 -22 -7 -82 15 -117 27 -44
127 -157 127 -143 0 5 27 40 60 78 33 38 64 85 70 104 13 47 -9 99 -45 108
-33 8 -75 -10 -82 -36 -5 -18 -7 -17 -33 10 -30 32 -52 37 -85 18z"/>
<path d="M887 1178 c-26 -21 -37 -62 -26 -101 9 -33 122 -172 139 -172 12 0
107 111 125 145 51 99 -34 186 -106 109 -19 -21 -29 -26 -29 -16 0 20 -38 47
-65 47 -12 0 -29 -6 -38 -12z"/>
<path d="M315 439 c-91 -114 -95 -121 -95 -164 0 -50 23 -75 69 -75 22 0 40 8
56 26 14 15 25 22 25 16 0 -21 32 -42 64 -42 60 0 89 60 58 121 -18 35 -122
167 -132 168 -3 0 -23 -22 -45 -50z"/>
<path d="M941 423 c-92 -111 -106 -158 -64 -205 30 -33 113 -15 113 24 0 6 11
-1 25 -16 17 -18 34 -26 58 -26 75 0 92 87 32 162 -19 24 -49 62 -67 85 -18
23 -35 42 -38 42 -3 0 -29 -30 -59 -66z"/>
<path d="M1206 439 c-14 -17 -26 -39 -26 -50 0 -25 27 -36 51 -20 13 8 19 8
19 0 0 -20 45 -5 48 17 3 20 -41 84 -58 84 -5 0 -20 -14 -34 -31z"/>
<path d="M1246 258 c-61 -217 -61 -208 4 -208 l50 0 -1 43 c-1 23 -4 32 -6 20
-4 -19 -11 -23 -39 -23 -19 0 -34 2 -34 4 0 2 12 48 26 101 14 53 23 101 21
108 -2 7 -12 -14 -21 -45z"/>
</g>
</svg>
