<?xml version="1.0" standalone="no"?>
<!DOCTYPE svg PUBLIC "-//W3C//DTD SVG 20010904//EN"
 "http://www.w3.org/TR/2001/REC-SVG-20010904/DTD/svg10.dtd">
<svg version="1.0" xmlns="http://www.w3.org/2000/svg"
 width="135.000000pt" height="196.000000pt" viewBox="0 0 135.000000 196.000000"
 preserveAspectRatio="xMidYMid meet">
<metadata>
Created by potrace 1.16, written by Peter Selinger 2001-2019
</metadata>
<g transform="translate(0.000000,196.000000) scale(0.100000,-0.100000)"
fill="#FF0000" stroke="none">
<path d="M17 1942 c-16 -17 -17 -98 -17 -965 0 -846 2 -947 16 -961 14 -14 87
-16 655 -16 422 0 647 4 660 10 19 10 19 32 19 965 0 854 -2 955 -16 969 -14
14 -87 16 -658 16 -610 0 -644 -1 -659 -18z m65 -28 c-25 -17 -31 -81 -10
-102 8 -8 8 -15 -2 -27 -17 -20 -18 -88 -1 -109 16 -19 62 -21 79 -4 16 16 16
100 0 116 -9 9 -9 15 0 24 19 19 14 76 -8 98 l-20 20 593 0 c448 0 596 -3 605
-12 9 -9 12 -231 12 -939 0 -830 -2 -929 -16 -943 -14 -14 -85 -16 -636 -16
-564 0 -623 2 -640 17 -17 15 -18 58 -18 943 0 707 3 929 12 938 7 7 26 12 42
12 30 0 30 0 8 -16z m44 -29 c8 -33 -3 -77 -19 -72 -15 4 -21 40 -13 73 8 31
24 31 32 -1z m-1 -156 c0 -41 -4 -54 -15 -54 -16 0 -27 73 -16 102 13 33 31 5
31 -48z"/>
<path d="M237 1782 c-25 -27 -22 -91 6 -129 34 -49 111 -142 117 -142 11 0
116 132 132 167 30 63 2 122 -58 122 -24 0 -39 -8 -55 -27 -14 -18 -23 -24
-26 -15 -16 43 -86 57 -116 24z"/>
<path d="M878 1783 c-48 -55 -29 -105 88 -236 l34 -37 33 36 c82 93 107 135
107 178 0 51 -22 76 -68 76 -30 0 -56 -17 -65 -42 -3 -9 -12 -3 -26 15 -27 32
-79 37 -103 10z"/>
<path d="M73 1603 c-22 -8 -14 -46 17 -83 l29 -35 25 30 c35 41 41 64 23 83
-13 13 -19 13 -32 2 -12 -10 -19 -10 -27 -2 -13 13 -16 13 -35 5z"/>
<path d="M240 1350 c-45 -45 -20 -119 78 -225 l44 -47 49 54 c62 68 102 146
93 182 -14 56 -78 73 -119 31 l-25 -24 -25 24 c-29 30 -68 32 -95 5z"/>
<path d="M883 1355 c-53 -37 -27 -123 67 -224 l51 -53 42 47 c71 81 97 124 97
167 0 72 -76 107 -118 53 l-20 -26 -26 26 c-28 28 -62 32 -93 10z"/>
<path d="M300 854 c-71 -84 -79 -100 -80 -151 0 -32 5 -45 22 -57 34 -24 73
-20 97 10 l21 27 21 -27 c23 -30 63 -34 96 -11 51 36 32 109 -57 210 -29 33
-56 61 -59 62 -3 1 -31 -28 -61 -63z"/>
<path d="M940 855 c-88 -104 -105 -160 -63 -207 25 -28 78 -23 102 8 l21 27
21 -27 c24 -30 63 -34 97 -10 17 12 22 25 22 57 -1 23 -6 52 -13 64 -14 25
-120 152 -127 152 -3 0 -30 -29 -60 -64z"/>
<path d="M315 439 c-91 -114 -95 -121 -95 -164 0 -50 23 -75 69 -75 22 0 40 8
56 26 14 15 25 22 25 16 0 -21 32 -42 64 -42 60 0 89 60 58 121 -18 35 -122
167 -132 168 -3 0 -23 -22 -45 -50z"/>
<path d="M935 415 c-84 -103 -98 -151 -57 -197 28 -33 112 -15 112 24 0 6 11
-1 25 -16 17 -18 34 -26 58 -26 75 0 92 87 32 162 -19 24 -49 62 -67 85 -18
23 -35 42 -38 42 -3 0 -32 -33 -65 -74z"/>
<path d="M1206 439 c-14 -17 -26 -39 -26 -50 0 -25 27 -36 51 -20 13 8 19 8
19 0 0 -20 45 -5 48 17 3 20 -41 84 -58 84 -5 0 -20 -14 -34 -31z"/>
<path d="M1210 295 c-8 -9 -10 -33 -6 -67 7 -67 7 -65 0 -114 -4 -30 -2 -45
11 -57 22 -23 62 -21 75 2 12 24 13 71 0 91 -6 9 -5 19 2 28 15 18 14 97 -2
116 -16 20 -64 21 -80 1z m55 -61 c0 -37 -4 -49 -15 -49 -16 0 -27 63 -16 92
12 31 31 6 31 -43z m1 -98 c8 -33 2 -69 -13 -73 -16 -5 -27 39 -19 72 8 32 24
32 32 1z"/>
</g>
</svg>
