<?xml version="1.0" standalone="no"?>
<!DOCTYPE svg PUBLIC "-//W3C//DTD SVG 20010904//EN"
 "http://www.w3.org/TR/2001/REC-SVG-20010904/DTD/svg10.dtd">
<svg version="1.0" xmlns="http://www.w3.org/2000/svg"
 width="135.000000pt" height="196.000000pt" viewBox="0 0 135.000000 196.000000"
 preserveAspectRatio="xMidYMid meet">
<metadata>
Created by potrace 1.16, written by Peter Selinger 2001-2019
</metadata>
<g transform="translate(0.000000,196.000000) scale(0.100000,-0.100000)"
fill="#000000" stroke="none">
<path d="M17 1942 c-16 -17 -17 -98 -17 -965 0 -846 2 -947 16 -961 14 -14 87
-16 655 -16 422 0 647 4 660 10 19 10 19 32 19 965 0 854 -2 955 -16 969 -14
14 -87 16 -658 16 -610 0 -644 -1 -659 -18z m1301 -24 c9 -9 12 -231 12 -939
0 -830 -2 -929 -16 -943 -14 -14 -85 -16 -636 -16 -564 0 -623 2 -640 17 -17
15 -18 58 -18 943 0 707 3 929 12 938 17 17 1269 17 1286 0z"/>
<path d="M98 1913 c9 -3 12 -40 12 -133 0 -125 -8 -159 -29 -123 -9 16 -10 16
-11 -4 0 -19 6 -23 29 -23 17 0 31 6 35 16 3 9 6 71 6 139 0 89 3 125 13 128
6 3 -6 5 -28 5 -22 0 -34 -2 -27 -5z"/>
<path d="M748 1913 l522 -3 0 -362 c0 -199 -4 -358 -8 -352 -4 5 -21 26 -36
47 -15 20 -31 35 -36 32 -5 -3 -12 0 -16 6 -4 8 -3 9 4 5 7 -4 12 -3 12 3 0
12 -146 142 -197 175 -45 28 -91 76 -74 76 7 0 9 5 6 10 -3 6 -15 10 -26 10
-11 0 -19 7 -19 16 0 9 5 12 12 8 7 -5 9 -2 5 9 -3 9 -1 17 5 19 7 3 3 13 -9
26 -15 14 -18 22 -10 25 7 3 -2 10 -20 17 -21 8 -30 16 -26 26 3 8 1 14 -5 14
-6 0 -5 18 4 47 8 25 14 51 14 57 0 7 -26 26 -57 44 l-57 33 -105 -7 c-102 -7
-107 -8 -148 -42 l-42 -35 25 -30 c14 -16 28 -43 31 -58 3 -16 9 -26 13 -24
16 10 -2 -34 -21 -51 -10 -9 -19 -23 -19 -31 0 -7 -4 -13 -10 -13 -5 0 -16
-12 -24 -27 -10 -19 -30 -34 -65 -46 -55 -19 -97 -58 -153 -140 -21 -30 -43
-50 -59 -53 -16 -4 -32 -19 -45 -42 l-19 -36 -6 105 c-3 57 -6 -219 -7 -613
l-2 -718 528 2 527 3 -522 2 -523 3 0 367 0 368 34 -51 c41 -61 196 -208 248
-235 20 -10 47 -33 59 -51 13 -17 17 -28 10 -23 -9 5 -12 3 -9 -6 3 -8 14 -15
26 -17 20 -3 32 -22 14 -22 -14 0 -8 -54 7 -64 10 -6 11 -10 1 -16 -8 -5 -1
-11 19 -18 23 -8 29 -15 24 -28 -4 -11 -2 -15 4 -11 7 4 5 -17 -4 -53 -9 -34
-14 -62 -12 -63 2 -2 31 -17 64 -34 58 -30 63 -31 140 -23 43 4 85 6 92 3 6
-3 36 13 65 36 29 22 55 36 58 32 8 -13 47 -31 65 -31 9 0 30 14 46 31 16 17
29 26 29 20 0 -14 36 -51 50 -51 6 0 10 42 10 106 0 104 0 106 -33 149 l-33
43 -50 -56 c-67 -75 -94 -121 -94 -159 0 -18 -4 -33 -9 -33 -14 0 -38 43 -51
91 -11 40 -10 45 9 57 12 8 21 20 21 28 0 24 56 74 102 92 44 17 95 66 161
154 15 20 37 38 49 40 14 2 31 18 45 43 l22 40 4 -105 c1 -58 4 216 5 608 l2
712 -527 -2 -528 -3 523 -2z m-44 -120 c4 -4 15 -8 24 -8 12 0 18 -10 20 -32
2 -18 8 -33 13 -33 6 0 7 -5 3 -12 -5 -7 -12 -5 -22 8 -14 19 -15 18 -8 -1 23
-66 30 -107 20 -123 -6 -9 -15 -16 -20 -16 -5 1 -18 -5 -29 -12 -11 -8 -35
-15 -55 -15 l-35 -2 40 -6 c22 -3 43 -2 46 3 4 5 12 5 19 1 8 -5 11 -4 7 1 -3
6 3 15 13 22 12 7 21 8 25 2 3 -6 -1 -10 -10 -10 -9 0 -14 -4 -11 -9 9 -15
-46 -31 -93 -26 -24 2 -51 11 -60 21 -15 16 -15 16 2 11 14 -5 11 3 -12 36
-36 50 -44 90 -18 95 12 3 17 -3 17 -22 0 -14 5 -28 10 -31 6 -4 8 -11 5 -16
-8 -12 26 -11 45 1 12 8 10 10 -10 11 -17 1 -19 3 -7 6 9 2 17 11 17 19 0 13
-2 13 -16 0 -24 -25 -34 -19 -34 18 0 55 -8 66 -37 55 -13 -5 -25 -9 -27 -9
-1 0 -2 9 -3 20 -2 24 24 39 86 50 63 11 86 11 95 3z m126 -119 c0 -2 -16 -4
-35 -4 -19 0 -35 4 -35 8 0 4 16 6 35 4 19 -2 35 -6 35 -8z m-300 -23 c0 -9
-41 -23 -49 -16 -3 4 28 20 47 24 1 1 2 -3 2 -8z m305 -13 c5 -5 -5 -6 -25 -2
-19 4 -39 11 -45 16 -5 5 5 6 25 2 19 -4 39 -11 45 -16z m-5 -46 c2 -2 -9 -2
-25 1 -19 2 -31 10 -33 21 -4 17 -2 17 25 0 15 -10 30 -20 33 -22z m-277 9
c-2 -6 2 -11 7 -11 21 0 9 -18 -18 -28 -23 -8 -29 -7 -29 5 0 8 6 12 16 8 11
-4 13 -3 6 4 -5 5 -26 11 -45 14 l-35 4 38 1 c21 1 36 6 33 11 -4 5 2 8 11 6
10 -1 17 -8 16 -14z m-37 -80 c0 -11 -4 -17 -8 -15 -4 3 -8 12 -8 20 0 8 4 14
8 14 4 0 8 -9 8 -19z m124 -86 c0 -5 -5 -3 -10 5 -5 8 -10 20 -10 25 0 6 5 3
10 -5 5 -8 10 -19 10 -25z m67 11 c-2 -6 -14 -11 -27 -11 -13 0 -25 5 -27 11
-2 6 10 11 27 11 17 0 29 -5 27 -11z m199 -13 c-10 -10 -19 5 -10 18 6 11 8
11 12 0 2 -7 1 -15 -2 -18z m-491 8 c3 -5 1 -12 -5 -16 -5 -3 -10 1 -10 9 0
18 6 21 15 7z m575 -6 c0 -8 -6 -15 -14 -15 -17 0 -28 14 -19 24 12 12 33 6
33 -9z m-596 -46 c-8 -14 -24 -10 -24 6 0 9 6 12 15 9 8 -4 12 -10 9 -15z
m576 10 c0 -6 -8 -13 -19 -16 -13 -3 -17 -11 -14 -24 4 -13 0 -19 -10 -19 -23
0 -29 16 -12 30 8 7 15 19 15 26 0 8 9 14 20 14 11 0 20 -5 20 -11z m-260 -26
c0 -7 -9 -13 -20 -13 -11 0 -20 6 -20 13 0 7 9 13 20 13 11 0 20 -6 20 -13z
m-347 -17 c7 3 3 -2 -7 -10 -23 -19 -29 -16 -19 10 4 11 8 13 11 6 2 -7 9 -10
15 -6z m763 -38 c9 -17 25 -56 35 -86 l19 -55 -25 -33 c-14 -19 -26 -37 -27
-41 -1 -5 -10 -17 -20 -27 -20 -22 -23 -36 -8 -36 6 0 10 -5 10 -11 0 -8 -4
-8 -14 0 -11 9 -18 8 -30 -4 -9 -9 -16 -12 -16 -6 0 6 -7 11 -16 11 -11 0 -14
5 -9 18 3 9 16 62 27 116 11 55 26 106 34 113 10 10 11 20 4 39 -13 33 -13 34
5 34 8 0 22 -14 31 -32z m-212 -9 c-3 -5 -11 -9 -19 -9 -8 0 -11 -7 -8 -20 4
-14 0 -20 -10 -20 -20 0 -35 22 -18 28 7 2 17 15 22 29 8 21 12 23 24 13 8 -7
12 -16 9 -21z m60 16 c-4 -8 -8 -15 -10 -15 -2 0 -4 7 -4 15 0 8 4 15 10 15 5
0 7 -7 4 -15z m-639 -9 c13 5 16 4 11 -4 -8 -14 -42 -16 -50 -3 -3 4 -3 11 1
15 4 3 10 2 13 -4 4 -6 15 -8 25 -4z m729 -2 c3 -8 2 -12 -4 -9 -6 3 -10 10
-10 16 0 14 7 11 14 -7z m-359 -13 c-3 -6 -11 -8 -17 -5 -6 4 -5 9 3 15 16 10
23 4 14 -10z m258 -21 c3 -11 1 -18 -4 -14 -5 3 -9 12 -9 20 0 20 7 17 13 -6z
m-666 4 c-3 -3 -12 -4 -19 -1 -8 3 -5 6 6 6 11 1 17 -2 13 -5z m-51 -31 c-10
-10 -19 5 -10 18 6 11 8 11 12 0 2 -7 1 -15 -2 -18z m213 -2 c28 -39 26 -61
-8 -105 l-29 -36 -21 33 c-12 19 -21 42 -21 51 0 18 41 86 52 86 4 0 16 -13
27 -29z m494 2 c62 -32 87 -56 87 -84 0 -32 -26 -46 -33 -18 -3 11 -14 19 -26
19 -12 0 -25 8 -28 18 -9 23 -25 33 -46 26 -22 -7 -34 21 -17 41 16 19 24 19
63 -2z m-89 -9 c4 -10 0 -18 -13 -21 -12 -3 -17 -11 -14 -19 3 -8 -2 -17 -11
-20 -9 -3 -16 -15 -16 -25 0 -10 -7 -19 -15 -19 -9 0 -12 -6 -9 -15 4 -8 -1
-17 -10 -21 -9 -3 -16 -15 -16 -25 0 -10 -7 -19 -15 -19 -13 0 -14 -4 -5 -20
6 -11 7 -20 3 -19 -21 4 -33 -2 -33 -16 0 -9 -6 -18 -14 -21 -8 -3 -12 -12 -9
-20 3 -7 -2 -17 -11 -20 -9 -3 -16 -13 -16 -20 0 -8 -7 -17 -15 -20 -8 -4 -13
-10 -10 -14 3 -5 0 -12 -5 -15 -6 -4 -16 -18 -21 -32 -8 -21 -12 -23 -24 -13
-16 14 -11 30 10 30 8 0 11 7 8 20 -4 14 0 20 12 20 12 0 15 5 11 16 -4 10 0
18 13 21 12 3 17 11 14 19 -3 8 2 17 11 20 9 3 16 15 16 25 0 10 7 19 15 19 9
0 12 6 9 15 -4 8 1 17 10 21 9 3 16 15 16 25 0 10 7 19 15 19 9 0 12 6 9 15
-4 8 1 17 10 21 9 3 16 13 16 20 0 8 7 17 15 20 8 4 12 11 8 17 -3 5 1 15 9
21 8 6 17 19 21 29 8 21 23 22 31 1z m-154 2 c0 -11 -19 -15 -25 -6 -3 5 1 10
9 10 9 0 16 -2 16 -4z m-489 -20 c15 9 10 -2 -6 -16 -13 -10 -15 -9 -14 11 0
13 3 18 6 11 2 -6 9 -10 14 -6z m999 -10 c0 -3 -4 -8 -10 -11 -5 -3 -10 -1
-10 4 0 6 5 11 10 11 6 0 10 -2 10 -4z m-1067 -41 c-3 -9 -8 -14 -10 -11 -3 3
-2 9 2 15 9 16 15 13 8 -4z m38 1 c15 9 10 -13 -6 -26 -13 -11 -15 -8 -14 16
0 16 3 23 6 16 2 -6 9 -10 14 -6z m139 -10 c0 -20 -26 -40 -35 -26 -4 6 -1 9
7 8 7 -2 12 5 12 15 -1 9 2 17 7 17 5 0 9 -6 9 -14z m10 -30 c0 -2 -8 -10 -17
-17 -16 -13 -17 -12 -4 4 13 16 21 21 21 13z m65 -19 c8 -29 -39 -136 -49
-112 -3 9 -6 37 -6 61 0 32 -3 43 -12 38 -7 -4 -8 -3 -4 5 4 6 11 9 16 6 4 -3
13 2 20 10 18 21 29 19 35 -8z m-225 -1 c0 -2 -7 -9 -15 -16 -12 -10 -15 -10
-15 4 0 9 7 16 15 16 8 0 15 -2 15 -4z m977 -42 c1 -18 0 -22 -4 -9 -3 11 -10
26 -17 34 -9 11 -8 13 4 9 8 -2 16 -18 17 -34z m50 -6 c-3 -7 -5 -2 -5 12 0
14 2 19 5 13 2 -7 2 -19 0 -25z m-1044 -6 c-6 -14 -25 -12 -30 4 -2 5 5 10 16
10 11 0 17 -5 14 -14z m71 2 c3 -8 2 -12 -4 -9 -6 3 -10 10 -10 16 0 14 7 11
14 -7z m56 12 c0 -3 -4 -8 -10 -11 -5 -3 -10 -1 -10 4 0 6 5 11 10 11 6 0 10
-2 10 -4z m44 -4 c3 -5 -1 -9 -9 -9 -8 0 -15 4 -15 9 0 4 4 8 9 8 6 0 12 -4
15 -8z m-124 -16 c0 -3 -4 -8 -10 -11 -5 -3 -10 -1 -10 4 0 6 5 11 10 11 6 0
10 -2 10 -4z m950 -21 c0 -7 -30 -13 -34 -7 -3 4 4 9 15 9 10 1 19 0 19 -2z
m-1016 -26 c-8 -14 -24 -10 -24 6 0 9 6 12 15 9 8 -4 12 -10 9 -15z m511 1 c3
-5 1 -10 -4 -10 -6 0 -11 5 -11 10 0 6 2 10 4 10 3 0 8 -4 11 -10z m577 -12
c-7 -7 -12 -8 -12 -2 0 14 12 26 19 19 2 -3 -1 -11 -7 -17z m-948 -6 c2 -4 -4
-9 -15 -9 -11 -1 -17 2 -14 8 7 11 22 12 29 1z m759 1 c-7 -2 -19 -2 -25 0 -7
3 -2 5 12 5 14 0 19 -2 13 -5z m48 -12 c4 7 11 10 16 6 9 -9 -17 -28 -29 -21
-4 3 -8 11 -7 17 0 8 3 7 6 -2 4 -11 7 -11 14 0z m-747 -13 c-3 -4 -11 -5 -19
-1 -21 7 -19 12 4 10 11 0 18 -5 15 -9z m-204 -8 c0 -5 -4 -10 -10 -10 -5 0
-10 5 -10 10 0 6 5 10 10 10 6 0 10 -4 10 -10z m580 0 c0 -5 -5 -10 -11 -10
-5 0 -7 5 -4 10 3 6 8 10 11 10 2 0 4 -4 4 -10z m290 -48 c0 -31 -7 -56 -19
-72 l-19 -24 -13 27 c-11 24 -9 34 11 77 13 27 27 47 32 44 4 -3 8 -26 8 -52z
m229 30 c0 -11 -2 -12 -6 -4 -2 6 -9 10 -14 6 -10 -6 -12 9 -3 19 10 10 24 -2
23 -21z m-952 -6 c25 14 56 6 49 -13 -4 -8 -16 -63 -28 -122 -11 -58 -27 -110
-34 -116 -8 -7 -9 -17 -3 -34 7 -18 13 -21 21 -13 8 8 8 16 -2 29 -13 17 -13
17 5 1 15 -14 16 -20 5 -32 -7 -9 -23 -16 -36 -16 -18 0 -26 10 -42 53 -34 91
-47 149 -33 144 11 -3 48 37 65 71 9 18 12 32 6 32 -5 0 -10 8 -10 18 0 14 2
15 10 2 7 -11 14 -12 27 -4z m-147 -20 c0 -3 -4 -8 -10 -11 -5 -3 -10 -1 -10
4 0 6 5 11 10 11 6 0 10 -2 10 -4z m1089 -24 c0 -10 -3 -12 -5 -5 -3 7 -13 9
-22 6 -15 -6 -15 -5 -3 10 15 19 31 14 30 -11z m-1007 -29 c7 -9 7 -13 0 -13
-12 0 -22 25 -21 48 1 13 3 12 6 -3 3 -11 10 -26 15 -32z m821 26 c-8 -8 -13
-7 -18 2 -5 8 -4 10 3 5 7 -4 12 -2 12 5 0 7 3 9 7 6 4 -4 2 -12 -4 -18z
m-886 -11 c-3 -8 -6 -5 -6 6 -1 11 2 17 5 13 3 -3 4 -12 1 -19z m-17 -2 c0 -3
-4 -8 -10 -11 -5 -3 -10 -1 -10 4 0 6 5 11 10 11 6 0 10 -2 10 -4z m1070 -15
c0 -5 -7 -12 -16 -15 -14 -5 -15 -4 -4 9 14 17 20 19 20 6z m-169 -19 c-5 -10
-18 -25 -27 -33 -11 -9 -9 -2 6 19 26 35 36 42 21 14z m-76 -25 c21 -39 16
-69 -18 -111 l-24 -29 -21 35 c-12 20 -22 43 -22 52 0 18 47 86 60 86 4 0 15
-15 25 -33z m55 30 c0 -2 -10 -12 -22 -23 l-23 -19 19 23 c18 21 26 27 26 19z
m45 -17 c3 -5 1 -10 -4 -10 -6 0 -11 5 -11 10 0 6 2 10 4 10 3 0 8 -4 11 -10z
m-715 -15 c0 -9 12 -18 29 -21 18 -4 31 -14 34 -26 3 -11 13 -19 24 -18 46 5
55 -9 30 -44 -13 -18 -15 -18 -48 -1 -61 31 -99 65 -99 89 0 12 3 26 7 29 11
12 23 8 23 -8z m234 -4 c3 -5 -1 -14 -9 -21 -8 -7 -15 -19 -15 -26 0 -8 -9
-14 -20 -14 -25 0 -26 20 -1 27 13 3 17 11 14 24 -5 20 20 28 31 10z m610 -16
c-3 -7 -12 -11 -20 -8 -11 4 -12 9 -3 19 14 17 30 9 23 -11z m-154 5 c0 -5 -5
-10 -11 -10 -5 0 -7 5 -4 10 3 6 8 10 11 10 2 0 4 -4 4 -10z m-370 -14 c0 -3
-4 -8 -10 -11 -5 -3 -10 -1 -10 4 0 6 5 11 10 11 6 0 10 -2 10 -4z m-510 -32
c0 -8 -5 -12 -10 -9 -6 4 -8 11 -5 16 9 14 15 11 15 -7z m1000 -4 c0 -13 -5
-18 -15 -14 -12 5 -13 10 -4 20 15 19 19 18 19 -6z m-134 -11 c19 -22 19 -22
-3 -8 -13 8 -23 17 -23 21 0 12 6 9 26 -13z m-493 -14 c1 -5 -6 -11 -15 -13
-11 -2 -18 3 -18 13 0 17 30 18 33 0z m-363 -5 c0 -5 -2 -10 -4 -10 -3 0 -8 5
-11 10 -3 6 -1 10 4 10 6 0 11 -4 11 -10z m510 6 c0 -2 -7 -6 -15 -10 -8 -3
-15 -1 -15 4 0 6 7 10 15 10 8 0 15 -2 15 -4z m447 -33 c-3 -3 -11 -2 -17 2
-9 6 -9 10 1 16 14 8 27 -7 16 -18z m-713 -20 c-8 -8 -14 -23 -14 -33 0 -13
-5 -17 -15 -14 -13 5 -13 8 0 21 18 18 19 35 3 52 -11 10 -8 10 14 0 23 -10
25 -14 12 -26z m96 12 c0 -8 -9 -15 -21 -15 -14 0 -18 -4 -12 -12 4 -7 8 -22
10 -33 1 -11 -1 -14 -3 -7 -3 6 -12 12 -20 12 -17 0 -18 8 -1 43 13 29 47 37
47 12z m170 -25 c0 -5 -7 -10 -15 -10 -8 0 -15 5 -15 10 0 6 7 10 15 10 8 0
15 -4 15 -10z m384 2 c2 -4 1 -14 -5 -22 -6 -10 -9 -11 -9 -2 0 6 -7 12 -16
12 -8 0 -12 5 -9 10 7 12 32 13 39 2z m-38 -48 c-3 -9 -6 -18 -6 -20 0 -3 -6
1 -14 8 -10 9 -11 15 -2 20 19 13 28 9 22 -8z m-566 -9 c0 -8 -9 -15 -19 -15
-14 0 -18 -5 -14 -20 4 -14 0 -20 -11 -20 -19 0 -20 8 -3 43 13 29 47 37 47
12z m227 -12 c2 -6 -5 -13 -17 -16 -12 -3 -20 0 -20 7 0 26 29 33 37 9z m303
-18 c0 -9 -9 -15 -22 -15 -22 1 -23 1 -4 15 25 19 26 19 26 0z m-580 -46 c0
-12 -29 -24 -37 -16 -3 4 -3 13 0 21 6 16 37 11 37 -5z m60 2 c0 -6 -4 -13
-10 -16 -5 -3 -10 1 -10 9 0 9 5 16 10 16 6 0 10 -4 10 -9z m230 -6 c7 -8 11
-15 9 -16 -42 -7 -59 -6 -59 6 0 12 13 22 31 24 4 1 12 -6 19 -14z m260 0 c0
-9 -6 -12 -16 -8 -13 5 -13 7 -2 14 17 11 18 11 18 -6z m-103 -87 c-3 -8 -6
-5 -6 6 -1 11 2 17 5 13 3 -3 4 -12 1 -19z m-108 -9 c18 -11 30 -23 26 -27 -4
-4 -10 -1 -12 6 -3 6 -9 12 -15 12 -5 0 6 -18 25 -41 38 -44 54 -86 38 -102
-13 -13 -31 0 -31 23 0 10 -5 22 -10 25 -13 8 -50 -4 -50 -16 0 -6 7 -6 19 1
29 15 31 13 31 -27 0 -21 4 -43 8 -49 10 -16 56 2 46 17 -4 7 -3 9 4 5 5 -3
13 0 15 6 3 7 6 9 6 3 1 -14 -11 -30 -34 -44 -19 -11 -19 -12 3 -6 12 4 22 2
22 -3 0 -29 -166 -57 -186 -31 -20 27 -56 161 -50 185 4 14 11 22 16 19 5 -3
12 -1 15 5 4 6 16 8 28 5 17 -5 19 -4 7 4 -12 8 -9 12 18 17 17 4 32 10 32 14
0 8 -32 8 -40 0 -3 -3 -25 -15 -49 -27 l-43 -22 15 22 c9 12 20 21 26 20 6 -2
11 2 11 8 0 6 7 9 15 5 8 -3 15 -1 15 4 0 17 43 11 79 -11z m91 -29 c-12 -8
-11 -11 9 -16 22 -7 22 -7 -9 -20 -41 -18 -43 -17 -36 2 3 8 2 12 -4 9 -6 -3
-10 1 -10 9 0 13 16 20 55 24 6 1 3 -3 -5 -8z m47 4 c-3 -3 -12 -4 -19 -1 -8
3 -5 6 6 6 11 1 17 -2 13 -5z m-297 -49 c0 -19 -9 -19 -34 0 -19 14 -19 15 7
15 17 0 27 -5 27 -15z m275 -5 c-3 -5 -12 -10 -18 -10 -7 0 -6 4 3 10 19 12
23 12 15 0z m-279 -28 c24 -16 11 -38 -23 -38 -43 0 -43 16 0 17 l32 1 -32 9
c-18 5 -33 12 -33 14 0 8 44 5 56 -3z m274 -5 c-27 -15 -36 -14 -25 2 3 6 16
11 28 11 21 0 21 -1 -3 -13z m-236 -84 c4 -16 9 -36 12 -45 4 -13 1 -16 -9
-12 -9 3 -17 22 -19 45 -4 45 7 53 16 12z"/>
<path d="M655 1772 c-39 -8 -35 -18 7 -15 23 2 43 5 45 7 7 6 -31 12 -52 8z"/>
<path d="M722 1760 c0 -14 2 -19 5 -12 2 6 2 18 0 25 -3 6 -5 1 -5 -13z"/>
<path d="M538 1743 c7 -3 16 -2 19 1 4 3 -2 6 -13 5 -11 0 -14 -3 -6 -6z"/>
<path d="M642 1732 c2 -12 14 -17 36 -17 46 -1 40 29 -6 32 -26 1 -32 -2 -30
-15z"/>
<path d="M625 1602 c-15 -11 -17 -32 -2 -26 8 3 14 11 14 19 0 8 -1 15 -1 15
-1 0 -5 -4 -11 -8z"/>
<path d="M1116 1242 c-3 -4 -3 -17 -1 -28 2 -10 4 -23 4 -28 2 -16 12 1 17 27
4 25 -10 46 -20 29z"/>
<path d="M1064 1156 c-4 -9 -2 -27 4 -39 10 -22 10 -21 17 6 9 33 -10 62 -21
33z"/>
<path d="M279 865 c-5 -35 -3 -55 6 -55 13 0 15 34 4 52 -5 7 -9 9 -10 3z"/>
<path d="M229 775 c-1 -3 -2 -14 -2 -25 -2 -24 17 -30 21 -7 2 9 -2 17 -8 17
-6 0 -8 5 -5 10 3 6 4 10 1 10 -3 0 -6 -2 -7 -5z"/>
<path d="M727 383 c-12 -11 -8 -21 11 -26 13 -4 11 -5 -5 -6 -13 0 -23 -5 -23
-11 0 -14 23 -12 45 4 18 13 18 14 -4 21 -18 6 -21 9 -10 16 8 5 9 9 3 9 -6 0
-14 -3 -17 -7z"/>
<path d="M650 238 c0 -19 41 -35 60 -23 23 14 6 38 -28 39 -24 1 -32 -3 -32
-16z"/>
<path d="M657 198 c6 -11 55 -10 72 1 8 5 -3 8 -32 7 -25 0 -43 -4 -40 -8z"/>
<path d="M230 1743 l1 -108 34 -39 34 -38 33 37 c81 92 108 136 108 176 0 73
-76 107 -121 54 l-22 -24 -19 24 c-39 50 -48 34 -48 -82z"/>
<path d="M73 1603 c-22 -8 -14 -46 17 -83 l29 -35 25 30 c35 41 41 64 23 83
-13 13 -19 13 -32 2 -12 -10 -19 -10 -27 -2 -13 13 -16 13 -35 5z"/>
<path d="M1206 439 c-14 -17 -26 -39 -26 -50 0 -25 27 -36 51 -20 13 8 19 8
19 0 0 -20 45 -5 48 17 3 20 -41 84 -58 84 -5 0 -20 -14 -34 -31z"/>
<path d="M1232 328 c-8 -8 -12 -52 -12 -140 0 -79 -4 -128 -10 -128 -5 0 -10
-4 -10 -10 0 -5 16 -10 35 -10 19 0 35 5 35 10 0 6 -4 10 -10 10 -14 0 -13
247 1 256 6 3 15 0 21 -7 7 -11 8 -9 6 6 -4 23 -38 31 -56 13z"/>
</g>
</svg>
