<?xml version="1.0" standalone="no"?>
<!DOCTYPE svg PUBLIC "-//W3C//DTD SVG 20010904//EN"
 "http://www.w3.org/TR/2001/REC-SVG-20010904/DTD/svg10.dtd">
<svg version="1.0" xmlns="http://www.w3.org/2000/svg"
 width="135.000000pt" height="196.000000pt" viewBox="0 0 135.000000 196.000000"
 preserveAspectRatio="xMidYMid meet">
<metadata>
Created by potrace 1.16, written by Peter Selinger 2001-2019
</metadata>
<g transform="translate(0.000000,196.000000) scale(0.100000,-0.100000)"
fill="#000000" stroke="none">
<path d="M17 1942 c-16 -17 -17 -98 -17 -965 0 -846 2 -947 16 -961 14 -14 87
-16 655 -16 422 0 647 4 660 10 19 10 19 32 19 965 0 854 -2 955 -16 969 -14
14 -87 16 -658 16 -610 0 -644 -1 -659 -18z m65 -33 c-50 -53 -37 -193 20
-220 13 -6 28 -20 33 -32 14 -29 35 -34 35 -8 0 12 -6 21 -15 21 -8 0 -15 5
-15 10 0 6 4 10 10 10 24 0 42 63 38 133 -3 58 -8 73 -27 88 -23 19 -19 19
245 17 l269 -2 -225 -6 -225 -6 190 -2 c180 -3 188 -4 160 -19 -43 -22 -85
-64 -85 -84 0 -10 -4 -21 -10 -24 -6 -3 -10 -27 -10 -53 0 -26 -6 -73 -14
-104 -7 -32 -11 -68 -9 -81 3 -12 -5 -46 -16 -75 -15 -37 -19 -64 -15 -91 6
-36 3 -40 -47 -84 -30 -26 -62 -47 -71 -47 -10 0 -25 -11 -34 -25 -13 -20 -19
-23 -36 -14 -11 6 -22 8 -25 6 -2 -3 5 -8 16 -12 24 -7 26 -23 9 -60 -14 -31
-62 -35 -77 -6 -7 13 -18 17 -35 14 -25 -5 -25 -4 -25 53 1 33 6 62 12 66 9 5
9 10 -1 20 -6 6 -12 21 -12 32 1 19 2 19 14 -4 14 -26 20 -90 8 -90 -4 0 -8
-16 -9 -35 -2 -26 1 -35 12 -35 8 0 15 5 15 11 0 7 11 4 28 -6 l27 -18 -20 22
c-11 13 -27 20 -37 18 -10 -3 -18 -1 -18 5 0 5 9 12 20 15 10 3 22 13 25 22 3
12 17 16 52 16 37 0 53 5 72 24 31 31 13 46 -51 41 -25 -1 -26 0 -15 24 7 14
15 26 18 26 10 0 89 64 89 72 0 5 -8 11 -17 15 -10 3 -25 15 -34 26 -15 19
-18 19 -49 4 -18 -9 -36 -14 -41 -12 -12 8 -49 -17 -49 -32 0 -7 4 -13 9 -13
5 0 20 -15 34 -33 l26 -34 -21 -34 -21 -34 -13 44 c-7 24 -21 53 -32 65 -11
11 -22 35 -25 51 -2 17 -5 -293 -6 -687 l-1 -718 528 2 c352 2 462 4 332 8
-107 3 -188 7 -180 8 8 1 36 18 63 37 34 25 47 42 47 60 0 13 4 27 10 30 5 3
10 25 10 48 1 23 7 69 15 102 8 33 12 69 9 80 -3 12 4 47 16 78 14 37 19 67
15 89 -4 21 -1 39 7 49 24 30 105 89 121 89 9 0 19 9 22 21 7 21 12 21 60 4
11 -3 8 1 -8 10 -15 8 -27 20 -27 25 0 4 -3 16 -7 26 -4 11 -3 15 4 11 6 -4
14 0 17 8 3 9 16 20 28 25 16 6 18 9 6 9 -14 1 -12 13 17 84 18 45 36 93 40
107 7 25 7 25 -9 3 -9 -11 -17 -29 -19 -40 -9 -42 -20 -73 -27 -73 -4 0 -11
-12 -14 -27 -4 -16 -12 -41 -18 -57 -10 -25 -13 -27 -18 -10 -6 17 -8 17 -19
-4 -9 -17 -10 -27 -1 -37 8 -10 7 -21 -5 -44 -8 -17 -20 -31 -24 -31 -5 0 -16
-3 -24 -6 -12 -4 -13 2 -5 43 11 51 11 62 2 137 -4 29 -2 51 4 55 7 4 4 20 -8
45 -18 39 -13 87 11 102 5 3 7 9 4 14 -3 5 -1 20 5 35 7 19 28 34 75 56 35 16
80 43 100 60 l35 31 -1 -28 c-1 -16 -5 -42 -9 -59 -7 -27 -8 -28 -9 -6 -1 31
-18 17 -23 -19 -2 -17 1 -24 10 -22 10 2 12 -6 8 -30 -5 -29 -4 -29 9 7 13 38
13 34 14 -86 1 -104 -2 -128 -14 -133 -9 -3 -15 -19 -15 -41 0 -32 -3 -35 -27
-35 -16 0 -23 -4 -17 -8 6 -4 17 -18 24 -32 l13 -24 -29 19 c-29 18 -29 18
-14 -1 21 -27 31 -33 47 -27 7 3 13 0 13 -7 0 -6 4 -8 10 -5 5 3 10 2 10 -4 0
-6 -12 -8 -32 -4 -20 4 -29 2 -25 -4 4 -6 -18 -16 -51 -23 -55 -13 -113 -53
-98 -67 4 -4 27 -8 51 -8 41 0 42 -1 31 -21 -6 -12 -31 -37 -55 -55 -50 -38
-54 -49 -22 -64 12 -5 24 -18 27 -27 5 -16 8 -17 41 -3 19 8 42 15 51 15 8 0
23 7 32 15 16 14 15 18 -17 51 -38 41 -40 53 -14 85 l19 23 7 -32 c4 -18 17
-45 30 -60 13 -15 25 -41 28 -57 2 -17 5 291 6 682 l1 713 -267 3 -268 2 280
3 c208 1 284 -1 293 -10 9 -9 12 -231 12 -939 0 -830 -2 -929 -16 -943 -14
-14 -85 -16 -636 -16 -564 0 -623 2 -640 17 -17 15 -18 58 -18 943 0 707 3
929 12 938 7 7 25 12 40 12 29 0 29 0 10 -21z m635 15 c-3 -3 -12 -4 -19 -1
-8 3 -5 6 6 6 11 1 17 -2 13 -5z m-567 -50 c16 -48 8 -140 -14 -162 -16 -16
-18 -16 -32 2 -17 23 -19 147 -4 177 16 30 37 23 50 -17z m670 26 c0 -5 -2
-10 -4 -10 -3 0 -8 5 -11 10 -3 6 -1 10 4 10 6 0 11 -4 11 -10z m450 -267 c0
-267 -1 -276 -18 -260 -10 10 -22 14 -27 10 -4 -5 -5 -3 -2 3 8 14 -56 76 -74
72 -8 -2 -13 2 -12 9 4 18 -116 86 -131 74 -8 -7 -22 -4 -44 9 -39 24 -38 24
-46 5 -6 -17 22 -55 41 -55 17 0 17 17 1 23 -7 2 -10 8 -5 12 4 5 13 3 19 -3
9 -9 8 -18 -2 -37 -7 -14 -16 -25 -19 -25 -3 0 -16 16 -29 35 -18 28 -20 40
-12 55 9 17 3 35 -31 101 -40 77 -41 80 -23 94 11 8 34 15 52 15 39 0 43 22 7
38 -36 17 -53 15 -58 -5 -4 -17 -4 -17 -12 0 -5 12 -2 22 11 32 26 18 9 33
-19 16 -18 -11 -20 -11 -9 0 6 7 12 23 12 36 l0 23 215 0 215 0 0 -277z m-519
210 c13 -16 12 -17 -3 -4 -10 7 -18 15 -18 17 0 8 8 3 21 -13z m-93 -9 c12 -4
22 -10 22 -15 0 -11 -59 -8 -66 3 -3 5 -9 6 -14 3 -5 -3 -11 -1 -15 5 -7 11
36 13 73 4z m-77 -21 c13 -16 12 -17 -3 -4 -10 7 -18 15 -18 17 0 8 8 3 21
-13z m137 -18 c-3 -3 -9 2 -12 12 -6 14 -5 15 5 6 7 -7 10 -15 7 -18z m-171 9
c-3 -3 -12 -4 -19 -1 -8 3 -5 6 6 6 11 1 17 -2 13 -5z m136 -24 c22 -26 15
-39 -17 -33 -13 3 -32 1 -41 -5 -16 -8 -16 -9 -1 -15 10 -4 15 -3 11 3 -9 15
37 11 58 -4 15 -12 16 -18 8 -35 -6 -11 -11 -28 -10 -38 0 -16 1 -16 9 2 6 13
7 2 3 -30 -3 -27 -10 -56 -16 -63 -7 -9 -6 -11 7 -6 13 5 16 0 16 -23 0 -22
-7 -33 -25 -41 -46 -21 -117 -10 -101 16 3 5 -1 13 -10 16 -13 5 -14 9 -4 21
7 8 16 12 21 9 5 -3 9 4 9 15 0 10 6 22 13 24 6 3 -3 6 -21 6 -30 1 -32 -1
-26 -24 10 -40 -12 -29 -30 15 -22 57 -21 90 4 90 16 0 19 -5 14 -29 -3 -16
-2 -31 2 -34 13 -7 15 82 3 104 -5 11 -16 19 -24 19 -26 0 -16 30 12 41 22 8
30 7 39 -5 15 -21 26 -20 47 4 21 25 28 25 50 0z m-143 -54 c0 -2 -7 -6 -15
-10 -8 -3 -15 -1 -15 4 0 6 7 10 15 10 8 0 15 -2 15 -4z m-40 -34 c0 -15 -2
-15 -10 -2 -13 20 -13 33 0 25 6 -3 10 -14 10 -23z m369 -66 c-9 -8 -11 -7 -6
6 3 10 2 20 -3 23 -6 4 -10 14 -10 23 1 11 6 7 16 -12 13 -22 13 -31 3 -40z
m16 -16 c-3 -5 -12 -10 -18 -10 -7 0 -6 4 3 10 19 12 23 12 15 0z m15 -30 c0
-5 -5 -10 -11 -10 -5 0 -7 5 -4 10 3 6 8 10 11 10 2 0 4 -4 4 -10z m-397 -20
c-3 -12 -8 -19 -11 -16 -5 6 5 36 12 36 2 0 2 -9 -1 -20z m533 -42 c4 -6 0
-16 -8 -22 -8 -6 -15 -14 -16 -19 -2 -21 -9 -30 -20 -23 -17 10 -15 36 4 36 8
0 12 5 9 10 -7 12 2 30 15 30 5 0 12 -5 16 -12z m-288 -20 c-2 -13 -15 -46
-28 -74 l-25 -52 -50 4 c-27 2 -44 2 -37 -2 6 -3 12 -13 12 -23 0 -20 -56 -65
-70 -56 -16 10 -11 -17 7 -37 18 -21 12 -34 -13 -24 -9 3 -14 12 -10 21 3 8 2
15 -3 15 -5 0 -8 11 -8 25 0 14 2 24 4 21 3 -3 14 5 24 17 16 19 20 20 29 7 8
-12 9 -10 7 10 -3 22 -10 26 -50 30 l-47 5 25 43 c14 24 23 47 20 51 -2 4 2 8
10 8 12 0 10 -7 -5 -32 -27 -43 -25 -55 8 -54 23 2 24 2 5 6 -22 4 -22 5 -7
34 10 21 20 29 31 25 60 -24 123 -11 150 30 19 30 25 30 21 2z m-254 -69 c-8
-14 -24 -10 -24 6 0 9 6 12 15 9 8 -4 12 -10 9 -15z m306 0 c0 -6 -4 -7 -10
-4 -5 3 -10 11 -10 16 0 6 5 7 10 4 6 -3 10 -11 10 -16z m186 10 c10 -17 -13
-36 -27 -22 -12 12 -4 33 11 33 5 0 12 -5 16 -11z m148 -14 c-4 -8 -10 -12
-15 -9 -14 8 -10 24 6 24 9 0 12 -6 9 -15z m57 -2 c13 -16 12 -17 -3 -4 -17
13 -22 21 -14 21 2 0 10 -8 17 -17z m-17 -12 c3 -5 0 -14 -8 -20 -11 -9 -15
-7 -19 9 -5 20 16 29 27 11z m-209 -10 c3 -5 0 -13 -5 -16 -6 -4 -15 -18 -20
-31 -6 -15 -15 -22 -25 -18 -21 8 -19 25 4 31 13 3 17 11 14 24 -6 20 20 28
32 10z m-251 -79 c-9 -39 -22 -79 -30 -89 -14 -17 -14 -17 -5 3 6 12 17 53 26
93 10 40 19 71 21 68 2 -2 -3 -36 -12 -75z m76 63 c8 5 11 3 8 -6 -7 -21 -32
-17 -36 6 -2 15 -1 17 6 6 6 -8 15 -10 22 -6z m345 -5 c10 -11 16 -20 13 -20
-3 0 -13 9 -23 20 -10 11 -16 20 -13 20 3 0 13 -9 23 -20z m-135 6 c0 -3 -4
-8 -10 -11 -5 -3 -10 -1 -10 4 0 6 5 11 10 11 6 0 10 -2 10 -4z m-520 -23 c0
-7 -7 -13 -15 -13 -8 0 -15 6 -15 13 0 8 7 14 15 14 8 0 15 -6 15 -14z m414 2
c-7 -17 -20 -20 -28 -6 -4 5 0 12 6 14 23 9 28 7 22 -8z m310 0 c-4 -8 -10
-12 -15 -9 -14 8 -10 24 6 24 9 0 12 -6 9 -15z m-644 -11 c-15 -17 -30 -18
-30 -1 0 7 9 13 21 14 17 2 18 -1 9 -13z m104 3 c13 -10 16 -20 11 -36 -5 -18
-9 -20 -21 -10 -12 9 -13 9 -9 -3 3 -8 -1 -20 -9 -27 -12 -10 -17 -9 -25 8 -9
16 -7 22 9 34 13 9 18 20 14 31 -7 19 6 21 30 3z m581 -27 c0 -7 -6 -15 -12
-17 -8 -3 -13 4 -13 17 0 13 5 20 13 18 6 -3 12 -11 12 -18z m-467 -17 c-6 -7
-14 -13 -19 -13 -5 0 -9 6 -9 13 0 7 9 13 19 13 15 0 17 -3 9 -13z m17 -32
c-22 -44 -27 -38 -7 9 9 21 18 35 20 30 2 -5 -4 -22 -13 -39z m26 -10 c-31
-60 -40 -57 -11 4 14 30 26 50 28 45 2 -5 -6 -27 -17 -49z m89 51 c0 -22 -27
-62 -42 -62 -11 0 -15 -6 -11 -20 4 -14 0 -20 -11 -20 -9 0 -13 -6 -10 -14 7
-18 -15 -31 -29 -17 -8 8 -7 14 5 23 8 7 22 28 29 46 8 18 21 32 31 32 11 0
15 6 11 20 -4 14 0 20 11 20 9 0 16 -4 16 -8z m-651 -46 c-19 -18 -66 -28 -74
-16 -4 6 8 10 30 10 23 0 38 5 42 15 3 9 8 13 11 10 3 -3 -1 -12 -9 -19z m211
14 c0 -5 -4 -10 -10 -10 -5 0 -10 5 -10 10 0 6 5 10 10 10 6 0 10 -4 10 -10z
m134 -7 c4 -9 1 -23 -7 -30 -12 -12 -16 -12 -27 1 -10 13 -10 19 0 31 16 19
26 19 34 -2z m66 -14 c0 -5 -5 -7 -12 -3 -7 5 -8 3 -4 -5 5 -7 0 -18 -10 -26
-22 -17 -54 -19 -54 -5 0 6 8 14 18 17 9 4 21 12 25 20 10 16 37 18 37 2z m75
-9 c3 -5 1 -10 -4 -10 -6 0 -11 5 -11 10 0 6 2 10 4 10 3 0 8 -4 11 -10z
m-415 -25 c0 -9 -8 -14 -22 -12 -17 1 -24 -4 -26 -20 -4 -28 24 -32 32 -5 3 9
3 4 0 -13 -6 -36 -6 -35 2 -107 4 -40 3 -63 -6 -73 -8 -10 -9 -15 -2 -15 6 0
9 -6 6 -13 -3 -8 2 -20 11 -27 19 -16 19 -28 -1 -65 -15 -27 -19 -42 -23 -83
0 -7 -34 -29 -75 -48 -41 -18 -88 -48 -105 -65 -30 -30 -31 -30 -31 -7 0 41
11 67 26 61 9 -3 14 2 14 16 0 28 -3 37 -13 33 -5 -1 -6 12 -3 30 5 29 4 29
-9 -7 -13 -38 -13 -35 -14 83 -1 97 2 127 14 138 8 9 15 31 15 51 l0 35 43 -7
c23 -4 43 -8 44 -9 1 -1 -13 -40 -32 -86 -18 -47 -36 -96 -40 -110 -7 -25 -7
-25 8 -4 9 11 19 34 22 50 3 16 14 47 25 69 10 22 24 55 31 74 11 28 14 31 19
15 6 -17 8 -17 19 4 13 24 6 46 -10 36 -5 -3 0 15 13 40 13 27 30 47 42 49 12
2 22 5 24 6 1 0 2 -6 2 -14z m160 -5 c0 -5 -2 -10 -4 -10 -3 0 -8 5 -11 10 -3
6 -1 10 4 10 6 0 11 -4 11 -10z m320 -76 c0 -8 -7 -14 -15 -14 -9 0 -12 -6 -9
-15 4 -8 -1 -17 -10 -21 -9 -3 -16 -15 -16 -25 0 -10 -7 -19 -15 -19 -9 0 -12
-6 -9 -15 4 -8 -1 -17 -10 -21 -9 -3 -16 -13 -16 -20 0 -8 -7 -17 -15 -20 -8
-4 -12 -11 -8 -17 3 -5 -1 -15 -9 -21 -8 -6 -17 -19 -21 -30 -6 -15 -10 -16
-22 -6 -17 14 -11 30 10 30 9 0 12 6 9 15 -4 8 1 17 10 21 9 3 16 15 16 25 0
10 7 19 15 19 9 0 12 6 9 15 -4 8 1 17 10 21 9 3 16 15 16 25 0 11 7 19 16 19
9 0 12 5 8 12 -4 6 0 16 8 22 8 6 17 19 21 29 8 20 27 14 27 -9z m-693 -20
c-3 -3 -12 -4 -19 -1 -8 3 -5 6 6 6 11 1 17 -2 13 -5z m703 -33 c0 -5 -7 -12
-16 -15 -14 -5 -15 -4 -4 9 14 17 20 19 20 6z m-241 -4 c-2 -1 -13 -9 -24 -17
-19 -14 -19 -14 -6 3 7 9 18 17 24 17 6 0 8 -1 6 -3z m42 -14 c13 -17 13 -17
-6 -3 -11 8 -22 16 -24 17 -2 2 0 3 6 3 6 0 17 -8 24 -17z m-11 -32 c0 -3 -11
-6 -25 -6 -14 0 -25 6 -25 13 0 7 5 10 10 7 6 -3 10 -1 10 6 0 8 4 8 15 -1 8
-7 15 -15 15 -19z m203 -28 c-13 -2 -33 -2 -45 0 -13 2 -3 4 22 4 25 0 35 -2
23 -4z m-268 -43 c3 -5 1 -10 -4 -10 -6 0 -11 5 -11 10 0 6 2 10 4 10 3 0 8
-4 11 -10z m85 0 c0 -5 -5 -10 -11 -10 -5 0 -7 5 -4 10 3 6 8 10 11 10 2 0 4
-4 4 -10z m157 -59 c10 9 13 8 13 -4 0 -8 -6 -17 -12 -20 -20 -6 -38 4 -38 21
0 12 3 13 12 4 8 -8 15 -9 25 -1z m-151 -33 c4 -6 2 -14 -4 -16 -7 -2 -19 -20
-29 -39 -9 -20 -24 -38 -34 -40 -11 -3 -15 -11 -12 -24 4 -13 0 -19 -10 -19
-23 0 -29 16 -12 30 8 7 15 19 15 26 0 8 10 14 21 14 18 0 20 2 9 16 -11 13
-10 16 7 20 14 4 19 12 16 25 -6 21 21 27 33 7z m119 -17 c-6 -5 -25 10 -25
20 0 5 6 4 14 -3 8 -7 12 -15 11 -17z m-190 0 c-3 -6 -11 -11 -17 -11 -6 0 -6
6 2 15 14 17 26 13 15 -4z m702 -60 c1 -14 -3 -18 -13 -14 -15 6 -18 16 -7 26
11 12 19 8 20 -12z m-727 -83 c0 -5 -8 -12 -19 -15 -13 -3 -17 -11 -14 -24 4
-13 0 -19 -10 -19 -22 0 -29 16 -14 32 7 7 16 21 20 30 6 18 37 15 37 -4z m38
5 c-9 -10 -25 -36 -36 -58 -12 -22 -21 -36 -22 -32 -1 21 54 107 68 107 3 0
-2 -8 -10 -17z m192 6 c0 -6 7 -17 15 -25 19 -20 19 -33 -1 -41 -17 -6 -36 15
-30 33 2 6 -2 11 -10 11 -18 0 -18 -15 1 -33 20 -20 19 -33 -2 -41 -25 -9 -34
-26 -20 -35 7 -5 8 -8 1 -8 -5 0 -19 6 -29 14 -20 15 -14 52 8 43 7 -3 13 3
13 13 0 10 -4 17 -7 14 -4 -2 -10 0 -14 6 -3 5 6 21 21 35 28 26 54 33 54 14z
m58 -1 c0 -7 3 -30 6 -51 4 -26 3 -36 -5 -31 -6 3 -9 15 -6 25 3 11 0 19 -8
19 -30 0 -22 38 11 50 0 0 1 -6 2 -12z m62 -2 c0 -3 -4 -8 -10 -11 -5 -3 -10
-1 -10 4 0 6 5 11 10 11 6 0 10 -2 10 -4z m380 -23 c0 -25 -1 -26 -16 -11 -9
9 -13 21 -10 27 13 20 26 11 26 -16z m-693 -32 c-12 -27 -23 -45 -25 -41 -3 9
35 90 43 90 2 0 -6 -22 -18 -49z m81 -39 c-11 -45 -22 -81 -24 -79 -4 4 21
123 32 152 14 37 11 5 -8 -73z m549 82 c-3 -3 -12 -4 -19 -1 -8 3 -5 6 6 6 11
1 17 -2 13 -5z m-583 -12 c3 -5 -1 -9 -9 -9 -8 0 -12 4 -9 9 3 4 7 8 9 8 2 0
6 -4 9 -8z m554 -7 c-10 -8 -68 -13 -68 -5 0 5 12 10 28 12 25 3 48 0 40 -7z
m92 -59 c-1 -20 -2 -20 -15 4 -19 33 -19 46 0 30 8 -7 15 -22 15 -34z m-440
-38 c0 -10 -6 -18 -14 -18 -23 0 -28 18 -9 30 17 11 17 11 -1 5 -27 -8 -39 16
-18 38 16 18 17 18 29 -10 7 -15 12 -36 13 -45z m80 62 c0 -5 -4 -10 -10 -10
-5 0 -10 5 -10 10 0 6 5 10 10 10 6 0 10 -4 10 -10z m-422 -19 c2 -7 -5 -15
-16 -18 -12 -3 -18 -11 -15 -19 3 -8 -2 -17 -11 -20 -9 -3 -14 -10 -11 -14 3
-5 -1 -14 -8 -22 -7 -7 -16 -21 -20 -31 -8 -20 -28 -19 -35 2 -2 7 5 15 16 18
12 3 18 11 15 19 -3 8 2 17 11 20 9 3 13 11 9 17 -3 5 1 15 9 21 8 6 17 19 21
29 8 20 28 19 35 -2z m121 -10 c-3 -6 -10 -7 -18 -2 -7 5 -10 14 -6 21 9 14
29 -2 24 -19z m-469 -7 c0 -14 -12 -19 -23 -8 -9 9 4 35 14 28 5 -3 9 -12 9
-20z m634 -10 c9 -23 8 -24 -14 -24 -19 0 -27 20 -13 33 11 11 20 8 27 -9z
m-594 -30 c0 -16 -2 -16 -24 -8 -12 5 -13 9 -3 19 14 15 27 10 27 -11z m309 5
c-16 -10 -23 -4 -14 10 3 6 11 8 17 5 6 -4 5 -9 -3 -15z m421 6 c0 -8 -7 -15
-15 -15 -16 0 -20 12 -8 23 11 12 23 8 23 -8z m-753 -60 c55 -52 82 -69 67
-42 -4 7 -3 9 2 4 5 -5 9 -14 9 -20 0 -19 108 -77 122 -65 25 20 76 -23 115
-97 20 -39 40 -76 43 -83 11 -20 -14 -42 -56 -48 -47 -8 -49 -18 -8 -39 24
-13 34 -14 45 -4 21 18 30 2 11 -19 -21 -23 -21 -32 -3 -32 8 0 16 7 20 15 3
8 10 15 16 15 6 0 4 -7 -4 -16 -9 -8 -16 -26 -16 -40 l0 -24 -215 0 -215 0 0
275 c0 151 2 275 4 275 3 0 31 -25 63 -55z m443 42 c0 -7 -9 -13 -20 -13 -11
0 -20 6 -20 13 0 7 9 13 20 13 11 0 20 -6 20 -13z m254 -37 c-8 -19 -24 -44
-36 -55 -11 -11 -18 -15 -15 -9 14 26 -107 32 -141 8 -34 -24 -34 -14 -1 39
16 26 26 47 22 47 -13 0 -58 -93 -55 -112 2 -10 -1 -18 -6 -18 -14 0 -11 48 4
61 7 6 18 26 24 45 l12 35 103 -3 103 -3 -14 -35z m-639 2 c-2 -3 -12 -1 -22
2 -15 6 -15 9 -3 16 13 8 35 -8 25 -18z m675 -17 c0 -8 -7 -15 -15 -15 -16 0
-20 12 -8 23 11 12 23 8 23 -8z m-689 -12 c13 -16 12 -17 -3 -4 -10 7 -18 15
-18 17 0 8 8 3 21 -13z m49 7 c0 -5 -4 -10 -10 -10 -5 0 -10 5 -10 10 0 6 5
10 10 10 6 0 10 -4 10 -10z m195 0 c3 -5 1 -10 -4 -10 -6 0 -11 5 -11 10 0 6
2 10 4 10 3 0 8 -4 11 -10z m135 0 c0 -5 -4 -10 -10 -10 -5 0 -10 5 -10 10 0
6 5 10 10 10 6 0 10 -4 10 -10z m-195 -29 c3 -5 0 -13 -5 -16 -6 -4 -15 -18
-20 -31 -6 -15 -15 -22 -25 -18 -21 8 -19 25 4 31 13 3 17 11 14 24 -6 20 20
28 32 10z m94 -46 c0 -5 -6 1 -14 15 -8 14 -14 30 -14 35 0 6 6 -1 14 -15 8
-14 14 -29 14 -35z m-36 -4 c21 -31 23 -40 12 -45 -9 -3 -12 0 -8 10 3 7 1 14
-5 14 -6 0 -12 -5 -14 -11 -2 -7 -13 -3 -27 8 -20 17 -22 22 -12 41 16 30 24
28 54 -17z m342 19 c4 -6 -9 -10 -32 -10 -21 -1 -49 -7 -63 -16 -25 -15 -25
-15 -1 -8 17 4 21 3 16 -6 -5 -9 -4 -11 4 -6 6 4 9 12 6 17 -4 5 12 9 35 9 40
0 42 -1 66 -55 31 -67 30 -111 -3 -107 -39 5 -24 -42 20 -65 18 -9 18 -11 2
-26 -21 -21 -54 -22 -61 -2 -9 21 -32 19 -39 -5 -8 -25 -55 -28 -55 -4 0 8 -4
13 -9 10 -10 -6 -25 24 -16 32 3 3 5 1 5 -4 0 -10 80 -6 92 5 4 3 -10 5 -32 3
-49 -5 -74 12 -60 39 10 18 8 63 -6 143 -6 32 -4 42 11 52 22 16 111 19 120 4z
m77 -82 c-8 -8 -9 -4 -5 13 4 13 8 18 11 10 2 -7 -1 -18 -6 -23z m-390 -10
c-7 -7 -12 -8 -12 -2 0 6 3 14 7 17 3 4 9 5 12 2 2 -3 -1 -11 -7 -17z m12 -19
c-3 -6 -2 -14 4 -18 6 -3 13 -20 17 -36 6 -28 5 -28 -15 8 -18 33 -20 57 -4
57 3 0 2 -5 -2 -11z m395 -114 c0 -5 -4 -3 -9 5 -5 8 -9 22 -9 30 0 16 17 -16
18 -35z m-32 -1 c-3 -3 -12 -4 -19 -1 -8 3 -5 6 6 6 11 1 17 -2 13 -5z m-42
-96 c5 4 5 1 1 -6 -4 -7 -11 -10 -16 -7 -4 3 -10 0 -12 -6 -5 -16 -88 -1 -88
16 0 7 10 12 25 11 14 0 25 -4 25 -8 0 -5 9 -8 21 -8 16 0 20 4 15 18 -6 16
-5 16 7 0 8 -10 18 -14 22 -10z m-188 -90 c-3 -8 -6 -5 -6 6 -1 11 2 17 5 13
3 -3 4 -12 1 -19z"/>
<path d="M230 1743 l1 -108 34 -39 34 -38 33 37 c81 92 108 136 108 176 0 73
-76 107 -121 54 l-22 -24 -19 24 c-39 50 -48 34 -48 -82z"/>
<path d="M73 1603 c-22 -8 -14 -46 17 -83 l29 -35 25 30 c35 41 41 64 23 83
-13 13 -19 13 -32 2 -12 -10 -19 -10 -27 -2 -13 13 -16 13 -35 5z"/>
<path d="M1126 1189 c-8 -20 -1 -54 10 -54 13 0 17 46 5 58 -7 7 -12 6 -15 -4z"/>
<path d="M1179 1115 c-1 -3 -1 -14 -1 -25 0 -38 2 -41 15 -28 14 13 11 58 -4
58 -5 0 -9 -2 -10 -5z"/>
<path d="M1082 1086 c3 -15 1 -26 -6 -26 -6 0 -4 -4 4 -10 9 -5 17 -5 21 1 10
16 3 53 -11 57 -9 3 -11 -3 -8 -22z"/>
<path d="M1126 1029 c-10 -27 -11 -48 -3 -48 20 -2 23 1 22 24 -2 30 -13 43
-19 24z"/>
<path d="M1086 942 c-7 -12 -1 -47 9 -47 12 0 16 43 6 50 -5 3 -12 2 -15 -3z"/>
<path d="M1059 788 c-8 -30 -7 -49 3 -46 16 6 23 48 9 48 -6 0 -11 -1 -12 -2z"/>
<path d="M1206 439 c-14 -17 -26 -39 -26 -50 0 -25 27 -36 51 -20 13 8 19 8
19 0 0 -20 45 -5 48 17 3 20 -41 84 -58 84 -5 0 -20 -14 -34 -31z"/>
<path d="M1014 352 c-68 -76 -94 -121 -94 -162 0 -41 7 -53 37 -69 34 -18 53
-13 84 20 16 17 29 26 29 20 0 -14 36 -51 50 -51 6 0 10 42 10 106 0 104 0
106 -33 149 l-33 43 -50 -56z"/>
<path d="M1190 321 c0 -10 7 -22 16 -25 15 -6 14 -10 -6 -31 -39 -41 -41 -172
-4 -209 24 -24 71 -20 89 7 40 62 26 186 -25 212 -16 8 -31 23 -35 34 -8 27
-35 36 -35 12z m68 -73 c19 -19 16 -163 -4 -183 -16 -15 -18 -15 -33 0 -12 11
-16 35 -16 88 0 40 3 80 7 90 9 20 29 22 46 5z"/>
<path d="M610 1699 c0 -15 7 -19 36 -19 28 0 35 4 32 17 -5 26 -68 28 -68 2z"/>
<path d="M590 1630 c-13 -8 -12 -10 3 -10 9 0 17 5 17 10 0 12 -1 12 -20 0z"/>
<path d="M650 1530 c13 -8 12 -10 -4 -10 -11 0 -17 -3 -13 -6 3 -3 15 -3 28 1
17 6 19 9 8 16 -8 5 -18 9 -24 9 -5 0 -3 -5 5 -10z"/>
<path d="M711 1451 c-12 -16 -21 -34 -21 -40 0 -5 -26 -12 -57 -14 l-58 -3 57
-2 56 -2 25 45 c29 51 28 58 -2 16z"/>
<path d="M259 1075 c-6 -24 -1 -49 10 -53 10 -3 12 1 9 16 -3 12 -1 23 5 25 6
2 3 6 -6 10 -9 3 -17 4 -18 2z"/>
<path d="M219 986 c-5 -27 -1 -50 9 -54 7 -2 12 5 12 17 0 12 0 24 1 28 1 9
-21 17 -22 9z"/>
<path d="M260 909 c-9 -5 -10 -9 -3 -9 6 0 9 -9 6 -20 -3 -11 -1 -20 5 -20 11
0 23 48 13 55 -4 2 -13 0 -21 -6z"/>
<path d="M167 903 c-13 -12 -7 -53 7 -53 10 0 14 9 12 25 -3 28 -10 38 -19 28z"/>
<path d="M219 833 c-5 -31 -3 -53 6 -54 16 -1 23 35 9 49 -8 7 -15 9 -15 5z"/>
<path d="M723 563 c9 -2 23 -2 30 0 6 3 -1 5 -18 5 -16 0 -22 -2 -12 -5z"/>
<path d="M803 563 c20 -3 27 -9 23 -19 -18 -43 -18 -49 -4 -29 32 44 30 55
-10 54 -31 -2 -33 -3 -9 -6z"/>
<path d="M394 459 c-6 -10 12 -29 29 -29 9 0 9 4 1 24 -7 19 -20 21 -30 5z"/>
<path d="M665 410 c-3 -5 -2 -10 4 -10 5 0 13 5 16 10 3 6 2 10 -4 10 -5 0
-13 -4 -16 -10z"/>
<path d="M773 413 c-17 -6 -16 -23 1 -23 8 0 16 7 20 15 6 15 1 17 -21 8z"/>
<path d="M740 371 c0 -5 14 -8 31 -6 45 6 49 15 6 15 -20 0 -37 -4 -37 -9z"/>
<path d="M755 341 c-3 -5 0 -13 6 -17 8 -4 9 -3 5 4 -5 8 0 12 13 12 12 0 21
-8 24 -22 4 -20 4 -19 6 5 1 22 -3 27 -23 27 -14 0 -27 -4 -31 -9z"/>
<path d="M683 270 c1 -8 10 -14 20 -14 9 1 14 -2 11 -7 -8 -14 22 -10 34 4 16
19 1 33 -36 33 -23 -1 -32 -5 -29 -16z"/>
</g>
</svg>
