<?xml version="1.0" standalone="no"?>
<!DOCTYPE svg PUBLIC "-//W3C//DTD SVG 20010904//EN"
 "http://www.w3.org/TR/2001/REC-SVG-20010904/DTD/svg10.dtd">
<svg version="1.0" xmlns="http://www.w3.org/2000/svg"
 width="135.000000pt" height="196.000000pt" viewBox="0 0 135.000000 196.000000"
 preserveAspectRatio="xMidYMid meet">
<metadata>
Created by potrace 1.16, written by Peter Selinger 2001-2019
</metadata>
<g transform="translate(0.000000,196.000000) scale(0.100000,-0.100000)"
fill="#FF0000" stroke="none">
<path d="M17 1942 c-16 -17 -17 -98 -17 -965 0 -846 2 -947 16 -961 14 -14 87
-16 655 -16 422 0 647 4 660 10 19 10 19 32 19 965 0 854 -2 955 -16 969 -14
14 -87 16 -658 16 -610 0 -644 -1 -659 -18z m1301 -24 c9 -9 12 -231 12 -939
0 -830 -2 -929 -16 -943 -14 -14 -85 -16 -636 -16 -564 0 -623 2 -640 17 -17
15 -18 58 -18 943 0 707 3 929 12 938 17 17 1269 17 1286 0z"/>
<path d="M50 1910 c0 -5 5 -10 10 -10 6 0 10 -43 10 -110 0 -67 -4 -110 -10
-110 -5 0 -10 -4 -10 -10 0 -5 16 -10 35 -10 19 0 35 5 35 10 0 6 -4 10 -10
10 -5 0 -10 20 -10 45 0 25 4 45 8 45 4 0 20 -25 35 -55 20 -41 32 -55 48 -55
11 0 19 3 17 8 -2 4 -20 39 -40 78 l-37 71 25 41 c14 23 29 42 35 42 5 0 9 5
9 10 0 6 -12 10 -26 10 -19 0 -25 -4 -20 -15 6 -16 -30 -85 -45 -85 -5 0 -9
18 -9 40 0 22 5 40 10 40 6 0 10 5 10 10 0 6 -16 10 -35 10 -19 0 -35 -4 -35
-10z"/>
<path d="M453 1913 c125 -2 227 -6 227 -10 0 -3 -7 -14 -15 -24 -14 -15 -14
-18 0 -33 12 -12 13 -16 3 -16 -20 0 -35 13 -39 34 -2 11 -10 21 -17 24 -10 3
-13 -5 -10 -28 2 -18 -2 -35 -8 -37 -7 -2 -10 5 -7 21 4 19 -1 28 -25 40 -29
15 -32 15 -46 -5 -9 -14 -21 -19 -31 -15 -36 13 -33 -7 5 -53 38 -44 40 -51
36 -98 -4 -60 -12 -76 -34 -69 -10 3 -22 2 -28 -2 -24 -15 -84 -94 -78 -103 3
-6 -12 -29 -34 -53 -40 -44 -73 -107 -92 -176 -6 -21 -19 -48 -29 -61 -18 -23
-18 -22 -23 99 -3 96 -8 126 -21 139 -13 13 -19 14 -31 3 -9 -7 -16 -18 -15
-24 0 -7 2 -6 6 2 17 42 23 -11 23 -203 0 -137 -4 -215 -10 -215 -6 0 -11 65
-12 173 l-2 172 -5 -130 c-5 -104 -10 -138 -26 -170 -12 -22 -20 -46 -19 -52
1 -7 2 -17 3 -23 0 -5 7 -10 15 -10 8 0 18 -5 22 -12 5 -8 0 -9 -14 -6 -20 6
-22 2 -22 -37 0 -24 5 -47 12 -51 7 -4 8 -3 4 4 -5 8 2 12 21 11 17 -1 21 -3
11 -6 -19 -5 -25 -23 -9 -23 6 0 14 -19 18 -42 6 -31 14 -44 28 -46 11 -2 28
-11 38 -20 13 -11 17 -12 17 -2 0 7 2 11 5 8 3 -2 -2 -20 -11 -38 -9 -18 -20
-61 -23 -96 -7 -61 -21 -100 -21 -56 0 22 -10 28 -23 15 -4 -3 0 -18 9 -31 15
-23 15 -25 0 -19 -10 4 -15 3 -11 -3 10 -16 37 -11 61 11 19 18 22 19 21 3 -2
-17 23 -35 136 -101 45 -26 48 -30 42 -60 -4 -25 -1 -35 17 -47 12 -9 33 -16
45 -16 19 0 23 -5 23 -29 0 -16 7 -34 15 -41 8 -7 15 -29 15 -49 0 -34 -8 -50
-54 -115 -23 -33 -16 -42 26 -29 25 7 33 15 32 31 0 13 4 21 10 19 6 -2 11
-16 11 -30 0 -15 5 -27 10 -27 6 0 10 13 10 29 0 23 4 27 20 23 11 -3 14 -7 7
-10 -14 -4 -17 -42 -3 -42 5 0 11 -7 15 -15 5 -13 -29 -15 -269 -15 l-275 0
-3 712 -2 713 -3 -717 -2 -718 533 2 c383 2 466 4 299 8 l-234 5 22 25 c20 23
20 25 3 38 -17 13 -16 13 7 10 16 -2 26 -11 30 -26 7 -30 25 -28 25 3 0 13 5
29 11 35 9 9 10 5 7 -13 -8 -41 59 -77 71 -39 5 14 14 17 36 14 19 -3 30 0 30
8 0 7 -8 9 -22 5 -15 -4 -19 -3 -10 3 10 6 5 18 -19 48 -27 34 -30 44 -25 79
4 24 15 46 27 55 58 41 120 111 115 128 -4 13 4 25 25 41 31 23 90 135 103
196 4 17 15 41 26 55 l20 25 1 -80 c1 -115 8 -168 25 -185 12 -12 16 -12 32 5
16 18 16 18 0 6 -17 -13 -18 -2 -18 202 0 133 4 218 10 222 6 4 11 -55 12
-167 2 -145 3 -154 5 -53 3 95 8 129 24 164 29 62 30 95 2 99 -13 2 -23 8 -23
13 0 6 9 7 20 4 18 -6 20 -2 20 40 0 39 -3 47 -24 55 -18 6 -27 20 -32 45 -7
37 -32 59 -57 50 -17 -7 -19 12 -7 90 6 33 12 77 15 98 4 27 13 41 28 47 22 9
22 9 -2 9 -14 1 -33 -6 -43 -16 -17 -15 -18 -15 -18 0 0 9 -15 24 -32 33 -18
9 -61 35 -96 57 -59 39 -62 43 -56 73 7 36 -13 54 -60 54 -22 0 -26 5 -26 28
0 15 -9 40 -19 55 -25 38 -14 82 33 140 31 38 34 45 19 49 -10 2 -29 1 -43 -2
-20 -5 -25 -12 -23 -34 1 -17 -2 -26 -10 -23 -7 2 -11 17 -9 35 2 24 -1 32
-12 32 -10 0 -16 -9 -16 -24 0 -13 -7 -26 -15 -30 -12 -4 -13 -2 -3 14 10 15
9 23 -6 39 l-19 21 276 0 277 0 3 -707 2 -708 3 713 2 712 -532 -2 c-293 -2
-431 -4 -305 -5z m85 -47 c-7 -8 -15 -12 -17 -11 -5 6 10 25 20 25 5 0 4 -6
-3 -14z m204 -8 c-7 -7 -12 -8 -12 -2 0 14 12 26 19 19 2 -3 -1 -11 -7 -17z
m-52 2 c0 -5 -2 -10 -4 -10 -3 0 -8 5 -11 10 -3 6 -1 10 4 10 6 0 11 -4 11
-10z m147 -12 c-3 -8 -6 -5 -6 6 -1 11 2 17 5 13 3 -3 4 -12 1 -19z m-332 -8
c3 -6 -1 -7 -9 -4 -18 7 -21 14 -7 14 6 0 13 -4 16 -10z m131 -45 c-1 -8 -6
-18 -12 -22 -5 -4 -6 -4 -2 1 4 5 3 15 -3 23 -9 10 -8 13 4 13 8 0 14 -7 13
-15z m48 0 c3 -8 1 -15 -4 -15 -6 0 -10 7 -10 15 0 8 2 15 4 15 2 0 6 -7 10
-15z m-117 -20 c0 -11 -4 -12 -14 -4 -7 6 -13 13 -13 15 0 2 6 4 13 4 8 0 14
-7 14 -15z m209 -13 c6 -4 13 -15 17 -24 5 -15 1 -17 -23 -14 -29 3 -30 2 -29
-33 1 -20 3 -28 6 -18 8 30 47 18 51 -15 4 -30 -14 -38 -36 -16 -9 9 -12 9
-12 0 0 -7 -9 -12 -20 -12 -11 0 -20 5 -20 11 0 5 -5 7 -11 3 -8 -4 -4 -11 11
-19 23 -12 23 -12 -7 -17 -17 -2 -40 -1 -52 4 -16 5 -21 3 -21 -8 0 -11 6 -14
16 -10 8 3 13 2 10 -2 -2 -4 29 -8 69 -7 50 0 78 -4 87 -14 11 -11 9 -12 -12
-6 -25 7 -25 7 -5 -10 11 -9 14 -14 7 -10 -7 4 -16 -3 -21 -17 -6 -13 -10 -17
-10 -9 -1 11 -7 8 -22 -7 -11 -12 -24 -20 -29 -17 -6 4 -7 -2 -3 -11 4 -12 3
-15 -5 -10 -7 4 -12 2 -12 -3 0 -19 -22 -12 -27 8 -3 13 -10 18 -21 14 -11 -5
-13 -3 -7 6 5 10 1 12 -16 7 -13 -3 -18 -3 -11 0 15 7 16 25 1 22 -19 -5 -23
27 -16 114 3 39 1 46 -10 37 -7 -6 -13 -8 -13 -4 0 5 -3 6 -6 3 -3 -4 -1 -16
6 -28 13 -24 6 -56 -15 -64 -13 -4 -12 -1 1 19 12 18 13 29 5 42 -10 17 -10
17 -11 -1 0 -14 -3 -17 -11 -9 -6 6 -9 28 -7 49 3 34 6 39 26 37 13 -2 21 1
17 7 -3 6 -1 10 4 10 14 0 14 -17 1 -25 -5 -3 -10 -14 -10 -23 1 -12 5 -10 15
8 7 14 16 24 19 23 3 -1 16 2 28 7 14 5 17 9 8 9 -9 1 -21 -4 -28 -11 -7 -7
-12 -8 -12 -2 0 16 15 32 35 37 32 8 119 7 131 -1z m-282 -174 c-3 -5 -12 -4
-20 3 -7 6 -11 15 -8 21 3 5 12 4 20 -3 7 -6 11 -15 8 -21z m296 22 c13 -9 13
-10 0 -10 -8 0 -22 5 -30 10 -13 9 -13 10 0 10 8 0 22 -5 30 -10z m88 -21 l27
0 -24 -10 c-17 -7 -27 -6 -31 1 -4 6 -12 10 -17 8 -6 -2 -11 0 -12 5 -3 23 1
27 15 13 8 -9 27 -16 42 -17z m-424 -14 c24 -18 18 -26 -12 -18 -12 3 -22 12
-22 19 0 18 10 17 34 -1z m76 -5 c0 -5 -4 -10 -10 -10 -5 0 -10 5 -10 10 0 6
5 10 10 10 6 0 10 -4 10 -10z m40 -20 c0 -5 -8 -10 -17 -10 -15 0 -16 2 -3 10
19 12 20 12 20 0z m259 -32 c-8 -14 -14 -18 -17 -10 -4 13 17 46 25 38 3 -2
-1 -15 -8 -28z m-166 -63 c31 -16 43 -17 67 -8 37 14 38 10 5 -11 -24 -16 -28
-15 -75 9 -27 14 -50 28 -50 31 0 6 -1 7 53 -21z m-464 -252 c1 -96 -3 -153
-9 -153 -6 0 -9 77 -9 213 1 146 4 193 9 152 4 -33 8 -129 9 -212z m801 252
c0 -9 -7 -18 -15 -21 -8 -4 -12 -11 -8 -17 3 -5 -1 -15 -9 -21 -8 -6 -17 -19
-21 -30 -6 -15 -10 -16 -22 -6 -17 14 -11 30 10 30 9 0 12 6 9 15 -4 8 1 17
10 21 9 3 16 15 16 25 0 10 7 19 15 19 8 0 15 -7 15 -15z m-392 -100 c-3 -3
-9 2 -12 12 -6 14 -5 15 5 6 7 -7 10 -15 7 -18z m192 4 c0 -5 -4 -7 -10 -4 -5
3 -10 1 -10 -6 0 -7 -3 -10 -6 -6 -8 7 4 27 17 27 5 0 9 -5 9 -11z m-470 -15
c0 -8 -4 -12 -10 -9 -5 3 -10 10 -10 16 0 5 5 9 10 9 6 0 10 -7 10 -16z m800
6 c0 -5 -2 -10 -4 -10 -3 0 -8 5 -11 10 -3 6 -1 10 4 10 6 0 11 -4 11 -10z
m-204 -11 c4 -7 -1 -16 -10 -21 -9 -5 -16 -16 -16 -23 0 -17 -26 -20 -35 -4
-4 6 2 13 13 16 14 3 18 11 15 24 -6 21 21 27 33 8z m-286 -30 c0 -10 -4 -19
-10 -19 -5 0 -7 7 -4 15 4 8 1 15 -6 15 -6 0 -8 5 -5 10 9 15 25 2 25 -21z
m479 -6 c0 -11 -3 -13 -6 -5 -2 6 -10 9 -15 6 -7 -4 -8 -2 -4 4 11 18 26 14
25 -5z m-779 1 c0 -14 -14 -33 -21 -28 -15 9 -10 31 6 31 8 0 15 -1 15 -3z
m425 -14 c3 -5 1 -10 -4 -10 -6 0 -11 5 -11 10 0 6 2 10 4 10 3 0 8 -4 11 -10z
m345 -29 c0 -4 -7 -8 -15 -8 -16 0 -20 9 -9 20 8 8 24 -1 24 -12z m-482 -8
c-3 -19 -28 -31 -28 -13 0 6 5 8 12 4 8 -5 9 -2 5 9 -3 10 -2 17 4 17 6 0 9
-8 7 -17z m67 -6 c28 -4 27 -4 -7 -6 -26 -1 -42 -8 -57 -27 -12 -15 -21 -22
-21 -17 0 5 9 18 20 28 11 10 20 25 20 34 0 11 3 12 8 4 4 -6 21 -13 37 -16z
m48 3 c3 -11 1 -20 -4 -20 -5 0 -9 9 -9 20 0 11 2 20 4 20 2 0 6 -9 9 -20z
m132 9 c4 -6 -2 -13 -13 -16 -14 -3 -18 -11 -15 -24 4 -13 0 -19 -10 -19 -23
0 -29 16 -12 30 8 7 15 19 15 26 0 16 26 19 35 3z m-98 -21 c-3 -8 -6 -5 -6 6
-1 11 2 17 5 13 3 -3 4 -12 1 -19z m-437 -4 c0 -8 -5 -12 -10 -9 -6 4 -8 11
-5 16 9 14 15 11 15 -7z m378 -20 c35 -17 37 -20 20 -30 -7 -4 -8 -3 -4 4 5 8
0 12 -13 12 -10 0 -22 6 -24 13 -4 9 -8 8 -16 -3 -9 -13 -11 -13 -11 3 0 21 8
21 48 1z m382 -9 c0 -8 -6 -12 -14 -9 -8 3 -12 12 -9 20 6 17 23 9 23 -11z
m-743 -20 c-8 -19 -23 -19 -30 -1 -4 10 -1 13 9 9 7 -3 14 1 14 8 0 7 3 10 6
6 4 -3 4 -13 1 -22z m-50 -7 c-3 -8 -6 -5 -6 6 -1 11 2 17 5 13 3 -3 4 -12 1
-19z m517 -9 c-3 -5 -11 -9 -19 -9 -8 0 -11 -7 -8 -20 4 -14 0 -20 -12 -20
-12 0 -15 -5 -11 -16 4 -10 0 -18 -13 -21 -12 -3 -17 -11 -14 -19 3 -8 -2 -17
-11 -20 -9 -3 -14 -10 -11 -14 3 -5 -1 -14 -8 -22 -7 -7 -16 -21 -20 -31 -8
-20 -28 -19 -35 2 -2 7 5 15 16 18 14 3 18 11 15 24 -4 13 0 19 11 19 9 0 13
6 10 15 -4 8 1 17 10 21 9 3 16 13 16 20 0 8 7 17 15 20 8 4 13 10 10 14 -3 5
1 14 8 22 7 7 16 21 20 32 6 15 10 16 22 6 8 -7 12 -16 9 -21z m266 -9 c0 -11
-7 -20 -15 -20 -18 0 -19 12 -3 28 16 16 18 15 18 -8z m-726 -24 c-8 -20 -24
-21 -24 0 0 8 5 12 10 9 6 -3 10 -1 10 6 0 7 2 10 5 7 3 -3 3 -13 -1 -22z
m-127 -31 c8 -22 -6 -33 -17 -15 -13 20 -12 30 0 30 6 0 13 -7 17 -15z m853
-15 c0 -3 -9 -6 -20 -7 -17 -2 -19 1 -9 19 9 17 13 18 20 7 5 -8 9 -16 9 -19z
m-954 -17 c-10 -10 -19 5 -10 18 6 11 8 11 12 0 2 -7 1 -15 -2 -18z m539 -23
c3 -5 1 -10 -4 -10 -6 0 -11 5 -11 10 0 6 2 10 4 10 3 0 8 -4 11 -10z m409 -6
c9 -23 8 -24 -14 -24 -11 0 -20 2 -20 4 0 12 13 36 20 36 4 0 11 -7 14 -16z
m66 -4 c0 -11 -6 -20 -12 -21 -10 0 -10 -2 0 -6 6 -2 12 -13 12 -24 0 -21 20
-25 38 -7 7 7 12 8 12 2 0 -36 -64 -46 -74 -11 -8 30 -8 72 1 80 12 13 23 7
23 -13z m93 0 c4 -17 0 -20 -25 -20 -16 0 -27 4 -23 10 3 5 12 7 20 3 8 -3 15
0 15 5 0 6 -8 13 -17 15 -14 4 -14 5 3 6 14 1 24 -6 27 -19z m-136 -37 c-3
-10 -5 -2 -5 17 0 19 2 27 5 18 2 -10 2 -26 0 -35z m-873 -9 c12 -32 7 -84 -9
-84 -8 0 -15 7 -15 15 0 8 5 15 11 15 8 0 8 4 -1 15 -6 8 -8 20 -4 26 5 9 -1
10 -24 6 -18 -4 -32 -2 -32 2 0 23 65 27 74 5z m62 -10 c-5 -14 -9 -15 -19 -5
-9 9 -9 14 3 21 18 11 24 6 16 -16z m911 20 c-3 -3 -12 -4 -19 -1 -8 3 -5 6 6
6 11 1 17 -2 13 -5z m38 -5 c11 -17 -1 -21 -15 -4 -8 9 -8 15 -2 15 6 0 14 -5
17 -11z m-155 -25 c0 -8 -4 -13 -9 -10 -5 4 -12 0 -14 -6 -3 -7 -6 -4 -6 8 -1
11 2 24 5 27 10 10 24 -2 24 -19z m-955 -4 c3 -5 -1 -10 -9 -10 -9 0 -16 5
-16 10 0 6 4 10 9 10 6 0 13 -4 16 -10z m122 -27 c-3 -10 -5 -4 -5 12 0 17 2
24 5 18 2 -7 2 -21 0 -30z m418 8 c3 -5 0 -13 -5 -16 -6 -4 -15 -18 -20 -31
-6 -15 -15 -22 -25 -18 -21 8 -19 25 4 31 13 3 17 11 14 24 -6 20 20 28 32 10z
m-520 -11 c17 -7 15 -9 -12 -9 -18 -1 -33 4 -33 9 0 12 17 12 45 0z m146 -23
c-9 -9 -14 -8 -21 3 -7 11 -4 17 8 21 21 8 29 -8 13 -24z m907 16 c-10 -2 -28
-2 -40 0 -13 2 -5 4 17 4 22 1 32 -1 23 -4z m-508 -24 c0 -5 -4 -9 -10 -9 -5
0 -10 7 -10 16 0 8 5 12 10 9 6 -3 10 -10 10 -16z m478 -212 c-1 -152 -3 -192
-8 -142 -12 111 -12 367 0 360 6 -4 9 -86 8 -218z m-868 183 c0 -3 -5 -12 -10
-20 -9 -13 -11 -13 -20 0 -14 22 -12 26 10 26 11 0 20 -3 20 -6z m930 6 c0 -3
-4 -8 -10 -11 -5 -3 -10 -1 -10 4 0 6 5 11 10 11 6 0 10 -2 10 -4z m-616 -15
c3 -5 -1 -14 -9 -21 -8 -7 -15 -19 -15 -26 0 -8 -10 -14 -21 -14 -18 0 -20 -2
-9 -16 11 -13 10 -16 -7 -20 -14 -4 -19 -12 -16 -25 4 -13 0 -19 -10 -19 -23
0 -31 19 -14 33 8 7 21 27 28 45 8 18 21 32 31 32 11 0 15 6 11 20 -4 14 0 20
10 20 9 0 18 -4 21 -9z m523 -6 c8 -22 -6 -33 -17 -15 -13 20 -12 30 0 30 6 0
13 -7 17 -15z m-143 -52 c-17 -17 -18 -17 -11 0 4 10 7 24 7 30 0 8 3 8 11 0
9 -9 7 -16 -7 -30z m43 5 c-3 -8 -6 -5 -6 6 -1 11 2 17 5 13 3 -3 4 -12 1 -19z
m-749 -6 c-5 -23 -28 -27 -28 -4 0 10 7 19 15 19 9 0 15 -7 13 -15z m-68 -14
c0 -6 -6 -5 -15 2 -8 7 -15 14 -15 16 0 2 7 1 15 -2 8 -4 15 -11 15 -16z m488
-5 c-21 -2 -57 -2 -80 0 -24 2 -7 4 37 4 44 0 63 -2 43 -4z m322 -25 c0 -5 -5
-6 -11 -2 -6 3 -15 0 -20 -7 -7 -11 -9 -9 -9 7 0 11 3 24 7 27 7 8 33 -11 33
-25z m-414 3 c-4 -5 -1 -12 4 -14 6 -3 5 -4 -2 -3 -15 3 -23 26 -8 26 6 0 9
-4 6 -9z m124 -6 c0 -8 -4 -15 -10 -15 -5 0 -7 7 -4 15 4 8 8 15 10 15 2 0 4
-7 4 -15z m-463 -9 c-5 -16 -27 -19 -27 -3 0 7 7 14 15 14 9 0 14 -5 12 -11z
m344 -45 c-3 -10 -7 -8 -12 6 -4 12 -12 24 -18 28 -6 3 -11 10 -11 15 0 5 10
-1 23 -13 13 -12 21 -28 18 -36z m59 39 c0 -5 -5 -10 -11 -10 -5 0 -7 5 -4 10
3 6 8 10 11 10 2 0 4 -4 4 -10z m350 -21 c0 -5 -4 -9 -10 -9 -5 0 -10 7 -10
16 0 8 5 12 10 9 6 -3 10 -10 10 -16z m-453 -21 c-3 -7 -5 -2 -5 12 0 14 2 19
5 13 2 -7 2 -19 0 -25z m-67 -4 c0 -8 -7 -14 -15 -14 -9 0 -12 -6 -9 -15 4 -8
-1 -17 -10 -21 -9 -3 -16 -15 -16 -25 0 -10 -7 -19 -15 -19 -9 0 -12 -6 -9
-15 4 -8 -1 -17 -10 -21 -9 -3 -16 -15 -16 -25 0 -10 -7 -19 -15 -19 -8 0 -12
-6 -9 -14 7 -19 -15 -31 -29 -16 -9 9 -8 14 6 24 9 7 17 21 17 30 0 9 7 16 15
16 9 0 12 6 9 15 -4 8 1 17 10 21 9 3 16 15 16 25 0 11 7 19 16 19 9 0 12 5 8
12 -4 6 0 16 8 22 8 6 17 19 21 29 8 20 27 14 27 -9z m193 6 c-3 -11 -7 -20
-9 -20 -2 0 -4 9 -4 20 0 11 4 20 9 20 5 0 7 -9 4 -20z m40 14 c-7 -3 -9 -13
-6 -22 5 -13 3 -14 -7 -5 -14 13 -5 33 13 32 9 0 9 -2 0 -5z m-476 -18 c-5
-16 -27 -19 -27 -3 0 7 7 14 15 14 9 0 14 -5 12 -11z m773 -39 c0 -5 -4 -5
-10 -2 -5 3 -10 1 -10 -6 0 -7 -2 -10 -5 -8 -2 3 -2 15 2 28 4 17 8 19 14 9 5
-7 9 -17 9 -21z m-440 13 c0 -5 -4 -10 -10 -10 -5 0 -10 5 -10 10 0 6 5 10 10
10 6 0 10 -4 10 -10z m-346 -31 c-6 -11 -24 -2 -24 11 0 5 7 7 15 4 8 -4 12
-10 9 -15z m471 11 c-3 -5 -1 -10 4 -10 6 0 11 -4 11 -10 0 -5 -7 -10 -15 -10
-8 0 -15 9 -15 20 0 11 5 20 11 20 5 0 7 -4 4 -10z m-490 -40 c3 -5 1 -10 -4
-10 -6 0 -11 5 -11 10 0 6 2 10 4 10 3 0 8 -4 11 -10z m805 0 c0 -5 -4 -10
-10 -10 -5 0 -10 5 -10 10 0 6 5 10 10 10 6 0 10 -4 10 -10z m-468 -22 c-6 -6
-15 -8 -19 -4 -4 4 -1 11 7 16 8 5 17 7 19 4 3 -2 -1 -10 -7 -16z m182 7 c3
-8 1 -15 -4 -15 -6 0 -10 7 -10 15 0 8 2 15 4 15 2 0 6 -7 10 -15z m273 -47
c-3 -8 -6 -5 -6 6 -1 11 2 17 5 13 3 -3 4 -12 1 -19z m-326 -44 c28 -14 49
-28 46 -30 -3 -3 -16 2 -30 11 -38 25 -81 34 -103 22 -17 -9 -18 -9 -5 6 18
23 33 21 92 -9z m-13 -35 c9 -13 21 -18 40 -15 24 5 25 4 10 -8 -25 -18 -22
-29 3 -16 19 10 20 10 10 -9 -8 -14 -8 -22 0 -26 6 -4 7 -14 4 -24 -11 -24
-13 -101 -3 -101 4 0 8 -4 8 -10 0 -17 -62 -42 -96 -38 -19 2 -34 0 -34 -4 0
-12 68 -10 91 2 21 12 26 1 7 -18 -14 -14 -168 -17 -168 -3 0 5 -3 16 -6 24
-4 11 1 13 21 9 20 -3 24 -7 13 -14 -10 -8 -10 -9 2 -5 10 2 16 18 17 48 1 24
-1 36 -4 27 -2 -11 -14 -18 -29 -18 -19 0 -24 5 -24 24 0 28 10 38 28 27 7 -4
33 2 60 15 51 25 95 33 48 9 -15 -8 -35 -15 -43 -15 -8 0 -11 -5 -8 -11 5 -7
15 -5 32 6 13 9 31 14 40 11 10 -4 13 -1 11 12 -3 14 -14 17 -58 16 -37 -1
-48 1 -35 6 14 6 15 9 5 9 -9 1 -21 -4 -26 -9 -7 -7 -21 -5 -42 6 -32 16 -44
28 -18 18 20 -8 30 14 14 33 -9 12 -9 15 0 9 7 -4 12 -2 12 6 0 9 3 9 10 -2 8
-13 11 -12 23 4 8 11 19 16 25 13 6 -4 8 0 5 11 -6 25 37 27 55 1z m-153 -40
c-9 -17 -19 -28 -22 -25 -6 6 23 56 32 56 3 0 -2 -14 -10 -31z m305 -50 c0 -5
-4 -9 -10 -9 -5 0 -10 7 -10 16 0 8 5 12 10 9 6 -3 10 -10 10 -16z m95 11 c11
-18 -26 -23 -43 -6 -15 15 -14 16 10 16 15 0 30 -5 33 -10z m-399 -23 c3 -3 1
-14 -5 -24 -10 -17 -10 -17 -11 0 0 10 -4 15 -10 12 -5 -3 -10 -1 -10 4 0 6
-8 11 -17 11 -16 0 -16 -2 -3 -10 11 -8 7 -9 -15 -4 -54 12 -49 23 9 20 31 -2
59 -6 62 -9z m255 -10 c-13 -15 -19 -31 -16 -43 3 -11 1 -9 -7 5 -11 21 -9 26
11 42 32 26 39 24 12 -4z m-211 -7 c8 -5 11 -12 7 -16 -4 -4 -15 0 -24 9 -18
18 -8 23 17 7z m230 -75 c0 -48 -14 -65 -36 -44 -12 12 -11 19 1 43 8 15 15
35 15 43 0 8 5 11 10 8 6 -3 10 -26 10 -50z m27 40 c0 -8 -4 -12 -9 -9 -5 3
-6 10 -3 15 9 13 12 11 12 -6z m-72 -95 c3 -5 1 -10 -4 -10 -6 0 -11 5 -11 10
0 6 2 10 4 10 3 0 8 -4 11 -10z m-31 -55 c3 -9 0 -15 -9 -15 -8 0 -15 7 -15
15 0 8 4 15 9 15 5 0 11 -7 15 -15z m76 11 c0 -2 -7 -6 -15 -10 -8 -3 -15 -1
-15 4 0 6 7 10 15 10 8 0 15 -2 15 -4z m-126 -21 c3 -9 0 -15 -9 -15 -9 0 -12
6 -9 15 4 8 7 15 9 15 2 0 5 -7 9 -15z m-159 -55 c3 -5 1 -10 -4 -10 -6 0 -11
5 -11 10 0 6 2 10 4 10 3 0 8 -4 11 -10z m301 -15 c-3 -9 -10 -13 -16 -10 -6
4 -5 11 3 20 15 16 22 11 13 -10z m-206 5 c0 -5 -4 -10 -10 -10 -5 0 -10 5
-10 10 0 6 5 10 10 10 6 0 10 -4 10 -10z m60 4 c0 -3 -7 -12 -15 -20 -16 -17
-18 -14 -9 10 6 15 24 23 24 10z"/>
<path d="M685 1740 c28 -12 37 -12 30 0 -3 6 -16 10 -28 9 -21 0 -21 -1 -2 -9z"/>
<path d="M553 1696 c0 -18 3 -24 9 -18 7 7 7 16 0 28 -8 14 -9 13 -9 -10z"/>
<path d="M643 1713 c-19 -7 -16 -20 7 -26 11 -3 20 0 20 6 0 7 5 5 10 -3 9
-13 11 -13 19 0 5 8 7 18 5 22 -6 9 -41 9 -61 1z"/>
<path d="M723 1564 c0 -16 6 -17 25 -5 11 6 9 9 -5 13 -12 3 -20 0 -20 -8z"/>
<path d="M683 1518 c8 -24 12 -28 15 -15 5 23 -4 47 -17 47 -6 0 -5 -13 2 -32z"/>
<path d="M661 460 c0 -14 3 -32 9 -40 15 -24 18 -7 4 30 -11 31 -13 32 -13 10z"/>
<path d="M608 403 c6 -2 18 -2 25 0 6 3 1 5 -13 5 -14 0 -19 -2 -12 -5z"/>
<path d="M657 274 c-3 -3 -4 -11 -1 -18 8 -22 74 -9 74 15 0 10 -63 13 -73 3z"/>
<path d="M793 284 c-3 -8 -2 -19 3 -24 5 -5 10 1 10 16 2 27 -4 31 -13 8z"/>
<path d="M230 1743 l1 -108 34 -39 34 -38 33 37 c81 92 108 136 108 176 0 73
-76 107 -121 54 l-22 -24 -19 24 c-39 50 -48 34 -48 -82z"/>
<path d="M73 1603 c-22 -8 -14 -46 17 -83 l29 -35 25 30 c35 41 41 64 23 83
-13 13 -19 13 -32 2 -12 -10 -19 -10 -27 -2 -13 13 -16 13 -35 5z"/>
<path d="M1170 1371 c0 -20 13 -35 23 -25 7 8 -4 44 -14 44 -5 0 -9 -9 -9 -19z"/>
<path d="M1215 1310 c-3 -5 -3 -14 0 -20 3 -5 1 -10 -5 -10 -7 0 -6 -5 2 -14
16 -17 19 -15 22 18 3 28 -8 43 -19 26z"/>
<path d="M1179 1226 c-1 -14 -2 -30 -3 -36 -1 -5 3 -10 9 -10 13 0 17 57 5 65
-6 3 -11 -5 -11 -19z"/>
<path d="M1238 1131 c-5 -34 0 -53 13 -45 12 7 12 61 0 68 -5 3 -11 -7 -13
-23z"/>
<path d="M102 845 c0 -19 4 -35 8 -35 9 0 18 41 12 58 -8 25 -20 11 -20 -23z"/>
<path d="M164 760 c1 -16 6 -30 11 -30 13 0 11 53 -2 57 -6 2 -10 -9 -9 -27z"/>
<path d="M126 702 c-7 -12 4 -52 15 -52 12 0 12 47 0 55 -5 3 -12 2 -15 -3z"/>
<path d="M1206 439 c-14 -17 -26 -39 -26 -50 0 -25 27 -36 51 -20 13 8 19 8
19 0 0 -20 45 -5 48 17 3 20 -41 84 -58 84 -5 0 -20 -14 -34 -31z"/>
<path d="M1014 352 c-68 -76 -94 -121 -94 -162 0 -41 7 -53 37 -69 34 -18 53
-13 84 20 16 17 29 26 29 20 0 -14 36 -51 50 -51 6 0 10 42 10 106 0 104 0
106 -33 149 l-33 43 -50 -56z"/>
<path d="M1150 305 c0 -3 17 -40 39 -83 l38 -77 -25 -40 c-14 -22 -30 -43 -36
-47 -6 -4 2 -8 17 -8 16 0 26 4 22 10 -6 10 35 90 48 90 12 0 8 -75 -5 -88 -9
-9 -3 -12 28 -11 21 0 33 3 27 6 -16 6 -19 233 -3 233 6 0 10 5 10 10 0 6 -16
10 -35 10 -36 0 -43 -8 -24 -27 5 -5 9 -30 7 -54 l-3 -44 -33 63 c-23 44 -38
62 -52 62 -11 0 -20 -2 -20 -5z"/>
</g>
</svg>
