<?xml version="1.0" encoding="UTF-8" standalone="no"?>
<svg
   xmlns:dc="http://purl.org/dc/elements/1.1/"
   xmlns:cc="http://creativecommons.org/ns#"
   xmlns:rdf="http://www.w3.org/1999/02/22-rdf-syntax-ns#"
   xmlns:svg="http://www.w3.org/2000/svg"
   xmlns="http://www.w3.org/2000/svg"
   viewBox="0 0 180.28 260.85333"
   height="260.85333"
   width="180.28"
   xml:space="preserve"
   id="svg2"
   version="1.1"><metadata
     id="metadata8"><rdf:RDF><cc:Work
         rdf:about=""><dc:format>image/svg+xml</dc:format><dc:type
           rdf:resource="http://purl.org/dc/dcmitype/StillImage" /></cc:Work></rdf:RDF></metadata><defs
     id="defs6" /><g
     transform="matrix(1.3333333,0,0,-1.3333333,0,260.85333)"
     id="g10"><g
       transform="scale(0.1)"
       id="g12"><path
         id="path14"
         style="fill:#ffffff;fill-opacity:1;fill-rule:nonzero;stroke:none"
         d="M 9.99609,65.418 C 9.99609,35.1875 34.707,10.4766 64.9375,10.4766 H 1287.24 c 30.15,0 54.86,24.7109 54.86,54.9414 V 1891.94 c 0,30.22 -24.71,54.94 -54.86,54.94 H 64.9375 c -30.2305,0 -54.94141,-24.72 -54.94141,-54.94 V 65.418" /><path
         id="path16"
         style="fill:none;stroke:#000000;stroke-width:19.99259949;stroke-linecap:butt;stroke-linejoin:miter;stroke-miterlimit:10;stroke-dasharray:none;stroke-opacity:1"
         d="M 9.99609,65.418 C 9.99609,35.1875 34.707,10.4766 64.9375,10.4766 H 1287.24 c 30.15,0 54.86,24.7109 54.86,54.9414 V 1891.94 c 0,30.22 -24.71,54.94 -54.86,54.94 H 64.9375 c -30.2305,0 -54.94141,-24.72 -54.94141,-54.94 z" /><path
         id="path18"
         style="fill:#000000;fill-opacity:1;fill-rule:nonzero;stroke:none"
         d="m 40.4688,1657.76 v 21.48 h 11.5625 l 53.2737,243.6 h 22.652 l 53.367,-243.6 h 13.457 v -21.48 h -66.254 v 21.48 h 13.836 l -11.656,54.15 H 77.5313 l -11.8516,-54.15 h 16.875 v -21.48 H 40.4688 m 41.707,97.12 h 43.8872 l -21.801,101.38 -22.0862,-101.38" /><path
         id="path20"
         style="fill:#000000;fill-opacity:1;fill-rule:nonzero;stroke:none"
         d="m 1319.63,307.566 v -21.484 h -11.57 L 1254.79,42.4922 h -22.65 l -53.37,243.5898 h -13.46 v 21.484 h 66.26 v -21.484 h -13.84 l 11.66,-54.148 h 53.17 l 11.85,54.148 h -16.87 v 21.484 h 42.09 m -41.71,-97.117 h -43.89 l 21.81,-101.379 22.08,101.379" /><path
         id="path22"
         style="fill:#000000;fill-opacity:1;fill-rule:nonzero;stroke:none"
         d="m 87.8086,1482.39 c 13.3554,0 20.3904,14.23 24.0704,28.47 3.68,14.23 3.996,28.46 3.996,28.46 l 6.801,0.09 c 0,0 1.277,-57.02 27.988,-57.02 H 87.8086" /><path
         id="path24"
         style="fill:#000000;fill-opacity:1;fill-rule:nonzero;stroke:none"
         d="m 65.1758,1539.41 c 0.0781,27.74 41.7462,47.89 53.9802,69.81 12.235,-21.99 53.899,-42.15 53.981,-69.81 0,-13.12 -12.078,-23.76 -27.032,-23.76 -14.875,0 -26.949,10.64 -26.949,23.76 0,-13.12 -12.074,-23.76 -27.031,-23.76 -14.9531,0 -26.9492,10.64 -26.9492,23.76" /><path
         id="path26"
         style="fill:#000000;fill-opacity:1;fill-rule:nonzero;stroke:none"
         d="m 1272.29,482.941 c -13.36,0 -20.4,-14.234 -24.08,-28.468 -3.67,-14.235 -3.99,-28.469 -3.99,-28.469 l -6.8,-0.082 c 0,0 -1.28,57.019 -27.99,57.019 h 62.86" /><path
         id="path28"
         style="fill:#000000;fill-opacity:1;fill-rule:nonzero;stroke:none"
         d="m 1294.92,425.922 c -0.08,-27.75 -41.74,-47.902 -53.98,-69.813 -12.24,21.993 -53.9,42.145 -53.98,69.813 0,13.117 12.08,23.75 27.03,23.75 14.87,0 26.95,-10.633 26.95,-23.75 0,13.117 12.08,23.75 27.03,23.75 14.95,0 26.95,-10.633 26.95,-23.75" /><path
         id="path30"
         style="fill:#000000;fill-opacity:1;fill-rule:nonzero;stroke:none"
         d="m 604.813,885.41 c 32.05,0 48.941,34.164 57.769,68.324 8.828,34.164 9.598,68.326 9.598,68.326 l 16.312,0.19 c 0,0 3.071,-136.84 67.176,-136.84 H 604.813" /><path
         id="path32"
         style="fill:#000000;fill-opacity:1;fill-rule:nonzero;stroke:none"
         d="m 550.496,1022.25 c 0.192,66.6 100.188,114.97 129.551,167.56 29.367,-52.78 129.359,-101.15 129.555,-167.56 0,-31.473 -28.985,-57 -64.875,-57 -35.7,0 -64.68,25.527 -64.68,57 0,-31.473 -28.981,-57 -64.871,-57 -35.891,0 -64.68,25.527 -64.68,57" /></g></g></svg>