<?xml version="1.0" standalone="no"?>
<!DOCTYPE svg PUBLIC "-//W3C//DTD SVG 20010904//EN"
 "http://www.w3.org/TR/2001/REC-SVG-20010904/DTD/svg10.dtd">
<svg version="1.0" xmlns="http://www.w3.org/2000/svg"
 width="135.000000pt" height="196.000000pt" viewBox="0 0 135.000000 196.000000"
 preserveAspectRatio="xMidYMid meet">
<metadata>
Created by potrace 1.16, written by Peter Selinger 2001-2019
</metadata>
<g transform="translate(0.000000,196.000000) scale(0.100000,-0.100000)"
fill="#FF0000" stroke="none">
<path d="M17 1942 c-16 -17 -17 -98 -17 -965 0 -846 2 -947 16 -961 14 -14 87
-16 655 -16 422 0 647 4 660 10 19 10 19 32 19 965 0 854 -2 955 -16 969 -14
14 -87 16 -658 16 -610 0 -644 -1 -659 -18z m61 -19 c-13 -3 -18 -14 -18 -36
l0 -32 13 25 c20 39 41 32 45 -15 3 -28 -1 -43 -13 -51 -15 -11 -15 -14 4 -33
23 -23 26 -46 11 -86 -12 -31 -30 -29 -47 6 -13 24 -13 24 -13 -8 0 -32 2 -33
40 -33 29 0 42 5 50 19 15 30 12 92 -7 113 -9 10 -11 18 -6 18 15 0 25 45 17
76 -4 14 -16 29 -28 34 -12 5 235 9 579 9 455 1 604 -2 613 -11 9 -9 12 -231
12 -939 0 -830 -2 -929 -16 -943 -14 -14 -85 -16 -636 -16 -564 0 -623 2 -640
17 -17 15 -18 58 -18 943 0 707 3 929 12 938 7 7 23 11 38 11 16 -1 19 -3 8
-6z"/>
<path d="M615 1715 l-60 -63 56 -53 c31 -30 59 -61 62 -69 5 -13 8 -12 17 3
23 36 76 91 105 109 17 10 23 18 15 18 -16 0 -120 97 -120 112 0 17 -17 4 -75
-57z"/>
<path d="M93 1570 l-22 -27 25 -24 25 -23 24 25 25 25 -27 26 -28 26 -22 -28z"/>
<path d="M659 1144 c-7 -15 -34 -45 -60 -68 l-46 -42 36 -27 c20 -15 47 -43
61 -62 14 -19 27 -34 30 -34 3 0 20 20 39 45 18 24 46 52 62 61 l28 17 -54 48
c-29 27 -57 57 -60 68 -9 27 -19 25 -36 -6z"/>
<path d="M670 469 c0 -14 -72 -90 -104 -110 -26 -16 -27 -17 -8 -23 12 -4 45
-34 76 -66 46 -50 56 -57 61 -41 3 10 29 41 58 67 l52 49 -67 67 c-38 36 -68
62 -68 57z"/>
<path d="M1214 443 l-20 -26 24 -24 25 -25 24 25 25 24 -27 27 c-14 14 -27 26
-28 25 -1 0 -11 -12 -23 -26z"/>
<path d="M1216 295 c-20 -20 -22 -99 -3 -117 11 -10 11 -16 0 -38 -17 -33 -16
-51 3 -78 12 -17 24 -22 47 -20 28 3 32 7 34 33 3 28 2 29 -7 7 -6 -15 -17
-22 -27 -20 -25 5 -31 68 -8 85 16 11 16 14 -4 39 -24 31 -27 62 -7 89 17 23
43 14 49 -17 3 -13 4 -8 4 12 -2 31 -5 35 -33 38 -19 2 -38 -3 -48 -13z"/>
</g>
</svg>
