<?xml version="1.0" standalone="no"?>
<!DOCTYPE svg PUBLIC "-//W3C//DTD SVG 20010904//EN"
 "http://www.w3.org/TR/2001/REC-SVG-20010904/DTD/svg10.dtd">
<svg version="1.0" xmlns="http://www.w3.org/2000/svg"
 width="135.000000pt" height="196.000000pt" viewBox="0 0 135.000000 196.000000"
 preserveAspectRatio="xMidYMid meet">
<metadata>
Created by potrace 1.16, written by Peter Selinger 2001-2019
</metadata>
<g transform="translate(0.000000,196.000000) scale(0.100000,-0.100000)"
fill="#000000" stroke="none">
<path d="M17 1942 c-16 -17 -17 -98 -17 -965 0 -846 2 -947 16 -961 14 -14 87
-16 655 -16 422 0 647 4 660 10 19 10 19 32 19 965 0 854 -2 955 -16 969 -14
14 -87 16 -658 16 -610 0 -644 -1 -659 -18z m45 -82 c-2 -42 0 -70 6 -70 6 0
12 5 14 12 3 7 12 9 22 5 24 -9 20 -120 -5 -125 -11 -2 -21 7 -27 25 l-10 28
-1 -36 c-1 -25 4 -39 15 -43 51 -20 84 15 84 89 0 62 -26 101 -61 92 -14 -4
-19 0 -19 14 0 15 7 19 35 19 32 0 35 2 35 30 l0 30 578 0 c436 0 581 -3 590
-12 9 -9 12 -231 12 -939 0 -830 -2 -929 -16 -943 -14 -14 -85 -16 -636 -16
-564 0 -623 2 -640 17 -17 15 -18 58 -18 943 0 707 3 929 12 938 26 26 33 12
30 -58z"/>
<path d="M303 1748 c-55 -58 -73 -86 -73 -117 0 -39 79 -68 108 -39 19 19 -4
-51 -24 -73 -17 -18 -15 -19 46 -19 59 0 62 1 47 18 -8 9 -18 29 -22 44 -7 26
-6 27 29 21 45 -7 76 17 76 59 0 23 -15 45 -62 94 -33 35 -64 64 -67 64 -4 0
-30 -24 -58 -52z"/>
<path d="M932 1736 c-47 -49 -62 -71 -62 -94 0 -42 31 -66 75 -59 29 5 35 3
35 -12 0 -10 -9 -30 -21 -45 l-20 -26 61 0 61 0 -20 26 c-31 40 -28 62 9 56
60 -9 96 38 69 91 -12 24 -109 127 -120 127 -3 0 -34 -29 -67 -64z"/>
<path d="M86 1580 c-14 -17 -26 -35 -26 -40 0 -13 29 -32 40 -25 14 9 13 -8
-2 -23 -9 -9 -4 -12 22 -12 26 0 31 3 22 12 -13 13 -16 29 -4 27 41 -7 43 27
3 65 l-28 27 -27 -31z"/>
<path d="M613 1119 c-42 -45 -63 -77 -63 -93 0 -45 52 -76 90 -56 32 17 33 9
6 -43 l-23 -47 58 0 59 0 -20 33 c-11 17 -20 40 -20 50 0 15 3 16 21 7 47 -26
106 31 83 80 -8 16 -122 142 -127 139 -1 -1 -30 -32 -64 -70z"/>
<path d="M315 475 c14 -13 25 -33 25 -44 0 -17 -5 -19 -34 -14 -26 4 -39 0
-55 -16 -37 -37 -27 -67 44 -140 l65 -66 65 66 c52 53 65 73 65 98 0 39 -37
66 -80 57 -25 -5 -30 -2 -30 15 0 11 11 31 25 44 l24 25 -69 0 -69 0 24 -25z"/>
<path d="M938 493 c13 -5 42 -55 42 -72 0 -6 -12 -8 -30 -5 -43 9 -80 -18 -80
-57 0 -25 13 -45 65 -98 l65 -66 65 66 c71 73 81 103 45 139 -22 22 -51 26
-80 10 -17 -9 -18 -7 -9 23 5 17 18 40 30 50 21 16 19 17 -52 16 -41 0 -68 -3
-61 -6z"/>
<path d="M1225 470 c4 -14 2 -20 -8 -20 -8 0 -20 -6 -26 -14 -10 -12 -6 -21
18 -48 l31 -33 30 32 c31 35 31 63 -1 63 -22 0 -24 11 -7 28 9 9 6 12 -16 12
-23 0 -26 -3 -21 -20z"/>
<path d="M1224 295 c-47 -47 -25 -165 32 -165 17 0 24 -5 24 -20 0 -16 -7 -20
-35 -20 -31 0 -35 -3 -35 -25 0 -23 4 -25 45 -25 l45 0 0 65 c0 60 -9 80 -25
55 -22 -36 -48 65 -29 114 10 25 31 19 43 -11 l10 -28 -2 34 c-3 48 -38 61
-73 26z"/>
</g>
</svg>
