<?xml version="1.0" standalone="no"?>
<!DOCTYPE svg PUBLIC "-//W3C//DTD SVG 20010904//EN"
 "http://www.w3.org/TR/2001/REC-SVG-20010904/DTD/svg10.dtd">
<svg version="1.0" xmlns="http://www.w3.org/2000/svg"
 width="135.000000pt" height="196.000000pt" viewBox="0 0 135.000000 196.000000"
 preserveAspectRatio="xMidYMid meet">
<metadata>
Created by potrace 1.16, written by Peter Selinger 2001-2019
</metadata>
<g transform="translate(0.000000,196.000000) scale(0.100000,-0.100000)"
fill="#000000" stroke="none">
<path d="M17 1942 c-16 -17 -17 -98 -17 -965 0 -846 2 -947 16 -961 14 -14 87
-16 655 -16 422 0 647 4 660 10 19 10 19 32 19 965 0 854 -2 955 -16 969 -14
14 -87 16 -658 16 -610 0 -644 -1 -659 -18z m63 -39 c-39 -54 -36 -209 5 -243
8 -7 26 -10 39 -6 30 7 51 63 43 113 -8 45 -23 63 -54 63 -21 0 -24 4 -19 23
3 12 6 28 6 35 0 6 9 12 20 12 11 0 20 -7 20 -15 0 -8 5 -15 10 -15 15 0 12
47 -3 53 -6 3 251 6 573 6 443 1 589 -2 598 -11 9 -9 12 -231 12 -939 0 -830
-2 -929 -16 -943 -14 -14 -85 -16 -636 -16 -564 0 -623 2 -640 17 -17 15 -18
58 -18 943 0 707 3 929 12 938 7 7 25 12 40 12 l29 0 -21 -27z m44 -115 c12
-48 4 -108 -15 -108 -5 0 -9 29 -9 65 0 64 12 86 24 43z"/>
<path d="M303 1748 c-55 -58 -73 -86 -73 -117 0 -39 79 -68 108 -39 19 19 -4
-51 -24 -73 -17 -18 -15 -19 46 -19 59 0 62 1 47 18 -8 9 -18 29 -22 44 -7 26
-6 27 29 21 45 -7 76 17 76 59 0 23 -15 45 -62 94 -33 35 -64 64 -67 64 -4 0
-30 -24 -58 -52z"/>
<path d="M932 1736 c-47 -49 -62 -71 -62 -94 0 -42 31 -66 75 -59 29 5 35 3
35 -12 0 -10 -9 -30 -21 -45 l-20 -26 61 0 61 0 -20 26 c-31 40 -28 62 9 56
60 -9 96 38 69 91 -12 24 -109 127 -120 127 -3 0 -34 -29 -67 -64z"/>
<path d="M86 1580 c-14 -17 -26 -35 -26 -40 0 -13 29 -32 40 -25 14 9 13 -8
-2 -23 -9 -9 -4 -12 22 -12 26 0 31 3 22 12 -13 13 -16 29 -4 27 41 -7 43 27
3 65 l-28 27 -27 -31z"/>
<path d="M295 1119 c-79 -82 -86 -117 -27 -148 17 -9 32 -10 52 -3 28 10 28
10 19 -20 -4 -17 -16 -39 -25 -49 -17 -18 -15 -19 44 -19 l62 0 -20 33 c-11
17 -20 40 -20 50 0 15 4 16 20 7 28 -15 70 -2 82 26 17 36 2 68 -62 131 l-60
60 -65 -68z"/>
<path d="M942 1133 c-61 -61 -77 -91 -68 -128 8 -32 51 -51 83 -36 19 9 23 8
23 -7 0 -9 -9 -32 -20 -49 l-20 -33 61 0 c50 0 59 2 50 13 -6 8 -17 30 -26 50
l-15 37 27 -11 c54 -20 106 25 89 78 -3 10 -34 45 -68 78 l-63 60 -53 -52z"/>
<path d="M315 475 c14 -13 25 -33 25 -44 0 -17 -5 -19 -34 -14 -26 4 -39 0
-55 -16 -37 -37 -27 -67 44 -140 l65 -66 65 66 c52 53 65 73 65 98 0 39 -37
66 -80 57 -25 -5 -30 -2 -30 15 0 11 11 31 25 44 l24 25 -69 0 -69 0 24 -25z"/>
<path d="M938 493 c13 -5 42 -55 42 -72 0 -6 -12 -8 -30 -5 -43 9 -80 -18 -80
-57 0 -25 13 -45 65 -98 l65 -66 65 66 c71 73 81 103 45 139 -22 22 -51 26
-80 10 -17 -9 -18 -7 -9 23 5 17 18 40 30 50 21 16 19 17 -52 16 -41 0 -68 -3
-61 -6z"/>
<path d="M1225 470 c4 -14 2 -20 -8 -20 -8 0 -20 -6 -26 -14 -10 -12 -6 -21
18 -48 l31 -33 30 32 c31 35 31 63 -1 63 -22 0 -24 11 -7 28 9 9 6 12 -16 12
-23 0 -26 -3 -21 -20z"/>
<path d="M1210 295 c-19 -23 -23 -105 -7 -135 9 -18 21 -25 41 -25 26 1 27 -1
22 -29 -10 -47 -24 -55 -46 -26 l-20 25 0 -33 c0 -32 1 -33 37 -30 31 2 41 9
53 33 22 44 20 173 -3 208 -20 30 -57 36 -77 12z m50 -70 c0 -36 -4 -65 -9
-65 -19 0 -27 60 -15 108 12 43 24 21 24 -43z"/>
</g>
</svg>
