<?xml version="1.0" standalone="no"?>
<!DOCTYPE svg PUBLIC "-//W3C//DTD SVG 20010904//EN"
 "http://www.w3.org/TR/2001/REC-SVG-20010904/DTD/svg10.dtd">
<svg version="1.0" xmlns="http://www.w3.org/2000/svg"
 width="135.000000pt" height="196.000000pt" viewBox="0 0 135.000000 196.000000"
 preserveAspectRatio="xMidYMid meet">
<metadata>
Created by potrace 1.16, written by Peter Selinger 2001-2019
</metadata>
<g transform="translate(0.000000,196.000000) scale(0.100000,-0.100000)"
fill="#000000" stroke="none">
<path d="M17 1942 c-16 -17 -17 -98 -17 -965 0 -846 2 -947 16 -961 14 -14 87
-16 655 -16 422 0 647 4 660 10 19 10 19 32 19 965 0 854 -2 955 -16 969 -14
14 -87 16 -658 16 -610 0 -644 -1 -659 -18z m66 -20 c-21 -13 -33 -60 -23 -87
7 -17 6 -40 -2 -68 -14 -55 -4 -95 27 -109 61 -28 109 50 71 116 -12 20 -14
32 -6 40 16 16 12 83 -6 100 -14 15 38 16 573 16 445 0 592 -3 601 -12 9 -9
12 -231 12 -939 0 -830 -2 -929 -16 -943 -14 -14 -85 -16 -636 -16 -564 0
-623 2 -640 17 -17 15 -18 58 -18 943 0 707 3 929 12 938 7 7 23 12 38 12 15
0 20 -3 13 -8z m37 -67 c0 -25 -4 -45 -10 -45 -5 0 -10 20 -10 45 0 25 5 45
10 45 6 0 10 -20 10 -45z m10 -124 c0 -33 -14 -56 -29 -47 -12 8 -15 64 -4 92
6 16 7 16 20 -2 7 -10 13 -29 13 -43z"/>
<path d="M303 1748 c-55 -58 -73 -86 -73 -117 0 -39 79 -68 108 -39 19 19 -4
-51 -24 -73 -17 -18 -15 -19 46 -19 59 0 62 1 47 18 -8 9 -18 29 -22 44 -7 26
-6 27 29 21 45 -7 76 17 76 59 0 23 -15 45 -62 94 -33 35 -64 64 -67 64 -4 0
-30 -24 -58 -52z"/>
<path d="M932 1736 c-47 -49 -62 -71 -62 -94 0 -42 31 -66 75 -59 29 5 35 3
35 -12 0 -10 -9 -30 -21 -45 l-20 -26 61 0 61 0 -20 26 c-31 40 -28 62 9 56
60 -9 96 38 69 91 -12 24 -109 127 -120 127 -3 0 -34 -29 -67 -64z"/>
<path d="M86 1580 c-14 -17 -26 -35 -26 -40 0 -13 29 -32 40 -25 14 9 13 -8
-2 -23 -9 -9 -4 -12 22 -12 26 0 31 3 22 12 -13 13 -16 29 -4 27 41 -7 43 27
3 65 l-28 27 -27 -31z"/>
<path d="M310 1323 c-81 -80 -98 -124 -61 -157 21 -19 45 -23 79 -12 l23 8
-16 -38 c-9 -21 -21 -42 -28 -46 -7 -4 16 -8 51 -8 l63 0 -20 26 c-12 15 -21
35 -21 45 0 15 4 17 23 10 42 -15 87 16 87 61 0 22 -15 44 -64 93 -35 36 -66
64 -68 63 -1 0 -23 -21 -48 -45z"/>
<path d="M938 1311 c-79 -80 -87 -128 -28 -158 15 -7 31 -8 47 -2 19 7 23 5
23 -10 0 -10 -9 -30 -21 -45 l-20 -26 63 0 c35 0 58 4 52 8 -15 10 -34 47 -34
66 0 12 5 14 23 7 46 -18 95 25 83 73 -5 20 -120 149 -129 145 -1 0 -28 -26
-59 -58z"/>
<path d="M319 904 c33 -42 28 -61 -14 -56 -25 3 -42 -1 -55 -13 -39 -35 -23
-76 58 -153 l57 -54 62 66 c47 49 63 73 63 95 0 40 -31 64 -75 59 -42 -5 -47
14 -14 56 l20 26 -61 0 -61 0 20 -26z"/>
<path d="M959 904 c33 -42 28 -61 -14 -56 -44 5 -75 -19 -75 -59 0 -22 16 -46
63 -96 l64 -66 52 49 c81 75 100 124 61 159 -13 12 -30 16 -55 13 -42 -5 -47
14 -14 56 l20 26 -61 0 -61 0 20 -26z"/>
<path d="M315 475 c14 -13 25 -33 25 -44 0 -17 -5 -19 -34 -14 -26 4 -39 0
-55 -16 -37 -37 -27 -67 44 -140 l65 -66 65 66 c52 53 65 73 65 98 0 39 -37
66 -80 57 -25 -5 -30 -2 -30 15 0 11 11 31 25 44 l24 25 -69 0 -69 0 24 -25z"/>
<path d="M948 483 c12 -10 24 -30 28 -45 6 -27 5 -28 -25 -22 -44 9 -81 -17
-81 -57 0 -25 13 -45 65 -98 l65 -66 65 66 c71 73 81 103 45 139 -22 22 -51
26 -80 10 -17 -9 -18 -7 -9 23 5 17 18 40 30 50 21 17 19 17 -51 17 -70 0 -72
-1 -52 -17z"/>
<path d="M1225 470 c4 -14 2 -20 -8 -20 -8 0 -20 -6 -26 -14 -10 -12 -6 -21
18 -48 l31 -33 30 32 c31 35 31 63 -1 63 -22 0 -24 11 -7 28 9 9 6 12 -16 12
-23 0 -26 -3 -21 -20z"/>
<path d="M1233 309 c-42 -15 -55 -71 -29 -121 9 -16 11 -30 5 -33 -13 -9 -11
-89 3 -103 16 -16 63 -15 75 0 19 24 22 64 9 89 -11 21 -11 29 0 44 40 55 -6
146 -63 124z m35 -69 c4 -47 -12 -75 -28 -50 -11 17 -13 61 -4 85 11 28 29 10
32 -35z m-8 -135 c0 -25 -4 -45 -10 -45 -5 0 -10 20 -10 45 0 25 5 45 10 45 6
0 10 -20 10 -45z"/>
</g>
</svg>
