<?xml version="1.0" standalone="no"?>
<!DOCTYPE svg PUBLIC "-//W3C//DTD SVG 20010904//EN"
 "http://www.w3.org/TR/2001/REC-SVG-20010904/DTD/svg10.dtd">
<svg version="1.0" xmlns="http://www.w3.org/2000/svg"
 width="135.000000pt" height="196.000000pt" viewBox="0 0 135.000000 196.000000"
 preserveAspectRatio="xMidYMid meet">
<metadata>
Created by potrace 1.16, written by Peter Selinger 2001-2019
</metadata>
<g transform="translate(0.000000,196.000000) scale(0.100000,-0.100000)"
fill="#000000" stroke="none">
<path d="M17 1942 c-16 -17 -17 -98 -17 -965 0 -846 2 -947 16 -961 14 -14 87
-16 655 -16 422 0 647 4 660 10 19 10 19 32 19 965 0 854 -2 955 -16 969 -14
14 -87 16 -658 16 -610 0 -644 -1 -659 -18z m49 -27 c-3 -8 -9 -22 -12 -30 -3
-8 -1 -15 5 -15 7 0 11 -32 11 -95 0 -57 -4 -95 -10 -95 -5 0 -10 -4 -10 -10
0 -5 12 -10 28 -10 l27 0 -3 135 -4 135 27 0 c24 0 25 -2 13 -22 -17 -31 -17
-205 0 -235 31 -55 52 -7 52 117 0 49 -4 100 -10 114 l-10 26 568 0 c428 0
571 -3 580 -12 9 -9 12 -231 12 -939 0 -830 -2 -929 -16 -943 -14 -14 -85 -16
-636 -16 -564 0 -623 2 -640 17 -17 15 -18 58 -18 943 0 707 3 929 12 938 17
17 41 15 34 -3z m104 -125 c0 -47 -5 -92 -10 -100 -7 -10 -10 22 -10 100 0 78
3 110 10 100 5 -8 10 -53 10 -100z"/>
<path d="M303 1748 c-55 -58 -73 -86 -73 -117 0 -39 79 -68 108 -39 19 19 -4
-51 -24 -73 -17 -18 -15 -19 46 -19 59 0 62 1 47 18 -8 9 -18 29 -22 44 -7 26
-6 27 29 21 45 -7 76 17 76 59 0 23 -15 45 -62 94 -33 35 -64 64 -67 64 -4 0
-30 -24 -58 -52z"/>
<path d="M932 1736 c-47 -49 -62 -71 -62 -94 0 -42 31 -66 75 -59 29 5 35 3
35 -12 0 -10 -9 -30 -21 -45 l-20 -26 61 0 61 0 -20 26 c-31 40 -28 62 9 56
60 -9 96 38 69 91 -12 24 -109 127 -120 127 -3 0 -34 -29 -67 -64z"/>
<path d="M86 1580 c-14 -17 -26 -35 -26 -40 0 -13 29 -32 40 -25 14 9 13 -8
-2 -23 -9 -9 -4 -12 22 -12 26 0 31 3 22 12 -13 13 -16 29 -4 27 41 -7 43 27
3 65 l-28 27 -27 -31z"/>
<path d="M612 1516 c-65 -67 -75 -95 -48 -131 10 -14 25 -19 55 -19 34 1 41
-2 41 -18 0 -10 -11 -30 -25 -43 l-24 -25 72 1 c40 0 66 3 59 6 -13 5 -42 55
-42 71 0 5 18 9 41 8 30 0 45 5 55 19 27 36 17 64 -48 131 -33 35 -64 64 -68
64 -4 0 -35 -29 -68 -64z"/>
<path d="M310 1323 c-81 -80 -98 -124 -61 -157 21 -19 45 -23 79 -12 l23 8
-16 -38 c-9 -21 -21 -42 -28 -46 -7 -4 16 -8 51 -8 l63 0 -20 26 c-12 15 -21
35 -21 45 0 15 4 17 23 10 42 -15 87 16 87 61 0 22 -15 44 -64 93 -35 36 -66
64 -68 63 -1 0 -23 -21 -48 -45z"/>
<path d="M938 1311 c-79 -80 -87 -128 -28 -158 15 -7 31 -8 47 -2 19 7 23 5
23 -10 0 -10 -9 -30 -21 -45 l-20 -26 63 0 c35 0 58 4 52 8 -15 10 -34 47 -34
66 0 12 5 14 23 7 46 -18 95 25 83 73 -5 20 -120 149 -129 145 -1 0 -28 -26
-59 -58z"/>
<path d="M319 904 c33 -42 28 -61 -14 -56 -25 3 -42 -1 -55 -13 -39 -35 -23
-76 58 -153 l57 -54 62 66 c47 49 63 73 63 95 0 40 -31 64 -75 59 -42 -5 -47
14 -14 56 l20 26 -61 0 -61 0 20 -26z"/>
<path d="M959 904 c33 -42 28 -61 -14 -56 -44 5 -75 -19 -75 -59 0 -22 16 -46
63 -96 l64 -66 52 49 c81 75 100 124 61 159 -13 12 -30 16 -55 13 -42 -5 -47
14 -14 56 l20 26 -61 0 -61 0 20 -26z"/>
<path d="M640 688 c11 -18 20 -41 20 -51 0 -15 -3 -16 -21 -7 -29 16 -77 -5
-85 -37 -9 -33 2 -52 69 -122 l57 -60 58 60 c66 70 77 89 68 122 -8 32 -56 53
-85 37 -18 -9 -21 -8 -21 7 0 10 9 33 20 51 l20 32 -60 0 -60 0 20 -32z"/>
<path d="M315 475 c14 -13 25 -33 25 -44 0 -17 -5 -19 -34 -14 -26 4 -39 0
-55 -16 -37 -37 -27 -67 44 -140 l65 -66 65 66 c52 53 65 73 65 98 0 39 -37
66 -80 57 -25 -5 -30 -2 -30 15 0 11 11 31 25 44 l24 25 -69 0 -69 0 24 -25z"/>
<path d="M948 483 c12 -10 24 -30 28 -45 6 -27 5 -28 -25 -22 -44 9 -81 -17
-81 -57 0 -25 13 -45 65 -98 l65 -66 65 66 c71 73 81 103 45 139 -22 22 -51
26 -80 10 -17 -9 -18 -7 -9 23 5 17 18 40 30 50 21 17 19 17 -51 17 -70 0 -72
-1 -52 -17z"/>
<path d="M1225 470 c4 -14 2 -20 -8 -20 -8 0 -20 -6 -26 -14 -10 -12 -6 -21
18 -48 l31 -33 30 32 c31 35 31 63 -1 63 -22 0 -24 11 -7 28 9 9 6 12 -16 12
-23 0 -26 -3 -21 -20z"/>
<path d="M1180 284 c-6 -14 -10 -63 -10 -109 0 -91 11 -135 35 -135 8 0 18 12
22 28 10 35 10 179 0 215 -9 34 -34 35 -47 1z m29 -111 c0 -75 -4 -111 -9 -98
-15 36 -10 215 6 215 2 0 4 -53 3 -117z"/>
<path d="M1254 288 c3 -13 6 -74 6 -135 0 -95 2 -113 15 -113 9 0 20 12 25 26
13 32 12 37 0 29 -6 -4 -10 28 -10 89 0 52 4 98 10 101 20 12 9 25 -21 25 -28
0 -31 -3 -25 -22z"/>
</g>
</svg>
