<?xml version="1.0" standalone="no"?>
<!DOCTYPE svg PUBLIC "-//W3C//DTD SVG 20010904//EN"
 "http://www.w3.org/TR/2001/REC-SVG-20010904/DTD/svg10.dtd">
<svg version="1.0" xmlns="http://www.w3.org/2000/svg"
 width="135.000000pt" height="196.000000pt" viewBox="0 0 135.000000 196.000000"
 preserveAspectRatio="xMidYMid meet">
<metadata>
Created by potrace 1.16, written by Peter Selinger 2001-2019
</metadata>
<g transform="translate(0.000000,196.000000) scale(0.100000,-0.100000)"
fill="#000000" stroke="none">
<path d="M17 1942 c-16 -17 -17 -98 -17 -965 0 -846 2 -947 16 -961 14 -14 87
-16 655 -16 422 0 647 4 660 10 19 10 19 32 19 965 0 854 -2 955 -16 969 -14
14 -87 16 -658 16 -610 0 -644 -1 -659 -18z m73 -27 c0 -8 5 -15 10 -15 14 0
13 -237 -1 -246 -6 -3 -15 0 -20 7 -7 11 -9 9 -9 -7 0 -26 24 -38 49 -24 24
12 31 51 31 164 0 50 3 101 6 114 l6 22 572 0 c432 0 575 -3 584 -12 9 -9 12
-231 12 -939 0 -830 -2 -929 -16 -943 -14 -14 -85 -16 -636 -16 -564 0 -623 2
-640 17 -17 15 -18 58 -18 943 0 707 3 929 12 938 17 17 58 15 58 -3z"/>
<path d="M450 1910 l225 -5 -55 -17 c-30 -9 -76 -20 -102 -24 -38 -5 -52 -13
-78 -46 -18 -21 -30 -41 -29 -42 2 -2 14 -9 27 -15 12 -6 22 -21 22 -31 0 -11
6 -20 13 -20 6 0 4 -5 -5 -11 -10 -5 -18 -15 -18 -21 0 -6 -18 -27 -39 -47
-31 -29 -38 -41 -34 -62 4 -22 0 -28 -25 -37 -35 -12 -109 -76 -117 -101 -3
-10 -32 -45 -65 -78 -46 -45 -60 -67 -60 -89 0 -16 -5 -36 -10 -44 -7 -10 -10
26 -10 113 0 78 -4 127 -10 127 -7 0 -9 -238 -8 -707 l3 -708 530 0 530 0
-522 2 -523 3 0 363 0 362 23 -40 c30 -54 65 -57 130 -14 30 20 44 35 37 39
-8 5 -1 18 20 39 36 35 45 39 36 14 -5 -16 -4 -16 8 0 8 11 12 26 8 35 -5 15
-4 15 9 2 19 -18 33 -80 18 -80 -5 0 -12 6 -15 13 -6 16 -37 15 -57 -2 -14
-11 -13 -18 3 -65 29 -84 59 -138 104 -182 69 -69 126 -137 126 -151 0 -7 5
-13 10 -13 17 0 53 -48 55 -72 1 -13 5 -44 9 -70 7 -41 6 -48 -12 -57 -27 -15
-39 -14 -24 1 17 17 15 65 -3 72 -27 10 -93 -32 -100 -63 -7 -32 3 -81 16 -81
5 0 9 -7 9 -15 0 -8 11 -17 23 -20 37 -10 178 2 222 18 22 8 66 18 98 22 31 4
57 11 57 15 0 5 12 23 27 40 22 26 24 34 12 41 -40 24 -42 27 -35 63 4 21 18
47 33 59 51 44 54 49 48 77 -6 25 -3 29 29 40 19 6 51 31 73 56 21 24 64 72
96 105 31 34 59 71 61 83 17 82 21 73 24 -51 1 -78 7 -133 12 -133 6 0 10 257
10 710 l0 710 -532 -2 c-373 -2 -465 -4 -308 -8z m286 -15 c17 -13 17 -14 2
-15 -10 0 -18 4 -18 9 0 5 -10 12 -22 14 -21 4 -21 4 -2 6 11 0 29 -6 40 -14z
m533 -342 c0 -247 -3 -350 -10 -333 -27 67 -73 77 -137 30 -23 -17 -46 -30
-51 -30 -4 0 -21 35 -36 78 -22 57 -40 89 -74 123 -64 64 -141 156 -141 168 0
5 -8 12 -18 15 -27 9 -40 39 -47 110 -5 46 -3 72 5 81 20 25 29 17 17 -15 -9
-25 -9 -33 4 -46 15 -14 20 -14 54 5 21 11 42 26 47 33 20 33 0 105 -36 130
-6 4 87 8 207 8 l217 0 -1 -357z m-479 332 c7 -9 8 -15 2 -15 -5 0 -12 7 -16
15 -3 8 -4 15 -2 15 2 0 9 -7 16 -15z m63 -66 c4 -16 3 -18 -9 -8 -7 6 -11 15
-8 20 8 13 11 11 17 -12z m-145 -49 c2 -19 -4 -28 -23 -37 -20 -9 -25 -8 -25
2 0 8 6 15 13 18 7 2 6 3 -3 3 -11 -1 -16 -16 -18 -54 -3 -45 -5 -52 -18 -42
-10 9 -14 9 -14 1 0 -6 5 -11 10 -11 6 0 10 -4 10 -10 0 -5 -8 -10 -17 -10
-17 -1 -17 -1 0 -11 9 -6 15 -14 12 -19 -3 -4 2 -11 11 -14 12 -4 15 -2 11 9
-4 8 -2 17 4 21 6 4 6 11 -2 20 -9 11 -9 14 1 14 8 0 9 10 5 29 -6 26 -4 28
19 24 19 -4 26 -12 26 -29 0 -32 -18 -75 -43 -104 l-22 -25 23 19 c12 11 22
15 22 9 0 -18 -35 -40 -72 -46 -28 -4 -43 -1 -63 14 -28 23 -34 44 -8 35 15
-6 15 -4 -1 13 -16 17 -18 31 -13 82 6 67 15 78 62 79 24 1 27 2 13 10 -11 7
-25 7 -42 0 -27 -10 -35 0 -13 18 18 15 47 20 102 19 45 -2 50 -4 53 -27z
m-218 -120 c6 10 10 11 10 3 0 -7 -13 -19 -30 -28 -17 -9 -30 -11 -30 -5 0 5
5 10 10 10 6 0 9 3 9 8 -3 19 2 25 11 12 9 -13 11 -13 20 0z m295 -60 c13 0
45 -32 45 -44 0 -7 -3 -7 -8 -1 -4 6 -20 17 -37 25 -16 9 -31 25 -33 35 -3 19
-2 19 11 3 8 -10 18 -18 22 -18z m-315 -4 c22 4 23 3 5 -5 -11 -5 -14 -10 -7
-10 7 -1 10 -6 6 -12 -4 -8 -9 -7 -15 2 -5 8 -9 10 -9 6 0 -5 -7 -1 -16 7 -8
9 -23 16 -32 16 -14 0 -15 2 -2 10 10 6 20 4 30 -5 9 -8 27 -12 40 -9z m264
-38 c5 4 -4 -19 -18 -52 -14 -32 -26 -66 -26 -74 0 -25 -17 -1 -23 33 -5 26
-1 33 24 47 16 10 29 22 29 28 0 16 -30 12 -36 -5 -4 -8 -10 -15 -15 -15 -5 0
1 14 13 31 19 26 24 28 34 15 6 -9 14 -12 18 -8z m-334 -38 c0 -11 4 -20 10
-20 5 0 7 7 4 15 -4 8 -2 15 4 15 17 0 21 -25 7 -44 -13 -17 -15 -16 -29 13
-19 35 -19 41 -6 41 6 0 10 -9 10 -20z m416 -43 c-14 -24 -22 -47 -19 -51 4
-3 1 -6 -5 -6 -7 0 -12 -9 -12 -19 0 -11 -5 -23 -11 -27 -16 -9 -4 28 33 106
18 35 33 60 35 53 2 -6 -7 -31 -21 -56z m17 -28 c-19 -39 -42 -103 -52 -141
-10 -38 -24 -74 -31 -81 -10 -10 -11 -9 -6 3 4 8 0 6 -10 -5 -16 -20 -16 -20
-10 5 3 14 6 33 6 43 0 9 4 17 10 17 5 0 7 -8 4 -17 -5 -14 -4 -15 4 -4 5 7 9
26 8 42 -1 15 2 26 6 23 4 -3 8 1 8 9 0 9 9 32 19 54 11 21 25 53 33 71 7 17
16 32 20 32 5 0 8 7 8 16 0 8 4 13 8 10 5 -3 -7 -37 -25 -77z m-245 3 c-5 -20
-11 -41 -12 -47 -2 -5 -9 9 -15 33 -7 24 -15 50 -18 57 -4 12 0 13 25 4 29
-10 30 -12 20 -47z m-138 34 c0 -2 3 -12 6 -20 5 -13 2 -15 -12 -9 -16 6 -17
5 -4 -9 8 -9 19 -13 24 -10 5 3 6 0 2 -6 -4 -7 -2 -12 3 -12 6 0 11 -5 11 -11
0 -5 -4 -7 -10 -4 -6 3 -7 -1 -4 -9 3 -9 9 -14 13 -12 3 2 6 -19 7 -47 l1 -52
-14 39 c-7 22 -11 41 -9 44 3 2 -2 11 -10 20 -13 12 -13 16 -2 23 12 8 9 11
-9 8 -12 -2 -22 28 -16 49 4 18 23 32 23 18z m157 -68 c-3 -8 -6 -5 -6 6 -1
11 2 17 5 13 3 -3 4 -12 1 -19z m-187 -3 c0 -7 -59 -65 -67 -65 -4 0 8 16 27
35 33 35 40 39 40 30z m540 -15 c0 -11 -7 -20 -16 -20 -9 0 -12 -5 -8 -12 4
-6 0 -16 -8 -22 -8 -6 -17 -19 -21 -29 -4 -10 -11 -15 -17 -12 -15 9 -12 35 5
35 9 0 12 6 9 15 -4 8 1 17 10 21 9 3 16 15 16 25 0 10 7 19 15 19 8 0 15 -9
15 -20z m-620 -34 c0 -2 -8 -10 -17 -17 -16 -13 -17 -12 -4 4 13 16 21 21 21
13z m314 -74 c-13 -104 -22 -112 -23 -20 -1 75 1 87 15 81 12 -4 14 -16 8 -61z
m-240 37 c-10 -11 -28 -26 -39 -31 -14 -7 -10 -1 10 20 33 35 59 44 29 11z
m101 -42 c6 -29 4 -36 -6 -32 -9 3 -14 22 -15 51 -1 51 10 41 21 -19z m104
-19 c0 -92 -12 -83 -24 20 -6 53 -5 62 9 62 13 0 16 -13 15 -82z m-283 54 c-3
-5 -16 -12 -28 -15 l-23 -6 24 20 c23 19 39 20 27 1z m550 -34 c4 -6 2 -14 -4
-16 -7 -2 -19 -20 -29 -39 -9 -20 -24 -38 -34 -40 -11 -3 -15 -11 -12 -24 4
-13 0 -19 -10 -19 -23 0 -29 16 -12 30 8 7 15 19 15 26 0 8 10 14 21 14 18 0
20 2 9 16 -11 13 -10 16 7 20 14 4 19 12 16 25 -6 21 21 27 33 7z m-536 -8 c0
-5 -5 -10 -11 -10 -5 0 -7 5 -4 10 3 6 8 10 11 10 2 0 4 -4 4 -10z m845 -10
c-3 -5 -13 -10 -21 -10 -19 0 -120 -76 -128 -96 -3 -7 -10 -14 -16 -14 -22 0
11 39 71 84 54 41 110 62 94 36z m-897 -7 c-10 -2 -18 -8 -18 -13 0 -4 -9 -10
-20 -13 -12 -3 -20 -14 -20 -26 0 -14 -6 -21 -20 -21 -13 0 -20 -7 -20 -19 0
-10 -7 -21 -15 -25 -30 -11 -14 16 39 70 30 30 63 53 73 53 17 -1 17 -2 1 -6z
m170 -39 c2 -21 -6 -41 -26 -67 -16 -20 -32 -34 -36 -30 -3 3 -6 -2 -6 -12 0
-11 -8 -39 -17 -64 -14 -36 -18 -40 -24 -25 -4 11 -8 34 -8 52 -1 17 -6 32
-13 32 -6 0 -1 11 12 25 19 20 26 23 38 12 13 -10 14 -9 4 10 -22 40 -15 68
21 86 41 20 51 17 55 -19z m741 24 c0 -7 -21 -26 -47 -43 -43 -28 -122 -118
-122 -139 0 -6 6 -2 13 9 8 10 19 15 26 11 17 -11 43 25 29 41 -13 16 -4 28
44 64 52 37 60 37 56 -4 -2 -22 -15 -45 -36 -66 -17 -18 -32 -28 -32 -23 0 6
14 22 31 36 17 14 25 26 17 26 -19 0 -31 -11 -47 -42 -8 -15 -22 -36 -32 -47
-10 -10 -19 -31 -21 -47 l-3 -29 -27 27 c-16 15 -28 23 -28 18 0 -6 -5 -10
-10 -10 -7 0 -8 18 -4 52 6 40 4 49 -6 43 -8 -5 -11 -3 -8 6 3 8 12 14 21 14
14 0 33 14 75 58 9 9 22 17 29 17 6 0 16 6 20 14 7 12 26 20 56 25 4 0 7 -5 6
-11z m-886 -5 c3 -5 -9 -19 -27 -32 -35 -27 -92 -96 -118 -145 -14 -27 -17
-29 -24 -12 -5 12 -2 21 9 28 10 5 17 17 17 27 0 10 9 21 19 24 14 3 18 11 14
26 -4 17 -1 21 17 21 13 0 24 8 27 20 3 11 14 20 24 20 11 0 19 7 19 15 0 16
15 21 23 8z m204 -25 c-3 -8 -6 -5 -6 6 -1 11 2 17 5 13 3 -3 4 -12 1 -19z
m473 -24 c0 -14 3 -14 15 -4 8 7 15 9 15 6 0 -11 -32 -56 -40 -56 -9 0 -19 58
-12 65 11 10 22 4 22 -11z m-72 -35 c2 -10 -4 -15 -15 -14 -18 1 -23 6 -23 26
0 16 34 6 38 -12z m-404 -40 c-10 -16 -24 -9 -24 12 0 18 2 19 15 9 8 -7 12
-16 9 -21z m262 20 c10 -17 -13 -36 -27 -22 -12 12 -4 33 11 33 5 0 12 -5 16
-11z m-626 -43 c-14 -14 -22 -2 -14 18 5 14 9 15 15 4 4 -7 4 -17 -1 -22z
m765 -13 c-4 -11 -9 -13 -12 -6 -2 7 -11 9 -19 6 -9 -3 -14 2 -14 15 0 25 20
34 39 17 8 -8 11 -20 6 -32z m276 16 c-9 -22 -10 -22 -10 -3 -1 11 2 24 6 27
12 12 14 0 4 -24z m-944 -11 c-3 -7 -5 -2 -5 12 0 14 2 19 5 13 2 -7 2 -19 0
-25z m833 22 c0 -5 -5 -10 -11 -10 -5 0 -7 5 -4 10 3 6 8 10 11 10 2 0 4 -4 4
-10z m-422 -12 c-2 -5 -8 -9 -13 -9 -5 0 -11 4 -13 9 -1 5 4 9 13 9 9 0 14 -4
13 -9z m90 -11 c2 -9 -3 -17 -10 -17 -11 0 -14 -13 -13 -47 1 -27 0 -36 -2
-20 -5 31 -23 37 -23 7 0 -11 -7 -20 -15 -20 -8 0 -12 -6 -9 -14 7 -19 -15
-31 -29 -16 -9 9 -8 14 6 24 9 7 17 21 17 30 0 9 6 16 14 16 8 0 18 5 22 12 4
7 3 8 -4 4 -7 -4 -12 -2 -12 4 0 6 7 13 15 16 8 4 15 15 15 26 0 23 24 19 28
-5z m189 -14 c-3 -10 -5 -4 -5 12 0 17 2 24 5 18 2 -7 2 -21 0 -30z m-637 23
c0 -2 -7 -6 -15 -10 -8 -3 -15 -1 -15 4 0 6 7 10 15 10 8 0 15 -2 15 -4z m191
-10 c5 3 9 -2 9 -10 0 -9 -7 -16 -15 -16 -9 0 -15 9 -14 23 0 12 3 16 6 9 2
-6 9 -10 14 -6z m624 -32 c-8 -16 -15 -38 -16 -49 -1 -15 -2 -16 -6 -3 -4 17
24 94 32 86 3 -3 -1 -18 -10 -34z m59 20 c20 -8 11 -24 -15 -24 -10 0 -19 7
-19 15 0 16 9 19 34 9z m-973 -27 c-10 -9 -11 -8 -5 6 3 10 9 15 12 12 3 -3 0
-11 -7 -18z m56 -29 c-2 -13 -4 -5 -4 17 -1 22 1 32 4 23 2 -10 2 -28 0 -40z
m360 -30 c-2 -18 -4 -6 -4 27 0 33 2 48 4 33 2 -15 2 -42 0 -60z m617 67 c3
-8 1 -15 -4 -15 -6 0 -10 7 -10 15 0 8 2 15 4 15 2 0 6 -7 10 -15z m-1112 -17
c-7 -7 -12 -8 -12 -2 0 14 12 26 19 19 2 -3 -1 -11 -7 -17z m548 6 c-15 -17
-30 -18 -30 -1 0 7 9 13 21 14 17 2 18 -1 9 -13z m177 -6 c-3 -8 -6 -5 -6 6
-1 11 2 17 5 13 3 -3 4 -12 1 -19z m56 9 c3 -8 1 -20 -4 -28 -6 -9 -9 -10 -9
-2 0 7 -7 10 -15 7 -18 -7 -20 7 -3 24 16 16 25 15 31 -1z m24 -19 c-3 -8 -6
-5 -6 6 -1 11 2 17 5 13 3 -3 4 -12 1 -19z m-697 -8 c0 -23 -25 -27 -33 -6 -4
9 1 17 11 19 9 3 18 5 20 6 1 0 2 -8 2 -19z m258 -9 c-5 -24 -33 -19 -36 6 -3
17 1 20 18 16 12 -3 20 -12 18 -22z m-345 -1 c-7 -28 -23 -36 -23 -11 0 10 6
22 13 24 6 3 13 6 14 6 0 1 -1 -8 -4 -19z m1007 10 c0 -5 -7 -10 -15 -10 -8 0
-15 5 -15 10 0 6 7 10 15 10 8 0 15 -4 15 -10z m-104 -11 c5 -9 -1 -10 -20 -5
-18 4 -25 3 -21 -4 3 -5 14 -10 23 -11 11 0 12 -2 4 -6 -15 -6 -44 16 -36 28
8 13 42 11 50 -2z m168 -35 c-8 -6 -14 -23 -14 -37 0 -13 -7 -27 -15 -31 -8
-3 -15 -15 -15 -26 0 -11 -7 -20 -15 -20 -9 0 -15 -9 -15 -25 0 -19 -5 -25
-21 -25 -12 0 -23 -8 -26 -20 -3 -11 -14 -20 -24 -20 -11 0 -19 -7 -19 -15 0
-16 -15 -20 -24 -7 -2 4 9 17 25 27 41 27 110 119 140 188 17 40 26 51 30 39
4 -10 1 -22 -7 -28z m-875 23 c6 -8 8 -17 4 -20 -10 -11 -43 -8 -43 4 0 6 9 8
20 4 27 -9 25 3 -2 15 -16 6 -18 9 -7 9 9 1 22 -5 28 -12z m551 -21 c0 -19 -4
-23 -20 -19 -23 6 -25 14 -8 31 18 18 28 14 28 -12z m-783 -8 c-3 -8 -6 -5 -6
6 -1 11 2 17 5 13 3 -3 4 -12 1 -19z m140 -8 c-4 -17 -2 -30 3 -30 6 0 11 7
11 15 4 45 11 50 34 25 15 -17 16 -24 5 -50 -13 -31 -35 -54 -24 -26 4 11 0
16 -11 16 -9 0 -13 -4 -10 -10 3 -5 1 -10 -5 -10 -8 0 -10 -9 -6 -23 6 -25
-25 -62 -71 -86 -32 -16 -35 -14 -31 21 2 22 16 46 40 70 20 20 42 55 49 77
14 48 24 55 16 11z m896 16 c3 -8 -1 -17 -9 -20 -23 -9 -24 -8 -24 14 0 23 25
27 33 6z m-923 -6 c0 -5 -7 -10 -16 -10 -8 0 -12 5 -9 10 3 6 10 10 16 10 5 0
9 -4 9 -10z m258 -19 c-2 -9 -11 -17 -21 -19 -12 -3 -17 3 -17 21 0 20 4 24
20 20 12 -3 20 -12 18 -22z m522 -26 c0 -17 5 -36 10 -41 7 -7 2 -18 -14 -33
l-25 -24 -12 26 c-9 21 -8 35 7 76 19 54 34 52 34 -4z m-583 23 c-3 -8 -6 -5
-6 6 -1 11 2 17 5 13 3 -3 4 -12 1 -19z m-80 -47 c-1 -32 -5 -57 -9 -54 -4 2
-27 -14 -50 -36 -23 -23 -46 -41 -51 -41 -6 0 -15 -6 -21 -14 -14 -17 -66 -30
-66 -16 0 5 17 21 39 34 45 29 105 96 132 149 11 20 21 37 24 37 2 0 3 -27 2
-59z m371 39 c3 -9 -1 -11 -12 -7 -9 4 -16 1 -16 -5 0 -6 -3 -9 -6 -5 -4 3 -4
13 0 22 7 19 27 16 34 -5z m518 -7 c-10 -10 -19 5 -10 18 6 11 8 11 12 0 2 -7
1 -15 -2 -18z m-1109 -5 c-3 -8 -6 -5 -6 6 -1 11 2 17 5 13 3 -3 4 -12 1 -19z
m83 -4 c0 -11 -6 -13 -20 -9 -17 5 -20 2 -21 -22 l-2 -28 -4 28 c-3 20 1 33
14 42 20 15 33 11 33 -11z m297 -6 c-3 -7 -5 -2 -5 12 0 14 2 19 5 13 2 -7 2
-19 0 -25z m153 22 c0 -18 -32 -60 -45 -60 -8 0 -11 -8 -8 -20 4 -14 0 -20
-10 -20 -23 0 -29 16 -12 30 8 7 15 19 15 26 0 8 10 14 21 14 17 0 19 3 10 13
-6 8 -8 17 -4 20 10 11 33 8 33 -3z m493 -5 c-3 -9 -8 -14 -10 -11 -3 3 -2 9
2 15 9 16 15 13 8 -4z m-267 -16 c3 -6 1 -16 -5 -22 -8 -8 -11 -8 -11 2 0 7
-4 9 -10 6 -5 -3 -10 1 -10 9 0 18 25 22 36 5z m-469 -36 c-3 -10 -5 -4 -5 12
0 17 2 24 5 18 2 -7 2 -21 0 -30z m52 21 c7 4 11 -1 11 -12 0 -20 -23 -36 -34
-25 -3 4 -6 18 -6 32 0 19 3 22 9 12 5 -7 14 -10 20 -7z m600 0 c6 4 11 2 11
-4 0 -17 -33 -8 -37 10 -4 12 -3 13 5 1 5 -7 15 -10 21 -7z m38 -16 c-3 -7 -5
-2 -5 12 0 14 2 19 5 13 2 -7 2 -19 0 -25z m-387 3 c0 -4 -7 -8 -15 -8 -16 0
-20 9 -9 20 8 8 24 -1 24 -12z m500 2 c0 -5 -5 -15 -10 -23 -8 -12 -10 -11
-10 8 0 12 5 22 10 22 6 0 10 -3 10 -7z m-361 -35 c0 -13 -3 -17 -6 -10 -2 6
-9 10 -14 6 -10 -6 -12 9 -2 19 13 14 23 7 22 -15z m106 -18 c25 -49 20 -74
-22 -94 -39 -18 -53 -11 -53 26 0 14 48 96 57 98 1 0 9 -13 18 -30z m-505 1
c0 10 3 10 12 1 9 -9 9 -15 1 -23 -15 -15 -43 -4 -43 17 0 13 3 14 15 4 12
-10 15 -10 15 1z m720 -20 c-29 -42 -101 -101 -119 -100 -13 1 -12 2 2 6 9 2
17 10 17 18 0 7 8 12 17 11 11 0 19 7 21 21 2 13 12 23 25 25 12 2 21 9 19 17
-2 8 3 18 10 22 26 17 29 8 8 -20z m-590 -3 c0 -5 -8 -12 -19 -15 -13 -3 -17
-11 -14 -24 4 -13 0 -19 -11 -19 -9 0 -13 -6 -10 -15 4 -8 -1 -17 -10 -21 -9
-3 -16 -15 -16 -25 0 -11 -7 -19 -16 -19 -9 0 -12 -5 -8 -12 4 -6 0 -16 -8
-22 -8 -6 -17 -19 -21 -30 -6 -15 -10 -16 -22 -6 -17 14 -11 30 10 30 9 0 12
6 9 15 -4 8 1 17 10 21 9 3 16 15 16 25 0 10 6 19 14 19 8 0 18 5 22 12 4 7 3
8 -4 4 -7 -4 -12 -3 -12 3 0 5 6 14 13 18 7 4 21 25 30 45 12 25 22 35 32 32
8 -4 15 -11 15 -16z m148 -99 c1 46 5 81 8 78 4 -4 12 -40 19 -82 9 -59 9 -75
-1 -75 -7 0 -18 -2 -26 -5 -7 -3 -19 -1 -26 3 -10 7 -10 24 0 88 l13 79 6 -85
5 -85 2 84z m-103 17 c-4 -20 -11 -36 -15 -36 -4 0 -3 18 2 40 13 49 22 46 13
-4z m227 -11 c2 11 4 -1 4 -27 -1 -27 -2 -48 -3 -48 -3 0 -21 69 -27 105 -4
21 -1 18 8 -10 10 -31 14 -35 18 -20z m-592 40 c0 -12 -81 -56 -97 -52 -15 3
-15 5 -3 9 29 11 45 19 70 33 28 16 30 17 30 10z m334 -62 c-8 -38 -19 -78
-25 -90 -6 -11 -9 -27 -6 -35 3 -8 6 -6 7 7 0 11 8 29 16 40 16 19 16 19 9 -5
-13 -45 -78 -175 -82 -164 -2 7 5 28 17 48 11 20 20 44 19 54 -1 18 -4 12 -24
-45 -4 -13 -11 -23 -16 -23 -5 0 -9 -8 -10 -17 0 -10 -3 -13 -5 -7 -2 5 11 44
31 86 19 42 41 103 49 136 24 103 40 114 20 15z m426 13 c0 -3 -4 -8 -10 -11
-5 -3 -10 -1 -10 4 0 6 5 11 10 11 6 0 10 -2 10 -4z m-27 -31 c4 -8 1 -17 -5
-21 -7 -4 -8 -3 -4 4 12 20 -13 13 -31 -8 -10 -11 -22 -20 -27 -20 -5 0 -2 8
7 18 10 10 14 22 10 26 -4 4 0 4 9 1 9 -4 19 -2 23 4 8 15 12 14 18 -4z m-391
-27 c-8 -8 -9 -4 -5 13 4 13 8 18 11 10 2 -7 -1 -18 -6 -23z m308 22 c0 -5 -5
-10 -11 -10 -5 0 -7 5 -4 10 3 6 8 10 11 10 2 0 4 -4 4 -10z m150 7 c0 -2 -9
-12 -20 -22 -17 -16 -20 -16 -20 -2 0 8 8 18 18 20 9 3 18 5 20 6 1 0 2 -1 2
-2z m-178 -67 c-5 -13 -3 -13 11 -1 10 8 20 11 24 7 3 -3 1 -6 -5 -6 -6 0 -10
-13 -10 -30 1 -16 4 -27 8 -25 5 3 60 -96 60 -110 0 -3 -4 -5 -10 -5 -5 0 -10
9 -10 20 0 11 -4 20 -10 20 -5 0 -10 8 -10 19 0 10 -7 24 -15 31 -10 9 -15 9
-15 1 0 -6 5 -11 10 -11 6 0 10 -8 10 -18 0 -10 5 -23 11 -29 6 -6 9 -17 7
-24 -4 -11 -46 67 -53 96 -1 6 -5 18 -8 28 -15 37 -16 47 -8 47 5 0 7 10 5 23
-4 20 -4 20 4 2 5 -11 7 -27 4 -35z m118 16 c0 -3 -4 -8 -10 -11 -5 -3 -10 -1
-10 4 0 6 5 11 10 11 6 0 10 -2 10 -4z m-503 -38 c-3 -8 -6 -5 -6 6 -1 11 2
17 5 13 3 -3 4 -12 1 -19z m473 9 c0 -2 -10 -12 -21 -23 -22 -19 -22 -19 -8 4
12 19 29 30 29 19z m-544 -18 c7 -12 -15 -31 -28 -23 -4 3 -8 12 -8 20 0 17
26 19 36 3z m321 -31 c-3 -8 -6 -5 -6 6 -1 11 2 17 5 13 3 -3 4 -12 1 -19z
m53 -30 c6 -21 8 -43 4 -49 -4 -7 0 -17 9 -24 21 -15 11 -59 -12 -50 -11 4 -9
0 5 -13 19 -18 20 -26 13 -78 -5 -33 -6 -66 -3 -75 11 -36 -64 -66 -142 -57
-25 3 -29 7 -31 36 -1 18 3 30 8 26 6 -3 16 0 24 6 12 10 15 9 15 -3 0 -9 -7
-18 -15 -20 -11 -4 -10 -4 2 -3 14 1 19 11 21 41 4 64 11 85 30 86 16 1 16 2
0 6 -9 2 -15 10 -12 17 3 8 -2 16 -10 19 -10 4 -13 1 -10 -7 3 -8 0 -17 -6
-21 -8 -5 -8 -11 1 -21 8 -10 8 -14 0 -14 -6 0 -8 -11 -5 -29 6 -26 4 -28 -20
-24 -17 4 -26 12 -26 24 0 26 26 88 48 114 17 20 17 20 -5 1 -13 -11 -23 -15
-23 -9 0 37 96 62 139 36 l26 -17 -23 26 c-18 19 -20 27 -10 31 9 4 8 6 -4 6
-24 1 -30 16 -22 57 7 40 16 36 34 -18z m-116 2 c5 -31 3 -37 -24 -52 -17 -9
-30 -22 -30 -28 0 -16 30 -12 36 5 4 8 10 15 16 15 5 0 -1 -14 -13 -31 -20
-28 -24 -30 -34 -16 -7 9 -15 14 -19 10 -4 -4 4 18 17 47 13 30 27 64 31 74 8
24 12 20 20 -24z m-116 -119 c22 -9 32 -20 32 -35 -1 -19 -2 -19 -11 -3 -5 9
-15 17 -21 17 -15 0 -48 30 -48 44 0 8 3 8 8 0 4 -5 22 -16 40 -23z m339 6
c10 4 14 2 10 -4 -4 -6 -21 -16 -37 -22 -18 -6 -28 -6 -25 -1 4 6 13 10 20 10
8 0 13 6 11 13 -1 6 -1 9 1 5 2 -4 11 -4 20 -1z m-263 -26 c4 -5 -3 -7 -14 -4
-23 6 -26 13 -6 13 8 0 17 -4 20 -9z m305 -12 c-14 -8 -29 -3 -29 11 0 4 9 6
21 3 15 -4 17 -8 8 -14z m-48 -28 c-7 -5 -12 -12 -12 -17 1 -5 -8 -10 -19 -10
-28 -2 -25 13 8 30 27 14 48 12 23 -3z m-341 -125 c0 -2 -7 -7 -16 -10 -8 -3
-12 -2 -9 4 6 10 25 14 25 6z m-51 -60 c7 -8 8 -17 3 -20 -6 -3 -12 3 -15 14
-6 24 -4 25 12 6z m31 -71 c0 -5 -5 -3 -10 5 -5 8 -10 20 -10 25 0 6 5 3 10
-5 5 -8 10 -19 10 -25z m34 -1 c3 -8 2 -12 -4 -9 -6 3 -10 10 -10 16 0 14 7
11 14 -7z m56 -4 c0 -5 -4 -10 -9 -10 -6 0 -13 5 -16 10 -3 6 1 10 9 10 9 0
16 -4 16 -10z"/>
<path d="M582 1728 c-38 -10 -35 -24 8 -30 34 -5 46 4 33 25 -6 10 -17 11 -41
5z"/>
<path d="M598 1553 c7 -3 16 -2 19 1 4 3 -2 6 -13 5 -11 0 -14 -3 -6 -6z"/>
<path d="M240 912 c0 -7 -17 -31 -37 -54 -24 -26 -31 -39 -20 -35 10 4 21 7
23 7 2 0 4 5 4 10 0 6 10 24 22 40 12 16 19 33 15 37 -4 3 -7 1 -7 -5z"/>
<path d="M734 268 c-13 -20 11 -35 44 -26 17 5 32 12 32 17 0 11 -70 20 -76 9z"/>
<path d="M770 221 c-27 -5 -31 -8 -17 -13 16 -7 67 6 67 17 0 3 -3 4 -7 4 -5
-1 -24 -4 -43 -8z"/>
<path d="M262 1817 c-30 -31 -32 -37 -32 -111 0 -78 0 -78 25 -74 32 7 34 -18
4 -56 l-20 -26 62 0 c59 0 61 1 46 18 -8 9 -20 29 -26 43 -10 27 -9 27 30 22
70 -10 100 40 60 101 -14 21 -108 116 -116 116 0 0 -15 -15 -33 -33z"/>
<path d="M86 1580 c-14 -17 -26 -35 -26 -40 0 -13 29 -32 40 -25 14 9 13 -8
-2 -23 -9 -9 -4 -12 22 -12 26 0 31 3 22 12 -13 13 -16 29 -4 27 41 -7 43 27
3 65 l-28 27 -27 -31z"/>
<path d="M1225 470 c4 -14 2 -20 -8 -20 -8 0 -20 -6 -26 -14 -10 -12 -6 -21
18 -48 l31 -33 30 32 c31 35 31 63 -1 63 -22 0 -24 11 -7 28 9 9 6 12 -16 12
-23 0 -26 -3 -21 -20z"/>
<path d="M1014 401 c9 -10 21 -32 25 -49 9 -30 9 -30 -21 -20 -25 9 -34 7 -56
-9 -48 -36 -41 -65 33 -142 l67 -69 34 38 c32 36 34 41 34 114 0 42 -3 76 -6
76 -3 0 -14 -5 -25 -10 -26 -14 -26 14 1 58 l20 32 -62 0 c-59 0 -61 -1 -44
-19z"/>
<path d="M1230 324 c-8 -9 -15 -50 -17 -97 -2 -45 -5 -106 -7 -134 l-3 -53 34
0 c18 0 33 5 33 10 0 6 -4 10 -10 10 -13 0 -13 247 -1 255 6 3 14 -3 20 -12 9
-16 10 -14 11 10 0 22 -4 27 -24 27 -13 0 -29 -7 -36 -16z"/>
</g>
</svg>
