<?xml version="1.0" standalone="no"?>
<!DOCTYPE svg PUBLIC "-//W3C//DTD SVG 20010904//EN"
 "http://www.w3.org/TR/2001/REC-SVG-20010904/DTD/svg10.dtd">
<svg version="1.0" xmlns="http://www.w3.org/2000/svg"
 width="135.000000pt" height="196.000000pt" viewBox="0 0 135.000000 196.000000"
 preserveAspectRatio="xMidYMid meet">
<metadata>
Created by potrace 1.16, written by Peter Selinger 2001-2019
</metadata>
<g transform="translate(0.000000,196.000000) scale(0.100000,-0.100000)"
fill="#000000" stroke="none">
<path d="M17 1942 c-16 -17 -17 -98 -17 -965 0 -846 2 -947 16 -961 14 -14 87
-16 655 -16 422 0 647 4 660 10 19 10 19 32 19 965 0 854 -2 955 -16 969 -14
14 -87 16 -658 16 -610 0 -644 -1 -659 -18z m53 -44 c-39 -64 -21 -186 30
-213 16 -8 31 -24 35 -35 3 -11 13 -20 21 -20 17 0 19 37 2 42 -7 3 -3 16 13
37 34 46 35 145 1 190 l-23 31 579 0 c436 0 581 -3 590 -12 9 -9 12 -231 12
-939 0 -830 -2 -929 -16 -943 -14 -14 -85 -16 -636 -16 -564 0 -623 2 -640 17
-17 15 -18 58 -18 943 0 707 3 929 12 938 7 7 22 12 35 12 l23 0 -20 -32z m68
0 c17 -17 16 -172 -1 -186 -25 -21 -39 4 -44 74 -5 66 7 124 25 124 4 0 13 -5
20 -12z"/>
<path d="M473 1913 c240 -3 247 -4 247 -23 0 -12 -10 -25 -22 -30 -14 -5 -17
-9 -8 -10 10 0 6 -6 -10 -16 l-25 -15 24 5 c17 3 21 2 13 -6 -5 -5 -20 -7 -33
-3 -22 7 -22 8 -4 21 10 8 15 14 9 14 -11 -1 -45 -29 -63 -55 -14 -19 -14 -19
3 -4 17 16 20 15 52 -5 18 -11 33 -25 34 -29 0 -5 -4 -5 -10 -2 -18 11 -10
-10 10 -28 23 -19 26 -37 8 -37 -8 -1 -6 -6 4 -14 10 -7 15 -16 11 -19 -9 -10
18 -38 29 -31 6 4 5 10 -3 15 -9 5 -10 12 -4 18 6 6 16 7 24 1 12 -7 12 -11 3
-23 -14 -17 -5 -177 9 -177 5 0 9 -4 9 -10 0 -13 -111 -3 -124 11 -8 9 -8 10
1 5 9 -5 12 2 10 24 -2 24 -7 30 -25 30 -21 0 -22 -1 -8 -16 20 -19 20 -25 1
-18 -9 4 -21 -6 -34 -28 -11 -18 -25 -38 -30 -45 -6 -7 -11 -17 -11 -23 0 -6
-8 -14 -17 -17 -10 -4 -29 -13 -42 -22 -18 -11 -46 -14 -115 -12 -50 2 -94 7
-97 13 -4 7 -9 6 -13 -1 -10 -15 3 -33 17 -24 7 4 5 -4 -4 -17 -18 -28 -58
-35 -101 -18 -33 12 -36 33 -7 41 16 4 20 11 16 26 -3 12 -1 21 4 21 5 0 9 -8
9 -17 0 -15 2 -16 10 -3 7 12 3 18 -18 27 l-27 12 28 1 c15 0 40 -7 55 -16 25
-16 25 -15 -3 9 -25 21 -27 27 -14 32 10 4 32 -4 54 -19 23 -16 52 -26 73 -26
l35 0 -23 25 c-13 14 -30 23 -38 20 -7 -2 -10 0 -7 5 3 6 -4 10 -17 11 -22 0
-22 1 -3 9 27 11 79 12 90 1 6 -5 42 -11 80 -14 l70 -6 -24 20 c-22 18 -23 21
-7 37 22 25 20 32 -10 32 -21 0 -25 4 -21 20 3 11 2 22 -3 25 -12 7 -90 -53
-90 -71 0 -8 -5 -12 -10 -9 -7 4 -3 19 10 39 20 34 26 66 12 66 -14 0 -59 -53
-67 -78 -6 -22 -18 -29 -74 -47 l-24 -7 22 30 c11 17 21 37 21 46 0 12 10 16
36 16 l35 0 -20 26 c-33 42 -28 61 14 56 25 -3 42 1 55 13 39 35 23 76 -58
153 l-56 52 -33 -32 c-32 -31 -33 -35 -33 -111 0 -79 0 -79 25 -75 31 6 34
-18 7 -53 -23 -30 -40 -75 -44 -114 -2 -21 -11 -34 -30 -43 -16 -7 -28 -18
-28 -23 0 -6 -5 -7 -10 -4 -6 4 -7 12 -4 18 5 8 4 9 -4 2 -7 -6 -14 -25 -18
-42 -6 -29 -5 -30 22 -27 l29 4 -30 -11 c-16 -6 -35 -11 -42 -11 -7 -1 -10 -5
-7 -10 4 -5 12 -7 19 -4 10 3 12 -10 8 -62 -5 -60 -4 -65 11 -53 10 8 16 29
16 52 0 41 5 45 42 30 13 -5 31 -12 41 -15 17 -5 17 -8 2 -37 -9 -17 -14 -33
-11 -37 3 -3 6 0 6 7 0 8 7 11 15 7 18 -6 39 29 30 51 -5 16 39 73 57 73 5 0
0 -10 -12 -22 -13 -15 -17 -25 -10 -32 11 -11 39 19 40 42 0 7 13 12 31 12 21
0 28 -4 23 -12 -10 -17 -67 -92 -75 -98 -9 -7 -84 -177 -99 -223 -6 -21 -14
-36 -17 -33 -3 3 -14 1 -24 -5 -16 -8 -19 -20 -17 -67 1 -41 2 -47 5 -20 2 21
11 39 20 42 12 5 14 1 9 -16 -3 -13 -6 -36 -6 -51 0 -17 -4 -26 -11 -22 -15
10 50 -105 76 -135 13 -14 26 -42 29 -62 4 -21 18 -51 33 -68 l25 -31 -26 -39
-26 -39 29 -17 c57 -34 129 -196 101 -229 -7 -8 -18 -15 -25 -15 -7 0 -28 -6
-46 -14 l-34 -15 32 -11 c36 -13 49 -13 45 2 -1 5 2 7 8 3 5 -3 10 -1 10 6 0
10 3 10 12 1 8 -8 8 -15 -1 -26 -7 -8 -9 -20 -5 -27 5 -8 9 -7 16 5 10 17 33
21 42 7 3 -5 -2 -8 -12 -7 -13 1 -17 -6 -16 -31 l2 -33 -189 0 -189 0 -3 712
-2 713 -3 -717 -2 -718 533 2 c292 2 421 4 285 5 l-248 3 0 25 c0 14 6 25 13
25 8 0 7 4 -3 11 -11 8 -7 9 17 4 17 -3 34 -2 37 3 4 6 -4 8 -16 5 -21 -4 -21
-3 -5 7 10 6 24 9 32 7 7 -3 21 4 32 16 16 19 16 20 1 8 -12 -9 -18 -9 -18 -2
0 6 -14 18 -31 27 -22 11 -28 18 -19 24 9 6 7 13 -9 29 -24 24 -27 37 -8 44 7
4 6 6 -5 6 -11 1 -15 7 -11 22 4 14 0 22 -14 25 -21 6 -33 58 -33 147 0 37 0
37 43 37 23 0 49 -5 57 -10 11 -7 11 -10 2 -10 -7 0 -12 -8 -10 -17 1 -10 -1
-23 -4 -29 -5 -7 1 -10 17 -6 14 2 22 8 19 14 -3 5 6 18 20 29 14 11 26 27 26
36 0 13 -3 13 -15 3 -9 -7 -19 -10 -22 -6 -10 10 19 27 35 21 7 -2 18 5 25 16
17 28 95 80 103 68 3 -6 34 -7 79 -3 l72 7 41 -41 c56 -56 35 -74 -34 -27 -42
28 -97 35 -88 10 4 -8 25 -26 48 -40 l41 -25 -43 0 c-24 0 -51 4 -60 9 -9 5
-43 11 -74 13 -59 5 -73 -4 -41 -27 16 -12 16 -14 0 -30 -20 -20 -14 -35 14
-35 16 0 19 -5 14 -20 -9 -27 7 -25 55 5 24 15 40 33 40 45 0 13 5 18 15 13
14 -5 14 -7 -1 -24 -9 -10 -13 -23 -9 -29 3 -6 1 -9 -7 -8 -7 2 -14 -7 -16
-20 -4 -26 14 -29 40 -5 16 15 20 15 33 2 9 -8 19 -29 24 -46 l9 -31 -30 10
c-25 9 -34 7 -56 -9 -48 -36 -41 -65 33 -142 l67 -69 34 38 c32 36 34 41 34
114 0 42 -3 76 -6 76 -3 0 -14 -5 -25 -10 -29 -16 -25 15 11 75 16 28 30 64
30 80 0 43 14 59 52 60 31 0 34 3 42 43 6 23 16 42 23 42 7 0 13 5 13 11 0 6
-7 8 -16 5 -8 -3 -12 -2 -9 4 3 6 2 10 -4 10 -6 0 -7 22 -4 56 5 46 3 56 -8
52 -8 -3 -15 -22 -17 -47 -3 -42 -4 -42 -35 -36 l-32 6 28 -16 c32 -19 34 -26
6 -43 -12 -8 -18 -19 -15 -28 3 -8 1 -14 -4 -14 -6 0 -10 8 -10 18 0 14 -2 15
-9 2 -13 -19 -5 -30 22 -30 18 0 19 -2 7 -10 -22 -14 -32 -12 -65 14 -26 21
-28 26 -16 40 8 10 10 16 5 15 -29 -5 -34 2 -18 26 14 21 19 23 32 13 11 -9
13 -9 9 -1 -4 7 0 13 10 16 17 4 17 5 1 6 -22 1 -23 11 -3 37 17 22 20 43 4
27 -6 -6 -18 -9 -25 -6 -13 5 -18 -10 -16 -47 1 -21 -37 -70 -54 -70 -13 0
-13 2 0 16 9 8 16 23 16 32 -1 14 -4 13 -20 -6 -10 -12 -20 -26 -22 -31 -2 -4
-18 -11 -36 -14 l-33 -7 37 48 c21 26 43 52 49 57 6 6 17 25 23 43 6 18 18 42
27 55 l16 22 -7 -28 c-5 -22 -3 -26 9 -21 21 8 28 42 11 52 -11 6 -9 20 14 78
17 43 32 69 40 66 6 -2 12 4 12 13 0 9 5 13 10 10 6 -4 10 13 10 45 0 41 -7
64 -39 118 -22 37 -48 78 -59 92 -10 14 -22 42 -26 62 -4 21 -18 51 -32 67
l-25 30 25 38 26 37 -25 16 c-39 26 -81 89 -99 149 -24 82 -26 78 62 112 28
10 31 14 18 21 -9 5 -26 6 -39 3 -17 -5 -19 -4 -7 4 13 9 13 11 -2 11 -9 0
-21 -7 -26 -16 -7 -12 -11 -13 -16 -5 -4 7 -2 19 5 27 15 18 3 32 -13 16 -7
-7 -21 -12 -32 -11 -19 0 -19 1 3 10 18 7 22 14 17 34 l-6 25 190 0 190 0 3
-707 2 -708 3 713 2 712 -532 -2 c-293 -2 -422 -4 -285 -5z m358 -20 c1 -17 2
-17 6 0 2 9 11 17 19 17 11 0 10 -5 -5 -21 -20 -22 -41 -19 -41 7 0 20 20 17
21 -3z m68 -25 c1 -5 -3 -8 -7 -8 -4 0 -8 12 -9 28 -1 23 -1 24 7 7 5 -11 9
-23 9 -27z m-149 -28 c0 -5 -2 -10 -4 -10 -3 0 -8 5 -11 10 -3 6 -1 10 4 10 6
0 11 -4 11 -10z m50 -31 c0 -5 -6 -7 -12 -4 -7 4 -4 -1 6 -9 20 -16 20 -16 0
-16 -16 0 -17 -2 -4 -11 13 -9 13 -10 0 -6 -8 2 -14 9 -13 15 1 5 -4 15 -12
22 -12 10 -13 8 -10 -12 3 -12 12 -29 22 -35 15 -11 15 -13 1 -13 -9 0 -23 11
-32 24 -10 17 -22 23 -36 19 -11 -3 -27 -2 -37 1 -15 6 -14 9 7 21 30 16 120
19 120 4z m16 -116 c-7 -7 -26 7 -26 19 0 6 6 6 15 -2 9 -7 13 -15 11 -17z
m54 -55 c0 -5 -4 -8 -10 -8 -5 0 -10 10 -10 23 0 18 2 19 10 7 5 -8 10 -18 10
-22z m0 -33 c0 -8 -4 -15 -10 -15 -5 0 -10 7 -10 15 0 8 5 15 10 15 6 0 10 -7
10 -15z m-64 -43 c-15 -15 -15 -15 -4 10 7 15 15 23 17 17 2 -6 -4 -18 -13
-27z m70 -44 c-14 -123 -47 -218 -77 -218 -24 0 -32 16 -24 48 6 26 7 26 21 8
11 -16 16 -17 29 -6 18 15 19 32 3 48 -9 9 -15 9 -26 0 -11 -10 -11 -4 2 27
21 49 30 58 24 23 -7 -36 3 -36 20 -1 16 36 15 53 -3 53 -12 0 -14 7 -9 28 6
23 29 52 42 52 3 0 2 -28 -2 -62z m-596 19 c0 -7 -7 -22 -15 -33 -13 -17 -14
-16 -4 14 11 33 19 41 19 19z m750 -37 c0 -11 -6 -20 -14 -20 -8 0 -18 -5 -22
-12 -4 -7 -3 -8 4 -4 7 4 12 2 12 -4 0 -6 -7 -13 -15 -16 -8 -4 -15 -13 -15
-20 0 -8 -7 -17 -15 -20 -8 -4 -13 -10 -10 -14 3 -5 -1 -14 -8 -22 -7 -7 -16
-21 -20 -30 -8 -22 -23 -23 -31 -2 -4 10 0 18 13 21 12 3 17 11 14 19 -3 8 2
17 11 20 9 3 16 15 16 25 0 10 7 19 15 19 9 0 12 6 9 15 -4 8 1 17 10 21 9 3
16 15 16 25 0 10 7 19 15 19 8 0 15 -9 15 -20z m-405 -70 c-3 -5 -13 -10 -21
-10 -8 0 -12 5 -9 10 3 6 13 10 21 10 8 0 12 -4 9 -10z m40 -10 c-3 -5 -13
-10 -21 -10 -8 0 -12 5 -9 10 3 6 13 10 21 10 8 0 12 -4 9 -10z m30 -10 c-3
-5 -11 -10 -16 -10 -6 0 -7 5 -4 10 3 6 11 10 16 10 6 0 7 -4 4 -10z m45 6 c0
-3 -4 -8 -10 -11 -5 -3 -10 -1 -10 4 0 6 5 11 10 11 6 0 10 -2 10 -4z m294
-30 c31 -41 28 -122 -7 -174 -28 -43 -92 -87 -142 -97 -18 -3 -10 2 19 14 63
26 111 73 132 128 21 53 13 97 -24 136 -15 17 -21 28 -13 25 8 -2 24 -17 35
-32z m-655 8 c10 -9 -35 -3 -49 6 -11 8 -7 9 15 4 17 -4 32 -8 34 -10z m221
-4 c13 -8 13 -10 -2 -10 -9 0 -20 5 -23 10 -8 13 5 13 25 0z m427 -36 c-1 -1
-17 1 -34 3 -29 5 -31 7 -22 25 11 20 11 20 35 -3 13 -12 23 -23 21 -25z
m-857 16 c12 -8 9 -10 -12 -10 -16 0 -28 5 -28 10 0 13 20 13 40 0z m493 3
c-7 -2 -21 -2 -30 0 -10 3 -4 5 12 5 17 0 24 -2 18 -5z m110 -82 c10 -11 9
-13 -3 -9 -9 3 -16 18 -17 39 -1 24 0 26 4 9 3 -14 10 -31 16 -39z m204 33
c-3 -3 -12 -4 -19 -1 -8 3 -5 6 6 6 11 1 17 -2 13 -5z m-152 -63 c-27 -43 -35
-50 -35 -28 0 17 54 88 58 77 2 -5 -8 -27 -23 -49z m79 51 c2 -4 1 -14 -4 -22
-7 -11 -12 -12 -21 -3 -6 6 -8 16 -5 22 8 13 23 14 30 3z m46 -7 c6 -8 9 -18
6 -23 -11 -18 48 -22 62 -4 10 13 12 13 12 1 0 -24 -36 -75 -72 -102 -30 -23
-114 -57 -139 -57 -13 0 22 61 39 67 6 3 12 11 12 18 0 7 7 16 15 19 9 3 15
11 14 18 -2 16 23 78 32 78 4 0 12 -7 19 -15z m-74 -37 c4 -6 0 -16 -8 -22 -8
-6 -17 -19 -21 -28 -3 -10 -11 -18 -16 -18 -6 0 -8 -7 -5 -15 4 -8 -1 -17 -10
-21 -9 -3 -16 -13 -16 -20 0 -8 -6 -17 -14 -20 -8 -3 -12 -12 -10 -19 7 -18
-15 -30 -29 -15 -9 9 -8 14 6 24 9 7 17 21 17 30 0 9 7 16 15 16 9 0 12 6 9
15 -4 8 1 17 10 21 9 3 16 15 16 25 0 11 7 19 16 19 8 0 12 5 9 10 -7 12 2 30
15 30 5 0 12 -5 16 -12z m-739 -20 c-3 -8 -6 -5 -6 6 -1 11 2 17 5 13 3 -3 4
-12 1 -19z m639 -18 c-1 -16 -4 -30 -8 -30 -10 0 -10 22 -2 44 9 23 11 20 10
-14z m404 -143 c0 -23 -4 -36 -10 -32 -6 3 -10 -4 -10 -16 0 -12 -2 -20 -5
-17 -3 2 -2 33 1 67 7 67 24 65 24 -2z m-550 28 c0 6 8 11 18 11 14 0 17 -6
13 -31 -4 -25 -6 -26 -9 -7 -2 12 -8 22 -13 22 -6 0 -7 -5 -3 -11 5 -8 1 -8
-14 0 -18 10 -21 7 -28 -22 -4 -17 -7 -36 -5 -41 1 -5 -3 -12 -9 -16 -6 -4 -8
-14 -4 -24 4 -10 9 -13 13 -7 4 6 12 7 21 1 13 -8 12 -10 -3 -10 -10 0 -15 -5
-12 -10 4 -6 11 -8 16 -5 5 4 9 2 9 -4 0 -18 -20 -23 -26 -6 -5 11 -10 13 -19
5 -6 -5 -16 -6 -20 -2 -5 4 -5 -1 -2 -11 4 -10 7 -26 7 -35 0 -10 3 -13 8 -7
7 11 32 18 32 10 0 -2 -13 -11 -30 -20 -23 -12 -30 -12 -30 -3 0 9 -3 9 -11
-2 -15 -22 -10 -4 35 132 34 100 42 114 53 100 7 -9 13 -12 13 -7z m67 3 c-3
-8 -6 -5 -6 6 -1 11 2 17 5 13 3 -3 4 -12 1 -19z m-15 -55 c-10 -28 -10 -28
-8 9 0 21 5 33 10 28 4 -4 4 -21 -2 -37z m161 40 c-7 -2 -21 -2 -30 0 -10 3
-4 5 12 5 17 0 24 -2 18 -5z m-13 -24 c0 8 3 12 6 8 3 -3 -14 -64 -37 -136
-26 -78 -46 -125 -51 -118 -10 16 -10 29 1 23 5 -3 11 4 15 17 9 35 7 47 -7
41 -21 -8 -50 31 -42 57 6 17 9 19 16 8 6 -10 9 -11 9 -1 0 6 7 12 16 12 8 0
12 5 9 10 -4 6 -11 8 -16 5 -5 -4 -9 -1 -9 4 0 14 17 14 25 1 10 -16 35 8 36
34 0 20 1 21 9 1 7 -16 9 -17 9 -3 1 20 -15 32 -24 18 -8 -12 -25 -13 -25 -2
0 16 44 31 52 18 5 -7 8 -6 8 3z m-80 -14 c0 -9 -7 -18 -15 -21 -8 -4 -13 -9
-11 -13 8 -12 -11 -34 -23 -27 -17 11 -13 36 5 36 10 0 14 6 11 14 -7 16 1 26
20 26 7 0 13 -7 13 -15z m-99 -12 c7 7 6 3 -2 -8 -9 -11 -19 -27 -23 -35 -3
-8 -4 -5 -2 8 4 23 -9 31 -17 10 -3 -7 -6 -3 -6 10 -1 19 2 21 17 13 13 -7 23
-6 33 2z m45 -65 c4 -6 0 -16 -9 -23 -10 -7 -17 -20 -17 -29 0 -9 -7 -16 -15
-16 -9 0 -12 -6 -9 -15 4 -8 -1 -17 -10 -21 -9 -3 -16 -13 -16 -20 0 -8 -6
-17 -14 -20 -8 -3 -12 -12 -9 -20 3 -7 -2 -17 -11 -20 -21 -8 -20 -24 1 -39
14 -11 15 -17 5 -36 -11 -24 -11 -24 -6 4 6 26 0 32 -32 28 -21 -3 -25 30 -5
36 12 3 17 11 14 19 -3 8 2 17 11 20 9 3 16 15 16 25 0 10 7 19 15 19 9 0 12
6 9 15 -4 8 1 17 10 21 9 3 16 15 16 25 0 11 7 19 16 19 8 0 12 5 9 10 -7 12
2 30 15 30 5 0 12 -5 16 -12z m-6 -73 c-6 -15 -8 -37 -4 -48 4 -13 2 -17 -5
-13 -6 4 -11 0 -11 -10 0 -10 -3 -15 -6 -11 -3 3 2 31 11 62 9 32 18 55 21 52
2 -2 0 -17 -6 -32z m13 -76 c-6 -6 -7 3 -4 23 4 28 6 29 9 9 2 -13 0 -27 -5
-32z m-173 19 c-87 -24 -125 -43 -160 -78 -65 -65 -74 -153 -22 -214 12 -15 9
-14 -10 3 -94 83 -1 252 159 290 52 12 77 11 33 -1z m0 -48 c-12 -16 -26 -30
-31 -30 -5 0 -9 -6 -9 -14 0 -8 -7 -17 -16 -20 -10 -4 -13 -13 -9 -25 3 -10
-1 -24 -10 -31 -8 -7 -15 -18 -15 -25 0 -13 -57 -41 -66 -32 -3 3 3 8 14 11
27 9 28 60 1 53 -10 -3 -20 0 -21 5 -2 6 -11 3 -21 -6 -24 -24 -22 -1 4 40 33
54 116 102 177 104 l23 0 -21 -30z m14 -58 c8 -13 -11 -35 -23 -28 -16 10 -14
36 3 36 8 0 17 -4 20 -8z m26 -21 c0 -10 -13 -35 -30 -56 -37 -46 -39 -28 -5
32 28 47 35 52 35 24z m657 -23 c-3 -8 -6 -5 -6 6 -1 11 2 17 5 13 3 -3 4 -12
1 -19z m-711 0 c4 -6 0 -16 -9 -23 -10 -7 -17 -20 -17 -29 0 -22 -24 -15 -28
7 -2 10 3 17 13 17 9 0 13 5 10 10 -7 12 2 30 15 30 5 0 12 -5 16 -12z m91
-58 c1 -23 -1 -26 -4 -10 -2 14 -12 31 -21 38 -16 13 -15 14 3 10 15 -2 20
-12 22 -38z m-22 10 c4 -6 3 -25 0 -42 -7 -28 -9 -30 -20 -15 -7 10 -19 15
-29 11 -20 -8 -21 5 0 34 16 23 39 29 49 12z m-119 -32 c4 -6 0 -16 -8 -22 -8
-6 -17 -19 -21 -28 -3 -10 -11 -18 -16 -18 -6 0 -8 -7 -5 -15 4 -8 -1 -17 -10
-21 -9 -3 -16 -13 -16 -20 0 -8 -7 -17 -15 -20 -8 -4 -13 -9 -11 -13 8 -12
-11 -34 -23 -27 -17 11 -13 36 5 36 11 0 14 5 10 16 -4 10 0 18 13 21 12 3 17
11 14 19 -3 8 2 17 11 20 9 3 16 15 16 25 0 11 7 19 16 19 8 0 12 5 9 10 -7
12 2 30 15 30 5 0 12 -5 16 -12z m764 -10 c0 -4 -8 -8 -17 -9 -15 0 -15 -2 2
-9 20 -8 20 -9 -1 -9 -25 -1 -34 7 -28 23 5 13 44 16 44 4z m-844 -36 c-16
-16 -31 -10 -46 18 -9 17 -7 17 26 7 30 -9 33 -12 20 -25z m161 -18 c16 6 16
-4 2 -41 -8 -22 -12 -24 -19 -13 -7 11 -12 12 -21 3 -14 -14 -7 -49 10 -45 9
2 11 -3 7 -13 -3 -9 -6 -25 -6 -35 0 -10 -10 -20 -21 -23 -21 -6 -21 -3 -15
48 3 30 11 78 17 107 11 48 13 51 22 30 6 -13 16 -21 24 -18z m136 29 c-13 -2
-33 -2 -45 0 -13 2 -3 4 22 4 25 0 35 -2 23 -4z m97 -13 c11 -8 7 -9 -15 -4
-37 8 -45 14 -19 14 10 0 26 -5 34 -10z m-140 -20 c0 -5 -5 -10 -11 -10 -5 0
-7 5 -4 10 3 6 8 10 11 10 2 0 4 -4 4 -10z m74 -4 c9 3 16 1 16 -4 0 -17 -21
-25 -32 -14 -6 6 -17 8 -24 5 -8 -3 -14 -1 -14 4 0 17 13 23 25 13 7 -6 20 -8
29 -4z m331 4 c3 -6 -1 -7 -9 -4 -18 7 -21 14 -7 14 6 0 13 -4 16 -10z m170 0
c-3 -5 -11 -10 -16 -10 -6 0 -7 5 -4 10 3 6 11 10 16 10 6 0 7 -4 4 -10z
m-111 -76 c3 -8 -1 -27 -9 -42 -10 -19 -14 -22 -15 -10 0 9 5 20 10 23 6 3 10
11 10 17 0 7 -6 6 -15 -2 -8 -7 -15 -21 -15 -31 0 -15 -7 -19 -32 -19 -28 0
-33 4 -33 24 0 13 3 22 8 19 4 -2 7 0 7 6 0 9 43 29 66 30 7 1 15 -6 18 -15z
m-542 -83 c-9 -16 -18 -28 -21 -26 -4 5 27 55 34 55 2 0 -4 -13 -13 -29z m-52
-41 c0 -5 -4 -10 -10 -10 -5 0 -10 5 -10 10 0 6 5 10 10 10 6 0 10 -4 10 -10z
m-1 -47 c0 -25 -1 -25 -8 -8 -5 11 -7 23 -4 28 8 14 13 7 12 -20z m112 3 c-1
-16 -31 -15 -31 1 0 8 7 13 16 11 8 -2 15 -7 15 -12z m-53 -54 c2 -7 -2 -10
-12 -6 -9 3 -16 11 -16 16 0 13 23 5 28 -10z m33 -49 c18 -15 44 -28 58 -29
45 -3 47 -4 18 -20 -15 -8 -25 -18 -23 -23 3 -4 -17 -3 -45 3 -28 6 -49 15
-49 23 0 7 5 13 11 13 5 0 8 -4 5 -8 -4 -7 22 -8 42 -3 8 2 -31 47 -50 58 -13
7 -18 12 -11 13 6 0 26 -12 44 -27z m-5 -24 c19 -22 19 -22 -1 -11 -11 6 -27
16 -35 22 -13 8 -13 10 1 10 9 0 24 -10 35 -21z m114 -33 c0 -2 -9 -6 -20 -9
-11 -3 -18 -1 -14 4 5 9 34 13 34 5z m-163 -68 c13 -21 12 -38 -2 -38 -7 0
-15 11 -17 25 -5 26 5 34 19 13z"/>
<path d="M560 974 c0 -8 5 -12 10 -9 6 4 8 11 5 16 -9 14 -15 11 -15 -7z"/>
<path d="M782 995 c-11 -13 -22 -21 -26 -18 -4 4 -10 -4 -13 -17 -6 -22 -7
-23 -14 -4 -6 15 -8 15 -8 3 -1 -9 6 -22 14 -29 11 -9 15 -9 15 -1 0 7 4 10 9
7 14 -9 32 20 24 39 -4 12 -3 16 4 12 6 -4 13 2 16 13 7 26 3 25 -21 -5z"/>
<path d="M520 540 c0 -5 5 -10 10 -10 6 0 10 5 10 10 0 6 -4 10 -10 10 -5 0
-10 -4 -10 -10z"/>
<path d="M572 1705 c0 -16 2 -22 5 -12 2 9 2 23 0 30 -3 6 -5 -1 -5 -18z"/>
<path d="M590 1726 c0 -2 15 -6 34 -8 19 -2 32 0 30 4 -5 8 -64 12 -64 4z"/>
<path d="M600 1687 c0 -18 5 -22 27 -21 36 1 41 21 8 34 -35 13 -35 13 -35
-13z"/>
<path d="M550 1618 c0 -10 6 -18 14 -18 7 0 19 -14 27 -32 11 -27 14 -29 20
-12 4 11 2 23 -5 29 -7 6 -11 16 -9 23 3 8 -1 10 -12 6 -10 -4 -21 -1 -26 7
-7 11 -9 11 -9 -3z"/>
<path d="M86 1580 c-14 -17 -26 -35 -26 -40 0 -13 29 -32 40 -25 14 9 13 -8
-2 -23 -9 -9 -4 -12 22 -12 26 0 31 3 22 12 -13 13 -16 29 -4 27 41 -7 43 27
3 65 l-28 27 -27 -31z"/>
<path d="M263 1162 c-15 -10 -20 -44 -7 -49 7 -2 15 8 18 23 8 30 5 36 -11 26z"/>
<path d="M186 1063 c-9 -10 -7 -55 3 -49 12 8 21 45 11 51 -4 2 -10 2 -14 -2z"/>
<path d="M1170 950 c-1 -3 -4 -15 -5 -28 -1 -15 1 -20 7 -14 6 6 8 18 5 28 -3
11 -6 17 -7 14z"/>
<path d="M1225 470 c4 -14 2 -20 -8 -20 -8 0 -20 -6 -26 -14 -10 -12 -6 -21
18 -48 l31 -33 30 32 c31 35 31 63 -1 63 -22 0 -24 11 -7 28 9 9 6 12 -16 12
-23 0 -26 -3 -21 -20z"/>
<path d="M747 401 c-3 -14 -1 -21 9 -21 8 0 11 -6 7 -17 -5 -13 -2 -15 15 -11
13 4 22 1 22 -5 0 -6 3 -7 7 -4 3 4 -1 15 -11 25 -9 9 -23 26 -30 36 -12 18
-13 18 -19 -3z"/>
<path d="M1190 320 c0 -11 7 -23 16 -27 13 -5 12 -8 -5 -24 -48 -45 -51 -170
-6 -215 30 -30 47 -30 82 0 24 21 28 32 31 92 3 75 -10 113 -44 128 -11 5 -28
22 -37 38 -19 33 -37 37 -37 8z m70 -86 c22 -58 6 -174 -24 -174 -7 0 -17 7
-20 16 -8 20 -8 148 0 168 9 24 33 19 44 -10z"/>
<path d="M791 304 c0 -11 3 -14 6 -6 3 7 2 16 -1 19 -3 4 -6 -2 -5 -13z"/>
<path d="M700 286 c0 -7 10 -16 23 -20 34 -9 37 -8 37 14 0 16 -7 20 -30 20
-19 0 -30 -5 -30 -14z"/>
<path d="M782 255 c0 -16 2 -22 5 -12 2 9 2 23 0 30 -3 6 -5 -1 -5 -18z"/>
<path d="M710 240 c20 -13 47 -13 55 0 4 6 -9 10 -32 10 -28 0 -34 -3 -23 -10z"/>
</g>
</svg>
