<?xml version="1.0" standalone="no"?>
<!DOCTYPE svg PUBLIC "-//W3C//DTD SVG 20010904//EN"
 "http://www.w3.org/TR/2001/REC-SVG-20010904/DTD/svg10.dtd">
<svg version="1.0" xmlns="http://www.w3.org/2000/svg"
 width="135.000000pt" height="196.000000pt" viewBox="0 0 135.000000 196.000000"
 preserveAspectRatio="xMidYMid meet">
<metadata>
Created by potrace 1.16, written by Peter Selinger 2001-2019
</metadata>
<g transform="translate(0.000000,196.000000) scale(0.100000,-0.100000)"
fill="#000000" stroke="none">
<path d="M17 1942 c-16 -17 -17 -98 -17 -965 0 -846 2 -947 16 -961 14 -14 87
-16 655 -16 422 0 647 4 660 10 19 10 19 32 19 965 0 854 -2 955 -16 969 -14
14 -87 16 -658 16 -610 0 -644 -1 -659 -18z m44 -42 c5 0 9 -49 9 -110 0 -67
-4 -110 -10 -110 -5 0 -10 -4 -10 -10 0 -5 18 -10 40 -10 22 0 40 5 40 10 0 6
-4 10 -10 10 -5 0 -10 19 -9 43 l0 42 27 -52 c22 -45 30 -53 54 -53 15 0 28 5
28 10 0 6 -4 10 -8 10 -5 0 -23 31 -41 69 l-34 69 24 41 c12 22 29 41 37 41 8
0 12 6 8 15 -5 13 24 15 232 13 l237 -2 -225 -6 -225 -6 198 -2 c190 -2 197
-3 197 -22 0 -11 0 -23 1 -27 0 -5 -8 -10 -18 -12 -10 -2 -15 0 -11 4 14 14
-14 35 -44 35 -37 0 -33 -17 9 -45 16 -11 34 -30 40 -41 14 -29 5 -84 -14 -84
-11 0 -13 -7 -9 -25 4 -14 2 -25 -4 -25 -5 0 -10 -7 -10 -15 0 -9 -7 -18 -15
-21 -8 -3 -20 -21 -27 -40 -6 -19 -16 -34 -21 -34 -4 0 -5 -5 -2 -10 4 -6 3
-10 -2 -9 -20 4 -33 -2 -33 -15 0 -7 -12 -22 -27 -31 -71 -45 -83 -64 -83
-133 0 -61 -2 -67 -38 -106 -20 -22 -47 -54 -58 -70 -12 -16 -25 -26 -31 -23
-15 9 -26 282 -13 307 8 16 5 29 -20 67 -16 26 -30 44 -30 39 0 -5 -11 1 -24
13 l-23 22 -27 -31 c-14 -17 -26 -35 -26 -40 0 -13 29 -32 40 -25 14 9 13 -8
-2 -23 -9 -9 -8 -12 5 -12 9 0 21 -9 27 -19 11 -21 14 -323 4 -334 -4 -4 -7
-77 -7 -164 1 -155 1 -158 22 -156 14 2 21 -3 22 -15 1 -31 9 -66 34 -145 14
-43 25 -86 25 -95 0 -15 2 -15 10 -2 7 11 10 5 11 -25 l2 -40 7 40 c8 43 12
27 12 -45 0 -29 2 -35 5 -17 2 15 9 25 14 22 5 -4 7 -16 3 -29 -4 -17 1 -25
20 -34 18 -8 26 -20 27 -39 l1 -28 8 25 c8 24 8 25 9 2 1 -13 7 -22 14 -21 29
4 35 -2 33 -33 -3 -43 10 -68 35 -68 29 0 59 -18 59 -36 0 -8 -5 -12 -10 -9
-6 4 -8 11 -5 16 4 5 1 9 -4 9 -6 0 -11 -18 -11 -40 0 -31 -6 -47 -26 -65 -15
-14 -31 -25 -35 -25 -5 0 -9 -5 -9 -11 0 -7 14 -10 35 -7 31 4 35 1 35 -19 l0
-23 -195 0 -195 0 -3 713 -2 712 -3 -717 -2 -717 298 -3 c163 -2 403 -1 532 2
l235 6 -196 2 -197 2 -4 25 c-7 34 10 43 28 16 16 -22 58 -28 69 -10 4 6 -3
18 -16 27 -51 36 -71 65 -66 98 3 18 1 36 -4 41 -7 7 -5 12 5 16 9 4 15 3 13
-1 -1 -4 3 -7 8 -8 6 0 9 7 7 18 -2 10 2 18 8 18 6 0 8 4 5 10 -3 5 6 19 20
32 14 12 25 28 25 35 0 12 54 68 140 145 27 24 30 33 30 88 0 58 2 63 50 121
27 33 50 64 50 70 0 19 30 8 34 -14 11 -54 16 -270 7 -281 -12 -14 26 -105 43
-106 5 0 18 -8 29 -17 18 -17 20 -16 48 14 30 35 30 63 -2 63 -22 0 -24 11 -7
28 9 9 7 12 -10 12 -16 0 -24 9 -32 41 -14 51 -10 287 5 303 6 7 9 70 9 166
-2 149 -3 155 -23 158 -15 2 -22 13 -27 40 -8 52 -47 176 -55 180 -4 2 -4 12
-1 24 3 14 1 19 -6 14 -8 -5 -12 4 -13 26 -2 30 -2 31 -6 5 -7 -47 -20 -20
-17 35 1 29 0 41 -2 26 -3 -16 -10 -28 -16 -28 -6 0 -8 10 -4 23 4 18 0 27
-19 37 -16 9 -25 22 -25 37 0 13 -4 22 -9 18 -5 -3 -12 -1 -16 5 -4 6 -11 8
-16 4 -19 -11 -39 16 -29 41 7 18 5 29 -8 43 -19 22 -78 37 -87 22 -3 -6 -12
-10 -18 -10 -7 0 -4 5 6 11 9 5 17 16 17 24 0 8 5 17 12 21 8 5 9 2 5 -9 -3
-10 -2 -17 3 -17 6 0 10 18 10 40 0 33 6 44 34 67 39 31 38 47 -4 38 -22 -5
-28 -2 -33 14 -5 21 -2 21 194 21 l199 0 3 -707 2 -708 3 712 2 713 -207 3
-208 2 215 3 c157 1 219 -1 228 -10 9 -9 12 -231 12 -939 0 -830 -2 -929 -16
-943 -14 -14 -85 -16 -636 -16 -564 0 -623 2 -640 17 -17 15 -18 58 -18 943 0
727 3 929 13 939 10 10 13 9 15 -3 2 -9 8 -16 13 -16z m92 12 c2 -11 -6 -37
-19 -58 l-24 -39 0 43 c0 24 5 42 11 42 6 0 9 7 5 15 -3 9 0 15 8 15 8 0 16
-8 19 -18z m707 8 c13 -8 12 -11 -5 -24 -11 -8 -22 -12 -25 -9 -3 3 1 8 8 10
30 11 7 22 -50 26 l-63 3 60 2 c33 1 67 -3 75 -8z m-192 -30 c10 -16 10 -20
-2 -20 -7 0 -16 9 -19 20 -3 11 -2 20 2 20 3 0 12 -9 19 -20z m102 0 c0 -13
-7 -20 -19 -20 -14 0 -18 5 -14 20 3 11 12 20 19 20 8 0 14 -9 14 -20z m47 6
c-3 -7 0 -19 6 -25 8 -8 7 -11 -4 -11 -9 0 -18 3 -21 6 -9 8 3 44 14 44 6 0 8
-6 5 -14z m73 -46 c0 -5 -4 -10 -9 -10 -6 0 -13 5 -16 10 -3 6 1 10 9 10 9 0
16 -4 16 -10z m-200 -20 c-6 -11 -13 -20 -15 -20 -3 0 -5 9 -5 20 0 11 7 20
15 20 13 0 14 -4 5 -20z m60 5 c0 -8 -2 -15 -4 -15 -2 0 -6 7 -10 15 -3 8 -1
15 4 15 6 0 10 -7 10 -15z m-117 -16 c-4 -15 -9 -17 -17 -9 -8 8 -7 13 4 20 8
5 16 10 17 10 0 0 -1 -9 -4 -21z m165 -25 c6 -2 12 -15 12 -29 0 -15 3 -24 8
-22 4 3 8 -24 9 -60 1 -46 -2 -66 -12 -69 -7 -3 -16 -13 -20 -22 -5 -14 -3
-14 13 1 11 10 26 15 35 11 13 -5 13 -8 -4 -25 -11 -11 -17 -24 -14 -30 4 -5
1 -8 -6 -7 -7 2 -18 -8 -26 -22 -8 -16 -13 -19 -13 -9 0 9 9 24 20 34 11 10
18 20 16 22 -6 6 -46 -35 -46 -46 0 -5 -7 -14 -15 -21 -12 -10 -15 -10 -15 0
0 10 -3 10 -14 0 -8 -6 -12 -18 -10 -25 4 -10 -1 -12 -16 -8 -17 4 -19 8 -8
15 10 7 9 11 -5 23 -11 7 -26 11 -35 8 -10 -4 -13 -2 -8 5 4 7 2 12 -6 12 -7
0 -2 9 11 19 13 10 21 24 18 32 -4 11 -6 10 -6 -2 -1 -19 -28 -33 -36 -19 -4
6 -1 10 5 10 6 0 8 5 5 10 -4 6 -10 8 -14 6 -4 -3 -8 2 -8 10 0 10 4 11 10 5
6 -6 17 -7 26 -2 9 4 42 8 74 9 32 1 67 8 78 16 19 13 18 14 -14 18 -23 2 -33
0 -30 -8 3 -8 -11 -10 -45 -6 -31 2 -52 0 -56 -7 -4 -6 -12 -11 -18 -11 -7 0
-6 5 1 14 8 10 9 16 1 21 -18 11 -11 52 10 58 16 4 20 0 20 -17 0 -12 -5 -27
-12 -34 -9 -9 -9 -12 4 -12 33 0 77 13 72 21 -3 5 -13 5 -24 -1 -30 -16 -33
-12 -27 33 3 23 2 49 -3 57 -7 11 -10 12 -10 2 0 -7 -4 -11 -9 -7 -6 3 -14 -2
-19 -12 -8 -13 -10 -9 -10 20 0 39 3 41 68 50 24 3 72 -1 98 -9z m49 -56 c-3
-8 -6 -5 -6 6 -1 11 2 17 5 13 3 -3 4 -12 1 -19z m88 -48 c4 -6 -8 -10 -29
-10 -45 0 -54 14 -11 17 19 2 37 -2 40 -7z m-18 -77 c-3 -10 -5 -4 -5 12 0 17
2 24 5 18 2 -7 2 -21 0 -30z m-342 7 c-3 -5 -14 -10 -23 -9 -14 0 -13 2 3 9
27 11 27 11 20 0z m308 -17 c-3 -7 -6 -13 -8 -13 -2 0 -5 6 -8 13 -3 8 1 14 8
14 7 0 11 -6 8 -14z m-289 -1 c2 -4 -12 -8 -32 -9 -36 -1 -36 -1 -7 7 17 4 31
8 32 9 1 0 4 -3 7 -7z m257 -81 c-10 -18 -59 -51 -75 -51 -3 0 14 18 37 39 45
42 55 45 38 12z m-677 3 c9 -23 8 -24 -14 -24 -19 0 -27 20 -13 33 11 11 20 8
27 -9z m866 -9 c0 -8 -7 -15 -16 -15 -9 0 -12 -5 -8 -12 4 -6 -1 -17 -11 -24
-13 -10 -15 -17 -7 -26 5 -7 12 -24 15 -38 5 -22 5 -22 5 5 0 34 11 75 21 75
10 0 31 -52 31 -74 -1 -25 -30 -68 -31 -45 0 8 -5 -2 -11 -21 -9 -31 -11 -33
-19 -15 -7 19 -8 18 -8 -4 -1 -13 -6 -42 -13 -64 -12 -38 -13 -39 -20 -16 -6
20 -7 18 -5 -11 0 -19 -2 -41 -7 -48 -4 -6 -4 -33 -1 -60 5 -34 4 -43 -4 -32
-8 12 -11 8 -11 -19 0 -53 -20 -24 -24 35 -8 106 40 301 65 262 6 -9 9 -7 9 9
0 12 3 28 6 36 4 12 0 14 -15 10 -12 -3 -24 -10 -28 -16 -3 -6 -1 -7 5 -3 7 4
12 3 12 -3 0 -17 -21 -24 -33 -11 -9 9 -8 14 4 23 8 7 18 20 22 30 3 9 11 17
16 17 6 0 8 6 5 14 -3 7 2 16 10 19 9 4 16 13 16 22 0 8 7 15 15 15 8 0 15 -7
15 -15z m-370 -15 c0 -5 -5 -10 -11 -10 -5 0 -7 5 -4 10 3 6 8 10 11 10 2 0 4
-4 4 -10z m-496 -25 c3 -9 0 -15 -9 -15 -9 0 -12 6 -9 15 4 8 7 15 9 15 2 0 5
-7 9 -15z m652 -13 c-7 -12 -46 -23 -46 -13 0 9 43 31 49 25 1 -1 0 -7 -3 -12z
m-145 -2 c5 0 9 -4 9 -10 0 -16 -26 -12 -41 7 -12 15 -12 16 4 10 10 -4 23 -7
28 -7z m76 4 c-3 -3 -12 -4 -19 -1 -8 3 -5 6 6 6 11 1 17 -2 13 -5z m-578
-226 c1 -59 -3 -98 -9 -98 -6 0 -10 55 -9 148 1 110 4 134 9 97 5 -27 9 -94 9
-147z m628 186 c-3 -3 -12 -4 -19 -1 -8 3 -5 6 6 6 11 1 17 -2 13 -5z m13 -51
l-1 -38 -13 30 c-14 31 -12 45 5 45 5 0 9 -17 9 -37z m-130 8 c-5 -11 -10 -39
-10 -62 0 -57 -6 -46 -13 24 -5 52 -4 57 14 57 16 0 18 -3 9 -19z m74 0 c3 -5
-5 -8 -19 -8 -14 0 -22 3 -19 8 3 5 11 9 19 9 8 0 16 -4 19 -9z m180 -10 c3
-5 -1 -14 -9 -21 -8 -7 -15 -19 -15 -26 0 -16 -26 -19 -35 -3 -4 6 2 13 13 16
14 3 18 11 15 24 -5 20 20 28 31 10z m-237 -43 c-3 -8 -6 -5 -6 6 -1 11 2 17
5 13 3 -3 4 -12 1 -19z m193 -40 c0 -5 -8 -12 -19 -15 -13 -3 -17 -11 -14 -24
4 -13 0 -19 -10 -19 -22 0 -29 16 -14 32 7 7 16 21 20 30 6 18 37 15 37 -4z
m-182 -19 c-3 -8 -7 -3 -11 10 -4 17 -3 21 5 13 5 -5 8 -16 6 -23z m63 -3
c-11 -27 -24 -37 -16 -11 3 8 7 22 10 31 3 9 8 15 11 12 2 -3 0 -17 -5 -32z
m39 -1 c0 -14 -4 -25 -9 -25 -4 0 -6 11 -3 25 2 14 6 25 8 25 2 0 4 -11 4 -25z
m97 -7 c-3 -7 -5 -2 -5 12 0 14 2 19 5 13 2 -7 2 -19 0 -25z m-224 -8 c3 -11
1 -20 -4 -20 -5 0 -9 9 -9 20 0 11 2 20 4 20 2 0 6 -9 9 -20z m430 1 c3 9 6
10 6 2 1 -6 -3 -14 -8 -18 -6 -3 -4 -19 5 -40 17 -40 18 -55 4 -55 -5 0 -10 6
-10 14 0 8 -5 18 -10 21 -7 4 -9 -2 -4 -19 4 -16 2 -26 -5 -26 -6 0 -12 10
-12 23 -1 15 -4 10 -9 -13 -6 -29 -8 -31 -10 -10 l-2 25 -9 -25 c-6 -19 -7
-15 -3 15 3 22 9 42 14 45 4 3 10 16 13 30 4 25 4 25 6 -2 0 -16 5 -28 9 -28
4 0 6 17 4 38 -2 25 0 33 6 23 8 -11 10 -11 15 0z m-216 -58 c-3 -10 -5 -2 -5
17 0 19 2 27 5 18 2 -10 2 -26 0 -35z m-439 12 c-3 -3 -9 2 -12 12 -6 14 -5
15 5 6 7 -7 10 -15 7 -18z m378 13 c4 -6 0 -16 -8 -22 -8 -6 -21 -26 -29 -43
-8 -21 -21 -33 -33 -33 -16 0 -16 -2 -6 -16 11 -13 10 -16 -8 -20 -12 -4 -19
-11 -15 -20 3 -8 -2 -17 -11 -20 -9 -3 -16 -15 -16 -25 0 -10 -4 -19 -9 -19
-5 0 -11 -9 -14 -21 -3 -12 -11 -19 -18 -17 -22 7 -22 29 -1 35 14 3 18 11 15
24 -4 13 0 19 11 19 9 0 13 6 10 15 -3 8 0 17 8 20 8 3 21 21 28 40 8 21 21
35 31 35 12 0 16 6 12 20 -4 14 0 20 11 20 10 0 14 5 11 10 -7 12 2 30 15 30
5 0 12 -5 16 -12z m-78 -5 c-15 -2 -42 -2 -60 0 -18 2 -6 4 27 4 33 0 48 -2
33 -4z m6 -28 c-4 -10 -20 -15 -50 -15 -54 0 -59 17 -6 23 20 2 42 4 49 5 7 1
10 -4 7 -13z m-324 -30 c0 -9 -6 -12 -15 -9 -8 4 -12 10 -9 15 8 14 24 10 24
-6z m-192 -42 c6 -9 12 -13 12 -7 1 23 20 -24 21 -51 1 -29 1 -30 9 -5 8 24 8
24 9 -5 0 -16 -4 -37 -9 -45 -6 -9 -10 -10 -10 -3 0 7 -13 10 -35 8 l-36 -3 4
50 c4 41 0 55 -16 71 l-20 20 29 -7 c16 -4 35 -14 42 -23z m167 18 c3 -5 1
-12 -4 -15 -5 -3 -11 1 -15 9 -6 16 9 21 19 6z m790 -1 c-11 -5 -27 -9 -35 -9
-13 -1 -13 0 0 9 8 5 24 9 35 9 l20 0 -20 -9z m-1045 -18 c-8 -2 -21 -11 -27
-20 -12 -14 -13 -13 -13 5 0 12 8 23 18 26 21 4 41 -5 22 -11z m564 3 c-4 -8
-8 -15 -10 -15 -2 0 -4 7 -4 15 0 8 4 15 10 15 5 0 7 -7 4 -15z m486 -50 c0
-30 -2 -55 -4 -55 -2 0 -11 16 -20 35 l-17 36 -26 -21 c-14 -11 -32 -20 -39
-20 -13 0 -19 -20 -14 -45 1 -5 -4 -4 -11 2 -17 17 5 67 26 59 8 -3 15 -1 15
4 0 6 -4 10 -10 10 -41 0 43 45 93 49 4 1 7 -24 7 -54z m-101 41 c-10 -9 -69
-36 -69 -32 0 7 52 35 64 36 5 0 7 -2 5 -4z m-711 -23 c-10 -2 -26 -2 -35 0
-10 3 -2 5 17 5 19 0 27 -2 18 -5z m-220 -12 c10 -6 6 -10 -15 -14 -33 -6 -44
0 -23 13 18 12 22 12 38 1z m-8 -30 c0 -5 -6 -12 -12 -14 -7 -3 -2 -6 12 -7
25 -1 25 -1 -5 -15 -21 -9 -24 -14 -12 -14 10 -1 15 -6 12 -11 -10 -17 -34 8
-32 33 1 28 37 54 37 28z m1014 -18 c-5 -5 -11 -12 -15 -16 -3 -4 -12 -1 -19
8 -11 13 -9 15 15 15 16 0 24 -3 19 -7z m-240 -27 c-11 -8 -34 -18 -50 -21
-28 -7 -28 -6 6 13 42 23 75 29 44 8z m266 -37 c0 -4 -9 -9 -20 -12 -11 -3
-20 -1 -20 4 0 5 8 10 18 10 16 1 16 2 0 6 -19 5 -23 15 -11 26 6 6 32 -21 33
-34z m-749 24 c-14 -3 -35 -12 -48 -20 -13 -9 -26 -13 -29 -10 -9 9 49 36 76
35 l25 -1 -24 -4z m-268 -45 c-10 -17 -31 -7 -26 11 4 16 8 17 18 8 7 -7 11
-15 8 -19z m77 17 c0 -8 -4 -15 -8 -15 -5 0 -9 7 -9 15 0 8 4 15 9 15 4 0 8
-7 8 -15z m801 6 c7 11 9 10 9 -3 0 -9 5 -20 10 -23 6 -4 9 -1 8 6 -2 7 5 15
14 17 15 3 17 -4 16 -52 -2 -45 1 -59 17 -71 18 -13 19 -14 2 -15 -21 0 -67
43 -67 64 0 8 6 17 13 19 7 3 4 6 -7 6 -14 1 -17 -4 -14 -24 3 -13 1 -22 -3
-19 -5 3 -10 22 -10 42 l-1 37 -8 -30 -8 -30 -1 36 c-1 36 10 61 18 38 2 -8 6
-7 12 2z m-407 -10 c3 -5 -1 -14 -9 -21 -8 -7 -15 -19 -15 -26 0 -15 -26 -19
-34 -5 -3 5 1 14 9 21 8 7 15 19 15 26 0 15 26 19 34 5z m-504 -48 c0 -19 27
-16 34 4 6 15 10 13 31 -11 20 -23 27 -26 44 -17 11 6 23 11 28 11 11 -1 -59
-39 -72 -39 -5 -1 -3 4 5 10 11 8 8 9 -14 4 -15 -3 -41 -9 -57 -12 l-29 -5 0
53 c0 49 1 51 15 33 8 -10 15 -25 15 -31z m1050 27 c0 -5 -15 -10 -32 -9 -31
1 -32 1 -8 9 35 11 40 11 40 0z m-950 -11 c0 -13 -28 -18 -33 -6 -3 7 3 13 14
13 11 0 19 -3 19 -7z m170 -88 c0 -93 -16 -186 -38 -224 -15 -24 -17 -25 -24
-10 -5 13 -7 9 -7 -14 -1 -33 -16 -53 -24 -31 -2 7 -2 3 0 -9 2 -13 -1 -23 -6
-23 -5 0 -11 -10 -15 -22 -6 -23 -6 -22 -21 6 -8 15 -15 37 -15 48 0 27 19 60
31 53 5 -4 9 3 9 14 0 26 17 36 23 14 3 -13 5 -12 6 5 0 13 6 44 13 70 11 43
13 45 19 22 7 -21 8 -19 6 12 -1 20 2 40 6 44 4 5 5 35 2 68 -3 42 -2 53 4 36
l9 -25 1 28 c1 16 5 26 11 22 6 -3 10 -41 10 -84z m37 73 c-3 -3 -12 -4 -19
-1 -8 3 -5 6 6 6 11 1 17 -2 13 -5z m743 -4 c0 -6 -13 -10 -30 -10 -39 0 -39
14 0 17 17 1 30 -2 30 -7z m-589 -31 c8 -15 8 -24 0 -32 -8 -8 -11 -8 -11 1 0
7 -4 12 -10 12 -5 0 -10 -9 -10 -20 0 -11 -7 -20 -15 -20 -8 0 -12 -6 -9 -14
4 -11 12 -13 31 -5 38 14 73 11 73 -7 0 -12 -11 -15 -52 -14 -74 2 -75 2 -82
-17 -3 -10 -9 -25 -13 -33 -5 -13 -4 -13 10 -1 18 15 20 7 7 -24 -5 -11 -9
-14 -9 -7 -1 6 -12 12 -25 12 -19 0 -23 -4 -19 -20 4 -14 0 -20 -11 -20 -9 0
-13 -6 -10 -15 4 -8 -1 -17 -10 -21 -9 -3 -14 -10 -11 -14 3 -5 -1 -14 -8 -22
-7 -7 -16 -21 -20 -32 -6 -15 -10 -16 -22 -6 -16 14 -11 30 10 30 8 0 11 7 8
20 -4 14 0 20 11 20 9 0 13 6 10 15 -3 8 0 17 8 20 8 3 21 21 28 40 8 21 21
35 31 35 12 0 16 6 12 20 -4 14 0 20 11 20 9 0 13 6 10 15 -4 8 1 17 10 21 9
3 16 15 16 25 0 10 4 19 9 19 5 0 11 9 14 20 7 26 23 25 38 -1z m364 11 c7
-12 -2 -12 -30 0 -19 8 -19 9 2 9 12 1 25 -3 28 -9z m205 -10 c0 -5 -5 -10
-11 -10 -5 0 -7 5 -4 10 3 6 8 10 11 10 2 0 4 -4 4 -10z m27 -15 c-4 -8 -17
-15 -29 -14 l-23 0 23 9 c12 5 22 15 22 21 0 7 3 10 6 6 4 -3 4 -13 1 -22z
m-922 -39 c-4 -20 -11 -36 -16 -36 -5 0 -9 -10 -9 -22 0 -37 -14 -52 -30 -33
-7 8 -10 15 -6 15 3 0 -1 16 -9 36 -17 42 -19 54 -6 54 5 0 16 -24 25 -52 16
-52 16 -52 11 -11 -3 23 -8 48 -11 57 -3 9 -1 16 4 16 6 0 13 -8 15 -17 3 -13
5 -11 7 7 1 23 2 23 10 5 8 -19 9 -18 9 4 1 13 4 22 7 19 3 -3 2 -22 -1 -42z
m635 -5 c-13 -24 -30 -28 -30 -6 0 8 7 15 16 15 8 0 12 5 9 10 -3 6 -3 16 2
23 13 20 16 -19 3 -42z m50 35 c0 -3 -4 -8 -10 -11 -5 -3 -10 -1 -10 4 0 6 5
11 10 11 6 0 10 -2 10 -4z m-825 -16 c-27 -12 -43 -12 -25 0 8 5 22 9 30 9 10
0 8 -3 -5 -9z m1034 -158 c-1 -106 -4 -136 -10 -107 -12 59 -11 268 1 260 6
-4 10 -65 9 -153z m-531 141 c-10 -2 -28 -2 -40 0 -13 2 -5 4 17 4 22 1 32 -1
23 -4z m-211 -70 c-3 -10 -5 -2 -5 17 0 19 2 27 5 18 2 -10 2 -26 0 -35z
m-216 -37 c-2 -6 -10 6 -17 25 -18 50 -16 59 5 19 10 -19 15 -39 12 -44z m439
9 c0 -8 -2 -15 -4 -15 -2 0 -6 7 -10 15 -3 8 -1 15 4 15 6 0 10 -7 10 -15z
m-233 -27 c-3 -7 -5 -2 -5 12 0 14 2 19 5 13 2 -7 2 -19 0 -25z m145 7 c-4
-26 -22 -45 -22 -25 0 12 18 50 24 50 2 0 1 -11 -2 -25z m28 5 c0 -5 -5 -10
-11 -10 -5 0 -7 5 -4 10 3 6 8 10 11 10 2 0 4 -4 4 -10z m33 -20 c3 -11 1 -18
-4 -14 -5 3 -9 12 -9 20 0 20 7 17 13 -6z m42 -119 c-2 -2 -11 -1 -20 3 -12 4
-14 10 -5 25 5 11 11 35 11 53 1 23 4 17 9 -22 5 -30 7 -57 5 -59z m-134 17
c6 -11 4 -18 -6 -22 -12 -4 -15 3 -14 32 0 20 3 30 6 22 3 -8 10 -22 14 -32z
m59 32 c0 -5 -2 -10 -4 -10 -3 0 -8 5 -11 10 -3 6 -1 10 4 10 6 0 11 -4 11
-10z m7 -18 c7 6 16 8 19 5 9 -8 -35 -29 -46 -22 -6 3 -10 11 -10 18 0 8 3 8
12 -1 8 -8 15 -9 25 0z m56 -49 c-7 -2 -19 -2 -25 0 -7 3 -2 5 12 5 14 0 19
-2 13 -5z m-278 -14 c4 -6 -2 -13 -13 -16 -14 -3 -18 -11 -15 -24 4 -13 0 -19
-10 -19 -23 0 -29 16 -12 30 8 7 15 19 15 26 0 16 26 19 35 3z m175 -19 c0 -5
-6 -10 -14 -10 -8 0 -18 -5 -22 -11 -4 -8 1 -9 16 -4 16 5 12 -2 -17 -28 -42
-39 -59 -41 -23 -2 13 14 18 25 12 25 -17 0 -3 28 16 33 28 8 32 7 32 -3z
m133 -4 c4 -10 0 -12 -14 -9 -27 7 -34 23 -11 23 11 0 22 -6 25 -14z m-96 -12
c-3 -3 -12 -4 -19 -1 -8 3 -5 6 6 6 11 1 17 -2 13 -5z m49 -10 c-9 -24 3 -37
22 -22 14 11 15 10 9 -6 -6 -16 -5 -17 8 -6 8 7 12 17 8 23 -3 6 -1 7 6 3 9
-6 9 -11 1 -21 -7 -8 -9 -19 -6 -24 4 -5 -2 -15 -11 -21 -17 -11 -17 -11 0 -6
13 4 20 0 24 -14 3 -11 10 -17 17 -13 6 3 8 3 4 -1 -3 -4 -10 -8 -15 -8 -4 0
-16 -4 -26 -10 -19 -10 -51 7 -42 22 3 5 -4 6 -15 3 -11 -3 -20 -12 -20 -20 0
-10 -6 -12 -19 -8 -18 6 -71 -12 -71 -25 0 -3 14 -6 30 -5 17 0 30 3 30 6 0 4
16 6 36 4 20 -2 48 1 63 6 23 9 25 9 11 -5 -9 -9 -34 -17 -57 -18 -32 -1 -38
-4 -29 -14 6 -6 13 -8 14 -3 5 13 42 11 42 -3 0 -6 7 -3 15 8 13 16 16 17 25
4 23 -36 8 -57 -37 -51 -16 2 -17 -28 -2 -49 9 -13 10 -13 6 1 -4 12 -1 15 13
12 12 -3 20 2 23 14 4 15 5 14 6 -4 1 -15 -5 -23 -16 -24 -17 -1 -17 -2 0 -6
9 -2 17 -9 17 -14 0 -17 -53 -30 -114 -27 -58 3 -61 4 -64 31 -2 15 -6 25 -10
23 -4 -2 -8 26 -9 62 -1 47 -6 69 -17 78 -17 12 -22 29 -6 19 6 -3 10 1 10 10
0 11 5 15 15 11 9 -3 26 9 46 34 18 22 36 37 40 34 5 -3 9 0 9 6 0 6 4 8 10 5
6 -3 7 1 4 9 -4 11 0 16 11 16 12 0 15 -5 11 -16z m544 12 c0 -11 -19 -15 -25
-6 -3 5 1 10 9 10 9 0 16 -2 16 -4z m-854 -37 c10 -17 -13 -36 -27 -22 -12 12
-4 33 11 33 5 0 12 -5 16 -11z m864 -1 c0 -7 -5 -20 -10 -28 -9 -13 -11 -13
-20 0 -14 21 -12 28 8 33 9 3 18 5 20 6 1 0 2 -5 2 -11z m-640 -8 c0 -5 -2
-10 -4 -10 -3 0 -8 5 -11 10 -3 6 -1 10 4 10 6 0 11 -4 11 -10z m-10 -24 c0
-2 -8 -10 -17 -17 -16 -13 -17 -12 -4 4 13 16 21 21 21 13z m-170 -40 c0 -2
-7 -6 -15 -10 -8 -3 -15 -1 -15 4 0 6 7 10 15 10 8 0 15 -2 15 -4z m94 -32 c4
-10 2 -13 -6 -8 -7 5 -9 2 -6 -7 4 -11 -1 -15 -18 -15 -17 0 -24 6 -24 20 0
19 0 19 14 1 13 -18 14 -18 20 3 9 26 12 27 20 6z m329 9 c-7 -2 -21 -2 -30 0
-10 3 -4 5 12 5 17 0 24 -2 18 -5z m-156 -9 c-3 -3 -12 -4 -19 -1 -8 3 -5 6 6
6 11 1 17 -2 13 -5z m143 -8 c0 -2 -7 -6 -15 -10 -8 -3 -15 -1 -15 4 0 6 7 10
15 10 8 0 15 -2 15 -4z m-332 -73 c-10 -2 -28 -2 -40 0 -13 2 -5 4 17 4 22 1
32 -1 23 -4z m42 -13 c0 -5 -2 -10 -4 -10 -3 0 -8 5 -11 10 -3 6 -1 10 4 10 6
0 11 -4 11 -10z m230 -121 c0 -5 -4 -9 -10 -9 -5 0 -10 7 -10 16 0 8 5 12 10
9 6 -3 10 -10 10 -16z m-56 -4 c3 -9 0 -15 -8 -15 -8 0 -16 7 -20 15 -3 9 0
15 8 15 8 0 16 -7 20 -15z m-59 -17 c6 -4 2 -8 -7 -8 -10 0 -18 7 -18 17 0 9
3 12 8 7 4 -5 12 -12 17 -16z m-175 -8 c0 -5 -8 -10 -17 -10 -15 0 -16 2 -3
10 19 12 20 12 20 0z m33 4 c-7 -3 -9 -13 -6 -22 4 -15 3 -15 -6 -2 -15 22
-14 30 7 29 9 0 12 -3 5 -5z m67 -39 c0 -14 -5 -25 -11 -25 -6 0 -9 7 -6 15 4
8 2 17 -3 20 -6 4 -10 -1 -10 -9 0 -9 -2 -16 -4 -16 -2 0 -12 -3 -20 -6 -12
-5 -10 1 6 20 29 33 48 33 48 1z m149 3 c11 -30 4 -36 -14 -12 -17 23 -19 34
-5 34 6 0 14 -10 19 -22z m-88 -1 c-6 -8 -8 -17 -4 -20 3 -4 -3 -7 -15 -7 -11
0 -24 5 -28 12 -4 7 -3 8 4 4 7 -4 12 -1 12 8 0 10 9 16 21 16 17 0 19 -3 10
-13z"/>
<path d="M262 1817 c-30 -31 -32 -37 -32 -111 0 -78 0 -78 25 -74 32 7 34 -18
4 -56 l-20 -26 62 0 c59 0 61 1 46 18 -8 9 -20 29 -26 43 -10 27 -9 27 30 22
70 -10 100 40 60 101 -14 21 -108 116 -116 116 0 0 -15 -15 -33 -33z"/>
<path d="M952 1624 c10 -9 58 -12 52 -3 -3 5 -17 9 -31 9 -15 0 -24 -3 -21 -6z"/>
<path d="M1014 401 c9 -10 21 -32 25 -49 9 -30 9 -30 -21 -20 -25 9 -34 7 -56
-9 -48 -36 -41 -65 33 -142 l67 -69 34 38 c32 36 34 41 34 114 0 42 -3 76 -6
76 -3 0 -14 -5 -25 -10 -26 -14 -26 14 1 58 l20 32 -62 0 c-59 0 -61 -1 -44
-19z"/>
<path d="M363 339 c14 -8 22 -8 30 0 8 8 3 11 -18 11 -26 -1 -28 -2 -12 -11z"/>
<path d="M1140 301 c0 -6 5 -13 10 -16 6 -4 24 -36 41 -73 30 -66 30 -67 12
-100 -10 -19 -26 -38 -36 -43 -23 -13 -12 -29 19 -29 18 0 25 5 23 18 -2 9 6
33 16 52 l20 35 3 -33 c2 -18 -1 -39 -7 -46 -15 -18 -4 -26 36 -26 23 0 33 5
33 15 0 8 -4 15 -10 15 -6 0 -10 42 -10 105 0 63 4 105 10 105 6 0 10 7 10 15
0 11 -11 15 -40 15 -38 0 -52 -12 -30 -25 6 -3 10 -25 9 -48 l-1 -42 -26 57
c-23 49 -31 57 -54 58 -16 0 -28 -4 -28 -9z"/>
<path d="M743 1763 c9 -2 23 -2 30 0 6 3 -1 5 -18 5 -16 0 -22 -2 -12 -5z"/>
<path d="M733 1743 c-7 -2 -13 -12 -13 -22 0 -13 8 -17 38 -15 50 2 50 2 23
24 -24 21 -28 22 -48 13z"/>
<path d="M690 1590 c0 -5 9 -10 21 -10 11 0 17 5 14 10 -3 6 -13 10 -21 10 -8
0 -14 -4 -14 -10z"/>
<path d="M763 1583 c-7 -3 -13 -12 -13 -21 0 -15 2 -15 17 1 18 18 16 27 -4
20z"/>
<path d="M1042 1415 c0 -16 2 -22 5 -12 2 9 2 23 0 30 -3 6 -5 -1 -5 -18z"/>
<path d="M972 1310 c0 -19 2 -27 5 -17 2 9 2 25 0 35 -3 9 -5 1 -5 -18z"/>
<path d="M270 1078 c0 -9 -6 -19 -12 -21 -10 -4 -10 -6 0 -6 14 -1 28 26 18
36 -3 4 -6 -1 -6 -9z"/>
<path d="M382 660 c0 -19 2 -27 5 -17 2 9 2 25 0 35 -3 9 -5 1 -5 -18z"/>
<path d="M312 555 c0 -16 2 -22 5 -12 2 9 2 23 0 30 -3 6 -5 -1 -5 -18z"/>
<path d="M586 394 c-4 -10 -1 -14 6 -12 15 5 23 28 10 28 -5 0 -13 -7 -16 -16z"/>
<path d="M545 368 l-20 -21 23 12 c12 6 22 16 22 21 0 13 -2 12 -25 -12z"/>
<path d="M565 250 c-8 -13 39 -34 59 -27 9 4 16 13 16 22 0 17 -65 22 -75 5z"/>
<path d="M630 210 c-13 -8 -12 -10 3 -10 9 0 17 5 17 10 0 12 -1 12 -20 0z"/>
<path d="M570 206 c0 -2 9 -6 20 -9 11 -3 20 -1 20 4 0 5 -9 9 -20 9 -11 0
-20 -2 -20 -4z"/>
</g>
</svg>
