<?xml version="1.0" standalone="no"?>
<!DOCTYPE svg PUBLIC "-//W3C//DTD SVG 20010904//EN"
 "http://www.w3.org/TR/2001/REC-SVG-20010904/DTD/svg10.dtd">
<svg version="1.0" xmlns="http://www.w3.org/2000/svg"
 width="135.000000pt" height="196.000000pt" viewBox="0 0 135.000000 196.000000"
 preserveAspectRatio="xMidYMid meet">
<metadata>
Created by potrace 1.16, written by Peter Selinger 2001-2019
</metadata>
<g transform="translate(0.000000,196.000000) scale(0.100000,-0.100000)"
fill="#FF0000" stroke="none">
<path d="M17 1942 c-16 -17 -17 -98 -17 -965 0 -846 2 -947 16 -961 14 -14 87
-16 655 -16 422 0 647 4 660 10 19 10 19 32 19 965 0 854 -2 955 -16 969 -14
14 -87 16 -658 16 -610 0 -644 -1 -659 -18z m93 -15 c0 -2 -14 -43 -30 -92
-17 -49 -30 -92 -30 -97 0 -4 14 -8 30 -8 25 0 30 -4 30 -25 0 -14 -4 -25 -10
-25 -5 0 -10 -4 -10 -10 0 -5 16 -10 35 -10 19 0 35 5 35 10 0 6 -4 10 -10 10
-5 0 -10 11 -10 25 0 16 6 25 15 25 8 0 15 5 15 10 0 6 -7 10 -15 10 -12 0
-15 17 -15 90 l0 90 583 0 c440 0 586 -3 595 -12 9 -9 12 -231 12 -939 0 -830
-2 -929 -16 -943 -14 -14 -85 -16 -636 -16 -564 0 -623 2 -640 17 -17 15 -18
58 -18 943 0 707 3 929 12 938 10 10 78 18 78 9z m0 -122 c0 -48 -2 -55 -20
-55 -11 0 -20 4 -20 8 0 13 31 102 36 102 2 0 4 -25 4 -55z"/>
<path d="M983 1768 c-6 -13 -32 -43 -59 -68 l-49 -45 56 -55 c31 -30 59 -62
62 -70 5 -12 8 -11 18 5 6 11 36 44 65 73 30 28 50 52 46 52 -10 0 -73 60
-103 98 l-25 33 -11 -23z"/>
<path d="M321 1734 c-18 -24 -46 -51 -60 -60 l-27 -16 66 -67 65 -66 26 35
c30 42 85 90 102 90 7 0 -1 8 -18 19 -16 10 -49 39 -73 64 -23 26 -43 47 -45
47 -1 0 -17 -21 -36 -46z"/>
<path d="M93 1570 l-22 -27 25 -24 25 -23 24 25 25 25 -27 26 -28 26 -22 -28z"/>
<path d="M300 410 l-65 -66 67 -66 c55 -53 68 -62 73 -48 3 10 29 40 58 67
l53 50 -44 38 c-25 21 -52 50 -61 65 l-16 26 -65 -66z"/>
<path d="M990 470 c0 -15 -91 -109 -111 -115 -20 -7 -19 -8 7 -24 16 -10 48
-39 71 -64 l43 -46 62 62 63 63 -67 66 c-38 36 -68 62 -68 58z"/>
<path d="M1214 443 l-20 -26 24 -24 25 -25 24 25 25 24 -27 27 c-14 14 -27 26
-28 25 -1 0 -11 -12 -23 -26z"/>
<path d="M1200 300 c0 -5 5 -10 10 -10 6 0 10 -11 10 -25 0 -16 -6 -25 -15
-25 -8 0 -15 -4 -15 -9 0 -5 7 -11 15 -15 12 -4 15 -24 15 -91 0 -75 2 -86 17
-83 11 2 26 32 45 88 35 105 35 110 -2 110 -25 0 -30 4 -30 25 0 14 5 25 10
25 6 0 10 5 10 10 0 6 -16 10 -35 10 -19 0 -35 -4 -35 -10z m89 -92 c0 -7 -9
-35 -19 -63 l-18 -50 -1 56 c-1 31 2 59 6 62 11 12 33 8 32 -5z"/>
</g>
</svg>
