<?xml version="1.0" standalone="no"?>
<!DOCTYPE svg PUBLIC "-//W3C//DTD SVG 20010904//EN"
 "http://www.w3.org/TR/2001/REC-SVG-20010904/DTD/svg10.dtd">
<svg version="1.0" xmlns="http://www.w3.org/2000/svg"
 width="135.000000pt" height="196.000000pt" viewBox="0 0 135.000000 196.000000"
 preserveAspectRatio="xMidYMid meet">
<metadata>
Created by potrace 1.16, written by Peter Selinger 2001-2019
</metadata>
<g transform="translate(0.000000,196.000000) scale(0.100000,-0.100000)"
fill="#000000" stroke="none">
<path d="M17 1942 c-16 -17 -17 -98 -17 -965 0 -846 2 -947 16 -961 14 -14 87
-16 655 -16 422 0 647 4 660 10 19 10 19 32 19 965 0 854 -2 955 -16 969 -14
14 -87 16 -658 16 -610 0 -644 -1 -659 -18z m56 -19 c-7 -2 -13 -19 -12 -36 0
-31 1 -31 11 -9 6 13 19 21 27 20 23 -4 26 -56 5 -79 -17 -18 -17 -20 0 -32
26 -19 19 -102 -9 -102 -12 0 -21 9 -26 25 -5 21 -7 22 -13 8 -13 -28 -2 -52
27 -62 34 -12 56 -1 76 40 12 25 12 34 -1 71 -9 24 -12 47 -7 55 14 22 10 70
-8 90 -16 17 3 18 573 18 446 0 593 -3 602 -12 9 -9 12 -231 12 -939 0 -830
-2 -929 -16 -943 -14 -14 -85 -16 -636 -16 -564 0 -623 2 -640 17 -17 15 -18
58 -18 943 0 707 3 929 12 938 7 7 21 12 33 11 11 0 14 -3 8 -6z"/>
<path d="M647 1799 c-32 -19 -40 -58 -18 -94 l19 -32 -29 10 c-60 23 -115 -57
-70 -102 25 -25 68 -27 93 -4 10 9 20 14 23 11 9 -8 -14 -62 -32 -75 -14 -11
-6 -13 47 -13 53 0 61 2 47 13 -18 13 -41 67 -32 75 3 3 13 -2 23 -11 42 -38
117 -4 110 50 -2 14 -15 35 -30 46 -22 17 -31 18 -59 8 -30 -10 -31 -10 -16 6
30 34 31 70 3 97 -27 28 -50 32 -79 15z"/>
<path d="M94 1596 c-3 -8 -3 -19 0 -24 3 -6 -3 -12 -14 -15 -12 -3 -20 -14
-20 -26 0 -20 9 -25 38 -22 6 1 12 -2 12 -8 0 -5 -6 -12 -12 -14 -7 -3 3 -5
22 -5 19 0 29 2 23 5 -7 2 -13 9 -13 15 0 6 6 8 14 5 8 -3 20 1 26 8 14 17 6
45 -13 45 -8 0 -13 10 -13 23 1 26 -40 38 -50 13z"/>
<path d="M631 1163 c-22 -27 -21 -54 5 -84 17 -19 19 -38 2 -21 -19 19 -66 14
-88 -8 -27 -27 -25 -56 6 -86 27 -28 63 -27 97 3 27 25 22 -6 -8 -51 l-24 -36
59 0 59 0 -24 36 c-30 45 -35 76 -7 51 30 -28 65 -30 95 -7 32 26 35 62 7 90
-22 22 -69 27 -88 8 -19 -19 -14 0 9 31 51 70 -47 142 -100 74z"/>
<path d="M634 478 c25 -23 44 -68 29 -68 -4 0 -17 7 -27 15 -27 21 -62 19 -86
-5 -27 -27 -25 -62 3 -88 26 -24 48 -27 77 -12 19 10 18 8 -2 -25 -17 -30 -19
-41 -9 -61 24 -54 98 -54 122 0 10 20 8 31 -9 59 l-20 34 29 -10 c56 -22 106
33 81 88 -15 33 -58 43 -95 21 -16 -9 -31 -15 -34 -13 -8 9 17 56 39 71 21 15
19 16 -50 16 l-73 0 25 -22z"/>
<path d="M1224 472 c5 -14 1 -18 -16 -18 -17 1 -24 -5 -26 -21 -3 -21 7 -28
31 -24 5 1 6 -7 3 -17 -9 -27 19 -49 40 -31 8 7 13 21 11 30 -3 10 -2 18 2 17
23 -3 32 5 29 25 -2 16 -9 22 -25 21 -26 -1 -29 6 -11 24 9 9 6 12 -16 12 -22
0 -26 -4 -22 -18z"/>
<path d="M1229 306 c-33 -16 -46 -75 -25 -117 11 -22 13 -36 6 -43 -14 -14
-12 -69 3 -90 9 -12 23 -17 47 -14 32 3 35 6 37 38 2 35 2 35 -8 8 -13 -33
-35 -36 -44 -7 -8 25 2 69 15 69 16 0 11 27 -6 34 -22 9 -16 100 8 104 12 2
19 -5 24 -22 9 -37 26 -32 22 6 -2 25 -9 33 -30 39 -15 4 -36 2 -49 -5z"/>
</g>
</svg>
