<?xml version="1.0" standalone="no"?>
<!DOCTYPE svg PUBLIC "-//W3C//DTD SVG 20010904//EN"
 "http://www.w3.org/TR/2001/REC-SVG-20010904/DTD/svg10.dtd">
<svg version="1.0" xmlns="http://www.w3.org/2000/svg"
 width="135.000000pt" height="196.000000pt" viewBox="0 0 135.000000 196.000000"
 preserveAspectRatio="xMidYMid meet">
<metadata>
Created by potrace 1.16, written by Peter Selinger 2001-2019
</metadata>
<g transform="translate(0.000000,196.000000) scale(0.100000,-0.100000)"
fill="#000000" stroke="none">
<path d="M17 1942 c-16 -17 -17 -98 -17 -965 0 -846 2 -947 16 -961 14 -14 87
-16 655 -16 422 0 647 4 660 10 19 10 19 32 19 965 0 854 -2 955 -16 969 -14
14 -87 16 -658 16 -610 0 -644 -1 -659 -18z m62 -99 c-36 -108 -36 -113 1
-113 25 0 30 -4 30 -25 0 -14 -4 -25 -10 -25 -5 0 -10 -4 -10 -10 0 -5 18 -10
40 -10 22 0 40 5 40 10 0 6 -4 10 -10 10 -14 0 -12 47 3 54 10 5 10 7 0 12 -9
4 -13 33 -13 95 l0 89 578 0 c436 0 581 -3 590 -12 9 -9 12 -231 12 -939 0
-830 -2 -929 -16 -943 -14 -14 -85 -16 -636 -16 -564 0 -623 2 -640 17 -17 15
-18 58 -18 943 0 707 3 929 12 938 7 7 27 12 44 12 l33 0 -30 -87z m31 -43 c0
-43 -3 -50 -20 -50 -11 0 -20 1 -20 3 0 10 32 97 36 97 2 0 4 -22 4 -50z"/>
<path d="M332 1800 c-36 -15 -46 -56 -22 -97 19 -32 19 -33 0 -23 -29 16 -49
12 -75 -15 -30 -29 -32 -58 -5 -85 25 -25 62 -26 97 -3 26 17 27 17 20 0 -4
-10 -7 -23 -7 -28 0 -5 -9 -18 -20 -29 l-20 -20 61 0 c56 0 59 1 44 17 -19 19
-38 63 -30 71 3 3 13 -2 23 -11 42 -38 117 -4 110 50 -2 14 -15 35 -30 46 -22
16 -31 18 -58 9 l-31 -11 21 26 c26 34 25 59 -5 88 -26 27 -37 29 -73 15z"/>
<path d="M955 1785 c-30 -29 -31 -40 -6 -82 l20 -32 -30 11 c-62 22 -115 -56
-70 -101 25 -25 68 -27 93 -4 10 9 20 14 23 11 8 -8 -11 -52 -30 -71 -15 -16
-12 -17 44 -17 l61 0 -20 20 c-11 11 -20 24 -20 29 0 5 -3 18 -7 28 -7 17 -6
17 20 0 35 -23 72 -22 97 3 27 27 25 56 -5 85 -28 29 -40 30 -76 11 l-27 -14
24 36 c13 19 24 41 24 49 0 21 -46 63 -70 63 -11 0 -32 -11 -45 -25z"/>
<path d="M94 1596 c-3 -8 -3 -19 0 -24 3 -6 -3 -12 -14 -15 -12 -3 -20 -14
-20 -26 0 -20 9 -25 38 -22 6 1 12 -2 12 -8 0 -5 -6 -12 -12 -14 -7 -3 3 -5
22 -5 19 0 29 2 23 5 -7 2 -13 9 -13 15 0 6 6 8 14 5 8 -3 20 1 26 8 14 17 6
45 -13 45 -8 0 -13 10 -13 23 1 26 -40 38 -50 13z"/>
<path d="M307 488 c20 -10 49 -66 39 -76 -3 -2 -15 3 -28 12 -31 22 -64 20
-89 -5 -27 -27 -21 -67 14 -93 23 -17 32 -18 56 -9 l29 10 -20 -34 c-24 -41
-14 -76 27 -95 32 -14 71 2 86 36 10 20 8 31 -9 59 l-20 34 28 -10 c58 -22
107 32 82 88 -6 14 -23 27 -37 31 -23 6 -38 1 -86 -24 -18 -9 7 51 29 68 l25
20 -74 -1 c-60 0 -70 -2 -52 -11z"/>
<path d="M952 480 c22 -17 47 -77 29 -68 -48 25 -63 30 -86 24 -14 -4 -31 -17
-37 -31 -25 -55 25 -110 81 -88 l28 10 -21 -37 c-19 -36 -19 -39 -3 -64 22
-33 60 -43 91 -23 32 21 37 50 16 92 -17 33 -17 34 1 25 29 -16 54 -12 77 13
27 29 28 61 2 87 -24 24 -59 26 -86 5 -10 -8 -23 -15 -27 -15 -15 0 4 45 29
68 l25 22 -72 0 -72 0 25 -20z"/>
<path d="M1224 472 c5 -14 1 -18 -16 -18 -17 1 -24 -5 -26 -21 -3 -21 7 -28
31 -24 5 1 6 -7 3 -17 -9 -27 19 -49 40 -31 8 7 13 21 11 30 -3 10 -2 18 2 17
23 -3 32 5 29 25 -2 16 -9 22 -25 21 -26 -1 -29 6 -11 24 9 9 6 12 -16 12 -22
0 -26 -4 -22 -18z"/>
<path d="M1190 301 c0 -6 5 -13 10 -16 6 -3 10 -15 10 -26 0 -10 -4 -19 -10
-19 -5 0 -10 -7 -10 -15 0 -8 5 -15 10 -15 6 0 10 -35 10 -86 0 -82 1 -85 22
-82 17 2 27 19 50 88 35 105 35 110 -2 110 -23 0 -30 4 -30 20 0 11 5 20 10
20 6 0 10 7 10 15 0 11 -11 15 -40 15 -22 0 -40 -4 -40 -9z m94 -113 c-3 -13
-12 -36 -19 -53 -13 -30 -13 -29 -14 23 -1 46 1 52 20 52 16 0 19 -4 13 -22z"/>
</g>
</svg>
