<?xml version="1.0" standalone="no"?>
<!DOCTYPE svg PUBLIC "-//W3C//DTD SVG 20010904//EN"
 "http://www.w3.org/TR/2001/REC-SVG-20010904/DTD/svg10.dtd">
<svg version="1.0" xmlns="http://www.w3.org/2000/svg"
 width="135.000000pt" height="196.000000pt" viewBox="0 0 135.000000 196.000000"
 preserveAspectRatio="xMidYMid meet">
<metadata>
Created by potrace 1.16, written by Peter Selinger 2001-2019
</metadata>
<g transform="translate(0.000000,196.000000) scale(0.100000,-0.100000)"
fill="#000000" stroke="none">
<path d="M17 1942 c-16 -17 -17 -98 -17 -965 0 -846 2 -947 16 -961 14 -14 87
-16 655 -16 422 0 647 4 660 10 19 10 19 32 19 965 0 854 -2 955 -16 969 -14
14 -87 16 -658 16 -610 0 -644 -1 -659 -18z m59 -25 c-23 -17 -33 -97 -16
-137 10 -24 19 -30 41 -30 32 0 34 -6 19 -44 -11 -30 -27 -33 -46 -8 -12 15
-13 15 -14 -10 0 -22 6 -29 27 -34 21 -6 31 -2 49 19 39 45 43 179 8 235 l-14
22 588 0 c444 0 591 -3 600 -12 9 -9 12 -231 12 -939 0 -830 -2 -929 -16 -943
-14 -14 -85 -16 -636 -16 -564 0 -623 2 -640 17 -17 15 -18 58 -18 943 0 707
3 929 12 938 7 7 23 12 37 12 23 0 23 -1 7 -13z m44 -82 c0 -62 -11 -84 -24
-49 -8 20 -8 78 0 98 13 35 24 13 24 -49z"/>
<path d="M332 1800 c-36 -15 -46 -56 -22 -97 19 -32 19 -33 0 -23 -29 16 -49
12 -75 -15 -30 -29 -32 -58 -5 -85 25 -25 62 -26 97 -3 26 17 27 17 20 0 -4
-10 -7 -23 -7 -28 0 -5 -9 -18 -20 -29 l-20 -20 61 0 c56 0 59 1 44 17 -19 19
-38 63 -30 71 3 3 13 -2 23 -11 42 -38 117 -4 110 50 -2 14 -15 35 -30 46 -22
16 -31 18 -58 9 l-31 -11 21 26 c26 34 25 59 -5 88 -26 27 -37 29 -73 15z"/>
<path d="M955 1785 c-30 -29 -31 -40 -6 -82 l20 -32 -30 11 c-62 22 -115 -56
-70 -101 25 -25 68 -27 93 -4 10 9 20 14 23 11 8 -8 -11 -52 -30 -71 -15 -16
-12 -17 44 -17 l61 0 -20 20 c-11 11 -20 24 -20 29 0 5 -3 18 -7 28 -7 17 -6
17 20 0 35 -23 72 -22 97 3 27 27 25 56 -5 85 -28 29 -40 30 -76 11 l-27 -14
24 36 c13 19 24 41 24 49 0 21 -46 63 -70 63 -11 0 -32 -11 -45 -25z"/>
<path d="M94 1596 c-3 -8 -3 -19 0 -24 3 -6 -3 -12 -14 -15 -12 -3 -20 -14
-20 -26 0 -20 9 -25 38 -22 6 1 12 -2 12 -8 0 -5 -6 -12 -12 -14 -7 -3 3 -5
22 -5 19 0 29 2 23 5 -7 2 -13 9 -13 15 0 6 6 8 14 5 8 -3 20 1 26 8 14 17 6
45 -13 45 -8 0 -13 10 -13 23 1 26 -40 38 -50 13z"/>
<path d="M631 1564 c-26 -33 -26 -45 -1 -77 22 -27 27 -48 8 -29 -19 19 -66
14 -88 -8 -28 -28 -25 -64 6 -89 34 -27 54 -26 89 1 l28 22 -7 -30 c-4 -16
-17 -39 -28 -51 l-21 -23 63 0 63 0 -21 23 c-11 12 -24 35 -28 51 l-7 30 28
-22 c35 -27 55 -28 89 -1 63 50 -3 137 -75 98 -19 -10 -19 -8 3 30 l23 40 -21
28 c-30 40 -75 43 -103 7z"/>
<path d="M324 1362 c-35 -23 -37 -68 -5 -106 15 -18 15 -18 -9 -11 -39 13 -63
8 -82 -16 -22 -26 -23 -48 -3 -76 21 -29 49 -34 90 -13 19 10 35 14 35 8 0
-18 -30 -67 -47 -77 -14 -8 1 -10 57 -10 58 0 71 2 57 10 -15 9 -47 65 -47 83
0 2 16 -4 36 -14 37 -19 57 -17 87 8 34 29 8 101 -38 104 -11 1 -31 -2 -44 -6
l-24 -8 21 27 c26 33 27 53 6 83 -15 22 -66 30 -90 14z"/>
<path d="M955 1356 c-24 -17 -24 -70 1 -97 19 -22 19 -22 -6 -14 -39 13 -63 8
-82 -16 -22 -26 -23 -48 -3 -76 21 -29 49 -34 90 -13 19 10 35 16 35 14 0 -18
-32 -74 -47 -83 -14 -8 -1 -10 57 -10 56 0 71 2 57 10 -17 10 -47 59 -47 77 0
6 16 2 36 -8 43 -22 72 -15 94 24 13 23 13 29 -1 54 -13 24 -21 27 -62 26 -45
0 -46 1 -30 18 22 25 21 77 -2 94 -10 8 -31 14 -45 14 -14 0 -35 -6 -45 -14z"/>
<path d="M320 910 c11 -11 20 -24 20 -29 0 -5 3 -17 7 -27 6 -17 5 -17 -17 -1
-71 50 -155 -18 -102 -83 19 -23 53 -29 87 -15 20 8 20 8 1 -13 -24 -27 -25
-77 -3 -99 21 -21 73 -21 94 0 22 22 21 72 -3 99 -19 21 -19 21 1 14 43 -17
52 -17 78 4 30 24 34 55 11 88 -19 27 -64 29 -101 5 -26 -17 -27 -17 -20 0 4
10 7 23 7 28 0 5 9 18 20 29 l20 20 -60 0 -60 0 20 -20z"/>
<path d="M960 910 c11 -11 20 -24 20 -29 0 -5 3 -17 7 -27 6 -17 5 -17 -17 -1
-35 25 -85 22 -104 -5 -23 -33 -19 -64 11 -88 26 -21 36 -21 77 -4 17 6 16 4
-4 -24 -20 -26 -22 -37 -14 -60 20 -58 103 -62 124 -6 8 21 6 33 -9 59 l-19
33 29 -10 c59 -20 109 45 75 97 -20 30 -69 34 -106 8 -22 -16 -23 -16 -17 1 4
10 7 22 7 27 0 5 9 18 20 29 l20 20 -60 0 -60 0 20 -20z"/>
<path d="M307 488 c20 -10 49 -66 39 -76 -3 -2 -15 3 -28 12 -31 22 -64 20
-89 -5 -27 -27 -21 -67 14 -93 23 -17 32 -18 56 -9 l29 10 -20 -34 c-24 -41
-14 -76 27 -95 32 -14 71 2 86 36 10 20 8 31 -9 59 l-20 34 28 -10 c58 -22
107 32 82 88 -6 14 -23 27 -37 31 -23 6 -38 1 -86 -24 -18 -9 7 51 29 68 l25
20 -74 -1 c-60 0 -70 -2 -52 -11z"/>
<path d="M952 480 c22 -17 47 -77 29 -68 -48 25 -63 30 -86 24 -14 -4 -31 -17
-37 -31 -25 -55 25 -110 81 -88 l29 10 -20 -34 c-17 -28 -19 -39 -9 -59 25
-55 100 -54 121 2 8 21 6 34 -10 61 -19 32 -19 33 0 23 30 -16 55 -12 78 13
27 29 28 61 2 87 -24 24 -59 26 -86 5 -10 -8 -23 -15 -27 -15 -15 0 4 45 29
68 l25 22 -72 0 -72 0 25 -20z"/>
<path d="M1224 472 c5 -14 1 -18 -16 -18 -17 1 -24 -5 -26 -21 -3 -21 7 -28
31 -24 5 1 6 -7 3 -17 -9 -27 19 -49 40 -31 8 7 13 21 11 30 -3 10 -2 18 2 17
23 -3 32 5 29 25 -2 16 -9 22 -25 21 -26 -1 -29 6 -11 24 9 9 6 12 -16 12 -22
0 -26 -4 -22 -18z"/>
<path d="M1222 297 c-19 -23 -34 -116 -27 -165 8 -60 29 -92 59 -92 33 0 48
23 53 78 5 61 -14 97 -50 97 -26 -1 -27 1 -21 30 10 46 22 54 44 25 l20 -25 0
33 c0 30 -2 32 -34 32 -18 0 -38 -6 -44 -13z m42 -123 c8 -20 8 -78 0 -98 -13
-35 -24 -13 -24 49 0 62 11 84 24 49z"/>
</g>
</svg>
