<?xml version="1.0" standalone="no"?>
<!DOCTYPE svg PUBLIC "-//W3C//DTD SVG 20010904//EN"
 "http://www.w3.org/TR/2001/REC-SVG-20010904/DTD/svg10.dtd">
<svg version="1.0" xmlns="http://www.w3.org/2000/svg"
 width="135.000000pt" height="196.000000pt" viewBox="0 0 135.000000 196.000000"
 preserveAspectRatio="xMidYMid meet">
<metadata>
Created by potrace 1.16, written by Peter Selinger 2001-2019
</metadata>
<g transform="translate(0.000000,196.000000) scale(0.100000,-0.100000)"
fill="#000000" stroke="none">
<path d="M17 1942 c-16 -17 -17 -98 -17 -965 0 -846 2 -947 16 -961 14 -14 87
-16 655 -16 422 0 647 4 660 10 19 10 19 32 19 965 0 854 -2 955 -16 969 -14
14 -87 16 -658 16 -610 0 -644 -1 -659 -18z m73 -27 c0 -8 5 -15 10 -15 14 0
13 -237 -1 -246 -6 -3 -15 0 -20 7 -7 11 -9 9 -9 -7 0 -26 24 -38 49 -24 24
12 31 51 31 164 0 50 3 101 6 114 l6 22 572 0 c432 0 575 -3 584 -12 9 -9 12
-231 12 -939 0 -830 -2 -929 -16 -943 -14 -14 -85 -16 -636 -16 -564 0 -623 2
-640 17 -17 15 -18 58 -18 943 0 707 3 929 12 938 17 17 58 15 58 -3z"/>
<path d="M748 1913 l522 -3 0 -243 c-1 -227 -2 -240 -17 -212 -56 108 -165
133 -253 58 l-30 -25 -27 22 c-21 16 -27 29 -25 53 3 39 -8 58 -36 60 -11 0
-18 5 -16 9 3 5 -11 23 -30 42 -20 18 -36 41 -36 49 0 9 14 32 30 51 l31 35
-81 42 c-77 40 -86 42 -158 40 -70 -2 -78 -5 -116 -37 -22 -19 -43 -34 -48
-34 -18 0 -6 -20 21 -34 22 -12 30 -24 34 -53 2 -21 0 -42 -6 -48 -7 -7 -8 -3
-3 10 5 14 4 17 -3 9 -6 -5 -12 -28 -14 -50 -3 -45 -15 -68 -40 -77 -9 -3 -17
-11 -17 -18 0 -6 6 -9 13 -6 8 3 14 -1 14 -8 0 -8 -3 -13 -6 -13 -13 2 -56
-20 -55 -28 1 -5 -5 -18 -12 -30 -8 -11 -18 -49 -24 -85 -25 -153 -29 -172
-37 -178 -4 -3 -21 -17 -36 -31 l-29 -25 7 26 c4 15 2 30 -3 33 -6 3 -8 -2 -6
-11 3 -10 -2 -27 -10 -38 -15 -19 -15 -19 -16 8 0 19 -5 27 -17 28 -15 0 -15
2 2 9 16 7 17 9 3 9 -9 1 -20 -3 -23 -9 -3 -5 -15 -10 -25 -10 -10 0 -32 -11
-47 -25 l-28 -26 35 21 c46 26 57 25 74 -7 12 -25 12 -30 -2 -43 -14 -13 -15
-12 -9 2 9 26 -57 37 -82 14 -18 -16 -19 -11 -20 156 -1 95 -4 174 -7 177 -2
2 -4 -318 -4 -712 l0 -717 528 2 527 3 -522 2 -523 3 0 243 0 242 28 -42 c32
-50 86 -83 137 -83 41 0 69 12 105 46 l26 24 31 -22 c26 -19 30 -28 26 -53 -5
-32 24 -71 80 -108 43 -28 46 -62 6 -103 -18 -18 -31 -35 -28 -37 2 -2 39 -22
81 -45 76 -40 79 -41 158 -37 79 4 83 6 128 46 28 25 42 44 35 46 -40 14 -78
92 -53 108 6 4 7 -2 3 -12 -5 -14 -3 -16 7 -6 7 6 14 32 15 58 3 47 18 75 40
75 7 0 16 7 19 16 5 12 2 15 -10 10 -9 -4 -22 -2 -28 3 -6 5 -20 11 -31 14
-11 3 -2 4 20 3 22 -2 49 0 60 4 11 5 16 9 12 9 -5 1 1 14 12 30 12 16 25 55
30 88 6 32 12 69 15 83 3 14 8 41 11 62 4 26 15 44 41 63 33 25 36 26 30 7 -4
-11 -3 -23 2 -26 6 -3 10 0 9 7 -1 30 4 47 13 47 6 0 10 -8 10 -19 0 -25 23
-43 44 -35 16 6 16 8 0 25 -13 14 -20 16 -25 8 -4 -7 -6 0 -6 15 2 24 5 26 32
20 17 -3 32 -6 35 -6 19 -1 30 4 43 17 14 13 15 -5 17 -157 0 -95 3 -174 5
-177 3 -2 5 316 5 707 l0 712 -527 -2 -528 -3 523 -2z m-37 -133 c20 -11 30
-49 29 -106 0 -21 2 -62 6 -89 6 -48 5 -51 -20 -63 -15 -7 -35 -12 -44 -13
-14 0 -14 -2 -2 -6 8 -3 18 -10 21 -16 9 -13 42 0 74 29 34 32 39 27 17 -17
l-17 -34 -99 0 c-93 0 -99 1 -107 23 -8 22 -8 22 22 6 17 -8 33 -13 36 -11 2
3 -5 8 -18 12 -17 6 -19 9 -8 17 11 8 10 9 -3 4 -10 -3 -20 0 -24 6 -4 7 -3 8
4 4 7 -4 12 -1 12 9 0 10 5 13 12 9 6 -4 -1 9 -16 29 -15 20 -30 54 -33 76 -4
32 -2 41 15 50 17 9 22 8 27 -9 3 -11 3 -25 0 -30 -4 -6 -1 -17 5 -25 10 -12
10 -15 0 -15 -22 0 -1 -13 25 -16 14 -1 25 2 25 7 0 5 -5 9 -11 9 -5 0 -7 5
-4 10 3 6 -1 10 -9 10 -11 0 -16 14 -18 53 -3 51 -4 52 -36 55 -40 4 -41 32
-2 44 29 8 116 1 141 -12z m56 -52 c-3 -8 -6 -5 -6 6 -1 11 2 17 5 13 3 -3 4
-12 1 -19z m-254 -93 c-3 -9 -8 -14 -10 -11 -3 3 -2 9 2 15 9 16 15 13 8 -4z
m263 -23 c-9 -8 -26 10 -26 26 1 15 2 15 15 -2 8 -11 13 -21 11 -24z m81 32
c-3 -3 -12 -4 -19 -1 -8 3 -5 6 6 6 11 1 17 -2 13 -5z m-312 -54 c-3 -5 -15
-10 -26 -10 -10 0 -19 5 -19 10 0 6 12 10 26 10 14 0 23 -4 19 -10z m302 -6
c3 -8 0 -21 -6 -27 -9 -9 -11 -8 -5 7 6 15 4 18 -9 13 -11 -4 -14 -2 -10 9 7
19 22 18 30 -2z m281 -91 c-10 -2 -28 -2 -40 0 -13 2 -5 4 17 4 22 1 32 -1 23
-4z m-111 -97 c-23 -56 -33 -72 -35 -57 -2 13 2 37 9 54 14 36 49 90 55 85 2
-2 -11 -39 -29 -82z m134 42 c-11 -11 -13 -10 -8 3 3 9 1 22 -4 28 -5 6 -1 4
8 -4 14 -12 15 -17 4 -27z m-153 6 c-6 -12 -16 -20 -24 -17 -16 6 2 40 21 40
10 0 10 -6 3 -23z m76 11 c-4 -8 -1 -15 7 -15 7 0 10 -2 7 -5 -3 -3 -12 -3
-21 1 -16 6 -13 34 4 34 4 0 6 -7 3 -15z m142 -49 c36 -77 28 -90 -11 -16 -36
70 -41 85 -24 74 6 -3 22 -30 35 -58z m24 36 c-6 -2 -8 -8 -4 -13 3 -5 3 -9 0
-9 -3 0 -10 10 -17 21 -8 15 -8 19 0 15 6 -4 11 -1 11 6 0 9 3 9 10 -2 6 -10
6 -16 0 -18z m-527 1 c-18 -2 -48 -2 -65 0 -18 2 -4 4 32 4 36 0 50 -2 33 -4z
m43 -39 c-3 -9 -6 -21 -6 -27 0 -7 -5 -4 -11 6 -8 13 -24 17 -74 17 -41 0 -65
-4 -67 -12 -3 -7 -7 -2 -10 10 -6 22 -4 22 84 22 78 0 89 -2 84 -16z m285 -11
c-12 -20 -14 -14 -5 12 4 9 9 14 11 11 3 -2 0 -13 -6 -23z m-66 -1 c-3 -3 -11
0 -18 7 -9 10 -8 11 6 5 10 -3 15 -9 12 -12z m-245 -32 c15 -35 7 -62 -15 -54
-8 3 -12 10 -9 15 3 5 0 9 -5 9 -6 0 -11 6 -11 14 0 24 -32 28 -52 6 -10 -11
-17 -24 -14 -28 3 -4 -4 -13 -15 -20 -17 -11 -19 -9 -19 18 0 53 18 70 76 70
48 0 52 -2 64 -30z m193 5 c-3 -9 -8 -14 -10 -11 -3 3 -2 9 2 15 9 16 15 13 8
-4z m-257 -42 c-10 -10 -19 5 -10 18 6 11 8 11 12 0 2 -7 1 -15 -2 -18z m250
5 c4 -6 0 -16 -8 -22 -8 -6 -17 -19 -21 -28 -3 -10 -11 -18 -16 -18 -6 0 -8
-6 -5 -14 7 -19 -15 -31 -29 -16 -9 9 -8 14 6 24 9 7 17 21 17 30 0 9 7 16 16
16 8 0 12 5 9 10 -7 12 2 30 15 30 5 0 12 -5 16 -12z m304 -18 c0 -5 -8 -10
-17 -10 -15 0 -16 2 -3 10 19 12 20 12 20 0z m-580 -20 c0 -5 -4 -10 -10 -10
-5 0 -10 5 -10 10 0 6 5 10 10 10 6 0 10 -4 10 -10z m70 0 c0 -5 -4 -10 -10
-10 -5 0 -10 5 -10 10 0 6 5 10 10 10 6 0 10 -4 10 -10z m508 -18 c2 -7 -5
-12 -15 -11 -12 0 -14 2 -4 6 11 5 11 7 0 15 -12 8 -12 9 0 6 8 -3 17 -10 19
-16z m-602 -17 c-3 -8 -2 -15 3 -15 5 0 11 -9 14 -20 3 -12 14 -20 27 -20 13
0 24 8 27 20 3 11 10 20 15 20 5 0 7 4 4 9 -3 5 0 11 7 14 19 7 9 -52 -12 -76
-12 -14 -25 -18 -53 -14 -22 3 -38 1 -38 -5 0 -6 23 -8 55 -6 39 2 55 -1 55
-9 0 -14 -25 -16 -81 -7 l-35 6 -2 59 c-1 37 2 59 9 59 6 0 9 -7 5 -15z m414
11 c0 -3 -4 -8 -10 -11 -5 -3 -10 -1 -10 4 0 6 5 11 10 11 6 0 10 -2 10 -4z
m-360 -32 c0 -8 -4 -14 -10 -14 -5 0 -10 9 -10 21 0 11 5 17 10 14 6 -3 10
-13 10 -21z m540 -6 c0 -6 -6 -5 -15 2 -8 7 -15 14 -15 16 0 2 7 1 15 -2 8 -4
15 -11 15 -16z m-164 -135 c-10 -10 -55 74 -61 112 -5 36 -2 33 30 -34 19 -41
33 -76 31 -78z m190 106 c-6 -32 -45 -103 -52 -96 -5 4 47 127 54 127 2 0 2
-14 -2 -31z m-396 6 c0 -9 -7 -18 -15 -21 -8 -4 -13 -9 -11 -13 8 -12 -11 -34
-23 -27 -17 11 -13 36 5 36 10 0 14 6 11 14 -7 16 1 26 20 26 7 0 13 -7 13
-15z m233 -5 c-3 -11 -9 -17 -15 -14 -5 3 -4 12 3 20 16 19 18 18 12 -6z m117
5 c0 -12 -19 -12 -23 0 -4 9 -1 12 9 8 7 -3 14 -7 14 -8z m-235 -5 c3 -5 1
-10 -4 -10 -6 0 -11 5 -11 10 0 6 2 10 4 10 3 0 8 -4 11 -10z m-85 -4 c0 -3
-4 -8 -10 -11 -5 -3 -10 -1 -10 4 0 6 5 11 10 11 6 0 10 -2 10 -4z m-653 -28
c-3 -8 -6 -5 -6 6 -1 11 2 17 5 13 3 -3 4 -12 1 -19z m888 12 c3 -5 -1 -10 -9
-10 -9 0 -16 5 -16 10 0 6 4 10 9 10 6 0 13 -4 16 -10z m52 4 c-3 -3 -12 -4
-19 -1 -8 3 -5 6 6 6 11 1 17 -2 13 -5z m-499 -83 c-2 -18 -15 -32 -43 -48
-22 -13 -44 -23 -50 -22 -18 0 -65 72 -65 99 0 15 2 29 5 32 3 3 39 -4 81 -15
70 -19 75 -22 72 -46z m258 54 c4 -8 3 -23 0 -32 -6 -14 -9 -15 -15 -4 -5 7
-14 10 -20 7 -12 -8 -16 26 -4 37 11 12 33 7 39 -8z m-69 -27 c-3 -7 -5 -2 -5
12 0 14 2 19 5 13 2 -7 2 -19 0 -25z m-539 -3 c20 -43 15 -71 -15 -84 -23 -11
-25 -10 -13 3 10 13 10 16 -4 16 -25 0 -19 20 7 21 22 2 22 2 1 6 -12 2 -25
14 -28 26 -5 21 -6 22 -20 2 -9 -11 -16 -15 -16 -8 0 19 30 43 54 43 15 0 27
-9 34 -25z m-164 -16 c-23 -24 -30 -27 -32 -14 -5 22 16 45 41 45 19 0 18 -2
-9 -31z m642 19 c4 -6 0 -16 -9 -23 -10 -7 -17 -20 -17 -29 0 -9 -7 -16 -15
-16 -9 0 -12 -6 -9 -15 4 -8 -1 -17 -10 -21 -9 -3 -16 -13 -16 -20 0 -8 -6
-17 -14 -20 -8 -3 -12 -12 -10 -19 7 -18 -15 -30 -29 -15 -9 9 -8 14 6 24 9 7
17 21 17 30 0 9 7 16 15 16 9 0 12 6 9 15 -4 8 1 17 10 21 9 3 16 15 16 25 0
11 7 19 16 19 8 0 12 5 9 10 -7 12 2 30 15 30 5 0 12 -5 16 -12z m221 -11 c3
-5 1 -7 -5 -3 -5 3 -12 0 -14 -6 -3 -8 -9 -5 -16 9 -10 19 -9 20 8 16 11 -3
23 -10 27 -16z m81 -2 c-2 -26 -14 -33 -20 -13 -4 10 10 36 19 38 2 0 2 -11 1
-25z m-373 5 c-27 -12 -35 -12 -35 0 0 6 12 10 28 9 24 0 25 -1 7 -9z m452
-13 c-6 -19 -23 -18 -23 2 0 11 5 17 14 14 7 -3 11 -10 9 -16z m-330 -19 c-3
-8 -6 -5 -6 6 -1 11 2 17 5 13 3 -3 4 -12 1 -19z m379 2 c0 -12 -4 -16 -9 -11
-5 5 -6 14 -3 20 10 15 12 14 12 -9z m54 -29 c-1 -42 -2 -44 -15 -28 -13 18
-14 17 -28 -10 -8 -15 -23 -36 -33 -45 -18 -16 -19 -15 -20 18 0 19 3 34 8 34
5 0 7 4 3 9 -3 5 0 13 6 17 8 4 9 3 5 -4 -12 -19 6 -14 31 10 24 22 32 45 11
32 -6 -4 -8 -3 -5 3 3 5 13 10 22 10 11 0 15 -11 15 -46z m-1158 5 c7 4 8 2 4
-4 -13 -21 -26 -13 -25 16 2 23 2 24 6 4 3 -13 9 -19 15 -16z m598 24 c0 -13
-28 -25 -38 -16 -3 4 0 11 8 16 20 13 30 12 30 0z m188 -18 c2 -12 -1 -22 -7
-22 -6 0 -11 5 -11 11 0 8 -5 8 -15 -1 -16 -13 -20 -3 -9 25 9 23 38 14 42
-13z m-670 11 c-10 -2 -18 -9 -18 -14 0 -15 -17 -10 -24 6 -4 12 2 15 27 14
18 -1 24 -3 15 -6z m-77 -44 c-13 -11 -27 -17 -30 -13 -3 3 5 14 18 25 13 11
27 17 30 13 3 -3 -5 -14 -18 -25z m676 9 c-3 -8 -6 -5 -6 6 -1 11 2 17 5 13 3
-3 4 -12 1 -19z m-577 -24 c0 -14 -4 -23 -9 -20 -5 4 -12 0 -14 -6 -3 -7 -6
-3 -6 9 -1 12 -7 23 -13 26 -7 2 -2 2 11 0 18 -3 22 0 17 12 -3 9 -2 13 4 10
6 -3 10 -17 10 -31z m285 16 c3 -5 1 -10 -4 -10 -6 0 -11 5 -11 10 0 6 2 10 4
10 3 0 8 -4 11 -10z m342 -16 c3 -8 1 -20 -6 -27 -8 -8 -11 -8 -11 2 0 7 -4 9
-10 6 -5 -3 -10 0 -10 8 0 28 27 37 37 11z m206 -25 c-3 -11 -7 -19 -10 -19
-4 0 -53 51 -53 56 0 1 15 -3 34 -8 26 -8 32 -15 29 -29z m-977 12 c-4 -5 -2
-11 3 -13 5 -1 3 -14 -4 -28 -14 -25 -14 -25 -15 13 0 20 5 37 11 37 5 0 8 -4
5 -9z m1139 -20 c-9 -16 -25 -3 -18 15 4 10 9 12 15 6 6 -6 7 -15 3 -21z
m-1098 -3 c-3 -8 -6 -5 -6 6 -1 11 2 17 5 13 3 -3 4 -12 1 -19z m390 8 c-5
-16 -24 -18 -30 -2 -4 10 0 14 14 13 10 -1 18 -6 16 -11z m90 -33 c-3 -10 -5
-2 -5 17 0 19 2 27 5 18 2 -10 2 -26 0 -35z m110 0 c-3 -10 -5 -2 -5 17 0 19
2 27 5 18 2 -10 2 -26 0 -35z m533 11 c0 -19 -4 -33 -9 -30 -7 5 -8 25 -2 59
3 21 11 2 11 -29z m-1086 -4 c0 -18 -10 -37 -25 -50 l-24 -21 25 11 c23 10 24
10 6 -4 -10 -9 -22 -13 -27 -11 -4 3 -17 -7 -28 -21 l-21 -27 0 47 c0 25 5 46
10 46 6 0 10 -8 10 -17 0 -14 4 -12 17 7 13 20 54 70 57 70 1 0 1 -13 0 -30z
m959 23 c-7 -2 -19 -2 -25 0 -7 3 -2 5 12 5 14 0 19 -2 13 -5z m-804 -57 c1
-4 -6 -5 -15 -2 -9 3 -22 6 -30 6 -8 0 -14 10 -14 26 l0 26 29 -24 c17 -13 30
-27 30 -32z m-209 28 c0 -8 -5 -12 -10 -9 -6 4 -8 11 -5 16 9 14 15 11 15 -7z
m110 6 c-20 -13 -33 -13 -25 0 3 6 14 10 23 10 15 0 15 -2 2 -10z m617 -7 c3
-7 -4 -9 -16 -6 -12 3 -18 9 -15 15 7 11 26 6 31 -9z m279 -18 c-6 -17 -26
-20 -26 -5 0 16 24 40 28 29 2 -5 1 -16 -2 -24z m-636 14 c0 -5 5 -7 10 -4 6
3 10 -1 10 -10 0 -22 -34 -15 -38 8 -2 9 1 17 7 17 6 0 11 -5 11 -11z m160
-33 c0 -21 -21 -31 -30 -15 -5 7 -6 17 -4 21 9 14 34 9 34 -6z m198 -91 c-3
-32 -6 -33 -71 -20 -34 7 -37 5 -31 -11 6 -16 5 -17 -7 -6 -17 15 -81 16 -97
0 -9 -9 -12 -8 -12 5 0 14 10 17 53 18 28 0 61 4 72 9 14 6 6 7 -22 3 -43 -6
-43 -5 -43 26 0 26 6 34 48 55 l47 25 33 -37 c25 -27 32 -44 30 -67z m-18 95
c0 -5 -2 -10 -4 -10 -3 0 -8 5 -11 10 -3 6 -1 10 4 10 6 0 11 -4 11 -10z m330
2 c0 -5 -7 -9 -15 -9 -8 0 -12 4 -9 9 3 4 9 8 15 8 5 0 9 -4 9 -8z m70 1 c0
-5 -12 -16 -25 -26 -29 -21 -36 -2 -7 19 19 15 32 18 32 7z m-545 -13 c-3 -5
-12 -10 -18 -10 -7 0 -6 4 3 10 19 12 23 12 15 0z m390 0 c-3 -5 -1 -10 4 -10
6 0 11 -7 11 -15 0 -9 -6 -12 -17 -9 -17 5 -17 5 0 -6 9 -6 17 -18 17 -25 0
-18 12 -19 28 -3 8 8 12 8 12 1 0 -14 -19 -29 -47 -37 -40 -13 -72 82 -35 103
22 13 35 14 27 1z m-586 -16 c6 4 11 0 11 -9 0 -20 -28 -31 -42 -17 -6 6 -8
19 -4 29 6 14 9 15 15 4 5 -7 14 -10 20 -7z m770 -16 c-1 -24 -3 -27 -6 -10
-2 12 -10 22 -16 22 -7 0 -6 4 3 10 21 13 20 14 19 -22z m-635 4 c8 -13 -11
-35 -23 -28 -16 10 -14 36 3 36 8 0 17 -4 20 -8z m51 -12 c-3 -5 -13 -10 -21
-10 -8 0 -14 5 -14 10 0 6 9 10 21 10 11 0 17 -4 14 -10z m495 1 c0 -4 -13 -8
-30 -9 -39 -1 -39 12 0 15 17 1 30 -1 30 -6z m-966 -16 c-4 -8 -10 -15 -15
-15 -4 0 -6 7 -3 15 4 8 10 15 15 15 4 0 6 -7 3 -15z m88 -18 c10 -19 9 -20
-4 -10 -8 7 -17 11 -19 8 -3 -2 -5 4 -5 15 0 22 12 17 28 -13z m64 -53 c29
-75 10 -67 -30 13 -35 72 -36 76 -12 54 14 -13 33 -43 42 -67z m161 64 c-3 -8
-6 -5 -6 6 -1 11 2 17 5 13 3 -3 4 -12 1 -19z m719 -13 c-3 -8 -17 -15 -31
-15 l-26 0 28 24 c27 24 40 20 29 -9z m-874 17 c3 8 6 7 10 -3 3 -9 3 -21 -1
-28 -6 -8 -14 -4 -26 16 -14 21 -15 25 -3 15 13 -10 17 -10 20 0z m-222 -6 c0
-2 -8 -10 -17 -17 -16 -13 -17 -12 -4 4 13 16 21 21 21 13z m21 -18 c-26 -66
-50 -111 -50 -95 -1 29 40 117 55 117 2 0 0 -10 -5 -22z m307 6 c16 10 25 -13
12 -29 -26 -31 -60 -6 -46 32 6 14 9 15 15 4 5 -7 13 -11 19 -7z m128 4 c4 -6
0 -16 -9 -23 -10 -7 -17 -20 -17 -29 0 -9 -7 -16 -15 -16 -9 0 -12 -6 -9 -15
4 -8 -1 -17 -10 -21 -9 -3 -16 -13 -16 -20 0 -8 -7 -17 -15 -20 -8 -4 -13 -10
-10 -14 3 -5 -2 -15 -10 -23 -8 -9 -15 -21 -15 -27 0 -6 -7 -13 -15 -16 -8 -4
-15 -12 -15 -19 0 -8 -4 -17 -10 -20 -6 -4 -7 2 -1 17 9 25 11 32 11 48 0 6 7
10 15 10 9 0 12 6 9 15 -4 8 1 17 10 21 9 3 16 15 16 25 0 10 7 19 15 19 9 0
12 6 9 15 -4 8 1 17 10 21 9 3 16 15 16 25 0 11 7 19 16 19 8 0 12 5 9 10 -7
12 2 30 15 30 5 0 12 -5 16 -12z m74 -8 c0 -5 -14 -10 -31 -10 -17 0 -28 4
-24 10 3 6 17 10 31 10 13 0 24 -4 24 -10z m-163 -32 c-3 -7 -5 -2 -5 12 0 14
2 19 5 13 2 -7 2 -19 0 -25z m-287 -28 c0 -5 -2 -10 -4 -10 -3 0 -8 5 -11 10
-3 6 -1 10 4 10 6 0 11 -4 11 -10z m280 0 c0 -5 -5 -10 -11 -10 -5 0 -7 5 -4
10 3 6 8 10 11 10 2 0 4 -4 4 -10z m238 -2 c16 -21 26 -153 13 -177 -10 -17
-21 -21 -65 -21 -46 0 -54 3 -66 25 -10 18 -10 31 -3 47 10 22 11 22 19 3 19
-48 59 -71 70 -40 4 8 10 12 15 9 5 -3 9 3 9 13 0 11 5 24 12 31 8 8 8 15 -2
27 -7 8 -10 18 -7 21 3 4 -5 18 -19 33 l-25 26 -20 -24 c-11 -13 -18 -30 -15
-37 2 -6 -3 -14 -13 -17 -16 -4 -17 0 -11 33 4 20 10 42 14 48 10 16 81 15 94
0z m-433 -8 c3 -5 2 -10 -4 -10 -5 0 -13 5 -16 10 -3 6 -2 10 4 10 5 0 13 -4
16 -10z m102 -12 c-3 -8 -6 -5 -6 6 -1 11 2 17 5 13 3 -3 4 -12 1 -19z m-77
-18 c0 -5 -5 -10 -11 -10 -5 0 -7 5 -4 10 3 6 8 10 11 10 2 0 4 -4 4 -10z
m370 -10 c0 -11 -4 -20 -10 -20 -5 0 -10 9 -10 20 0 11 5 20 10 20 6 0 10 -9
10 -20z m-540 0 c0 -5 -2 -10 -4 -10 -3 0 -8 5 -11 10 -3 6 -1 10 4 10 6 0 11
-4 11 -10z m180 -20 c0 -5 -8 -10 -17 -10 -15 0 -16 2 -3 10 19 12 20 12 20 0z
m57 -47 c-3 -10 -5 -2 -5 17 0 19 2 27 5 18 2 -10 2 -26 0 -35z m263 17 c0 -5
-5 -10 -11 -10 -5 0 -7 5 -4 10 3 6 8 10 11 10 2 0 4 -4 4 -10z m70 0 c0 -5
-4 -10 -10 -10 -5 0 -10 5 -10 10 0 6 5 10 10 10 6 0 10 -4 10 -10z m-30 -44
c0 -8 -4 -18 -10 -21 -5 -3 -10 3 -10 14 0 12 5 21 10 21 6 0 10 -6 10 -14z
m-544 -82 c13 -31 19 -52 13 -48 -14 8 -59 104 -59 124 1 19 13 -1 46 -76z
m211 50 c-6 -35 -55 -130 -63 -121 -5 5 56 157 64 157 2 0 2 -16 -1 -36z m321
-44 c28 0 54 5 57 10 4 6 11 8 16 5 25 -16 1 -24 -81 -27 -50 -2 -90 0 -90 4
0 3 3 14 6 23 6 14 8 14 24 0 10 -9 36 -15 68 -15z m-291 4 c-3 -3 -12 -4 -19
-1 -8 3 -5 6 6 6 11 1 17 -2 13 -5z m-25 -38 c2 -12 -3 -20 -14 -21 -14 -3
-15 1 -6 21 13 27 15 27 20 0z m-233 -9 c12 -15 12 -17 -4 -11 -13 5 -16 4
-11 -4 4 -7 5 -12 2 -12 -3 0 -10 10 -17 21 -8 15 -8 19 0 15 6 -4 11 -2 11 5
0 7 1 10 3 8 1 -2 9 -12 16 -22z m70 7 c-10 -13 -10 -17 2 -25 9 -6 10 -9 2
-9 -18 0 -36 37 -20 43 23 10 29 7 16 -9z m71 5 c0 -5 5 -7 11 -3 8 4 8 0 0
-15 -7 -11 -17 -21 -23 -21 -7 0 -7 4 1 13 8 10 7 17 -1 25 -9 9 -9 12 0 12 7
0 12 -5 12 -11z m327 -15 c-3 -3 -12 -4 -19 -1 -8 3 -5 6 6 6 11 1 17 -2 13
-5z m135 -10 c24 -4 38 -13 41 -25 6 -22 0 -23 -33 -4 -14 8 -29 14 -35 14 -5
0 1 -6 15 -14 15 -9 19 -15 10 -15 -12 0 -11 -3 3 -11 27 -16 20 -25 -20 -23
-33 1 -34 1 -6 -3 57 -7 107 -121 68 -153 -20 -17 -37 -3 -33 28 2 23 -1 27
-22 29 -14 1 -18 0 -7 -3 13 -4 17 -16 17 -48 0 -23 5 -47 12 -54 17 -17 49
-15 42 2 -3 8 -1 17 4 20 5 3 9 -8 10 -24 1 -41 -26 -53 -101 -48 -46 3 -64
10 -77 26 -10 12 -19 19 -22 17 -2 -2 -1 23 2 56 3 33 2 65 -2 72 -4 7 -8 29
-8 50 0 30 5 40 24 48 27 13 45 55 19 45 -8 -3 -19 -6 -23 -6 -5 0 -26 -14
-46 -32 l-36 -32 16 38 c9 21 16 40 16 42 0 10 121 16 172 8z m-489 -41 c-7
-2 -19 -2 -25 0 -7 3 -2 5 12 5 14 0 19 -2 13 -5z m522 -14 c11 -17 -1 -21
-15 -4 -8 9 -8 15 -2 15 6 0 14 -5 17 -11z m-254 -69 c5 0 9 -5 9 -11 0 -8 -5
-8 -15 1 -8 7 -14 20 -14 29 1 13 2 13 6 -1 2 -10 9 -18 14 -18z m328 -4 c-12
-10 -49 -16 -49 -7 0 5 10 11 23 13 22 4 34 1 26 -6z m-258 -30 c5 3 9 -5 9
-17 0 -22 0 -22 -15 -3 -8 10 -14 24 -14 29 0 6 3 4 6 -3 2 -6 9 -10 14 -6z
m-76 -26 c3 -5 1 -10 -4 -10 -6 0 -11 5 -11 10 0 6 2 10 4 10 3 0 8 -4 11 -10z
m72 -102 c-3 -7 -5 -2 -5 12 0 14 2 19 5 13 2 -7 2 -19 0 -25z"/>
<path d="M644 1746 c-12 -31 0 -49 33 -50 37 -1 52 20 22 29 -10 4 -17 11 -13
16 3 6 13 8 21 5 8 -3 11 -1 8 4 -10 15 -65 12 -71 -4z"/>
<path d="M610 1590 c0 -5 5 -10 10 -10 6 0 10 5 10 10 0 6 -4 10 -10 10 -5 0
-10 -4 -10 -10z"/>
<path d="M706 1565 c-11 -8 -15 -15 -9 -15 6 0 16 7 23 15 16 19 11 19 -14 0z"/>
<path d="M628 1533 c7 -3 16 -2 19 1 4 3 -2 6 -13 5 -11 0 -14 -3 -6 -6z"/>
<path d="M628 1503 c7 -3 16 -2 19 1 4 3 -2 6 -13 5 -11 0 -14 -3 -6 -6z"/>
<path d="M510 1125 c0 -14 13 -39 28 -56 l28 -31 42 21 c56 28 55 73 -1 70 -7
0 -2 -4 11 -9 12 -5 22 -15 22 -22 0 -10 -2 -10 -9 1 -6 9 -11 10 -15 2 -4 -6
-5 -15 -2 -20 3 -4 -6 -13 -20 -20 -32 -14 -41 -14 -26 1 15 15 16 28 2 28 -5
0 -10 -8 -10 -17 -1 -17 -2 -17 -15 1 -8 11 -12 30 -8 47 4 22 2 29 -11 29
-10 0 -16 -9 -16 -25z"/>
<path d="M568 1133 c7 -3 16 -2 19 1 4 3 -2 6 -13 5 -11 0 -14 -3 -6 -6z"/>
<path d="M743 900 c-33 -20 -46 -60 -19 -60 18 0 30 31 16 40 -7 4 2 12 20 20
29 12 33 11 58 -13 15 -15 21 -27 14 -27 -6 0 -12 -7 -12 -16 0 -9 5 -12 12
-8 8 5 9 2 5 -9 -3 -10 -2 -17 3 -17 18 0 10 50 -12 80 -26 35 -41 37 -85 10z"/>
<path d="M780 885 c0 -8 5 -15 10 -15 6 0 10 7 10 15 0 8 -4 15 -10 15 -5 0
-10 -7 -10 -15z"/>
<path d="M683 463 c9 -2 25 -2 35 0 9 3 1 5 -18 5 -19 0 -27 -2 -17 -5z"/>
<path d="M649 403 c-13 -17 -13 -17 6 -3 11 8 22 16 24 17 2 2 0 3 -6 3 -6 0
-17 -8 -24 -17z"/>
<path d="M730 379 c0 -5 5 -7 10 -4 6 3 10 8 10 11 0 2 -4 4 -10 4 -5 0 -10
-5 -10 -11z"/>
<path d="M710 350 c0 -5 11 -10 25 -10 14 0 25 5 25 10 0 6 -11 10 -25 10 -14
0 -25 -4 -25 -10z"/>
<path d="M695 270 c-4 -6 -16 -10 -26 -7 -10 3 -22 1 -25 -5 -3 -5 3 -12 15
-15 28 -7 27 -20 -1 -26 -13 -2 -4 -5 19 -6 41 -1 63 11 43 24 -6 4 -8 10 -6
14 3 4 1 13 -3 20 -7 10 -10 10 -16 1z"/>
<path d="M270 1847 c-13 -7 -29 -25 -34 -40 -8 -22 -6 -33 13 -58 23 -30 23
-31 2 -24 -20 6 -21 3 -21 -54 0 -34 2 -61 5 -61 3 0 16 7 29 15 22 15 23 15
19 -9 -3 -13 -14 -34 -24 -45 l-20 -21 63 1 c35 0 57 3 50 6 -14 5 -42 55 -42
74 0 7 8 6 25 -5 33 -22 71 -20 95 4 51 51 -14 130 -80 97 l-28 -14 24 35 c44
64 -9 133 -76 99z"/>
<path d="M94 1596 c-3 -8 -3 -19 0 -24 3 -6 -3 -12 -14 -15 -12 -3 -20 -14
-20 -26 0 -20 9 -25 38 -22 6 1 12 -2 12 -8 0 -5 -6 -12 -12 -14 -7 -3 3 -5
22 -5 19 0 29 2 23 5 -7 2 -13 9 -13 15 0 6 6 8 14 5 8 -3 20 1 26 8 14 17 6
45 -13 45 -8 0 -13 10 -13 23 1 26 -40 38 -50 13z"/>
<path d="M1227 794 c-15 -13 -24 -24 -19 -24 14 0 58 37 52 43 -3 3 -18 -6
-33 -19z"/>
<path d="M1224 472 c5 -14 1 -18 -16 -18 -17 1 -24 -5 -26 -21 -3 -21 7 -28
31 -24 5 1 6 -7 3 -17 -9 -27 19 -49 40 -31 8 7 13 21 11 30 -3 10 -2 18 2 17
23 -3 32 5 29 25 -2 16 -9 22 -25 21 -26 -1 -29 6 -11 24 9 9 6 12 -16 12 -22
0 -26 -4 -22 -18z"/>
<path d="M1018 398 c11 -13 24 -36 28 -52 l7 -30 -28 22 c-15 12 -36 22 -47
22 -25 0 -68 -44 -68 -70 0 -46 76 -80 108 -48 17 17 15 -2 -2 -21 -39 -45
-13 -111 44 -111 58 0 82 53 49 108 -12 20 -16 31 -9 25 25 -23 30 -14 30 47
0 33 -3 60 -8 60 -4 0 -18 -7 -31 -16 -23 -16 -23 -16 -16 7 4 13 15 36 26 52
l20 27 -62 0 -62 0 21 -22z"/>
<path d="M1230 324 c-8 -9 -15 -50 -17 -97 -2 -45 -5 -106 -7 -134 l-3 -53 34
0 c18 0 33 5 33 10 0 6 -4 10 -10 10 -13 0 -13 247 -1 255 6 3 14 -3 20 -12 9
-16 10 -14 11 10 0 22 -4 27 -24 27 -13 0 -29 -7 -36 -16z"/>
</g>
</svg>
