<?xml version="1.0" standalone="no"?>
<!DOCTYPE svg PUBLIC "-//W3C//DTD SVG 20010904//EN"
 "http://www.w3.org/TR/2001/REC-SVG-20010904/DTD/svg10.dtd">
<svg version="1.0" xmlns="http://www.w3.org/2000/svg"
 width="135.000000pt" height="196.000000pt" viewBox="0 0 135.000000 196.000000"
 preserveAspectRatio="xMidYMid meet">
<metadata>
Created by potrace 1.16, written by Peter Selinger 2001-2019
</metadata>
<g transform="translate(0.000000,196.000000) scale(0.100000,-0.100000)"
fill="#000000" stroke="none">
<path d="M17 1942 c-16 -17 -17 -98 -17 -965 0 -846 2 -947 16 -961 14 -14 87
-16 655 -16 422 0 647 4 660 10 19 10 19 32 19 965 0 854 -2 955 -16 969 -14
14 -87 16 -658 16 -610 0 -644 -1 -659 -18z m53 -44 c-39 -64 -21 -186 30
-213 16 -8 31 -24 35 -35 3 -11 13 -20 21 -20 17 0 19 37 2 42 -7 3 -3 16 13
37 34 46 35 145 1 190 l-23 31 579 0 c436 0 581 -3 590 -12 9 -9 12 -231 12
-939 0 -830 -2 -929 -16 -943 -14 -14 -85 -16 -636 -16 -564 0 -623 2 -640 17
-17 15 -18 58 -18 943 0 707 3 929 12 938 7 7 22 12 35 12 l23 0 -20 -32z m68
0 c17 -17 16 -172 -1 -186 -25 -21 -39 4 -44 74 -5 66 7 124 25 124 4 0 13 -5
20 -12z"/>
<path d="M462 1913 c234 -3 238 -4 226 -23 -16 -25 -26 -25 -51 -2 -19 17 -20
16 -13 -10 4 -17 2 -28 -4 -28 -5 0 -10 4 -10 9 0 5 -11 11 -24 13 -19 4 -26
0 -30 -16 -3 -12 -1 -22 4 -24 18 -6 10 -22 -10 -22 -11 0 -20 5 -20 10 0 6
-8 10 -17 10 -13 0 -14 -3 -5 -12 19 -19 14 -28 -18 -28 -38 0 -37 -10 3 -35
31 -20 32 -22 29 -80 -5 -84 -7 -88 -65 -128 -29 -20 -78 -60 -109 -90 -51
-47 -58 -59 -58 -92 0 -29 -10 -51 -46 -99 -25 -33 -61 -74 -80 -89 -39 -32
-65 -100 -46 -119 9 -9 12 -8 12 5 0 9 5 17 10 17 6 0 1 -18 -10 -40 -15 -30
-20 -57 -19 -117 2 -65 3 -71 9 -38 4 22 8 32 9 23 0 -10 6 -18 11 -18 14 0
13 47 -2 56 -7 5 -8 2 -3 -7 6 -11 5 -11 -4 -3 -10 9 -9 19 2 45 l14 34 7 -45
c4 -25 13 -62 19 -83 9 -31 8 -40 -4 -48 -10 -6 -11 -9 -1 -9 7 0 12 -7 10
-16 -2 -10 2 -19 9 -21 8 -3 11 6 8 29 l-4 33 17 -24 c9 -13 30 -38 46 -55
l30 -31 8 33 c12 44 16 40 12 -13 l-3 -44 20 20 c22 22 37 21 101 -5 35 -15
39 -23 24 -57 -8 -18 -48 -18 -54 0 -3 9 -7 9 -18 0 -11 -9 -14 -8 -14 6 0 11
-5 15 -15 11 -8 -3 -15 -1 -15 5 0 21 -36 3 -47 -25 -17 -37 -16 -41 3 -22 21
21 51 19 94 -5 19 -11 27 -18 18 -15 -10 3 -26 9 -35 12 -10 3 -5 -2 10 -11
18 -11 27 -22 23 -32 -3 -8 -6 -18 -6 -21 0 -4 -4 -1 -9 7 -8 12 -12 12 -25 2
-14 -12 -16 -10 -16 8 0 24 -10 27 -28 9 -9 -9 -12 -8 -12 6 0 15 -3 16 -15 6
-12 -10 -15 -10 -15 1 -1 17 -14 -4 -24 -37 -6 -19 -3 -21 21 -16 25 5 25 6 8
13 -13 5 -15 8 -5 8 17 1 51 -18 35 -19 -5 -1 2 -8 18 -16 31 -17 33 -26 12
-44 -12 -10 -15 -10 -15 4 0 19 -16 21 -26 4 -5 -7 -10 -3 -16 13 -9 23 -10
23 -24 5 -13 -18 -14 -18 -14 -2 0 9 -5 14 -10 11 -24 -15 -9 -41 32 -56 24
-8 42 -20 41 -27 -2 -6 17 -25 40 -41 52 -36 99 -86 178 -194 69 -93 80 -101
117 -93 18 5 23 4 13 -3 -8 -5 -12 -15 -9 -22 3 -8 2 -24 -3 -37 l-8 -22 -276
0 -275 0 -3 712 -2 713 -3 -717 -2 -718 533 2 c292 2 425 4 295 5 -147 2 -238
7 -238 13 0 6 5 10 10 10 6 0 10 7 10 15 0 8 7 15 15 15 9 0 18 -7 21 -15 4
-8 11 -15 16 -15 6 0 7 7 4 16 -7 19 3 41 13 26 3 -5 16 -12 27 -16 17 -5 23
-2 27 16 4 12 1 25 -4 29 -8 4 -8 9 1 14 6 4 19 0 29 -9 20 -18 36 -10 20 11
-9 10 -6 13 14 13 40 0 40 16 1 39 -29 17 -35 26 -30 44 3 12 6 43 6 69 0 45
2 47 66 98 36 29 88 73 115 99 41 39 49 53 49 83 0 27 9 48 35 80 19 24 40 53
46 64 6 12 22 27 35 33 29 13 70 92 60 116 -6 17 -7 17 -21 -1 -21 -27 -18
-10 5 36 15 30 20 57 18 117 -1 69 -2 73 -8 33 -4 -25 -8 -35 -8 -22 -1 13 -6
21 -11 17 -14 -8 -9 -45 6 -45 17 0 16 -10 -1 -51 l-14 -34 -7 50 c-4 28 -13
64 -20 80 -7 19 -9 41 -4 59 8 30 3 50 -10 42 -4 -3 -7 -19 -6 -35 2 -37 -7
-32 -36 19 -23 40 -63 61 -114 59 l-20 0 20 -9 c11 -5 15 -9 8 -9 -23 -2 -123
42 -123 53 0 32 54 66 64 41 3 -8 12 -12 21 -9 10 4 15 0 15 -11 0 -14 3 -15
15 -5 9 8 15 8 15 2 0 -6 9 -10 20 -9 11 1 20 2 20 3 0 1 11 31 25 68 l25 65
-24 -10 c-17 -8 -32 -7 -60 5 l-37 15 18 33 c16 31 18 32 21 10 3 -23 4 -23
23 -6 18 16 19 16 19 -4 0 -25 10 -28 28 -10 9 9 12 8 12 -6 0 -9 5 -14 10
-11 25 15 9 43 -36 60 -28 11 -43 22 -40 30 2 7 -18 28 -47 48 -55 38 -89 76
-179 198 -35 48 -65 79 -81 83 -30 7 -41 30 -27 57 10 18 24 19 285 19 l275 0
3 -707 2 -708 3 713 2 712 -532 -2 c-293 -2 -426 -4 -296 -5z m251 -90 c-7 -2
-19 -2 -25 0 -7 3 -2 5 12 5 14 0 19 -2 13 -5z m-52 -16 c-6 -8 -7 -18 -3 -22
4 -5 2 -5 -5 -2 -16 10 -45 -22 -38 -42 4 -9 9 -52 12 -96 5 -68 3 -83 -11
-95 -15 -12 -19 -12 -27 1 -6 10 -9 0 -10 -31 -4 -110 -1 -102 -47 -118 -24
-8 -46 -11 -50 -8 -8 9 12 41 27 42 22 3 23 4 11 19 -11 13 -10 14 5 9 15 -6
16 -4 8 10 -11 20 -5 76 8 76 5 0 9 -9 9 -20 0 -11 4 -20 9 -20 5 0 9 11 9 25
0 13 -6 23 -12 22 -11 -2 -11 8 1 86 4 31 9 37 29 37 19 0 24 5 24 26 0 14 -4
23 -9 19 -16 -9 -23 13 -11 35 6 12 26 30 43 40 38 23 43 25 28 7z m124 -18
c-9 -14 -32 -11 -38 5 -3 8 -3 17 0 20 9 9 44 -14 38 -25z m-65 7 c-6 -8 -18
-12 -26 -9 -23 9 -16 23 12 23 22 0 24 -2 14 -14z m-170 -26 c0 -5 -5 -10 -11
-10 -5 0 -7 5 -4 10 3 6 8 10 11 10 2 0 4 -4 4 -10z m149 -15 c10 -5 16 -4 19
3 2 7 13 12 23 12 13 0 18 -4 13 -12 -5 -8 -2 -9 11 -4 11 4 22 2 27 -6 10
-17 10 -41 -1 -34 -4 3 -17 -1 -27 -8 -17 -13 -16 -14 11 -10 l30 4 -31 -10
c-29 -9 -32 -13 -30 -50 1 -43 16 -56 16 -14 0 34 31 29 41 -6 5 -18 8 -7 9
35 l2 60 14 -69 c14 -72 8 -96 -23 -96 -10 0 -12 7 -8 23 3 12 -4 4 -17 -18
-27 -46 -67 -57 -117 -30 -17 8 -31 13 -31 11 0 -13 62 -36 95 -36 19 0 35 -4
35 -9 0 -20 -33 -41 -64 -41 -64 0 -111 67 -71 100 10 8 15 31 15 64 0 28 4
47 8 41 9 -13 65 -12 69 0 1 6 -2 17 -7 25 -7 12 -15 13 -39 3 -25 -9 -31 -8
-36 5 -3 8 2 27 12 41 10 14 17 29 16 33 -3 8 18 5 36 -7z m117 -242 c0 -10 4
-17 11 -16 12 2 33 -47 33 -76 -1 -13 -3 -13 -15 3 -8 10 -12 22 -10 26 3 5
-2 10 -10 14 -8 3 -19 -2 -24 -13 -11 -20 -4 -61 11 -61 5 0 6 5 2 11 -4 7 -1
10 7 7 33 -11 19 -34 -28 -46 -61 -16 -58 -15 -124 -14 -49 2 -57 5 -67 27
-17 37 -14 55 4 23 12 -24 21 -28 52 -26 l37 1 -36 4 c-29 3 -39 10 -52 39
-23 47 -21 57 6 39 13 -8 27 -12 32 -8 4 5 5 3 2 -3 -11 -20 69 -27 103 -9 17
9 30 12 30 8 1 -21 20 26 20 48 0 22 7 39 16 39 1 0 1 -8 0 -17z m218 -2 c3
-5 -1 -14 -9 -21 -8 -7 -15 -19 -15 -27 0 -7 -6 -16 -14 -19 -8 -3 -16 -15
-19 -26 -3 -11 -10 -17 -16 -13 -16 9 -13 35 4 35 9 0 12 6 8 16 -4 10 1 17
15 20 13 4 18 12 15 25 -5 20 20 28 31 10z m-644 -100 c0 -5 -14 -21 -32 -36
-38 -32 -52 -16 -17 21 22 24 49 32 49 15z m480 -27 c0 -8 -5 -12 -10 -9 -6 4
-8 11 -5 16 9 14 15 11 15 -7z m30 9 c0 -5 -5 -15 -10 -23 -8 -12 -10 -11 -10
8 0 12 5 22 10 22 6 0 10 -3 10 -7z m56 -5 c4 -6 0 -16 -8 -22 -8 -6 -17 -19
-21 -30 -6 -15 -10 -16 -22 -6 -17 14 -11 30 11 30 8 0 12 5 9 10 -7 12 2 30
15 30 5 0 12 -5 16 -12z m-556 -1 c0 -2 -10 -12 -22 -23 l-23 -19 19 23 c18
21 26 27 26 19z m70 -6 c0 -4 -16 -29 -36 -56 -26 -34 -39 -43 -45 -34 -10 17
-1 32 17 25 10 -4 14 0 12 12 -2 9 3 16 10 15 6 -2 12 6 12 18 0 11 5 17 10
14 6 -3 10 -1 10 4 0 6 2 11 5 11 3 0 5 -4 5 -9z m531 -11 c16 9 19 7 19 -11
0 -21 1 -22 20 -4 19 17 20 17 20 0 0 -11 5 -15 15 -11 17 6 19 -2 6 -23 -6
-9 -19 -12 -40 -8 -41 8 -40 0 2 -12 20 -6 24 -9 12 -10 -26 -1 -108 36 -102
46 2 5 7 17 12 28 4 13 9 15 12 8 3 -9 10 -10 24 -3z m-404 -32 c-3 -8 -6 -5
-6 6 -1 11 2 17 5 13 3 -3 4 -12 1 -19z m43 -8 c0 -5 -4 -10 -10 -10 -5 0 -10
5 -10 10 0 6 5 10 10 10 6 0 10 -4 10 -10z m50 0 c0 -5 -4 -10 -10 -10 -5 0
-10 5 -10 10 0 6 5 10 10 10 6 0 10 -4 10 -10z m140 -5 c0 -8 -4 -15 -10 -15
-5 0 -10 7 -10 15 0 8 5 15 10 15 6 0 10 -7 10 -15z m-166 -47 c-6 -19 -7 -19
-16 -4 -5 9 -6 26 -2 38 6 19 7 19 16 4 5 -9 6 -26 2 -38z m126 37 c0 -8 -4
-15 -10 -15 -5 0 -10 7 -10 15 0 8 5 15 10 15 6 0 10 -7 10 -15z m-439 -15
c-13 -11 -37 -20 -53 -20 -26 0 -29 2 -18 15 7 9 19 14 27 11 7 -3 23 -1 35 4
34 13 35 11 9 -10z m269 -6 c0 -8 -4 -14 -10 -14 -5 0 -10 9 -10 21 0 11 5 17
10 14 6 -3 10 -13 10 -21z m81 -22 c-6 -2 -11 -15 -11 -28 0 -14 -4 -22 -10
-19 -5 3 -10 15 -10 26 0 10 5 19 10 19 6 0 10 8 10 18 0 29 15 37 18 11 2
-13 -1 -25 -7 -27z m204 39 c3 -5 -1 -15 -8 -23 -7 -7 -16 -21 -20 -31 -8 -20
-28 -19 -35 2 -2 7 5 15 16 18 14 3 18 11 15 24 -6 20 20 28 32 10z m-534 -44
c-8 -8 -11 -7 -11 4 0 20 13 34 18 19 3 -7 -1 -17 -7 -23z m439 6 c-1 -24 -2
-26 -11 -10 -5 9 -7 22 -4 27 10 17 15 11 15 -17z m-463 -8 c0 -11 -6 -13 -20
-9 -13 4 -17 2 -13 -5 4 -6 2 -11 -3 -11 -20 0 -11 20 12 30 12 5 22 9 23 9 0
1 1 -6 1 -14z m296 -33 c-5 -12 -7 -12 -15 2 -11 20 1 44 12 25 5 -6 6 -19 3
-27z m210 1 c9 -9 -13 -34 -24 -27 -14 8 -11 34 4 34 8 0 17 -3 20 -7z m-229
-19 c3 -8 2 -12 -4 -9 -6 3 -10 10 -10 16 0 14 7 11 14 -7z m106 1 c0 -8 -2
-15 -4 -15 -2 0 -6 7 -10 15 -3 8 -1 15 4 15 6 0 10 -7 10 -15z m186 -4 c11 9
14 8 14 -6 0 -14 3 -15 15 -5 12 10 15 9 15 -5 0 -11 5 -15 15 -11 8 3 15 1
15 -5 0 -6 7 -9 15 -5 9 3 15 0 15 -10 0 -9 -9 -18 -21 -21 -16 -4 -17 -8 -7
-14 33 -21 -21 -7 -80 21 -56 26 -62 32 -53 49 14 24 35 32 39 14 3 -11 7 -11
18 -2z m-246 -7 c0 -8 -4 -12 -10 -9 -5 3 -10 10 -10 16 0 5 5 9 10 9 6 0 10
-7 10 -16z m156 -16 c4 -6 0 -16 -8 -22 -8 -6 -17 -19 -21 -28 -3 -10 -11 -18
-16 -18 -6 0 -8 -7 -5 -15 4 -8 -1 -17 -10 -21 -9 -3 -16 -13 -16 -20 0 -8 -7
-17 -15 -20 -8 -4 -13 -9 -11 -13 8 -12 -11 -34 -23 -27 -17 11 -13 36 5 36
11 0 14 5 10 16 -4 10 0 18 13 21 12 3 17 11 14 19 -3 8 2 17 11 20 9 3 16 15
16 25 0 11 7 19 16 19 8 0 12 5 9 10 -7 12 2 30 15 30 5 0 12 -5 16 -12z
m-545 -7 c-9 -6 -10 -10 -2 -16 7 -4 19 -1 27 6 10 8 18 9 22 2 4 -5 14 -13
22 -17 8 -3 5 -4 -8 -2 -29 5 -129 -20 -159 -40 -20 -13 -23 -13 -23 1 0 8 7
15 15 15 9 0 18 6 21 14 3 8 13 12 25 9 13 -4 25 2 35 16 8 11 21 21 27 21 8
0 8 -3 -2 -9z m475 -6 c-22 -17 -36 -19 -36 -7 0 14 12 22 34 22 21 -1 21 -1
2 -15z m306 -7 c-7 -7 -12 -8 -12 -2 0 14 12 26 19 19 2 -3 -1 -11 -7 -17z
m48 3 c0 -6 -4 -12 -8 -15 -5 -3 -9 1 -9 9 0 8 4 15 9 15 4 0 8 -4 8 -9z
m-231 -37 c6 4 11 0 11 -10 0 -13 3 -14 15 -4 12 10 15 9 16 -6 0 -11 3 -14 6
-6 7 18 23 15 23 -5 0 -15 2 -16 10 -3 8 13 10 12 10 -2 0 -21 25 -24 34 -5 8
16 0 -70 -10 -107 -5 -23 -4 -27 7 -21 12 8 12 6 0 -8 -15 -19 -26 -23 -15 -5
5 8 2 9 -9 5 -25 -10 -27 5 -6 52 19 44 26 78 11 53 -5 -7 -17 -10 -28 -6 -16
5 -16 4 -4 -5 8 -6 11 -11 5 -11 -14 0 -43 20 -30 20 12 1 -56 39 -70 39 -5 0
1 -6 15 -14 14 -8 21 -14 15 -14 -30 -1 -51 36 -39 69 4 12 7 12 13 1 5 -7 14
-10 20 -7z m-353 -42 l-7 -21 -20 20 c-17 17 -18 23 -8 35 11 13 14 13 27 1 8
-9 11 -23 8 -35z m510 39 c-4 -5 0 -11 6 -14 7 -3 3 -4 -9 -4 -17 1 -19 4 -11
14 12 15 22 18 14 4z m129 -45 c20 -31 36 -127 26 -163 -6 -23 -9 -16 -14 39
-3 37 -13 81 -22 97 -25 50 -18 70 10 27z m-665 -22 l25 -15 -25 6 c-25 5 -25
5 -2 -6 14 -8 22 -21 22 -38 0 -19 -3 -22 -9 -12 -5 7 -14 10 -20 7 -6 -4 -11
-2 -11 5 0 7 -3 10 -6 6 -8 -7 -34 17 -34 32 0 6 7 11 16 11 8 0 12 5 9 10 -9
14 6 12 35 -6z m-295 -153 c9 -18 15 -40 13 -49 -3 -13 -8 -11 -23 12 -22 33
-37 126 -27 170 5 26 8 20 13 -35 4 -37 15 -81 24 -98z m666 135 c5 3 9 0 9
-6 0 -6 4 -9 9 -5 5 3 12 1 16 -5 4 -6 11 -8 16 -5 5 4 9 1 9 -5 0 -6 5 -8 10
-5 6 3 10 -4 10 -15 0 -19 -4 -21 -27 -16 -21 5 -24 4 -13 -4 17 -11 10 -13
-14 -4 -9 3 -13 11 -9 17 3 6 1 7 -5 3 -7 -4 -20 -2 -29 4 -16 10 -16 11 2 6
19 -6 19 -6 1 8 -12 10 -16 21 -11 33 5 12 9 14 12 5 3 -6 9 -10 14 -6z m-593
-34 c10 -19 5 -40 -15 -60 -11 -11 -13 -11 -13 2 0 9 -4 16 -10 16 -5 0 -10 5
-10 11 0 6 9 8 20 4 15 -5 20 -2 20 13 0 25 -10 34 -26 21 -10 -8 -13 -6 -11
9 1 16 5 19 19 11 10 -5 22 -17 26 -27z m111 15 c-2 -1 -13 -9 -24 -17 -19
-14 -19 -14 -6 3 7 9 18 17 24 17 6 0 8 -1 6 -3z m735 -49 c-3 -4 -11 -5 -19
-1 -10 3 -15 -2 -15 -16 0 -18 4 -20 27 -15 24 6 25 5 12 -8 -10 -11 -19 -13
-31 -7 -10 6 -18 13 -19 17 -4 39 -3 60 3 56 3 -2 10 1 13 6 5 7 12 5 20 -7 7
-10 11 -21 9 -25z m-724 18 c0 -7 -7 -30 -15 -49 -19 -46 -19 -46 6 -40 16 4
17 8 7 14 -15 10 -7 12 16 3 9 -3 13 -10 10 -15 -3 -5 3 -6 12 -2 11 4 15 2
11 -4 -4 -6 12 -18 34 -28 24 -11 39 -24 37 -33 -4 -19 -48 -24 -48 -6 0 8 -6
11 -15 8 -8 -4 -15 -1 -15 5 0 6 -7 8 -15 5 -8 -4 -15 -1 -15 7 0 7 -3 10 -6
6 -4 -3 -13 1 -22 9 -14 14 -16 13 -28 -15 -14 -32 -31 -41 -31 -17 0 8 5 14
11 13 6 -1 12 18 14 43 2 24 8 50 14 58 6 7 8 15 5 19 -8 7 11 33 24 33 5 0 9
-6 9 -14z m78 -15 c36 -19 53 -53 31 -66 -5 -4 -9 -1 -9 5 0 6 -4 8 -10 5 -5
-3 -10 -2 -10 4 0 5 -11 8 -25 6 -16 -1 -25 3 -25 12 0 8 -4 11 -10 8 -11 -7
-14 28 -3 38 10 11 21 8 61 -12z m218 7 c4 -6 0 -16 -9 -23 -10 -7 -17 -20
-17 -29 0 -9 -7 -16 -15 -16 -9 0 -12 -6 -9 -15 4 -8 -1 -17 -10 -21 -9 -3
-16 -13 -16 -20 0 -8 -6 -17 -14 -20 -8 -3 -12 -12 -10 -19 7 -18 -15 -30 -29
-15 -9 9 -8 14 6 24 9 7 17 21 17 30 0 9 7 16 15 16 9 0 12 6 9 15 -4 8 1 17
10 21 9 3 16 15 16 25 0 11 7 19 16 19 8 0 12 5 9 10 -7 12 2 30 15 30 5 0 12
-5 16 -12z m173 -24 c6 4 11 0 12 -11 0 -10 3 -13 6 -6 3 10 8 10 19 -1 18
-19 18 -30 -1 -46 -28 -23 -60 1 -63 46 -2 26 1 34 7 25 5 -7 14 -10 20 -7z
m-574 -74 c-3 -5 -16 -10 -28 -9 -20 1 -20 2 3 9 14 4 26 8 28 9 2 1 0 -3 -3
-9z m215 -10 c8 -5 11 -10 5 -10 -5 0 -17 5 -25 10 -8 5 -10 10 -5 10 6 0 17
-5 25 -10z m362 -37 c-6 -18 -31 -16 -38 2 -4 8 -4 22 0 30 5 13 8 13 24 -2
10 -10 17 -24 14 -30z m328 2 c0 -8 -6 -12 -14 -9 -9 3 -17 -3 -21 -16 -5 -15
-10 -18 -19 -11 -9 8 -18 7 -31 -3 -10 -7 -27 -11 -37 -8 -10 2 -25 -1 -33 -8
-11 -9 -15 -9 -15 -1 0 6 -10 16 -22 21 -18 8 -16 9 13 4 34 -5 128 16 159 36
20 13 20 13 20 -5z m-724 -44 c22 -11 35 -20 29 -20 -5 0 -21 6 -35 14 -14 8
-29 14 -35 14 -5 0 7 -9 28 -20 42 -22 46 -34 17 -49 -16 -8 -20 -8 -20 4 0
10 -6 13 -15 10 -10 -4 -15 0 -15 11 0 14 -3 15 -15 5 -12 -10 -15 -9 -15 5 0
14 -3 15 -14 6 -11 -9 -15 -8 -20 4 -3 9 -10 13 -16 10 -5 -3 -10 1 -10 10 0
8 7 18 15 21 8 4 12 10 10 15 -7 11 61 -13 111 -40z m164 0 c0 -12 -23 -31
-37 -31 -7 0 -10 7 -6 16 3 8 12 13 21 9 12 -4 13 -3 2 10 -11 13 -10 14 4 9
9 -3 16 -9 16 -13z m-368 2 c-6 -2 -9 -10 -6 -15 4 -7 2 -8 -4 -4 -18 11 -14
26 6 25 10 0 12 -3 4 -6z m294 -15 c4 -6 0 -16 -9 -23 -10 -7 -17 -20 -17 -29
0 -9 -6 -16 -14 -16 -8 0 -18 -5 -22 -12 -4 -7 -3 -8 4 -4 7 4 12 2 12 -4 0
-6 -7 -13 -15 -16 -8 -4 -15 -15 -15 -25 0 -10 -7 -19 -15 -19 -8 0 -12 -6 -9
-14 7 -19 -15 -31 -29 -16 -9 9 -8 14 6 24 9 7 17 21 17 30 0 9 7 16 15 16 9
0 12 6 9 15 -4 8 1 17 10 21 9 3 16 15 16 25 0 11 7 19 16 19 8 0 12 5 9 10
-7 12 2 30 15 30 5 0 12 -5 16 -12z m84 -13 c-7 -8 -10 -22 -6 -30 3 -8 1 -15
-4 -15 -14 0 -12 34 2 48 17 17 23 15 8 -3z m105 -5 c10 -11 16 -20 13 -20 -3
0 -13 9 -23 20 -10 11 -16 20 -13 20 3 0 13 -9 23 -20z m-45 -16 c0 -8 -4 -12
-10 -9 -5 3 -10 10 -10 16 0 5 5 9 10 9 6 0 10 -7 10 -16z m38 -19 c-3 -3 -9
2 -12 12 -6 14 -5 15 5 6 7 -7 10 -15 7 -18z m-58 -15 c0 -10 -4 -22 -10 -25
-5 -3 -10 -15 -10 -25 0 -10 -4 -22 -10 -25 -6 -4 -10 7 -10 25 0 18 4 29 10
25 6 -4 10 7 10 25 0 18 4 29 10 25 6 -3 10 -15 10 -25z m44 -21 c-5 -8 -10
-6 -16 5 -5 9 -6 21 -2 27 5 8 10 6 16 -5 5 -9 6 -21 2 -27z m381 21 c3 -6 -1
-7 -9 -4 -9 3 -16 1 -16 -5 0 -6 -11 -11 -25 -11 -26 0 -34 15 -12 23 21 9 56
7 62 -3z m-554 -43 c-8 -8 -11 -3 -11 19 1 25 2 27 11 11 8 -14 8 -22 0 -30z
m469 27 c0 -8 -5 -12 -10 -9 -6 4 -8 11 -5 16 9 14 15 11 15 -7z m-319 -51
c-9 -17 -10 -17 -16 0 -4 9 -4 25 0 35 6 16 7 16 16 0 7 -12 7 -24 0 -35z
m292 40 c9 -8 -63 -72 -82 -73 -11 0 -11 3 -1 15 7 8 16 12 21 9 5 -3 9 2 9
10 0 9 7 16 15 16 8 0 15 7 15 15 0 16 12 20 23 8z m-243 -23 c0 -11 -4 -20
-10 -20 -5 0 -10 9 -10 20 0 11 5 20 10 20 6 0 10 -9 10 -20z m320 5 c-7 -9
-19 -14 -25 -11 -7 2 -17 0 -23 -6 -6 -6 -12 -6 -17 1 -7 12 27 29 59 30 15 1
16 -1 6 -14z m-498 -37 c-9 -9 -12 -7 -12 12 0 19 3 21 12 12 9 -9 9 -15 0
-24z m-32 2 c0 -11 -4 -20 -10 -20 -5 0 -10 9 -10 20 0 11 5 20 10 20 6 0 10
-9 10 -20z m-43 -12 c-3 -8 -6 -5 -6 6 -1 11 2 17 5 13 3 -3 4 -12 1 -19z
m183 12 c0 -5 -4 -10 -10 -10 -5 0 -10 5 -10 10 0 6 5 10 10 10 6 0 10 -4 10
-10z m45 0 c3 -5 1 -10 -4 -10 -6 0 -11 5 -11 10 0 6 2 10 4 10 3 0 8 -4 11
-10z m32 -70 c0 -38 -2 -70 -5 -70 -3 0 -13 7 -23 16 -20 18 -114 30 -132 16
-28 -22 -42 -20 -44 7 0 14 4 30 10 34 8 5 4 7 -8 4 -11 -2 -19 -9 -18 -15 4
-18 -14 -14 -21 4 -8 20 -12 17 50 37 40 13 67 15 118 9 60 -8 66 -7 66 10 0
10 2 18 3 18 2 0 4 -31 4 -70z m213 60 c0 -5 -5 -10 -11 -10 -5 0 -7 5 -4 10
3 6 8 10 11 10 2 0 4 -4 4 -10z m-50 -24 c0 -11 -19 -15 -25 -6 -3 5 1 10 9
10 9 0 16 -2 16 -4z m110 -3 c-1 -20 -38 -55 -56 -51 -17 3 -17 6 8 31 26 26
48 35 48 20z m-604 -15 c4 -6 0 -16 -8 -22 -8 -6 -13 -16 -11 -23 6 -17 -17
-27 -30 -13 -9 9 -8 14 4 23 16 12 19 18 19 37 0 14 17 13 26 -2z m44 -10 c0
-16 -3 -19 -11 -11 -6 6 -8 16 -5 22 11 17 16 13 16 -11z m17 -10 c-3 -8 -6
-5 -6 6 -1 11 2 17 5 13 3 -3 4 -12 1 -19z m-147 -8 c8 -5 11 -10 5 -10 -5 0
-17 5 -25 10 -8 5 -10 10 -5 10 6 0 17 -5 25 -10z m530 3 c0 -14 -15 -29 -32
-36 -12 -4 -15 -12 -11 -23 5 -13 3 -15 -8 -9 -11 7 -12 6 -2 -6 12 -15 6 -69
-8 -69 -5 0 -9 7 -9 15 0 8 -5 15 -11 15 -6 0 -9 -7 -5 -15 3 -8 1 -15 -4 -15
-6 0 -9 28 -8 65 2 59 4 65 28 74 31 12 70 14 70 4z m-354 -38 c3 -14 12 -25
20 -25 16 0 20 -55 5 -64 -5 -4 -7 3 -4 14 4 14 0 20 -11 20 -9 0 -16 2 -16 4
0 2 -7 20 -15 40 -14 32 -14 36 0 36 8 0 17 -11 21 -25z m157 -9 c-4 -5 3 -7
16 -3 13 3 20 3 17 0 -3 -4 3 -12 14 -20 24 -17 26 -55 5 -73 -10 -9 -15 -32
-15 -76 0 -54 -3 -65 -21 -75 -12 -6 -30 -9 -40 -6 -11 3 -16 1 -13 -5 6 -10
33 -7 67 7 26 11 21 -11 -9 -39 -15 -13 -33 -22 -41 -19 -7 3 -20 -1 -29 -8
-11 -9 -18 -9 -22 -2 -4 6 -16 12 -27 14 -26 5 -33 39 -8 40 16 1 17 2 1 6
-10 2 -18 9 -18 15 0 5 7 8 15 5 8 -4 17 -2 20 4 4 5 11 7 16 3 6 -3 7 11 3
37 -7 41 -6 42 17 36 23 -6 23 -5 5 8 -17 13 -18 15 -3 15 22 0 21 13 -3 35
-19 17 -19 17 -15 -4 2 -11 1 -21 -3 -21 -4 0 -8 -14 -9 -32 -2 -31 -22 -54
-35 -40 -3 4 -8 18 -11 32 -2 14 -5 -2 -6 -35 -3 -65 -12 -52 -25 37 -6 42 -5
48 15 58 17 9 23 9 29 0 6 -9 10 -6 15 9 8 27 46 43 83 36 26 -5 26 -5 4 5
-13 5 -35 7 -48 4 -31 -8 -31 10 0 39 24 22 71 32 59 13z m-297 -8 c4 -6 0
-16 -9 -23 -10 -7 -17 -20 -17 -29 0 -9 -7 -16 -15 -16 -8 0 -15 9 -15 20 0
11 7 20 16 20 8 0 12 5 9 10 -7 12 2 30 15 30 5 0 12 -5 16 -12z m433 -104 c2
-2 -2 -17 -8 -35 -6 -18 -11 -43 -11 -55 0 -15 -6 -24 -15 -24 -8 0 -15 -8
-16 -17 0 -15 -2 -15 -9 2 -8 18 -9 17 -9 -6 -1 -15 6 -29 14 -33 22 -8 -1
-53 -36 -72 -25 -12 -27 -12 -24 4 1 9 7 16 13 15 23 -5 34 25 23 64 -12 42
-15 156 -4 166 6 7 73 -1 82 -9z m11 -198 c0 -3 -4 -8 -10 -11 -5 -3 -10 -1
-10 4 0 6 5 11 10 11 6 0 10 -2 10 -4z m-214 -33 c9 -12 16 -14 21 -7 10 13
45 15 36 1 -3 -5 0 -13 7 -17 7 -4 -9 -5 -36 -3 -51 6 -78 19 -68 34 8 14 26
11 40 -8z m174 -3 c0 -5 -2 -10 -4 -10 -3 0 -8 5 -11 10 -3 6 -1 10 4 10 6 0
11 -4 11 -10z"/>
<path d="M586 1632 c-4 -24 -6 -46 -2 -49 8 -8 18 42 14 68 -3 18 -6 13 -12
-19z"/>
<path d="M645 1700 c-4 -6 6 -7 27 -3 44 8 48 13 10 13 -17 0 -34 -4 -37 -10z"/>
<path d="M710 1610 c0 -5 5 -10 11 -10 5 0 7 5 4 10 -3 6 -8 10 -11 10 -2 0
-4 -4 -4 -10z"/>
<path d="M716 1581 c-8 -12 21 -48 30 -38 5 4 2 12 -6 17 -13 8 -12 10 3 10 9
0 17 5 17 10 0 12 -37 13 -44 1z"/>
<path d="M768 1383 c7 -3 16 -2 19 1 4 3 -2 6 -13 5 -11 0 -14 -3 -6 -6z"/>
<path d="M970 1330 c8 -5 20 -10 25 -10 6 0 3 5 -5 10 -8 5 -19 10 -25 10 -5
0 -3 -5 5 -10z"/>
<path d="M890 1170 c19 -11 40 -19 45 -19 6 0 -6 8 -25 19 -19 11 -39 19 -45
19 -5 0 6 -8 25 -19z"/>
<path d="M440 980 c8 -5 20 -10 25 -10 6 0 3 5 -5 10 -8 5 -19 10 -25 10 -5 0
-3 -5 5 -10z"/>
<path d="M487 959 c7 -7 15 -10 18 -7 3 3 -2 9 -12 12 -14 6 -15 5 -6 -5z"/>
<path d="M860 910 c8 -5 20 -10 25 -10 6 0 3 5 -5 10 -8 5 -19 10 -25 10 -5 0
-3 -5 5 -10z"/>
<path d="M633 593 c9 -2 25 -2 35 0 9 3 1 5 -18 5 -19 0 -27 -2 -17 -5z"/>
<path d="M721 588 c8 -7 20 -20 27 -28 11 -13 12 -12 6 5 -8 21 -23 35 -38 35
-6 0 -3 -6 5 -12z"/>
<path d="M696 442 c-3 -5 1 -9 9 -9 8 0 12 4 9 9 -3 4 -7 8 -9 8 -2 0 -6 -4
-9 -8z"/>
<path d="M640 311 c0 -4 6 -15 13 -25 11 -15 17 -17 35 -7 34 18 27 37 -13 38
-19 0 -35 -2 -35 -6z"/>
<path d="M768 374 c-5 -4 -8 -23 -7 -43 0 -34 1 -34 10 -11 11 27 8 66 -3 54z"/>
<path d="M273 1850 c-45 -18 -52 -71 -14 -114 15 -18 15 -18 -6 -12 -22 7 -23
5 -23 -53 0 -34 2 -61 5 -61 3 0 16 7 29 15 22 15 23 15 19 -9 -3 -13 -14 -34
-24 -45 l-20 -21 63 1 c35 0 57 3 50 6 -14 5 -42 55 -42 74 0 7 8 6 25 -5 33
-22 71 -20 95 4 51 51 -14 130 -80 97 l-28 -14 24 35 c42 62 -6 129 -73 102z"/>
<path d="M94 1596 c-3 -8 -3 -19 0 -24 3 -6 -3 -12 -14 -15 -12 -3 -20 -14
-20 -26 0 -20 9 -25 38 -22 6 1 12 -2 12 -8 0 -5 -6 -12 -12 -14 -7 -3 3 -5
22 -5 19 0 29 2 23 5 -7 2 -13 9 -13 15 0 6 6 8 14 5 8 -3 20 1 26 8 14 17 6
45 -13 45 -8 0 -13 10 -13 23 1 26 -40 38 -50 13z"/>
<path d="M1123 1270 c3 -10 0 -21 -7 -24 -6 -2 -2 -4 10 -3 16 1 19 6 16 24
-2 13 -9 23 -14 23 -6 0 -8 -9 -5 -20z"/>
<path d="M960 1230 c8 -5 20 -10 25 -10 6 0 3 5 -5 10 -8 5 -19 10 -25 10 -5
0 -3 -5 5 -10z"/>
<path d="M390 730 c8 -5 20 -10 25 -10 6 0 3 5 -5 10 -8 5 -19 10 -25 10 -5 0
-3 -5 5 -10z"/>
<path d="M218 695 c3 -19 8 -23 15 -16 8 8 7 16 -5 27 -14 14 -15 14 -10 -11z"/>
<path d="M1224 472 c5 -14 1 -18 -16 -18 -17 1 -24 -5 -26 -21 -3 -21 7 -28
31 -24 5 1 6 -7 3 -17 -9 -27 19 -49 40 -31 8 7 13 21 11 30 -3 10 -2 18 2 17
23 -3 32 5 29 25 -2 16 -9 22 -25 21 -26 -1 -29 6 -11 24 9 9 6 12 -16 12 -22
0 -26 -4 -22 -18z"/>
<path d="M1018 398 c11 -13 24 -36 28 -52 l7 -30 -28 22 c-15 12 -36 22 -47
22 -25 0 -68 -44 -68 -70 0 -46 76 -80 108 -48 17 17 15 -2 -2 -21 -39 -45
-13 -111 44 -111 58 0 82 53 49 108 -12 20 -16 31 -9 25 25 -23 30 -14 30 47
0 33 -3 60 -8 60 -4 0 -18 -7 -31 -16 -23 -16 -23 -16 -16 7 4 13 15 36 26 52
l20 27 -62 0 -62 0 21 -22z"/>
<path d="M1190 320 c0 -11 7 -23 16 -27 13 -5 12 -8 -5 -24 -48 -45 -51 -170
-6 -215 30 -30 47 -30 82 0 24 21 28 32 31 92 3 75 -10 113 -44 128 -11 5 -28
22 -37 38 -19 33 -37 37 -37 8z m70 -86 c22 -58 6 -174 -24 -174 -7 0 -17 7
-20 16 -8 20 -8 148 0 168 9 24 33 19 44 -10z"/>
</g>
</svg>
