<?xml version="1.0" standalone="no"?>
<!DOCTYPE svg PUBLIC "-//W3C//DTD SVG 20010904//EN"
 "http://www.w3.org/TR/2001/REC-SVG-20010904/DTD/svg10.dtd">
<svg version="1.0" xmlns="http://www.w3.org/2000/svg"
 width="135.000000pt" height="196.000000pt" viewBox="0 0 135.000000 196.000000"
 preserveAspectRatio="xMidYMid meet">
<metadata>
Created by potrace 1.16, written by Peter Selinger 2001-2019
</metadata>
<g transform="translate(0.000000,196.000000) scale(0.100000,-0.100000)"
fill="#000000" stroke="none">
<path d="M17 1942 c-16 -17 -17 -98 -17 -965 0 -846 2 -947 16 -961 14 -14 87
-16 655 -16 422 0 647 4 660 10 19 10 19 32 19 965 0 854 -2 955 -16 969 -14
14 -87 16 -658 16 -610 0 -644 -1 -659 -18z m44 -42 c5 0 9 -49 9 -110 0 -67
-4 -110 -10 -110 -5 0 -10 -4 -10 -10 0 -5 18 -10 40 -10 22 0 40 5 40 10 0 6
-4 10 -10 10 -5 0 -10 19 -9 43 l0 42 27 -52 c22 -45 30 -53 54 -53 15 0 28 5
28 10 0 6 -4 10 -8 10 -5 0 -23 31 -41 69 l-34 69 24 41 c12 22 29 41 37 41 8
0 12 6 8 15 -5 13 60 15 547 15 417 0 556 -3 565 -12 9 -9 12 -231 12 -939 0
-830 -2 -929 -16 -943 -14 -14 -85 -16 -636 -16 -564 0 -623 2 -640 17 -17 15
-18 58 -18 943 0 727 3 929 13 939 10 10 13 9 15 -3 2 -9 8 -16 13 -16z m92
12 c2 -11 -6 -37 -19 -58 l-24 -39 0 43 c0 24 5 42 11 42 6 0 9 7 5 15 -3 9 0
15 8 15 8 0 16 -8 19 -18z"/>
<path d="M463 1913 c201 -3 237 -6 237 -18 0 -8 -6 -15 -14 -15 -24 0 -29 -20
-10 -35 18 -14 18 -14 -3 -15 -12 0 -27 -2 -35 -3 -7 -2 -10 -2 -5 0 12 7 8
40 -6 52 -19 15 -30 1 -14 -17 7 -10 8 -13 1 -9 -7 4 -11 0 -10 -10 0 -10 -8
-19 -19 -21 -16 -4 -17 -2 -7 11 10 12 8 18 -14 32 -25 16 -28 16 -39 1 -7 -9
-20 -16 -29 -16 -23 0 -20 -13 8 -39 47 -44 43 -132 -7 -170 -11 -8 -17 -21
-14 -32 3 -12 0 -19 -10 -19 -8 0 -20 -13 -26 -30 -6 -16 -15 -30 -20 -30 -4
0 -5 6 -1 13 5 7 1 7 -10 -2 -10 -8 -15 -23 -13 -33 3 -10 2 -16 -3 -13 -13 8
-130 -178 -130 -207 0 -9 -11 -37 -24 -62 l-24 -45 -6 67 c-4 37 -9 84 -12
104 -4 29 -1 41 15 55 21 17 27 43 14 56 -3 4 -12 -1 -20 -11 -14 -16 -14 -16
-9 0 7 22 -31 108 -48 108 -7 0 -12 10 -12 23 1 17 -5 22 -24 22 -18 0 -25 -5
-25 -20 0 -11 -8 -23 -17 -27 -10 -4 -18 -17 -18 -28 0 -19 10 -24 38 -21 16
2 16 -16 0 -22 -7 -3 3 -5 22 -5 19 0 29 2 23 5 -19 7 -15 22 5 20 14 -1 18
-9 18 -34 -1 -32 -16 -49 -16 -18 0 8 -4 15 -10 15 -18 0 -11 -43 10 -66 20
-20 20 -26 10 -130 -6 -60 -14 -118 -19 -129 -33 -77 -33 -77 -12 -99 12 -11
21 -15 21 -9 0 7 9 9 23 5 22 -6 22 -6 -3 -12 -19 -5 -25 -12 -23 -31 3 -41
-8 -103 -17 -89 -5 7 -6 20 -2 28 3 10 1 13 -6 8 -7 -4 -10 -22 -7 -41 2 -19
-1 -37 -6 -41 -7 -4 -10 27 -9 92 5 248 -1 504 -10 504 -7 0 -9 -238 -8 -707
l3 -708 525 0 c331 -1 435 1 281 5 -228 5 -243 6 -228 22 9 9 22 19 29 21 10
4 8 9 -4 20 -19 15 -14 27 9 27 8 0 19 -13 24 -30 6 -16 17 -30 25 -30 16 0
18 23 5 48 -7 14 -4 17 14 18 17 1 22 -2 18 -14 -4 -8 2 -21 12 -28 25 -19 45
-18 45 2 0 11 6 14 20 9 28 -9 26 13 -5 45 -46 48 -41 151 8 166 14 5 18 13
15 35 -3 19 1 34 11 42 12 10 14 9 8 -7 -6 -16 -5 -17 8 -6 8 7 15 18 15 26 0
7 5 16 12 20 7 4 8 3 4 -4 -4 -7 -2 -12 3 -12 6 0 18 15 26 32 8 18 38 69 66
112 27 44 53 93 56 110 3 17 11 37 17 45 6 8 16 26 23 40 6 14 12 19 12 11 1
-9 6 -53 12 -100 9 -78 9 -86 -10 -111 -24 -32 -27 -54 -9 -65 7 -5 9 0 6 14
-6 21 17 51 29 38 3 -3 2 -6 -3 -6 -13 0 -9 -46 8 -90 14 -38 27 -52 41 -43 5
3 6 -3 3 -14 -9 -28 18 -50 40 -32 8 7 13 21 11 30 -3 10 -2 18 2 17 23 -3 32
5 29 25 -2 16 -9 22 -25 21 -26 -1 -29 6 -11 24 9 9 6 12 -16 12 -22 0 -26 -3
-21 -19 5 -15 2 -18 -13 -15 -13 4 -18 15 -18 41 0 29 2 32 12 19 16 -23 24
-20 24 9 0 14 -6 28 -14 31 -8 3 -17 12 -20 20 -11 29 15 228 35 273 15 32 17
47 9 55 -8 8 -10 7 -5 -5 4 -10 2 -20 -4 -24 -6 -3 -11 2 -12 12 0 10 -3 13
-5 6 -6 -13 -34 -6 -34 8 0 4 6 6 13 3 8 -3 25 4 38 15 19 16 22 22 12 32 -11
11 -13 9 -13 -6 0 -33 -13 -7 -16 34 -2 22 1 43 6 46 6 3 10 1 10 -6 0 -23 11
-1 15 30 5 35 -11 43 -18 9 -4 -22 -4 -22 -6 -2 0 11 8 29 20 40 l21 19 -2
-105 c-5 -258 0 -510 10 -510 7 0 10 243 10 710 l0 710 -527 -2 c-291 -2 -421
-4 -290 -5z m797 -275 l0 -273 -20 32 c-26 44 -54 56 -114 50 -44 -4 -56 -1
-93 24 -23 16 -45 29 -50 29 -5 0 -13 10 -18 23 -6 12 -20 23 -32 25 -13 2
-23 10 -23 18 0 7 -9 19 -20 26 -11 7 -20 18 -20 25 0 7 -4 13 -9 13 -5 0 -14
14 -20 30 -11 34 -22 41 -14 10 3 -11 1 -20 -4 -20 -5 0 -9 24 -8 54 0 45 6
62 33 100 18 25 38 46 45 46 8 0 8 3 0 11 -15 15 -75 -11 -68 -28 2 -7 -2 -13
-10 -13 -11 0 -13 8 -8 31 5 27 3 30 -13 27 -13 -2 -19 -12 -19 -29 0 -21 -3
-25 -22 -21 -22 4 -22 5 -6 18 17 13 17 15 1 28 -43 33 -23 36 247 36 l265 0
0 -272z m-547 225 c-7 -2 -19 -2 -25 0 -7 3 -2 5 12 5 14 0 19 -2 13 -5z m-86
-89 c-3 -3 -12 -4 -19 -1 -8 3 -5 6 6 6 11 1 17 -2 13 -5z m165 -22 c6 -6 -2
-12 -21 -15 -30 -6 -31 -8 -31 -62 0 -42 3 -55 15 -55 8 0 24 -9 35 -20 13
-13 15 -20 7 -20 -7 0 -18 5 -24 11 -14 14 -91 20 -99 8 -3 -5 -10 -9 -15 -9
-6 0 -7 4 -4 10 3 6 -1 7 -10 4 -11 -5 -14 -2 -9 10 3 9 1 16 -6 16 -6 0 -8
-4 -5 -10 3 -5 1 -10 -5 -10 -6 0 -14 10 -19 23 -13 35 -20 108 -10 101 5 -3
9 2 9 10 0 9 12 16 33 19 47 7 148 0 159 -11z m8 -32 c0 -5 -11 -9 -24 -8 -14
1 -22 6 -20 10 7 12 44 10 44 -2z m-233 -42 c-3 -8 -6 -5 -6 6 -1 11 2 17 5
13 3 -3 4 -12 1 -19z m227 -32 c-3 -9 -13 -16 -20 -16 -20 0 -29 27 -14 45 10
12 14 12 26 0 8 -7 11 -21 8 -29z m-224 4 c0 -5 -4 -10 -10 -10 -5 0 -10 5
-10 10 0 6 5 10 10 10 6 0 10 -4 10 -10z m267 -14 c-4 -9 1 -17 11 -19 16 -4
16 -5 0 -6 -19 -1 -32 14 -23 29 9 15 18 12 12 -4z m-310 -2 c-3 -3 -12 -4
-19 -1 -8 3 -5 6 6 6 11 1 17 -2 13 -5z m148 -53 c20 6 44 8 53 6 9 -3 4 -5
-13 -6 -21 -1 -26 -4 -16 -10 7 -5 11 -13 7 -19 -3 -6 4 -9 18 -8 13 0 22 4
19 8 -2 5 0 15 5 24 8 14 10 14 21 0 8 -9 20 -16 27 -16 20 0 17 -17 -7 -41
-11 -11 -18 -27 -15 -35 3 -9 1 -12 -4 -9 -6 3 -10 12 -10 18 0 23 -40 16 -56
-9 -21 -31 -38 -20 -31 21 3 17 2 38 -3 45 -5 9 -8 3 -9 -16 -1 -69 -1 -70
-12 -54 -8 11 -12 12 -15 3 -4 -10 -8 -10 -19 0 -8 8 -10 16 -3 24 6 8 2 13
-12 18 -20 6 -20 7 -3 20 10 7 21 11 25 9 10 -6 11 10 1 19 -3 4 -12 2 -18 -3
-9 -7 -16 -6 -24 4 -8 9 -8 16 -2 20 6 4 7 14 4 22 -3 9 8 3 25 -14 29 -28 34
-30 67 -21z m-130 9 c-3 -5 -15 -10 -26 -10 -11 0 -17 5 -14 10 3 6 15 10 26
10 11 0 17 -4 14 -10z m330 -10 c-28 -12 -37 -12 -30 0 3 6 16 10 28 9 21 0
21 -1 2 -9z m-395 -4 c0 -3 -4 -8 -10 -11 -5 -3 -10 -1 -10 4 0 6 5 11 10 11
6 0 10 -2 10 -4z m10 -30 c0 -2 -8 -10 -17 -17 -16 -13 -17 -12 -4 4 13 16 21
21 21 13z m340 -16 c0 -5 -2 -10 -4 -10 -3 0 -8 5 -11 10 -3 6 -1 10 4 10 6 0
11 -4 11 -10z m130 -29 c0 -21 -13 -4 -17 22 -2 17 -1 19 7 7 5 -8 10 -21 10
-29z m-315 -50 l30 -9 -32 -1 c-28 -1 -36 6 -63 47 l-31 47 33 -38 c18 -21 47
-42 63 -46z m-455 12 c0 -22 -2 -25 -10 -13 -13 20 -13 40 0 40 6 0 10 -12 10
-27z m606 -1 c-17 -16 -18 -16 -5 5 7 12 15 20 18 17 3 -2 -3 -12 -13 -22z
m210 6 c4 -6 0 -16 -9 -23 -18 -13 -24 -41 -7 -30 6 4 10 -8 10 -29 0 -27 -3
-34 -15 -30 -21 8 -20 -25 1 -41 9 -6 15 -20 13 -30 -3 -14 -9 -9 -24 21 -11
21 -29 47 -40 57 -19 16 -19 18 -2 31 9 7 17 21 17 30 0 9 6 16 14 16 8 0 18
5 22 12 4 7 3 8 -4 4 -13 -8 -17 6 -5 17 10 10 21 8 29 -5z m-271 -18 c-3 -5
-10 -10 -16 -10 -5 0 -9 5 -9 10 0 6 7 10 16 10 8 0 12 -4 9 -10z m-510 -20
c-3 -5 -12 -10 -18 -10 -7 0 -6 4 3 10 19 12 23 12 15 0z m973 -6 c39 -27 56
-73 56 -149 -1 -39 -6 -80 -13 -90 -11 -19 -11 -18 -9 6 2 14 -3 34 -11 43
-12 14 -11 19 5 31 19 15 19 15 -1 30 -16 13 -17 19 -8 35 10 15 10 26 0 49
-12 29 -14 30 -31 13 -16 -16 -17 -16 -11 9 6 24 4 26 -30 25 -35 -1 -36 -2
-31 -31 6 -28 6 -28 -8 -10 -19 25 -20 42 -3 48 26 11 73 6 95 -9z m-530 -1
c-10 -2 -26 -2 -35 0 -10 3 -2 5 17 5 19 0 27 -2 18 -5z m55 0 c-7 -2 -19 -2
-25 0 -7 3 -2 5 12 5 14 0 19 -2 13 -5z m433 -39 c-3 -9 -6 -25 -7 -37 -1 -20
-2 -20 -9 3 -13 39 -11 50 6 50 11 0 14 -5 10 -16z m-969 -41 c-3 -10 -5 -4
-5 12 0 17 2 24 5 18 2 -7 2 -21 0 -30z m346 -15 c-5 -60 20 -112 60 -128 15
-6 17 -9 6 -9 -23 -1 -66 45 -80 86 -11 34 -5 103 10 103 4 0 6 -24 4 -52z
m661 1 c-23 -26 -30 -16 -14 22 11 26 15 28 22 14 7 -12 5 -22 -8 -36z m-81 4
c5 -26 4 -26 -9 -8 -15 21 -19 49 -5 41 5 -3 11 -18 14 -33z m-187 15 c4 -6 0
-16 -8 -22 -8 -6 -15 -14 -16 -19 -2 -25 -10 -32 -23 -19 -12 11 -11 15 3 26
10 7 15 16 12 19 -8 7 4 27 16 27 5 0 12 -5 16 -12z m-61 -18 c3 -5 1 -10 -4
-10 -6 0 -11 5 -11 10 0 6 2 10 4 10 3 0 8 -4 11 -10z m-415 -4 c0 -2 -8 -10
-17 -17 -16 -13 -17 -12 -4 4 13 16 21 21 21 13z m124 -12 c3 -8 2 -12 -4 -9
-6 3 -10 10 -10 16 0 14 7 11 14 -7z m451 6 c3 -5 1 -10 -4 -10 -6 0 -11 5
-11 10 0 6 2 10 4 10 3 0 8 -4 11 -10z m65 -14 c0 -8 -9 -16 -20 -19 -11 -3
-18 -2 -17 1 2 4 7 15 10 25 7 20 27 14 27 -7z m-893 -18 c-3 -8 -6 -5 -6 6
-1 11 2 17 5 13 3 -3 4 -12 1 -19z m761 -18 c12 -16 22 -33 22 -37 -1 -4 -20
-23 -43 -40 -38 -30 -43 -31 -54 -16 -18 24 -16 28 13 31 15 1 23 -2 19 -8 -4
-6 -11 -7 -17 -4 -7 4 -8 2 -4 -4 5 -9 13 -9 26 -2 23 13 35 30 20 30 -6 0 -8
5 -4 11 4 8 9 7 15 -2 7 -11 9 -11 9 2 0 9 -9 24 -20 34 -11 10 -20 22 -20 27
0 17 17 7 38 -22z m-364 -6 c4 -15 5 -29 1 -32 -3 -3 -5 2 -5 11 0 10 -7 17
-15 17 -16 0 -20 12 -8 23 12 13 21 7 27 -19z m133 20 c-3 -3 -12 -4 -19 -1
-8 3 -5 6 6 6 11 1 17 -2 13 -5z m438 -25 c0 -27 -29 -39 -38 -15 -4 10 -1 13
9 9 7 -3 14 0 14 6 0 6 -5 11 -11 11 -5 0 -7 5 -4 11 11 17 30 4 30 -22z
m-289 9 c4 -6 -1 -17 -11 -25 -18 -12 -18 -15 -2 -61 22 -61 21 -117 -2 -168
-30 -65 -92 -117 -129 -107 -29 7 -28 19 2 27 34 8 93 78 106 126 7 26 8 52 2
74 -6 20 -6 39 0 49 7 13 5 17 -6 17 -10 0 -13 -6 -10 -15 4 -8 -1 -17 -10
-21 -9 -3 -16 -15 -16 -25 0 -11 -7 -19 -16 -19 -9 0 -12 -5 -8 -12 4 -6 0
-16 -8 -22 -8 -6 -17 -19 -21 -28 -8 -22 -23 -23 -31 -2 -4 10 0 18 13 21 12
3 17 11 14 19 -3 8 2 17 11 20 9 3 16 15 16 25 0 10 7 19 15 19 9 0 12 6 9 15
-4 8 1 17 10 21 9 3 16 15 16 25 0 11 7 19 16 19 8 0 12 5 9 10 -7 12 2 30 15
30 5 0 12 -5 16 -12z m49 2 c3 -5 -1 -10 -10 -10 -9 0 -13 5 -10 10 3 6 8 10
10 10 2 0 7 -4 10 -10z m105 -10 c0 -5 -2 -10 -4 -10 -3 0 -8 5 -11 10 -3 6
-1 10 4 10 6 0 11 -4 11 -10z m51 -41 c-12 -10 -21 -29 -21 -43 0 -14 -4 -26
-10 -26 -17 0 -22 47 -10 84 11 35 12 35 37 19 l25 -17 -21 -17z m-374 25 c-3
-3 -12 -4 -19 -1 -8 3 -5 6 6 6 11 1 17 -2 13 -5z m-517 -34 c0 -16 -4 -30 -8
-30 -5 0 -7 14 -4 30 2 17 6 30 8 30 2 0 4 -13 4 -30z m266 6 c9 -19 9 -23 -1
-19 -14 5 -28 43 -17 43 4 0 12 -11 18 -24z m754 -20 c-1 -29 -1 -30 -15 -12
-20 26 -20 57 0 50 9 -4 15 -19 15 -38z m-833 2 c-3 -7 -5 -2 -5 12 0 14 2 19
5 13 2 -7 2 -19 0 -25z m322 10 c4 -12 6 -31 3 -42 -5 -19 -6 -19 -13 2 -10
28 -23 29 -16 2 6 -25 1 -26 -11 -2 -11 19 2 62 18 62 6 0 14 -10 19 -22z m37
7 c7 -18 -3 -65 -14 -65 -4 0 -8 18 -8 40 -1 40 11 54 22 25z m374 -14 c-14
-27 -30 -36 -30 -17 0 8 8 20 18 25 23 14 24 14 12 -8z m-330 0 c0 -5 -7 -14
-15 -21 -13 -10 -15 -9 -15 9 0 12 6 21 15 21 8 0 15 -4 15 -9z m389 -61 c1
-3 -8 -6 -19 -6 -22 0 -23 1 -13 47 l6 33 13 -34 c7 -19 13 -37 13 -40z m38
-6 c-7 -7 -34 30 -42 56 -6 19 -1 16 19 -14 15 -21 25 -40 23 -42z m37 1 c-14
-19 -31 -35 -36 -35 -5 0 2 14 16 31 14 17 29 43 33 57 7 25 8 26 11 5 2 -13
-8 -37 -24 -58z m-740 53 c-5 -8 -2 -9 10 -5 9 4 15 3 12 -2 -7 -11 22 -23 36
-14 7 4 8 1 3 -7 -6 -10 -3 -12 13 -8 14 4 20 2 15 -5 -4 -7 0 -8 11 -4 25 10
72 -3 54 -14 -10 -6 -10 -9 0 -9 6 0 12 -9 12 -19 0 -24 -33 -36 -57 -22 -10
6 -13 11 -8 11 13 0 -16 20 -30 20 -5 0 -3 -5 5 -10 9 -6 10 -10 3 -10 -7 0
-16 6 -20 13 -4 7 -25 23 -45 36 -38 23 -49 45 -25 54 18 8 19 8 11 -5z m616
-18 c0 -15 -42 -50 -53 -43 -5 3 2 12 17 20 14 7 26 18 26 23 0 6 2 10 5 10 3
0 5 -4 5 -10z m-806 -21 c27 -21 76 -107 76 -131 0 -10 -2 -10 -9 0 -15 25
-21 -13 -6 -42 12 -22 12 -34 -2 -79 -8 -28 -17 -54 -19 -56 -2 -3 -15 6 -29
19 -19 18 -25 34 -25 67 0 27 4 42 11 40 19 -4 17 43 -2 54 -10 5 -20 17 -22
26 -2 10 -3 6 -1 -9 2 -19 0 -26 -10 -22 -7 3 -16 -2 -19 -10 -7 -17 -32 -21
-41 -7 -3 5 -2 30 3 56 7 38 6 45 -5 41 -8 -3 -14 1 -14 9 0 18 31 20 48 3 7
-7 12 -23 12 -37 1 -23 2 -24 11 -8 9 15 7 23 -9 40 -10 12 -22 32 -25 45 -4
19 -1 22 23 22 15 0 39 -9 54 -21z m757 -40 c13 -10 18 -19 11 -19 -16 0 -62
45 -62 61 0 7 6 5 13 -5 7 -10 24 -27 38 -37z m-656 15 c9 -15 12 -23 6 -20
-11 7 -35 46 -28 46 3 0 12 -12 22 -26z m272 -46 c-2 -13 -4 -3 -4 22 0 25 2
35 4 23 2 -13 2 -33 0 -45z m43 52 c0 -5 -8 -10 -17 -10 -15 0 -16 2 -3 10 19
12 20 12 20 0z m-562 -12 c19 -19 14 -30 -8 -18 -11 6 -20 15 -20 20 0 14 14
12 28 -2z m869 -10 c17 -16 23 -32 23 -64 0 -23 -4 -44 -9 -46 -16 -6 -17 -53
-1 -53 17 0 25 -29 14 -53 -13 -28 -12 -51 2 -56 7 -3 16 0 20 6 5 7 2 8 -6 3
-10 -6 -11 2 -5 40 8 54 30 95 51 95 22 0 26 -22 15 -71 -11 -46 -6 -63 10
-39 8 12 9 11 7 -5 -2 -12 -11 -19 -22 -18 -14 1 -17 -4 -13 -23 4 -21 0 -24
-23 -24 -15 0 -39 9 -54 21 -29 23 -80 115 -71 129 3 5 1 11 -5 15 -5 3 -10
11 -10 18 0 6 6 2 14 -8 8 -11 12 -24 9 -29 -4 -5 -1 -6 6 -2 13 8 5 47 -11
57 -9 6 20 129 30 129 3 0 16 -10 29 -22z m-317 -2 c0 -3 -4 -8 -10 -11 -5 -3
-10 -1 -10 4 0 6 5 11 10 11 6 0 10 -2 10 -4z m100 -6 c0 -5 -4 -10 -10 -10
-5 0 -10 5 -10 10 0 6 5 10 10 10 6 0 10 -4 10 -10z m-670 -25 c4 3 19 0 32
-5 22 -10 22 -10 -5 -7 -15 3 -30 0 -33 -5 -10 -15 -23 13 -16 31 6 14 7 14
10 -2 2 -9 7 -15 12 -12z m1040 -9 c0 -3 -4 -8 -10 -11 -5 -3 -10 -1 -10 4 0
6 5 11 10 11 6 0 10 -2 10 -4z m-585 -16 c-3 -5 -2 -10 4 -10 5 0 11 5 13 11
2 5 11 7 21 3 14 -5 10 -10 -20 -25 -43 -22 -46 -23 -38 -9 3 6 1 10 -5 10 -7
0 -10 -6 -8 -12 3 -7 -8 -30 -24 -52 -15 -21 -28 -47 -28 -57 0 -27 -11 -50
-21 -43 -5 3 -9 0 -9 -5 0 -6 6 -11 14 -11 17 0 28 -51 14 -68 -9 -10 -14 -10
-22 -1 -8 8 -8 13 2 16 6 3 12 9 12 14 0 5 -6 8 -12 6 -9 -1 -14 14 -16 46 -4
59 24 123 74 167 33 29 62 41 49 20z m125 -23 c23 -19 23 -55 -1 -68 -28 -15
-34 -5 -15 23 9 12 16 27 16 33 0 5 -4 4 -9 -4 -10 -16 -31 -6 -31 15 0 17 20
18 40 1z m54 -18 c-3 -5 -10 -7 -15 -3 -5 3 -7 10 -3 15 3 5 10 7 15 3 5 -3 7
-10 3 -15z m414 -7 c3 -16 -2 -22 -16 -22 -15 0 -18 5 -14 25 5 30 26 28 30
-3z m-1021 2 c-3 -3 -12 -4 -19 -1 -8 3 -5 6 6 6 11 1 17 -2 13 -5z m468 -24
c-16 -30 -39 -43 -29 -15 4 9 0 15 -7 15 -18 1 20 30 38 30 11 0 10 -6 -2 -30z
m51 8 c4 -6 0 -16 -9 -23 -10 -7 -17 -20 -17 -29 0 -22 -24 -15 -28 7 -2 10 3
17 13 17 9 0 13 5 10 10 -7 12 2 30 15 30 5 0 12 -5 16 -12z m-493 -5 c-7 -2
-13 -13 -13 -23 0 -27 -17 -34 -25 -10 -8 26 1 40 28 39 12 0 16 -3 10 -6z
m391 -34 c-3 -5 -10 -7 -15 -3 -5 3 -7 10 -3 15 3 5 10 7 15 3 5 -3 7 -10 3
-15z m613 15 c-3 -3 -12 -4 -19 -1 -8 3 -5 6 6 6 11 1 17 -2 13 -5z m-2 -34
c3 -5 -3 -10 -15 -10 -12 0 -18 5 -15 10 3 6 10 10 15 10 5 0 12 -4 15 -10z
m-640 -9 c3 -5 1 -12 -5 -16 -5 -3 -10 1 -10 9 0 18 6 21 15 7z m81 -13 c4 -6
0 -16 -8 -22 -8 -6 -17 -19 -21 -28 -3 -10 -11 -18 -16 -18 -6 0 -8 -6 -5 -14
7 -19 -15 -31 -29 -16 -9 9 -8 14 6 24 9 7 17 21 17 30 0 9 7 16 16 16 8 0 12
5 9 10 -7 12 2 30 15 30 5 0 12 -5 16 -12z m-456 -8 c0 -5 -2 -10 -4 -10 -3 0
-8 5 -11 10 -3 6 -1 10 4 10 6 0 11 -4 11 -10z m492 -34 c-6 -48 -12 -46 -12
5 0 22 4 38 8 35 4 -3 6 -21 4 -40z m66 23 c18 -6 30 -15 27 -19 -7 -11 24
-22 37 -13 6 3 8 2 5 -4 -3 -5 10 -17 29 -28 38 -20 44 -40 14 -48 -13 -3 -18
-1 -13 6 4 7 0 8 -11 4 -9 -4 -15 -3 -12 2 7 11 -22 23 -36 14 -7 -4 -8 -1 -3
7 6 9 2 10 -15 5 -16 -5 -20 -4 -15 4 5 8 -2 10 -22 6 -19 -5 -24 -4 -15 3 11
7 9 10 -7 15 -29 7 -27 37 2 38 21 0 21 1 2 9 -29 13 -3 12 33 -1z m-434 -34
c14 -13 26 -29 26 -36 0 -6 -14 3 -30 21 -21 22 -36 31 -50 27 -11 -3 -18 -1
-14 4 10 16 41 9 68 -16z m346 15 c0 -5 -5 -10 -11 -10 -5 0 -7 5 -4 10 3 6 8
10 11 10 2 0 4 -4 4 -10z m560 -33 c0 -6 -9 -2 -20 8 -11 10 -20 23 -20 28 0
6 9 2 20 -8 11 -10 20 -23 20 -28z m-1055 23 c-28 -11 -45 -32 -61 -77 -11
-32 -13 -34 -14 -13 0 31 55 100 78 99 13 0 13 -2 -3 -9z m495 -14 c0 -2 -7
-6 -15 -10 -8 -3 -15 -1 -15 4 0 6 7 10 15 10 8 0 15 -2 15 -4z m320 -49 c0
-12 0 -11 -24 28 l-17 30 20 -24 c12 -13 21 -28 21 -34z m-707 19 c-15 -13
-30 -22 -32 -20 -7 7 31 44 46 44 8 0 2 -10 -14 -24z m668 7 c13 -16 12 -17
-3 -4 -10 7 -18 15 -18 17 0 8 8 3 21 -13z m-761 -14 c16 -29 9 -29 -17 -2
-16 16 -18 23 -8 23 8 0 19 -9 25 -21z m50 9 c0 -7 -3 -24 -7 -37 -6 -22 -6
-22 -19 9 -18 41 -18 40 6 40 11 0 20 -6 20 -12z m96 -67 c-7 -47 -19 -55 -46
-33 l-24 19 22 12 c16 8 22 21 22 44 1 31 1 31 16 12 10 -13 14 -32 10 -54z
m320 29 c1 -40 -11 -54 -23 -24 -5 13 10 64 19 64 2 0 4 -18 4 -40z m64 0 c0
-3 -6 -14 -13 -25 -19 -24 -37 -11 -37 28 0 30 1 30 16 11 15 -18 15 -18 10 6
-5 24 -4 24 9 6 8 -11 15 -23 15 -26z m-220 -19 c-1 -13 -2 -13 -11 2 -5 9
-18 17 -27 16 -14 0 -14 -2 3 -10 18 -8 18 -8 -5 -6 -19 1 -24 -2 -22 -15 1
-9 -3 -20 -9 -24 -9 -5 -10 -2 -6 9 3 10 2 17 -3 17 -6 0 -10 -6 -10 -12 1
-17 30 -56 30 -40 0 7 7 12 15 12 8 0 15 -4 15 -10 0 -5 -4 -10 -9 -10 -5 0
-11 -8 -13 -17 -2 -12 -10 -7 -32 22 l-29 38 44 38 c40 34 45 36 57 22 6 -9
12 -24 12 -32z m-362 9 c-2 -19 3 -35 12 -41 13 -8 12 -11 -4 -24 -19 -14 -19
-15 -1 -35 14 -16 15 -23 6 -34 -9 -11 -10 -20 -1 -36 6 -12 9 -26 7 -33 -8
-24 -38 56 -40 106 -1 53 10 127 19 127 3 0 4 -14 2 -30z m52 -23 c0 -33 -25
-12 -28 24 -2 32 -1 33 13 15 8 -11 15 -28 15 -39z m88 12 c-18 -12 -23 8 -6
28 12 15 13 15 16 -2 2 -10 -2 -21 -10 -26z m302 26 c0 -9 -7 -18 -15 -21 -8
-4 -13 -10 -10 -14 3 -5 -1 -14 -8 -22 -7 -7 -16 -21 -20 -31 -8 -20 -28 -19
-35 2 -2 7 5 15 16 18 14 3 18 11 15 24 -4 13 0 19 12 19 11 0 15 5 12 14 -7
16 1 26 20 26 7 0 13 -7 13 -15z m40 -10 c0 -8 -7 -15 -15 -15 -9 0 -12 6 -9
15 4 8 10 15 15 15 5 0 9 -7 9 -15z m572 -20 c-2 -19 -6 -35 -8 -35 -2 0 -4
16 -4 35 0 19 4 35 8 35 4 0 6 -16 4 -35z m-387 3 c49 -38 70 -123 41 -163
-12 -16 -13 -13 -8 33 6 64 -11 108 -52 133 -17 10 -26 19 -20 19 6 0 24 -10
39 -22z m192 -15 c-3 -10 -5 -4 -5 12 0 17 2 24 5 18 2 -7 2 -21 0 -30z m-70
-5 c-3 -8 -6 -5 -6 6 -1 11 2 17 5 13 3 -3 4 -12 1 -19z m-683 -14 c4 -9 2
-13 -5 -8 -6 4 -15 0 -20 -7 -5 -9 -3 -16 9 -21 14 -5 13 -7 -5 -7 -18 -1 -21
4 -18 27 2 15 4 28 4 30 3 9 30 -1 35 -14z m451 -4 c3 -5 -1 -10 -9 -10 -9 0
-16 5 -16 10 0 6 4 10 9 10 6 0 13 -4 16 -10z m115 -32 c0 -15 -28 -8 -34 8
-11 28 -6 34 14 17 11 -10 20 -21 20 -25z m-400 -62 c0 -13 -7 -26 -15 -30
-23 -8 -18 -25 10 -36 28 -10 32 -25 12 -37 -8 -4 -17 -16 -20 -27 -6 -15 -10
-16 -22 -6 -16 14 -11 30 10 30 8 0 11 7 8 21 -4 13 -8 16 -13 9 -4 -6 -7 7
-8 29 -2 32 1 39 13 35 23 -9 19 29 -5 44 -12 7 -18 17 -15 22 3 6 -1 10 -9
10 -9 0 -16 8 -16 18 0 12 10 7 35 -20 20 -22 35 -48 35 -62z m-240 69 c-10
-12 -10 -15 0 -15 8 0 11 -3 7 -6 -3 -3 -11 -3 -17 1 -8 5 -8 11 1 21 6 8 14
14 16 14 3 0 0 -7 -7 -15z m142 -30 c-6 -32 -20 -41 -29 -19 -4 11 1 22 12 30
24 18 23 18 17 -11z m865 3 c-3 -8 -6 -5 -6 6 -1 11 2 17 5 13 3 -3 4 -12 1
-19z m-674 5 c9 -9 -13 -34 -24 -27 -14 8 -11 34 4 34 8 0 17 -3 20 -7z m307
-24 c0 -6 -4 -7 -10 -4 -5 3 -10 11 -10 16 0 6 5 7 10 4 6 -3 10 -11 10 -16z
m-620 -40 c-9 -16 -14 -18 -20 -9 -5 8 -1 24 8 39 14 20 18 22 20 9 2 -10 -2
-27 -8 -39z m90 2 c0 -21 -16 -2 -24 29 -7 24 -6 24 8 6 9 -11 16 -27 16 -35z
m80 39 c0 -5 -2 -10 -4 -10 -3 0 -8 5 -11 10 -3 6 -1 10 4 10 6 0 11 -4 11
-10z m-126 -51 c5 -29 3 -36 -10 -36 -11 0 -14 6 -10 21 3 12 6 30 6 40 0 28
6 17 14 -25z m242 29 c4 -6 0 -16 -8 -22 -8 -6 -17 -19 -21 -29 -4 -10 -11
-15 -17 -12 -16 10 -12 35 6 35 8 0 12 5 9 10 -7 12 2 30 15 30 5 0 12 -5 16
-12z m197 5 c-7 -2 -21 -2 -30 0 -10 3 -4 5 12 5 17 0 24 -2 18 -5z m514 -40
c-3 -10 -5 -2 -5 17 0 19 2 27 5 18 2 -10 2 -26 0 -35z m-1034 -50 c24 -27 80
-40 111 -25 18 8 31 4 71 -23 28 -18 61 -44 74 -57 13 -12 20 -16 16 -8 -4 8
1 6 12 -5 10 -11 22 -28 26 -37 3 -10 16 -18 27 -18 12 0 18 -5 15 -10 -3 -6
1 -17 9 -26 9 -8 16 -21 16 -29 0 -7 7 -26 15 -41 20 -39 19 -44 -14 -95 -16
-24 -27 -47 -25 -51 3 -4 -2 -5 -10 -2 -9 3 -16 1 -16 -5 0 -12 14 -14 48 -4
17 4 22 11 19 25 -4 12 -1 18 6 15 7 -2 12 -15 12 -28 0 -35 18 -38 33 -6 14
28 26 34 37 17 3 -6 -1 -10 -9 -10 -18 0 -21 -16 -6 -25 5 -3 15 -15 20 -26
10 -19 5 -19 -260 -19 l-270 0 0 278 c1 208 3 272 12 257 6 -11 20 -30 31 -42z
m129 9 c-8 -22 -47 -32 -86 -21 -20 5 -36 12 -36 14 0 3 9 14 20 25 l21 21 -7
-26 c-6 -23 -4 -25 31 -25 36 0 37 1 32 30 -6 28 -6 29 12 12 9 -9 15 -23 13
-30z m395 32 c-3 -3 -12 -4 -19 -1 -8 3 -5 6 6 6 11 1 17 -2 13 -5z m548 -44
c3 -6 -1 -7 -9 -4 -18 7 -21 14 -7 14 6 0 13 -4 16 -10z m-570 -29 c-3 -6 -11
-8 -17 -5 -6 4 -5 9 3 15 16 10 23 4 14 -10z m97 11 c15 -6 68 -75 68 -89 0
-3 -9 4 -20 17 -11 13 -20 27 -20 31 0 5 -17 17 -37 28 -35 19 -29 28 9 13z
m448 -28 c0 -8 -4 -14 -10 -14 -5 0 -10 9 -10 21 0 11 5 17 10 14 6 -3 10 -13
10 -21z m-629 -7 c-10 -9 -11 -8 -5 6 3 10 9 15 12 12 3 -3 0 -11 -7 -18z m52
-21 c4 4 7 2 7 -5 0 -9 5 -9 20 -1 11 6 19 16 17 22 -1 7 6 14 16 16 13 3 17
-3 17 -25 0 -21 3 -24 9 -13 6 8 7 19 3 25 -3 5 2 4 11 -4 14 -11 17 -11 18 0
0 10 2 11 6 1 2 -6 10 -9 16 -5 7 4 7 1 -1 -9 -11 -14 -10 -17 8 -23 20 -6 20
-8 6 -24 -21 -23 -20 -32 2 -24 15 6 15 5 3 -10 -12 -15 -12 -17 2 -11 16 6
18 -19 2 -33 -4 -4 -5 -2 -1 5 4 6 2 12 -3 12 -13 0 -13 -7 -2 -74 7 -39 5
-53 -7 -65 -26 -27 -192 -28 -192 -2 0 6 10 11 23 13 19 3 22 10 25 56 2 37 7
52 18 52 7 0 14 -4 14 -9 0 -15 38 0 57 22 18 22 18 22 -2 6 -31 -24 -111 -19
-131 9 -17 25 -3 30 16 7 14 -17 100 -21 100 -5 0 6 9 10 20 10 11 0 20 -4 20
-10 0 -5 4 -10 10 -10 5 0 7 7 3 16 -4 11 -15 15 -38 12 -32 -4 -61 14 -50 31
3 5 -4 7 -15 4 -10 -3 -22 -14 -25 -24 -6 -19 -9 -19 -63 17 -9 6 21 44 30 38
7 -5 9 2 4 22 -6 28 -6 28 7 6 7 -12 16 -19 20 -16z m-98 -26 c3 -5 -1 -10 -9
-10 -9 0 -16 5 -16 10 0 6 4 10 9 10 6 0 13 -4 16 -10z m30 0 c3 -5 1 -10 -4
-10 -6 0 -11 5 -11 10 0 6 2 10 4 10 3 0 8 -4 11 -10z m350 -10 c-10 -11 -20
-18 -23 -15 -7 6 18 35 31 35 5 0 2 -9 -8 -20z m-375 -40 c0 -5 -4 -10 -10
-10 -5 0 -10 5 -10 10 0 6 5 10 10 10 6 0 10 -4 10 -10z m133 -7 c-7 -2 -19
-2 -25 0 -7 3 -2 5 12 5 14 0 19 -2 13 -5z m207 -3 c0 -5 -9 -10 -21 -10 -11
0 -17 5 -14 10 3 6 13 10 21 10 8 0 14 -4 14 -10z m-324 -45 c-3 -8 -1 -15 4
-15 6 0 10 -10 10 -22 0 -29 -17 -12 -24 25 -3 15 0 27 6 27 5 0 8 -7 4 -15z
m58 -1 c20 -8 21 -40 2 -47 -19 -7 -26 1 -26 30 0 25 1 26 24 17z m208 -26
c-7 -7 -12 -8 -12 -2 0 14 12 26 19 19 2 -3 -1 -11 -7 -17z m8 -22 c0 -3 -4
-8 -10 -11 -5 -3 -10 -1 -10 4 0 6 5 11 10 11 6 0 10 -2 10 -4z m-205 -36 c4
-6 -5 -10 -20 -10 -15 0 -24 4 -20 10 3 6 12 10 20 10 8 0 17 -4 20 -10z m202
-46 c-3 -3 -12 -4 -19 -1 -8 3 -5 6 6 6 11 1 17 -2 13 -5z m-40 -40 c-3 -3
-12 -4 -19 -1 -8 3 -5 6 6 6 11 1 17 -2 13 -5z m61 -59 c-3 -3 -9 2 -12 12 -6
14 -5 15 5 6 7 -7 10 -15 7 -18z m-168 1 c0 -3 -4 -8 -10 -11 -5 -3 -10 -1
-10 4 0 6 5 11 10 11 6 0 10 -2 10 -4z"/>
<path d="M623 1733 c-7 -2 -13 -10 -13 -16 0 -8 4 -7 12 1 15 15 82 16 72 1
-3 -6 -15 -9 -25 -6 -21 6 -58 -18 -46 -30 5 -4 24 -8 43 -8 29 0 34 3 34 22
0 13 6 23 13 23 8 0 7 4 -3 10 -16 10 -66 12 -87 3z"/>
<path d="M670 1629 c-12 -9 -12 -10 3 -5 10 3 27 1 38 -4 11 -6 19 -7 19 -1 0
8 -23 21 -38 21 -4 0 -14 -5 -22 -11z"/>
<path d="M954 1380 c0 -23 7 -25 24 -8 17 17 15 28 -6 28 -11 0 -18 -7 -18
-20z"/>
<path d="M850 1060 c0 -5 5 -10 10 -10 6 0 10 5 10 10 0 6 -4 10 -10 10 -5 0
-10 -4 -10 -10z"/>
<path d="M815 980 c-3 -5 -1 -10 4 -10 6 0 11 5 11 10 0 6 -2 10 -4 10 -3 0
-8 -4 -11 -10z"/>
<path d="M780 939 c0 -5 5 -7 10 -4 6 3 10 8 10 11 0 2 -4 4 -10 4 -5 0 -10
-5 -10 -11z"/>
<path d="M740 920 c0 -5 5 -10 10 -10 6 0 10 5 10 10 0 6 -4 10 -10 10 -5 0
-10 -4 -10 -10z"/>
<path d="M286 1112 c6 -30 11 -38 20 -29 4 4 2 13 -5 21 -9 11 -9 15 1 18 8 3
7 6 -4 11 -13 5 -16 1 -12 -21z"/>
<path d="M349 938 c-1 -2 -3 -15 -5 -30 -4 -35 12 -46 18 -13 3 14 1 25 -4 25
-5 0 -6 5 -3 10 3 6 4 10 1 10 -3 0 -7 -1 -7 -2z"/>
<path d="M998 1067 c-3 -16 0 -23 12 -24 13 -1 16 5 12 23 -6 30 -18 31 -24 1z"/>
<path d="M1086 894 c-4 -10 0 -24 9 -33 15 -15 16 -13 9 14 -9 38 -10 40 -18
19z"/>
<path d="M530 990 c0 -5 5 -10 10 -10 6 0 10 5 10 10 0 6 -4 10 -10 10 -5 0
-10 -4 -10 -10z"/>
<path d="M490 900 c0 -5 5 -10 10 -10 6 0 10 5 10 10 0 6 -4 10 -10 10 -5 0
-10 -4 -10 -10z"/>
<path d="M686 427 c3 -10 9 -15 12 -12 3 3 0 11 -7 18 -10 9 -11 8 -5 -6z"/>
<path d="M725 340 c3 -5 8 -10 11 -10 2 0 4 5 4 10 0 6 -5 10 -11 10 -5 0 -7
-4 -4 -10z"/>
<path d="M664 291 c-2 -2 -4 -13 -4 -23 0 -10 -5 -18 -11 -18 -5 0 -7 -4 -4
-10 7 -12 92 -14 98 -2 3 4 -15 5 -40 3 -33 -2 -44 0 -38 9 4 6 17 9 30 6 24
-6 54 18 41 32 -8 7 -65 10 -72 3z"/>
<path d="M270 1847 c-13 -7 -29 -25 -34 -40 -8 -22 -6 -33 13 -58 23 -30 23
-31 2 -24 -20 6 -21 3 -21 -54 0 -34 2 -61 5 -61 3 0 16 7 29 15 22 15 23 15
19 -9 -3 -13 -14 -34 -24 -45 l-20 -21 63 1 c35 0 57 3 50 6 -14 5 -42 55 -42
74 0 7 8 6 25 -5 33 -22 71 -20 95 4 51 51 -14 130 -80 97 l-28 -14 24 35 c44
64 -9 133 -76 99z"/>
<path d="M116 1031 c-4 -7 -5 -15 -2 -18 9 -9 19 4 14 18 -4 11 -6 11 -12 0z"/>
<path d="M1018 398 c11 -13 24 -36 28 -52 l7 -30 -28 22 c-15 12 -36 22 -47
22 -25 0 -68 -44 -68 -70 0 -46 76 -80 108 -48 17 17 15 -2 -2 -21 -39 -45
-13 -111 44 -111 58 0 82 53 49 108 -12 20 -16 31 -9 25 25 -23 30 -14 30 47
0 33 -3 60 -8 60 -4 0 -18 -7 -31 -16 -23 -16 -23 -16 -16 7 4 13 15 36 26 52
l20 27 -62 0 -62 0 21 -22z"/>
<path d="M1140 301 c0 -6 5 -13 10 -16 6 -4 24 -36 41 -73 30 -66 30 -67 12
-100 -10 -19 -26 -38 -36 -43 -23 -13 -12 -29 19 -29 18 0 25 5 23 18 -2 9 6
33 16 52 l20 35 3 -33 c2 -18 -1 -39 -7 -46 -15 -18 -4 -26 36 -26 23 0 33 5
33 15 0 8 -4 15 -10 15 -6 0 -10 42 -10 105 0 63 4 105 10 105 6 0 10 7 10 15
0 11 -11 15 -40 15 -38 0 -52 -12 -30 -25 6 -3 10 -25 9 -48 l-1 -42 -26 57
c-23 49 -31 57 -54 58 -16 0 -28 -4 -28 -9z"/>
</g>
</svg>
