<?xml version="1.0" standalone="no"?>
<!DOCTYPE svg PUBLIC "-//W3C//DTD SVG 20010904//EN"
 "http://www.w3.org/TR/2001/REC-SVG-20010904/DTD/svg10.dtd">
<svg version="1.0" xmlns="http://www.w3.org/2000/svg"
 width="135.000000pt" height="196.000000pt" viewBox="0 0 135.000000 196.000000"
 preserveAspectRatio="xMidYMid meet">
<metadata>
Created by potrace 1.16, written by Peter Selinger 2001-2019
</metadata>
<g transform="translate(0.000000,196.000000) scale(0.100000,-0.100000)"
fill="#000000" stroke="none">
<path d="M17 1942 c-16 -17 -17 -98 -17 -965 0 -846 2 -947 16 -961 14 -14 87
-16 655 -16 422 0 647 4 660 10 19 10 19 32 19 965 0 854 -2 955 -16 969 -14
14 -87 16 -658 16 -610 0 -644 -1 -659 -18z m72 -31 c-21 -17 -24 -29 -28
-106 -4 -105 9 -145 48 -145 41 0 51 18 51 86 0 67 -14 90 -50 81 -16 -4 -20
0 -20 22 0 15 7 36 15 47 15 19 15 19 35 -5 l20 -23 0 25 c0 16 -7 27 -17 30
-10 3 248 5 572 6 448 1 594 -2 603 -11 9 -9 12 -231 12 -939 0 -830 -2 -929
-16 -943 -14 -14 -85 -16 -636 -16 -564 0 -623 2 -640 17 -17 15 -18 58 -18
943 0 707 3 929 12 938 7 7 27 12 46 12 l34 0 -23 -19z m39 -162 c3 -61 -11
-95 -28 -69 -11 17 -13 90 -4 115 12 31 29 8 32 -46z"/>
<path d="M983 1768 c-6 -13 -32 -43 -59 -68 l-49 -45 56 -55 c31 -30 59 -62
62 -70 5 -12 8 -11 18 5 6 11 36 44 65 73 30 28 50 52 46 52 -10 0 -73 60
-103 98 l-25 33 -11 -23z"/>
<path d="M321 1734 c-18 -24 -46 -51 -60 -60 l-27 -16 66 -67 65 -66 26 35
c30 42 85 90 102 90 7 0 -1 8 -18 19 -16 10 -49 39 -73 64 -23 26 -43 47 -45
47 -1 0 -17 -21 -36 -46z"/>
<path d="M93 1570 l-22 -27 25 -24 25 -23 24 25 25 25 -27 26 -28 26 -22 -28z"/>
<path d="M339 1144 c-7 -15 -34 -45 -60 -68 l-46 -42 38 -29 c21 -16 51 -46
65 -67 l27 -38 17 27 c9 16 37 47 62 69 l45 42 -49 42 c-27 23 -54 53 -60 66
-14 31 -21 30 -39 -2z"/>
<path d="M976 1139 c-9 -16 -36 -45 -59 -65 l-42 -36 64 -63 63 -64 24 27 c13
15 24 30 24 34 0 5 17 20 38 35 l37 28 -66 66 -67 66 -16 -28z"/>
<path d="M300 410 l-65 -66 67 -66 c55 -53 68 -62 73 -48 3 10 29 40 58 67
l53 50 -44 38 c-25 21 -52 50 -61 65 l-16 26 -65 -66z"/>
<path d="M990 470 c0 -15 -91 -109 -111 -115 -20 -7 -19 -8 7 -24 16 -10 48
-39 71 -64 l43 -46 62 62 63 63 -67 66 c-38 36 -68 62 -68 58z"/>
<path d="M1214 443 l-20 -26 24 -24 25 -25 24 25 25 24 -27 27 c-14 14 -27 26
-28 25 -1 0 -11 -12 -23 -26z"/>
<path d="M1210 291 c-5 -11 -10 -44 -10 -75 0 -61 19 -91 52 -80 17 5 19 2 16
-27 -4 -43 -32 -61 -52 -34 -15 20 -15 20 -16 -3 0 -44 68 -42 88 3 18 39 15
186 -4 213 -19 27 -60 29 -74 3z m54 -17 c9 -24 7 -97 -4 -114 -9 -13 -11 -13
-20 0 -11 17 -14 113 -3 123 11 11 20 8 27 -9z"/>
</g>
</svg>
