<?xml version="1.0" standalone="no"?>
<!DOCTYPE svg PUBLIC "-//W3C//DTD SVG 20010904//EN"
 "http://www.w3.org/TR/2001/REC-SVG-20010904/DTD/svg10.dtd">
<svg version="1.0" xmlns="http://www.w3.org/2000/svg"
 width="135.000000pt" height="196.000000pt" viewBox="0 0 135.000000 196.000000"
 preserveAspectRatio="xMidYMid meet">
<metadata>
Created by potrace 1.16, written by Peter Selinger 2001-2019
</metadata>
<g transform="translate(0.000000,196.000000) scale(0.100000,-0.100000)"
fill="#FF0000" stroke="none">
<path d="M17 1942 c-16 -17 -17 -98 -17 -965 0 -846 2 -947 16 -961 14 -14 87
-16 655 -16 422 0 647 4 660 10 19 10 19 32 19 965 0 854 -2 955 -16 969 -14
14 -87 16 -658 16 -610 0 -644 -1 -659 -18z m1301 -24 c9 -9 12 -231 12 -939
0 -830 -2 -929 -16 -943 -14 -14 -85 -16 -636 -16 -564 0 -623 2 -640 17 -17
15 -18 58 -18 943 0 707 3 929 12 938 17 17 1269 17 1286 0z"/>
<path d="M61 1878 c0 -36 2 -39 9 -20 9 22 53 32 64 13 3 -4 -6 -48 -19 -97
-26 -94 -31 -124 -17 -109 11 13 62 205 62 233 0 20 -5 22 -50 22 l-50 0 1
-42z"/>
<path d="M983 1768 c-6 -13 -32 -43 -59 -68 l-49 -45 56 -55 c31 -30 59 -62
62 -70 5 -12 8 -11 18 5 6 11 36 44 65 73 30 28 50 52 46 52 -10 0 -73 60
-103 98 l-25 33 -11 -23z"/>
<path d="M321 1734 c-18 -24 -46 -51 -60 -60 l-27 -16 66 -67 65 -66 26 35
c30 42 85 90 102 90 7 0 -1 8 -18 19 -16 10 -49 39 -73 64 -23 26 -43 47 -45
47 -1 0 -17 -21 -36 -46z"/>
<path d="M93 1570 l-22 -27 25 -24 25 -23 24 25 25 25 -27 26 -28 26 -22 -28z"/>
<path d="M650 1314 c-13 -20 -41 -50 -62 -66 l-37 -30 47 -38 c26 -20 53 -49
61 -63 8 -15 17 -27 20 -27 3 0 17 16 31 36 13 20 41 50 61 66 l38 30 -42 32
c-23 18 -51 46 -62 64 -11 17 -22 31 -25 32 -3 0 -16 -16 -30 -36z"/>
<path d="M339 1144 c-7 -15 -34 -45 -60 -68 l-46 -42 38 -29 c21 -16 51 -46
65 -67 l27 -38 17 27 c9 16 37 47 62 69 l45 42 -49 42 c-27 23 -54 53 -60 66
-14 31 -21 30 -39 -2z"/>
<path d="M976 1139 c-9 -16 -36 -45 -59 -65 l-42 -36 64 -63 63 -64 24 27 c13
15 24 30 24 34 0 5 17 20 38 35 l37 28 -66 66 -67 66 -16 -28z"/>
<path d="M300 410 l-65 -66 67 -66 c55 -53 68 -62 73 -48 3 10 29 40 58 67
l53 50 -44 38 c-25 21 -52 50 -61 65 l-16 26 -65 -66z"/>
<path d="M990 470 c0 -15 -91 -109 -111 -115 -20 -7 -19 -8 7 -24 16 -10 48
-39 71 -64 l43 -46 62 62 63 63 -67 66 c-38 36 -68 62 -68 58z"/>
<path d="M1214 443 l-20 -26 24 -24 25 -25 24 25 25 24 -27 27 c-14 14 -27 26
-28 25 -1 0 -11 -12 -23 -26z"/>
<path d="M1246 258 c-61 -217 -61 -208 4 -208 l50 0 -1 43 c-1 23 -4 32 -6 20
-4 -19 -11 -23 -39 -23 -19 0 -34 2 -34 4 0 2 12 48 26 101 14 53 23 101 21
108 -2 7 -12 -14 -21 -45z"/>
</g>
</svg>
