<?xml version="1.0" standalone="no"?>
<!DOCTYPE svg PUBLIC "-//W3C//DTD SVG 20010904//EN"
 "http://www.w3.org/TR/2001/REC-SVG-20010904/DTD/svg10.dtd">
<svg version="1.0" xmlns="http://www.w3.org/2000/svg"
 width="135.000000pt" height="196.000000pt" viewBox="0 0 135.000000 196.000000"
 preserveAspectRatio="xMidYMid meet">
<metadata>
Created by potrace 1.16, written by Peter Selinger 2001-2019
</metadata>
<g transform="translate(0.000000,196.000000) scale(0.100000,-0.100000)"
fill="#000000" stroke="none">
<path d="M17 1942 c-16 -17 -17 -98 -17 -965 0 -846 2 -947 16 -961 14 -14 87
-16 655 -16 422 0 647 4 660 10 19 10 19 32 19 965 0 854 -2 955 -16 969 -14
14 -87 16 -658 16 -610 0 -644 -1 -659 -18z m65 -28 c-25 -17 -31 -81 -10
-102 8 -8 8 -15 -2 -27 -17 -20 -18 -88 -1 -109 16 -19 62 -21 79 -4 16 16 16
100 0 116 -9 9 -9 15 0 24 19 19 14 76 -8 98 l-20 20 593 0 c448 0 596 -3 605
-12 9 -9 12 -231 12 -939 0 -830 -2 -929 -16 -943 -14 -14 -85 -16 -636 -16
-564 0 -623 2 -640 17 -17 15 -18 58 -18 943 0 707 3 929 12 938 7 7 26 12 42
12 30 0 30 0 8 -16z m44 -29 c8 -33 -3 -77 -19 -72 -15 4 -21 40 -13 73 8 31
24 31 32 -1z m-1 -156 c0 -41 -4 -54 -15 -54 -16 0 -27 73 -16 102 13 33 31 5
31 -48z"/>
<path d="M983 1768 c-6 -13 -32 -43 -59 -68 l-49 -45 56 -55 c31 -30 59 -62
62 -70 5 -12 8 -11 18 5 6 11 36 44 65 73 30 28 50 52 46 52 -10 0 -73 60
-103 98 l-25 33 -11 -23z"/>
<path d="M321 1734 c-18 -24 -46 -51 -60 -60 l-27 -16 66 -67 65 -66 26 35
c30 42 85 90 102 90 7 0 -1 8 -18 19 -16 10 -49 39 -73 64 -23 26 -43 47 -45
47 -1 0 -17 -21 -36 -46z"/>
<path d="M93 1570 l-22 -27 25 -24 25 -23 24 25 25 25 -27 26 -28 26 -22 -28z"/>
<path d="M330 1314 c-13 -20 -41 -50 -61 -66 l-38 -30 42 -32 c23 -18 51 -46
62 -64 11 -17 22 -31 25 -31 3 0 22 23 43 50 21 27 49 55 62 61 14 6 25 14 25
17 0 3 -19 19 -41 35 -22 15 -50 43 -62 62 -12 19 -24 34 -27 34 -3 0 -16 -16
-30 -36z"/>
<path d="M970 1314 c-13 -20 -41 -50 -62 -66 l-37 -30 47 -38 c26 -20 53 -49
61 -63 8 -15 17 -27 20 -27 3 0 17 16 31 36 13 20 41 50 61 66 l38 30 -42 32
c-23 18 -51 46 -62 64 -11 17 -22 31 -25 32 -3 0 -16 -16 -30 -36z"/>
<path d="M337 880 c-10 -16 -37 -46 -61 -67 l-43 -37 46 -36 c25 -20 52 -49
60 -63 8 -15 18 -27 21 -27 4 0 20 18 36 41 15 23 43 51 61 63 l33 23 -55 46
c-29 26 -57 56 -60 67 -9 27 -18 25 -38 -10z"/>
<path d="M970 874 c-13 -20 -41 -50 -62 -67 l-38 -30 43 -33 c23 -18 51 -47
62 -64 11 -16 22 -30 25 -30 3 1 20 21 38 46 19 25 46 53 62 63 l29 17 -50 43
c-28 24 -55 54 -61 67 -15 31 -19 30 -48 -12z"/>
<path d="M300 410 l-65 -66 67 -66 c55 -53 68 -62 73 -48 3 10 29 40 58 67
l53 50 -44 38 c-25 21 -52 50 -61 65 l-16 26 -65 -66z"/>
<path d="M990 470 c0 -15 -91 -109 -111 -115 -20 -7 -19 -8 7 -24 16 -10 48
-39 71 -64 l43 -46 62 62 63 63 -67 66 c-38 36 -68 62 -68 58z"/>
<path d="M1214 443 l-20 -26 24 -24 25 -25 25 26 26 25 -28 26 c-15 14 -28 25
-29 24 -1 0 -11 -12 -23 -26z"/>
<path d="M1210 295 c-8 -9 -10 -33 -6 -67 7 -67 7 -65 0 -114 -4 -30 -2 -45
11 -57 22 -23 62 -21 75 2 12 24 13 71 0 91 -6 9 -5 19 2 28 15 18 14 97 -2
116 -16 20 -64 21 -80 1z m55 -61 c0 -37 -4 -49 -15 -49 -16 0 -27 63 -16 92
12 31 31 6 31 -43z m1 -98 c8 -33 2 -69 -13 -73 -16 -5 -27 39 -19 72 8 32 24
32 32 1z"/>
</g>
</svg>
