<svg xmlns="http://www.w3.org/2000/svg" xmlns:xlink="http://www.w3.org/1999/xlink" width="500" zoomAndPan="magnify" viewBox="0 0 375 374.999991" height="500" preserveAspectRatio="xMidYMid meet" version="1.0"><defs><g/><clipPath id="c0c2056f50"><path d="M 319 151 L 351.695312 151 L 351.695312 224 L 319 224 Z M 319 151 " clip-rule="nonzero"/></clipPath></defs><path fill="#212121" d="M 45.355469 269.59375 C 0.0273438 191.078125 26.921875 90.6875 105.4375 45.359375 C 183.949219 0.0273438 284.34375 26.925781 329.671875 105.441406 C 375 183.953125 348.097656 284.347656 269.589844 329.675781 C 191.074219 375.003906 90.683594 348.101562 45.355469 269.59375 " fill-opacity="1" fill-rule="nonzero"/><path fill="#f2f2f2" d="M 298.898438 308.140625 L 290.828125 297.636719 C 285.578125 290.804688 276.082031 288.921875 268.625 293.226562 L 238.503906 310.617188 C 231.042969 314.921875 227.929688 324.089844 231.222656 332.046875 L 236.285156 344.289062 C 247.664062 340.738281 258.832031 335.886719 269.589844 329.675781 C 280.34375 323.464844 290.132812 316.222656 298.898438 308.140625 " fill-opacity="1" fill-rule="nonzero"/><path fill="#f2f2f2" d="M 143.804688 332.046875 C 147.097656 324.089844 143.980469 314.921875 136.523438 310.617188 L 106.402344 293.226562 C 98.941406 288.921875 89.449219 290.804688 84.199219 297.636719 L 76.125 308.148438 C 94.261719 324.910156 115.746094 337.109375 138.75 344.257812 L 143.804688 332.046875 " fill-opacity="1" fill-rule="nonzero"/><path fill="#f2f2f2" d="M 55.410156 204.90625 L 55.410156 170.125 C 55.410156 161.511719 49.03125 154.230469 40.492188 153.105469 L 27.390625 151.371094 C 22.078125 174.875 21.902344 199.578125 27.347656 223.667969 L 40.492188 221.929688 C 49.03125 220.796875 55.410156 213.519531 55.410156 204.90625 " fill-opacity="1" fill-rule="nonzero"/><g clip-path="url(#c0c2056f50)"><path fill="#f2f2f2" d="M 319.613281 170.125 L 319.613281 204.90625 C 319.613281 213.519531 326 220.796875 334.53125 221.929688 L 347.636719 223.660156 C 352.945312 200.15625 353.125 175.453125 347.675781 151.367188 L 334.535156 153.105469 C 326 154.230469 319.613281 161.511719 319.613281 170.125 " fill-opacity="1" fill-rule="nonzero"/></g><path fill="#f2f2f2" d="M 290.828125 77.398438 L 298.902344 66.882812 C 280.761719 50.125 259.28125 37.925781 236.269531 30.773438 L 231.222656 42.984375 C 227.929688 50.945312 231.042969 60.109375 238.503906 64.414062 L 268.625 81.804688 C 276.082031 86.113281 285.578125 84.230469 290.828125 77.398438 " fill-opacity="1" fill-rule="nonzero"/><path fill="#f2f2f2" d="M 76.128906 66.890625 L 84.199219 77.398438 C 89.449219 84.230469 98.941406 86.113281 106.402344 81.804688 L 136.523438 64.414062 C 143.980469 60.109375 147.097656 50.945312 143.804688 42.984375 L 138.742188 30.738281 C 127.359375 34.292969 116.191406 39.148438 105.4375 45.359375 C 94.679688 51.566406 84.894531 58.808594 76.128906 66.890625 " fill-opacity="1" fill-rule="nonzero"/><path fill="#0f0f0f" d="M 306.945312 187.515625 C 306.945312 253.476562 253.472656 306.949219 187.511719 306.949219 C 121.550781 306.949219 68.082031 253.476562 68.082031 187.515625 C 68.082031 121.554688 121.550781 68.085938 187.511719 68.085938 C 253.472656 68.085938 306.945312 121.554688 306.945312 187.515625 " fill-opacity="1" fill-rule="nonzero"/><path fill="#f2f2f2" d="M 294.84375 187.515625 C 294.84375 246.792969 246.789062 294.847656 187.511719 294.847656 C 128.234375 294.847656 80.179688 246.792969 80.179688 187.515625 C 80.179688 128.238281 128.234375 80.183594 187.511719 80.183594 C 246.789062 80.183594 294.84375 128.238281 294.84375 187.515625 " fill-opacity="1" fill-rule="nonzero"/><path fill="#f2f2f2" d="M 226.050781 85.355469 C 217.835938 82.253906 209.234375 80.15625 200.488281 79.121094 L 201.691406 68.941406 C 211.261719 70.074219 220.675781 72.371094 229.667969 75.765625 Z M 148.632812 85.484375 L 144.984375 75.910156 C 153.960938 72.484375 163.367188 70.15625 172.925781 68.992188 L 174.164062 79.167969 C 165.429688 80.230469 156.835938 82.351562 148.632812 85.484375 Z M 269.085938 114.980469 C 263.234375 108.402344 256.601562 102.542969 249.363281 97.554688 L 255.175781 89.117188 C 263.085938 94.566406 270.34375 100.976562 276.742188 108.167969 Z M 105.710938 115.238281 L 98.035156 108.449219 C 104.40625 101.238281 111.644531 94.808594 119.539062 89.332031 L 125.378906 97.753906 C 118.15625 102.761719 111.539062 108.644531 105.710938 115.238281 Z M 293.46875 161.160156 C 291.359375 152.632812 288.203125 144.363281 284.089844 136.585938 L 293.152344 131.800781 C 297.652344 140.3125 301.105469 149.359375 303.417969 158.695312 Z M 81.46875 161.511719 L 71.515625 159.078125 C 73.796875 149.734375 77.222656 140.671875 81.695312 132.144531 L 90.769531 136.902344 C 86.6875 144.695312 83.554688 152.980469 81.46875 161.511719 Z M 303.480469 216.085938 L 293.527344 213.636719 C 295.617188 205.144531 296.671875 196.355469 296.671875 187.515625 L 296.671875 187.261719 L 306.921875 187.261719 L 306.921875 187.515625 C 306.921875 197.179688 305.765625 206.789062 303.480469 216.085938 Z M 71.578125 216.214844 C 69.285156 206.917969 68.113281 197.308594 68.109375 187.648438 L 78.355469 187.636719 C 78.363281 196.472656 79.433594 205.261719 81.527344 213.757812 Z M 276.90625 266.683594 L 269.234375 259.890625 C 275.082031 253.292969 280.113281 246.007812 284.199219 238.238281 L 293.269531 243.007812 C 288.800781 251.507812 283.296875 259.472656 276.90625 266.683594 Z M 98.199219 266.769531 C 91.800781 259.570312 86.292969 251.613281 81.8125 243.117188 L 90.878906 238.339844 C 94.972656 246.105469 100.011719 253.378906 105.859375 259.964844 Z M 229.917969 299.175781 L 226.277344 289.59375 C 234.476562 286.476562 242.308594 282.359375 249.546875 277.347656 L 255.378906 285.777344 C 247.457031 291.257812 238.894531 295.765625 229.917969 299.175781 Z M 145.234375 299.222656 C 136.25 295.820312 127.671875 291.320312 119.742188 285.84375 L 125.566406 277.410156 C 132.816406 282.414062 140.65625 286.53125 148.863281 289.636719 Z M 187.511719 306.921875 C 182.726562 306.921875 177.914062 306.640625 173.203125 306.074219 L 174.421875 295.902344 C 183.082031 296.933594 192.074219 296.929688 200.742188 295.882812 L 201.972656 306.054688 C 197.207031 306.632812 192.34375 306.921875 187.511719 306.921875 " fill-opacity="1" fill-rule="nonzero"/><path fill="#212121" d="M 187.503906 138.777344 C 187.503906 138.777344 138.683594 167.015625 138.683594 194.425781 C 138.683594 208.816406 150.355469 220.484375 164.75 220.484375 C 174.527344 220.484375 183.046875 215.101562 187.503906 207.132812 C 191.964844 215.101562 200.488281 220.484375 210.261719 220.484375 C 224.65625 220.484375 235.785156 208.808594 236.328125 194.425781 C 237.324219 167.871094 187.503906 138.777344 187.503906 138.777344 " fill-opacity="1" fill-rule="nonzero"/><path fill="#212121" d="M 194.195312 237.222656 L 195.605469 237.769531 C 191.898438 231.128906 189.355469 222.917969 188.25 214.03125 L 187.511719 208.097656 L 186.777344 214.03125 C 185.671875 222.917969 183.125 231.128906 179.417969 237.769531 L 180.832031 237.222656 C 185.226562 235.527344 189.800781 235.527344 194.195312 237.222656 " fill-opacity="1" fill-rule="nonzero"/><g fill="#000000" fill-opacity="1"><g transform="translate(156.40145, 123.801275)"><g><path d="M 4.828125 -20.09375 L 9.546875 -20.09375 L 9.546875 -2.0625 L 4.65625 -2.0625 L 4.65625 0 L 16.953125 0 L 16.953125 -2.0625 L 12.0625 -2.0625 L 12.0625 -23.421875 L 10.234375 -23.421875 C 8.953125 -22.484375 7.148438 -21.898438 4.828125 -21.671875 Z M 4.828125 -20.09375 "/></g></g></g><g fill="#000000" fill-opacity="1"><g transform="translate(177.368835, 123.801275)"><g><path d="M 10.09375 0.484375 C 11.519531 0.484375 12.726562 0.285156 13.71875 -0.109375 C 14.707031 -0.503906 15.488281 -1.015625 16.0625 -1.640625 C 16.632812 -2.273438 17.078125 -3.148438 17.390625 -4.265625 C 17.703125 -5.378906 17.90625 -6.484375 18 -7.578125 C 18.09375 -8.679688 18.140625 -10.054688 18.140625 -11.703125 C 18.140625 -13.359375 18.09375 -14.734375 18 -15.828125 C 17.90625 -16.921875 17.703125 -18.019531 17.390625 -19.125 C 17.078125 -20.238281 16.632812 -21.109375 16.0625 -21.734375 C 15.488281 -22.367188 14.707031 -22.882812 13.71875 -23.28125 C 12.726562 -23.675781 11.519531 -23.875 10.09375 -23.875 C 8.90625 -23.875 7.867188 -23.75 6.984375 -23.5 C 6.097656 -23.257812 5.367188 -22.867188 4.796875 -22.328125 C 4.234375 -21.796875 3.765625 -21.207031 3.390625 -20.5625 C 3.015625 -19.925781 2.734375 -19.109375 2.546875 -18.109375 C 2.359375 -17.109375 2.234375 -16.132812 2.171875 -15.1875 C 2.117188 -14.238281 2.09375 -13.078125 2.09375 -11.703125 C 2.09375 -10.328125 2.117188 -9.160156 2.171875 -8.203125 C 2.234375 -7.253906 2.359375 -6.28125 2.546875 -5.28125 C 2.734375 -4.28125 3.015625 -3.457031 3.390625 -2.8125 C 3.765625 -2.175781 4.234375 -1.585938 4.796875 -1.046875 C 5.367188 -0.515625 6.097656 -0.128906 6.984375 0.109375 C 7.867188 0.359375 8.90625 0.484375 10.09375 0.484375 Z M 10.09375 -1.578125 C 9.125 -1.578125 8.300781 -1.726562 7.625 -2.03125 C 6.945312 -2.332031 6.398438 -2.734375 5.984375 -3.234375 C 5.578125 -3.734375 5.269531 -4.429688 5.0625 -5.328125 C 4.851562 -6.222656 4.710938 -7.148438 4.640625 -8.109375 C 4.578125 -9.066406 4.546875 -10.265625 4.546875 -11.703125 C 4.546875 -13.148438 4.578125 -14.34375 4.640625 -15.28125 C 4.710938 -16.226562 4.851562 -17.148438 5.0625 -18.046875 C 5.269531 -18.953125 5.578125 -19.65625 5.984375 -20.15625 C 6.398438 -20.65625 6.945312 -21.054688 7.625 -21.359375 C 8.300781 -21.660156 9.125 -21.8125 10.09375 -21.8125 C 11.070312 -21.8125 11.90625 -21.660156 12.59375 -21.359375 C 13.28125 -21.054688 13.820312 -20.65625 14.21875 -20.15625 C 14.613281 -19.65625 14.921875 -18.953125 15.140625 -18.046875 C 15.367188 -17.148438 15.515625 -16.226562 15.578125 -15.28125 C 15.648438 -14.34375 15.6875 -13.148438 15.6875 -11.703125 C 15.6875 -10.265625 15.648438 -9.066406 15.578125 -8.109375 C 15.515625 -7.148438 15.367188 -6.222656 15.140625 -5.328125 C 14.921875 -4.429688 14.613281 -3.734375 14.21875 -3.234375 C 13.820312 -2.734375 13.28125 -2.332031 12.59375 -2.03125 C 11.90625 -1.726562 11.070312 -1.578125 10.09375 -1.578125 Z M 10.09375 -1.578125 "/></g></g></g><g fill="#000000" fill-opacity="1"><g transform="translate(198.336221, 123.801275)"><g><path d="M 10.09375 0.484375 C 11.519531 0.484375 12.726562 0.285156 13.71875 -0.109375 C 14.707031 -0.503906 15.488281 -1.015625 16.0625 -1.640625 C 16.632812 -2.273438 17.078125 -3.148438 17.390625 -4.265625 C 17.703125 -5.378906 17.90625 -6.484375 18 -7.578125 C 18.09375 -8.679688 18.140625 -10.054688 18.140625 -11.703125 C 18.140625 -13.359375 18.09375 -14.734375 18 -15.828125 C 17.90625 -16.921875 17.703125 -18.019531 17.390625 -19.125 C 17.078125 -20.238281 16.632812 -21.109375 16.0625 -21.734375 C 15.488281 -22.367188 14.707031 -22.882812 13.71875 -23.28125 C 12.726562 -23.675781 11.519531 -23.875 10.09375 -23.875 C 8.90625 -23.875 7.867188 -23.75 6.984375 -23.5 C 6.097656 -23.257812 5.367188 -22.867188 4.796875 -22.328125 C 4.234375 -21.796875 3.765625 -21.207031 3.390625 -20.5625 C 3.015625 -19.925781 2.734375 -19.109375 2.546875 -18.109375 C 2.359375 -17.109375 2.234375 -16.132812 2.171875 -15.1875 C 2.117188 -14.238281 2.09375 -13.078125 2.09375 -11.703125 C 2.09375 -10.328125 2.117188 -9.160156 2.171875 -8.203125 C 2.234375 -7.253906 2.359375 -6.28125 2.546875 -5.28125 C 2.734375 -4.28125 3.015625 -3.457031 3.390625 -2.8125 C 3.765625 -2.175781 4.234375 -1.585938 4.796875 -1.046875 C 5.367188 -0.515625 6.097656 -0.128906 6.984375 0.109375 C 7.867188 0.359375 8.90625 0.484375 10.09375 0.484375 Z M 10.09375 -1.578125 C 9.125 -1.578125 8.300781 -1.726562 7.625 -2.03125 C 6.945312 -2.332031 6.398438 -2.734375 5.984375 -3.234375 C 5.578125 -3.734375 5.269531 -4.429688 5.0625 -5.328125 C 4.851562 -6.222656 4.710938 -7.148438 4.640625 -8.109375 C 4.578125 -9.066406 4.546875 -10.265625 4.546875 -11.703125 C 4.546875 -13.148438 4.578125 -14.34375 4.640625 -15.28125 C 4.710938 -16.226562 4.851562 -17.148438 5.0625 -18.046875 C 5.269531 -18.953125 5.578125 -19.65625 5.984375 -20.15625 C 6.398438 -20.65625 6.945312 -21.054688 7.625 -21.359375 C 8.300781 -21.660156 9.125 -21.8125 10.09375 -21.8125 C 11.070312 -21.8125 11.90625 -21.660156 12.59375 -21.359375 C 13.28125 -21.054688 13.820312 -20.65625 14.21875 -20.15625 C 14.613281 -19.65625 14.921875 -18.953125 15.140625 -18.046875 C 15.367188 -17.148438 15.515625 -16.226562 15.578125 -15.28125 C 15.648438 -14.34375 15.6875 -13.148438 15.6875 -11.703125 C 15.6875 -10.265625 15.648438 -9.066406 15.578125 -8.109375 C 15.515625 -7.148438 15.367188 -6.222656 15.140625 -5.328125 C 14.921875 -4.429688 14.613281 -3.734375 14.21875 -3.234375 C 13.820312 -2.734375 13.28125 -2.332031 12.59375 -2.03125 C 11.90625 -1.726562 11.070312 -1.578125 10.09375 -1.578125 Z M 10.09375 -1.578125 "/></g></g></g><g fill="#000000" fill-opacity="1"><g transform="translate(156.40145, 275.829299)"><g><path d="M 4.828125 -20.09375 L 9.546875 -20.09375 L 9.546875 -2.0625 L 4.65625 -2.0625 L 4.65625 0 L 16.953125 0 L 16.953125 -2.0625 L 12.0625 -2.0625 L 12.0625 -23.421875 L 10.234375 -23.421875 C 8.953125 -22.484375 7.148438 -21.898438 4.828125 -21.671875 Z M 4.828125 -20.09375 "/></g></g></g><g fill="#000000" fill-opacity="1"><g transform="translate(177.368835, 275.829299)"><g><path d="M 10.09375 0.484375 C 11.519531 0.484375 12.726562 0.285156 13.71875 -0.109375 C 14.707031 -0.503906 15.488281 -1.015625 16.0625 -1.640625 C 16.632812 -2.273438 17.078125 -3.148438 17.390625 -4.265625 C 17.703125 -5.378906 17.90625 -6.484375 18 -7.578125 C 18.09375 -8.679688 18.140625 -10.054688 18.140625 -11.703125 C 18.140625 -13.359375 18.09375 -14.734375 18 -15.828125 C 17.90625 -16.921875 17.703125 -18.019531 17.390625 -19.125 C 17.078125 -20.238281 16.632812 -21.109375 16.0625 -21.734375 C 15.488281 -22.367188 14.707031 -22.882812 13.71875 -23.28125 C 12.726562 -23.675781 11.519531 -23.875 10.09375 -23.875 C 8.90625 -23.875 7.867188 -23.75 6.984375 -23.5 C 6.097656 -23.257812 5.367188 -22.867188 4.796875 -22.328125 C 4.234375 -21.796875 3.765625 -21.207031 3.390625 -20.5625 C 3.015625 -19.925781 2.734375 -19.109375 2.546875 -18.109375 C 2.359375 -17.109375 2.234375 -16.132812 2.171875 -15.1875 C 2.117188 -14.238281 2.09375 -13.078125 2.09375 -11.703125 C 2.09375 -10.328125 2.117188 -9.160156 2.171875 -8.203125 C 2.234375 -7.253906 2.359375 -6.28125 2.546875 -5.28125 C 2.734375 -4.28125 3.015625 -3.457031 3.390625 -2.8125 C 3.765625 -2.175781 4.234375 -1.585938 4.796875 -1.046875 C 5.367188 -0.515625 6.097656 -0.128906 6.984375 0.109375 C 7.867188 0.359375 8.90625 0.484375 10.09375 0.484375 Z M 10.09375 -1.578125 C 9.125 -1.578125 8.300781 -1.726562 7.625 -2.03125 C 6.945312 -2.332031 6.398438 -2.734375 5.984375 -3.234375 C 5.578125 -3.734375 5.269531 -4.429688 5.0625 -5.328125 C 4.851562 -6.222656 4.710938 -7.148438 4.640625 -8.109375 C 4.578125 -9.066406 4.546875 -10.265625 4.546875 -11.703125 C 4.546875 -13.148438 4.578125 -14.34375 4.640625 -15.28125 C 4.710938 -16.226562 4.851562 -17.148438 5.0625 -18.046875 C 5.269531 -18.953125 5.578125 -19.65625 5.984375 -20.15625 C 6.398438 -20.65625 6.945312 -21.054688 7.625 -21.359375 C 8.300781 -21.660156 9.125 -21.8125 10.09375 -21.8125 C 11.070312 -21.8125 11.90625 -21.660156 12.59375 -21.359375 C 13.28125 -21.054688 13.820312 -20.65625 14.21875 -20.15625 C 14.613281 -19.65625 14.921875 -18.953125 15.140625 -18.046875 C 15.367188 -17.148438 15.515625 -16.226562 15.578125 -15.28125 C 15.648438 -14.34375 15.6875 -13.148438 15.6875 -11.703125 C 15.6875 -10.265625 15.648438 -9.066406 15.578125 -8.109375 C 15.515625 -7.148438 15.367188 -6.222656 15.140625 -5.328125 C 14.921875 -4.429688 14.613281 -3.734375 14.21875 -3.234375 C 13.820312 -2.734375 13.28125 -2.332031 12.59375 -2.03125 C 11.90625 -1.726562 11.070312 -1.578125 10.09375 -1.578125 Z M 10.09375 -1.578125 "/></g></g></g><g fill="#000000" fill-opacity="1"><g transform="translate(198.336221, 275.829299)"><g><path d="M 10.09375 0.484375 C 11.519531 0.484375 12.726562 0.285156 13.71875 -0.109375 C 14.707031 -0.503906 15.488281 -1.015625 16.0625 -1.640625 C 16.632812 -2.273438 17.078125 -3.148438 17.390625 -4.265625 C 17.703125 -5.378906 17.90625 -6.484375 18 -7.578125 C 18.09375 -8.679688 18.140625 -10.054688 18.140625 -11.703125 C 18.140625 -13.359375 18.09375 -14.734375 18 -15.828125 C 17.90625 -16.921875 17.703125 -18.019531 17.390625 -19.125 C 17.078125 -20.238281 16.632812 -21.109375 16.0625 -21.734375 C 15.488281 -22.367188 14.707031 -22.882812 13.71875 -23.28125 C 12.726562 -23.675781 11.519531 -23.875 10.09375 -23.875 C 8.90625 -23.875 7.867188 -23.75 6.984375 -23.5 C 6.097656 -23.257812 5.367188 -22.867188 4.796875 -22.328125 C 4.234375 -21.796875 3.765625 -21.207031 3.390625 -20.5625 C 3.015625 -19.925781 2.734375 -19.109375 2.546875 -18.109375 C 2.359375 -17.109375 2.234375 -16.132812 2.171875 -15.1875 C 2.117188 -14.238281 2.09375 -13.078125 2.09375 -11.703125 C 2.09375 -10.328125 2.117188 -9.160156 2.171875 -8.203125 C 2.234375 -7.253906 2.359375 -6.28125 2.546875 -5.28125 C 2.734375 -4.28125 3.015625 -3.457031 3.390625 -2.8125 C 3.765625 -2.175781 4.234375 -1.585938 4.796875 -1.046875 C 5.367188 -0.515625 6.097656 -0.128906 6.984375 0.109375 C 7.867188 0.359375 8.90625 0.484375 10.09375 0.484375 Z M 10.09375 -1.578125 C 9.125 -1.578125 8.300781 -1.726562 7.625 -2.03125 C 6.945312 -2.332031 6.398438 -2.734375 5.984375 -3.234375 C 5.578125 -3.734375 5.269531 -4.429688 5.0625 -5.328125 C 4.851562 -6.222656 4.710938 -7.148438 4.640625 -8.109375 C 4.578125 -9.066406 4.546875 -10.265625 4.546875 -11.703125 C 4.546875 -13.148438 4.578125 -14.34375 4.640625 -15.28125 C 4.710938 -16.226562 4.851562 -17.148438 5.0625 -18.046875 C 5.269531 -18.953125 5.578125 -19.65625 5.984375 -20.15625 C 6.398438 -20.65625 6.945312 -21.054688 7.625 -21.359375 C 8.300781 -21.660156 9.125 -21.8125 10.09375 -21.8125 C 11.070312 -21.8125 11.90625 -21.660156 12.59375 -21.359375 C 13.28125 -21.054688 13.820312 -20.65625 14.21875 -20.15625 C 14.613281 -19.65625 14.921875 -18.953125 15.140625 -18.046875 C 15.367188 -17.148438 15.515625 -16.226562 15.578125 -15.28125 C 15.648438 -14.34375 15.6875 -13.148438 15.6875 -11.703125 C 15.6875 -10.265625 15.648438 -9.066406 15.578125 -8.109375 C 15.515625 -7.148438 15.367188 -6.222656 15.140625 -5.328125 C 14.921875 -4.429688 14.613281 -3.734375 14.21875 -3.234375 C 13.820312 -2.734375 13.28125 -2.332031 12.59375 -2.03125 C 11.90625 -1.726562 11.070312 -1.578125 10.09375 -1.578125 Z M 10.09375 -1.578125 "/></g></g></g></svg>